<svg xmlns="http://www.w3.org/2000/svg" width="32" height="25.999" viewBox="0 0 32 25.999">
  <path id="cam_4" d="M548,187a3.866,3.866,0,0,1-4-3.714V168.428a3.489,3.489,0,0,1,.423-1.661l2-3.714A4.043,4.043,0,0,1,550,161h8a4.043,4.043,0,0,1,3.578,2.053l.895,1.661H572a3.864,3.864,0,0,1,4,3.714v14.858A3.864,3.864,0,0,1,572,187Zm0-18.572v14.858h24V168.428H560l-2-3.714h-8Zm6,7.43a6.017,6.017,0,1,1,6,5.571A5.806,5.806,0,0,1,554,175.858Zm4,0A2.005,2.005,0,1,0,560,174,1.934,1.934,0,0,0,558,175.858Zm-6-7.43a2.005,2.005,0,1,1,2,1.857A1.934,1.934,0,0,1,552,168.428Z" transform="translate(-544 -161)" fill="#fff"/>
</svg>
