<svg xmlns="http://www.w3.org/2000/svg" width="23" height="20" viewBox="0 0 23 20">
  <path id="cam_2_1" d="M2.875,20A2.866,2.866,0,0,1,0,17.143V5.714A2.866,2.866,0,0,1,2.875,2.857H5.41l.643-1.278A2.877,2.877,0,0,1,8.625,0h5.749a2.876,2.876,0,0,1,2.572,1.579l.643,1.278h2.536A2.865,2.865,0,0,1,23,5.714V17.143A2.865,2.865,0,0,1,20.125,20Zm0-2.857H20.125V5.714H15.812L14.375,2.857H8.625L7.188,5.714H2.875Zm5.751-5.714A2.875,2.875,0,1,1,11.5,14.286,2.865,2.865,0,0,1,8.625,11.429Z" fill="#989898"/>
</svg>
