<svg xmlns="http://www.w3.org/2000/svg" xmlns:xlink="http://www.w3.org/1999/xlink" width="79.955" height="79.955" viewBox="0 0 79.955 79.955">
  <defs>
    <filter id="Ellipse_3" x="0" y="0" width="79.955" height="79.955" filterUnits="userSpaceOnUse">
      <feOffset dy="4" input="SourceAlpha"/>
      <feGaussianBlur stdDeviation="3" result="blur"/>
      <feFlood flood-color="#0c143d" flood-opacity="0.09"/>
      <feComposite operator="in" in2="blur"/>
      <feComposite in="SourceGraphic"/>
    </filter>
  </defs>
  <g id="Group_158" data-name="Group 158" transform="translate(-4 -601)">
    <g transform="matrix(1, 0, 0, 1, 4, 601)" filter="url(#Ellipse_3)">
      <circle id="Ellipse_3-2" data-name="Ellipse 3" cx="30.977" cy="30.977" r="30.977" transform="translate(9 5)" fill="#2386c9"/>
    </g>
    <path id="messaging" d="M19.049,23.273l-2.77-2.306H8.986a3,3,0,0,1-2.921-2.352,3.05,3.05,0,0,1-.076-.643V16.833l2.232-1.857h.764v3h8.371l3.608,2.995V10.483h-1.5V7.488h1.5a3,3,0,0,1,3,2.995V20.967a2.992,2.992,0,0,1-1.723,2.71,2.93,2.93,0,0,1-1.274.284A3.042,3.042,0,0,1,19.049,23.273ZM1.722,16.189A2.99,2.99,0,0,1,0,13.478V3A3,3,0,0,1,2.995,0H14.976a3,3,0,0,1,2.995,3v7.487a3,3,0,0,1-2.995,2.995H7.683L5.99,14.887l-1.078.9a3.036,3.036,0,0,1-1.917.69A2.912,2.912,0,0,1,1.722,16.189Zm1.272-2.71L5.99,10.993l.615-.509h8.371V3H2.995Z" transform="translate(32.029 625.028)" fill="#fff"/>
  </g>
</svg>
