<svg xmlns="http://www.w3.org/2000/svg" width="50" height="51" viewBox="0 0 50 51">
  <g id="Group_1727" data-name="Group 1727" transform="translate(-0.257)">
    <ellipse id="Ellipse_453" data-name="Ellipse 453" cx="25" cy="25.5" rx="25" ry="25.5" transform="translate(0.257)" fill="#9959ee"/>
    <path id="team" d="M27.579,11.565h-1l-1.49.784a2.211,2.211,0,0,0-.53-.218l-1.874-.469v-.213A3.124,3.124,0,0,0,24.021,8.9V8.119A3.2,3.2,0,0,0,21,4.894c-.084,0-.168,0-.251,0l.486-1.137L18.881,1.407l-1.389.9a7.524,7.524,0,0,0-1.665-.691L15.485,0h-3.39L11.752,1.62a7.516,7.516,0,0,0-1.665.691L8.7,1.407,6.344,3.761,6.822,4.9c-.018,0-.036,0-.054,0a3.115,3.115,0,0,0-3.21,3.112V8.9a3.123,3.123,0,0,0,1.334,2.552v.214l-1.222.306L1.455,10.676H0v9.217l4.376,1.459h.852l.106-.373,1.341.805a1.385,1.385,0,0,0,1.336,1.342,1.385,1.385,0,0,0,1.334,1.334A1.385,1.385,0,0,0,10.681,25.8a1.383,1.383,0,0,0,2.163,1.1l.394.348a1.354,1.354,0,0,0,.9.338h.082a1.354,1.354,0,0,0,1.352-1.336A1.353,1.353,0,0,0,16.9,24.909a1.353,1.353,0,0,0,1.334-1.336,1.368,1.368,0,0,0,1.336-1.365,1.3,1.3,0,0,0-.007-.133l8.014-4.007ZM23.131,8.119V8.9a2.233,2.233,0,0,1-1.113,1.925l-.222.129,0,1.408,2.222.555-4.892,2.575v-1.2a2.213,2.213,0,0,0-.637-1.55l1.527-.381V10.949L19.8,10.82A2.23,2.23,0,0,1,18.683,8.9v-.89a2.224,2.224,0,0,1,2.293-2.223,2.3,2.3,0,0,1,2.155,2.335ZM14.46,15.138l-2.014-.644a5.493,5.493,0,0,0-2.85-.13l-.255.056v-.132a1.334,1.334,0,0,1,1.011-1.295l2.548-.637V10.949l-.222-.128A2.23,2.23,0,0,1,11.565,8.9v-.89a2.224,2.224,0,0,1,2.293-2.223,2.3,2.3,0,0,1,2.155,2.335V8.9A2.233,2.233,0,0,1,14.9,10.821l-.222.129,0,1.408,2.548.637a1.334,1.334,0,0,1,1.011,1.295v1.667l-.11.058h-.273l-2.735-.781a2.8,2.8,0,0,0-.66-.094ZM9.441,6.658a4.89,4.89,0,0,1,8.679-.036,3.094,3.094,0,0,0-.327,1.385V8.9a3.123,3.123,0,0,0,1.334,2.552v.214l-1.779.445-1.78-.445v-.213A3.124,3.124,0,0,0,16.9,8.9V8.119a3.2,3.2,0,0,0-3.018-3.225,3.114,3.114,0,0,0-3.209,3.113V8.9a3.123,3.123,0,0,0,1.334,2.552v.214l-1.779.445-1.78-.445v-.213A3.124,3.124,0,0,0,9.786,8.9V8.119a3.279,3.279,0,0,0-.345-1.461ZM7.4,3.967,8.816,2.546l1.251.814.239-.147a6.638,6.638,0,0,1,1.926-.8l.274-.066L12.816.89h1.948l.309,1.459.274.065a6.644,6.644,0,0,1,1.926.8l.239.147,1.251-.814,1.419,1.42-.5,1.181a3.109,3.109,0,0,0-.939.624c-.018.018-.034.037-.052.055a5.777,5.777,0,0,0-9.811.027,3.138,3.138,0,0,0-.981-.7Zm-1.613,8.39V10.949l-.222-.128A2.23,2.23,0,0,1,4.448,8.9v-.89A2.224,2.224,0,0,1,6.741,5.784,2.3,2.3,0,0,1,8.9,8.119V8.9a2.233,2.233,0,0,1-1.113,1.925l-.222.129,0,1.408,1.526.381a2.213,2.213,0,0,0-.637,1.55v.329l-1.387.308L7.1,14.8l.017-.822L4.771,12.61ZM.889,11.565h.324l3.2,1.866L2.8,19.888.889,19.252Zm3.631,8.9-.876-.292L5.213,13.9l1.015.592v.127l-1.67,5.845Zm3.042,1.281a.5.5,0,0,1,.146-.353l.782-.782a.5.5,0,0,1,.705.705l-.782.782a.5.5,0,0,1-.851-.353ZM8.9,23.077a.5.5,0,0,1,.146-.353l.782-.782a.5.5,0,0,1,.705.705l-.782.782a.5.5,0,0,1-.851-.353Zm1.334,1.334a.5.5,0,0,1,.146-.353l.782-.782a.5.5,0,0,1,.705.705l-.782.782a.5.5,0,0,1-.851-.353Zm1.833,1.833a.5.5,0,0,1-.353-.851l.782-.782a.5.5,0,0,1,.705.705l-.782.782A.5.5,0,0,1,12.064,26.245Zm2.151.445h-.082a.461.461,0,0,1-.306-.116l-.333-.293.334-.334a1.383,1.383,0,0,0,.28-.413l.4.337a.464.464,0,0,1-.3.82Zm3.989-4h-.077a.477.477,0,0,1-.306-.111l-2.412-2.01-.57.684L17.182,23.2a.464.464,0,0,1-.3.82h-.1a.464.464,0,0,1-.3-.108L14.074,21.9l-.57.684,2.343,1.952a.464.464,0,0,1-.3.82.735.735,0,0,1-.468-.169l-.993-.828a1.384,1.384,0,0,0-1.194-.777,1.385,1.385,0,0,0-1.334-1.334,1.385,1.385,0,0,0-1.334-1.334,1.385,1.385,0,0,0-2.365-.933l-.782.782a1.371,1.371,0,0,0-.125.152l-1.366-.82,1.2-4.192,3-.668a4.582,4.582,0,0,1,2.387.108l.655.21-2.222,1.111a1.483,1.483,0,0,0-.823,1.333v.088a1.49,1.49,0,0,0,2.257,1.278l1.656-.993a.918.918,0,0,1,1.067.1l3.758,3.382a.479.479,0,0,1-.32.834Zm8.485-5.168L19.2,21.266c-.024-.026-.05-.05-.076-.074l-3.758-3.382a1.79,1.79,0,0,0-2.12-.205l-1.657.994a.6.6,0,0,1-.908-.515v-.088a.6.6,0,0,1,.332-.537l2.481-1.241a1.933,1.933,0,0,1,1.386-.129l2.8.8.677.017,8.342-4.391Zm0,0" transform="translate(11.307 14.113)" fill="#fff"/>
  </g>
</svg>
