<svg xmlns="http://www.w3.org/2000/svg" width="17.952" height="17.201" viewBox="0 0 17.952 17.201">
  <g id="Star_2_Copy_4" data-name="Star 2 Copy 4" transform="translate(-2.024 -1.63)">
    <path id="Star" d="M11.6,16.817a1.294,1.294,0,0,0-1.2,0L6.855,18.679a1.294,1.294,0,0,1-1.878-1.364l.677-3.945a1.294,1.294,0,0,0-.372-1.145L2.416,9.431a1.294,1.294,0,0,1,.717-2.207l3.961-.576a1.294,1.294,0,0,0,.974-.708L9.84,2.351a1.294,1.294,0,0,1,2.321,0L13.932,5.94a1.294,1.294,0,0,0,.974.708l3.961.576a1.294,1.294,0,0,1,.717,2.207l-2.866,2.794a1.294,1.294,0,0,0-.372,1.145l.677,3.945a1.294,1.294,0,0,1-1.878,1.364Z" fill="#d8d8d8"/>
  </g>
</svg>
