<svg xmlns="http://www.w3.org/2000/svg" width="24.95" height="24.95" viewBox="0 0 24.95 24.95">
  <path id="facebook_1_" data-name="facebook (1)" d="M3.655,24.95h8.138V16.081H8.869V13.157h2.924V9.5a3.659,3.659,0,0,1,3.655-3.655H19.1V8.771H16.178a1.463,1.463,0,0,0-1.462,1.462v2.924H18.97l-.487,2.924H14.716V24.95h6.579a3.659,3.659,0,0,0,3.655-3.655V3.655A3.659,3.659,0,0,0,21.295,0H3.655A3.659,3.659,0,0,0,0,3.655v17.64A3.659,3.659,0,0,0,3.655,24.95ZM1.462,3.655A2.2,2.2,0,0,1,3.655,1.462h17.64a2.2,2.2,0,0,1,2.193,2.193v17.64a2.2,2.2,0,0,1-2.193,2.193H16.178V17.543h3.543L20.7,11.7H16.178V10.233h4.386V4.386H15.447A5.122,5.122,0,0,0,10.331,9.5V11.7H7.407v5.848h2.924v5.945H3.655a2.2,2.2,0,0,1-2.193-2.193Zm0,0" fill="#2386c9"/>
</svg>
