<svg xmlns="http://www.w3.org/2000/svg" width="25" height="25" viewBox="0 0 25 25">
  <g id="Group_1785" data-name="Group 1785" transform="translate(-350 -10)">
    <rect id="Rectangle_926" data-name="Rectangle 926" width="25" height="25" rx="12.5" transform="translate(350 10)" fill="#2386c9"/>
    <g id="photo-camera" transform="translate(356.679 -18.681)">
      <g id="Group_1767" data-name="Group 1767" transform="translate(0 36.54)">
        <path id="Path_4682" data-name="Path 4682" d="M10.385,38.4a1.388,1.388,0,0,0-1.019-.422H8.105l-.287-.765a1.045,1.045,0,0,0-.391-.476,1,1,0,0,0-.583-.2H3.962a1,1,0,0,0-.583.2,1.046,1.046,0,0,0-.391.476l-.287.765H1.441A1.388,1.388,0,0,0,.422,38.4,1.388,1.388,0,0,0,0,39.422v5.043a1.388,1.388,0,0,0,.422,1.019,1.388,1.388,0,0,0,1.019.422H9.366a1.441,1.441,0,0,0,1.441-1.441V39.422A1.388,1.388,0,0,0,10.385,38.4Zm-3.2,5.322a2.428,2.428,0,0,1-1.781.74,2.428,2.428,0,0,1-1.781-.74,2.514,2.514,0,0,1,0-3.563,2.428,2.428,0,0,1,1.781-.74,2.429,2.429,0,0,1,1.781.74,2.514,2.514,0,0,1,0,3.563Z" transform="translate(0 -36.54)" fill="#fff"/>
        <path id="Path_4683" data-name="Path 4683" d="M193.477,228.4a1.624,1.624,0,1,0,1.145.476A1.561,1.561,0,0,0,193.477,228.4Z" transform="translate(-188.074 -224.621)" fill="#fff"/>
      </g>
    </g>
  </g>
</svg>
