<svg xmlns="http://www.w3.org/2000/svg" width="25" height="25" viewBox="0 0 25 25">
  <g id="Group_1775" data-name="Group 1775" transform="translate(-912 -1654)">
    <circle id="Ellipse_209" data-name="Ellipse 209" cx="12.5" cy="12.5" r="12.5" transform="translate(912 1654)" fill="#795548"/>
    <g id="general-mail" transform="translate(918.128 1659.992)">
      <g id="Group_1402" data-name="Group 1402" transform="translate(0)">
        <g id="Group_1401" data-name="Group 1401">
          <path id="Path_144" data-name="Path 144" d="M125.161,110.05l-2.494-1.94a.108.108,0,0,0-.133,0l-2.494,1.94a.108.108,0,0,0-.042.086v2.949a.108.108,0,0,0,.108.108h4.987a.108.108,0,0,0,.108-.108v-2.949A.108.108,0,0,0,125.161,110.05Zm-2.56,1.428-2.053-1.234h4.105Z" transform="translate(-116.261 -104.572)" fill="#fbf6f5"/>
          <path id="Path_145" data-name="Path 145" d="M16.219,9.936a1.535,1.535,0,0,0-.512.087l-.669-.669a4.6,4.6,0,0,0,0-5.7l.669-.669a1.537,1.537,0,1,0-.938-.938l-.693.693a4.6,4.6,0,0,0-5.322,0l-.693-.693a1.537,1.537,0,1,0-.938.938l.669.669a4.6,4.6,0,0,0,0,5.7l-.669.669a1.537,1.537,0,1,0,.938.938l.693-.693a4.6,4.6,0,0,0,5.322,0l.693.693a1.537,1.537,0,1,0,1.449-1.025Zm-4.8.309a3.74,3.74,0,1,1,3.74-3.74A3.74,3.74,0,0,1,11.416,10.245Z" transform="translate(-5.076)" fill="#fbf6f5"/>
        </g>
      </g>
    </g>
  </g>
</svg>
