<svg xmlns="http://www.w3.org/2000/svg" width="25" height="25" viewBox="0 0 25 25">
  <g id="Group_1776" data-name="Group 1776" transform="translate(-912 -1038)">
    <circle id="Ellipse_203" data-name="Ellipse 203" cx="12.5" cy="12.5" r="12.5" transform="translate(912 1038)" fill="#66bb6a"/>
    <g id="cosmetics" transform="translate(918.283 1043.981)">
      <g id="Group_1400" data-name="Group 1400" transform="translate(0 0)">
        <g id="Group_1399" data-name="Group 1399">
          <path id="Path_138" data-name="Path 138" d="M13.441,4.513V2.847l0,.005c-.05-.407-1.429-.414-1.525-.021,0,0-.007-.007-.009-.012V4.515a2.24,2.24,0,0,0-.822.456V4.116a2.167,2.167,0,0,0-1.307-1.81V1.293l0,0a.16.16,0,0,0,0-.021c0-.136-.168-.221-.38-.261A.594.594,0,0,1,9.458.621.168.168,0,0,1,9.591.575c.064,0,.228-.015.369-.03a.264.264,0,0,0,.265-.269.265.265,0,0,0-.263-.27.931.931,0,0,0-.112,0L9.3.005c-.426,0-.851,0-1.277,0a1.544,1.544,0,0,0-.7.142c-.093.043-.188.082-.283.12s-.181.073-.269.113a.259.259,0,0,0-.144.351A.271.271,0,0,0,6.982.87,1.338,1.338,0,0,0,7.22.776,2.038,2.038,0,0,1,8.4.549l.111,0c.158,0,.224.01.241.062a2.08,2.08,0,0,1,.024.4c-.218.04-.392.125-.392.263a.159.159,0,0,0,.013.057l-.013-.01v.96A2.144,2.144,0,0,0,7.022,4.116v8.3c0,.385,1.553.415,2.029.415a6.259,6.259,0,0,0,1.824-.208,4.963,4.963,0,0,0,1.8.271c1.038,0,2.156-.2,2.156-.653v-6.1A1.808,1.808,0,0,0,13.441,4.513ZM12.07,3.346a1.494,1.494,0,0,0,1.2,0V4.568c0,.007,0,.013-.007.019a1.012,1.012,0,0,1-.6.126.982.982,0,0,1-.6-.128Zm.6-.643c.391,0,.6.122.6.172s-.211.172-.6.172-.6-.122-.6-.172S12.28,2.7,12.672,2.7Zm-.6.388a1.55,1.55,0,0,0,1.2,0v.173a1.058,1.058,0,0,1-.6.141,1.058,1.058,0,0,1-.6-.141Zm-2.46-.44a.939.939,0,0,1-.533.1,1.169,1.169,0,0,1-.529-.089V1.472a1.519,1.519,0,0,0,1.059,0V2.6ZM8.754.413h0A.887.887,0,0,0,8.512.385l-.1,0A2.2,2.2,0,0,0,7.143.628a1.172,1.172,0,0,1-.209.081c-.112.033-.141-.03-.15-.051A.094.094,0,0,1,6.845.526c.086-.039.174-.074.262-.11S7.3.338,7.4.293A1.339,1.339,0,0,1,8.02.167c.427.008.854.006,1.28,0l.553,0a.847.847,0,0,1,.092,0c.114.012.114.078.114.1,0,.043-.013.093-.124.1-.068.007-.278.029-.342.028A.407.407,0,0,0,9.55.415l-.012,0H8.754ZM9.23,1.1c0,.025,0,.05,0,.074a.435.435,0,0,1-.15.022.446.446,0,0,1-.149-.021A2.9,2.9,0,0,0,8.911.58h.374A1.041,1.041,0,0,0,9.23,1.1Zm-.463.087s0,.012,0,.015c0,.118.164.16.318.16a.408.408,0,0,0,.29-.086l.007-.009A.111.111,0,0,0,9.4,1.221l.012-.031a.381.381,0,0,1,.193.086.8.8,0,0,1-.528.123.819.819,0,0,1-.53-.121C8.555,1.257,8.63,1.214,8.766,1.184ZM8.38,2.535v.131c0,.248.625.256.7.256s.7-.007.7-.256v-.1a1.956,1.956,0,0,1,1.074,1.555v1.1a1.506,1.506,0,0,0-.33.929v5.636a8.541,8.541,0,0,1-1.439.1,5.13,5.13,0,0,1-1.821-.208V4.116h0A1.911,1.911,0,0,1,8.38,2.535ZM9.051,12.6a4.89,4.89,0,0,1-1.8-.208v-.546a6.723,6.723,0,0,0,1.821.206,9.741,9.741,0,0,0,1.439-.1v.3a.308.308,0,0,0,.107.223A7.39,7.39,0,0,1,9.051,12.6Zm5.542-.355c0,.142-.678.419-1.922.419s-1.922-.277-1.922-.419v-.413a5.648,5.648,0,0,0,1.922.265,5.65,5.65,0,0,0,1.922-.265Zm0-.594a4.458,4.458,0,0,1-1.922.28,4.458,4.458,0,0,1-1.922-.28V6.147a1.578,1.578,0,0,1,1.238-1.415,1.347,1.347,0,0,0,.683.147,1.345,1.345,0,0,0,.683-.148,1.578,1.578,0,0,1,1.238,1.415v5.505Z" transform="translate(-6.607 0)" fill="#000a01"/>
          <path id="Path_139" data-name="Path 139" d="M95.327,101.756a.943.943,0,1,0,.89.941A.918.918,0,0,0,95.327,101.756Zm0,1.749a.809.809,0,1,1,.756-.808A.784.784,0,0,1,95.327,103.5Z" transform="translate(-89.262 -95.761)" fill="#000a01"/>
          <path id="Path_140" data-name="Path 140" d="M8.1,20.975a1.457,1.457,0,0,0-.286-.551l-.067-.088-.067.088a1.457,1.457,0,0,0-.286.551.353.353,0,0,0,.706,0Zm-.353.177a.182.182,0,0,1-.186-.177,1.078,1.078,0,0,1,.186-.358,1.08,1.08,0,0,1,.186.358A.182.182,0,0,1,7.746,21.152Z" transform="translate(-7.347 -19.138)" fill="#000a01"/>
          <path id="Path_141" data-name="Path 141" d="M150.5,59.088a.493.493,0,0,0-.493-.488h-2.848a.528.528,0,0,0-.525.488l0,.144v.09h.008l.651,7.4h.254v.184h-.357v.506a.564.564,0,0,0,.564.564h1.631a.564.564,0,0,0,.564-.564v-.506h-.356v-.184h.254l.651-7.4h.008v-.234Zm-.493-.254.009,0-.086.252h-.3l.106-.254Zm-.348,0-.106.254h-.274l.086-.254Zm-.364,0-.086.254h-.274l.087-.254Zm-.344,0-.087.254h-.3l.106-.254Zm-.358,0-.106.254h-.308l.111-.254Zm-.376,0-.111.254h-.237l.087-.254Zm-.332,0-.087.254h-.3l.106-.254Zm-.659,0h.3l-.106.254h-.3Zm-.073,0-.106.253h-.181A.3.3,0,0,1,147.156,58.835Zm2.557,8.305v.272a.33.33,0,0,1-.33.33h-1.631a.33.33,0,0,1-.33-.33V67.14Zm-2.035-.234v-.184h1.778v.184Zm1.952-.418h-2.125l-.63-7.167h3.385Zm.373-7.4.082-.239a.256.256,0,0,1,.184.239Z" transform="translate(-138.383 -55.148)" fill="#000a01"/>
          <path id="Path_142" data-name="Path 142" d="M167.8,157.154a.774.774,0,1,0-.731-.773A.754.754,0,0,0,167.8,157.154Zm0-1.412a.641.641,0,1,1-.6.639A.62.62,0,0,1,167.8,155.742Z" transform="translate(-157.619 -146.44)" fill="#000a01"/>
          <path id="Path_143" data-name="Path 143" d="M34.307,68.9a.912.912,0,1,0-.89-.912A.9.9,0,0,0,34.307,68.9Zm0-1.689a.778.778,0,1,1-.756.778A.768.768,0,0,1,34.307,67.214Z" transform="translate(-31.837 -63.128)" fill="#000a01"/>
        </g>
      </g>
    </g>
  </g>
</svg>
