<svg xmlns="http://www.w3.org/2000/svg" width="25" height="25" viewBox="0 0 25 25">
  <g id="Group_1445" data-name="Group 1445" transform="translate(-1455 -1038)">
    <circle id="Ellipse_202" data-name="Ellipse 202" cx="12.5" cy="12.5" r="12.5" transform="translate(1455 1038)" fill="#673ab7"/>
    <g id="home-page" transform="translate(1460.953 1044.723)">
      <path id="Path_150" data-name="Path 150" d="M3.674,15.154a.271.271,0,0,0,.274.292l3.293,0,0-2.7S7.2,12.3,7.631,12.3H9a.424.424,0,0,1,.479.445l-.006,2.69h3.223a.338.338,0,0,0,.346-.364V10.1L8.5,6.055,3.674,10.1S3.674,15.154,3.674,15.154Z" transform="translate(-1.898 -3.872)" fill="#fff"/>
      <path id="Path_151" data-name="Path 151" d="M0,7.388s.41.755,1.3,0L6.639,2.873l5,4.487c1.034.746,1.421,0,1.421,0L6.639,1.54Z" transform="translate(0 -1.54)" fill="#fff"/>
      <path id="Path_152" data-name="Path 152" d="M22.455,4.275H21.168l.005,1.561,1.282,1.087Z" transform="translate(-10.934 -2.953)" fill="#fff"/>
    </g>
  </g>
</svg>
