<svg xmlns="http://www.w3.org/2000/svg" width="55" height="55" viewBox="0 0 55 55">
  <g id="Group_1636" data-name="Group 1636" transform="translate(-320 -49)">
    <path id="Path_4656" data-name="Path 4656" d="M18,0H37A18,18,0,0,1,55,18V37A18,18,0,0,1,37,55H18A18,18,0,0,1,0,37V18A18,18,0,0,1,18,0Z" transform="translate(320 49)" fill="#66bb6a"/>
    <g id="_014---Haircut" data-name="014---Haircut" transform="translate(333.974 60.996)">
      <path id="Shape" d="M.249,32.419c.688.638,1.255,2.292,6.413,2.953a24.7,24.7,0,0,0,3.384.188c5.392,0,5.55.049,7.394-.188,4.4-.564,5.488-1.866,6.139-2.648a3.428,3.428,0,0,1,.278-.31.491.491,0,0,0-.233-.9c-4.295-.96,2.222-12.229-3.2-16.721a.491.491,0,1,0-.627.756c4.793,3.971-1.392,14.638,2.909,16.686-.581.676-1.647,1.682-5.391,2.161-.511.066-1.038.114-1.586.147v-3.49a9.22,9.22,0,0,0,2.165-3.88c.786-.208,2.255-.928,2.255-3.411,0-1.149-.265-1.841-.811-2.117a1.188,1.188,0,0,0-.871-.062c0-.313-.011-.623-.033-.917a.491.491,0,0,0-.141-.309c-1.894-1.908-2.71-1.974-6.247-1.974a3.472,3.472,0,0,1-3.551-2.145.491.491,0,0,0-.756-.208c-1.4,1.08-2.093,2.9-2.112,5.557a1.189,1.189,0,0,0-.871.062c-.549.276-.814.968-.814,2.117,0,2.475,1.459,3.2,2.246,3.408a9.153,9.153,0,0,0,2.174,3.9v3.469c-.545-.032-1.068-.08-1.576-.147-3.745-.48-4.813-1.486-5.392-2.161,3.252-1.546.579-7.8,1.052-12.739.33-3.422,2.477-5.26,6.028-5.192a.551.551,0,0,0,.246-.06,12.017,12.017,0,0,1,6.658-1.195.491.491,0,0,0,.1-.977,13.12,13.12,0,0,0-7.116,1.247c-3.99-.031-6.52,2.176-6.9,6.084C.975,24.559,3.651,30.783.491,31.511a.5.5,0,0,0-.243.909Zm18.645-9.894c.011.005.273.147.273,1.241a2.375,2.375,0,0,1-1.006,2.253,20.623,20.623,0,0,0,.3-3.369C18.687,22.52,18.84,22.5,18.894,22.526ZM4.924,23.766c0-1.091.261-1.235.273-1.241.054-.027.207,0,.432.124a20.913,20.913,0,0,0,.295,3.366,2.376,2.376,0,0,1-1-2.25Zm2.735,4.548a15.074,15.074,0,0,1-1.057-6.6,6.478,6.478,0,0,1,1.286-4.49,4.518,4.518,0,0,0,4.157,2.145c3.4,0,3.905.052,5.42,1.557.015.254.023.519.023.786a14.954,14.954,0,0,1-1.069,6.6c-1.031,2.2-2.5,3.309-4.374,3.309S8.683,30.51,7.659,28.314Zm1.685,3.537a5.175,5.175,0,0,0,5.4-.009v2.738c-.227,0-5.172,0-5.4,0Z" transform="translate(0 -6.104)"/>
      <path id="Shape-2" data-name="Shape" d="M37.564,3.9a6.193,6.193,0,0,0,.684,1.682L37.3,5.93a1.464,1.464,0,0,0-2.256.011L29.758,3.986a.492.492,0,0,0-.344.921c5.5,2.036,5.295,1.921,5.291,1.97s.208-.063-5.288,1.97a.491.491,0,0,0,.171.952c.127,0-.307.147,5.457-1.987a1.46,1.46,0,0,0,2.254.011l.949.351c-.193.246-.174.256-.684,1.682a2.334,2.334,0,0,0,1.367,2.972c2.169.8,2.36.924,2.9.924a2.291,2.291,0,0,0,2.151-1.531l.154-.43a2.334,2.334,0,0,0-1.367-2.971l-1.216-.45a.465.465,0,0,0-.086-.053c-4.129-1.526-3.814-1.391-3.814-1.44s-.316.086,3.814-1.44a.491.491,0,0,0,.086-.053l1.216-.451a2.334,2.334,0,0,0,1.367-2.971l-.154-.43A2.279,2.279,0,0,0,41.043.143L38.931.926A2.334,2.334,0,0,0,37.564,3.9ZM36.179,7.369a.491.491,0,1,1,.491-.491A.491.491,0,0,1,36.179,7.369Zm7.032,4.093-.154.43a1.3,1.3,0,0,1-1.67.8l-2.112-.782a1.35,1.35,0,0,1-.783-1.719l.461-1.29a.41.41,0,0,1,.383-.277,25.576,25.576,0,0,1,3.094,1.12,1.349,1.349,0,0,1,.781,1.718Zm-1.826-10.4a1.272,1.272,0,0,1,.986.04,1.69,1.69,0,0,1,.84,1.189,1.349,1.349,0,0,1-.786,1.719l-2.955,1.1a.4.4,0,0,1-.52-.252l-.461-1.29a1.349,1.349,0,0,1,.783-1.719Z" transform="translate(-14.793 0)"/>
    </g>
  </g>
</svg>
