<svg xmlns="http://www.w3.org/2000/svg" width="23.36" height="14.34" viewBox="0 0 23.36 14.34">
  <g id="Group_1470" data-name="Group 1470" transform="translate(-945.746 -28.226)">
    <rect id="Rectangle_690" data-name="Rectangle 690" width="23.36" height="14.34" transform="translate(945.746 28.226)" fill="#006b35"/>
    <path id="Path_2737" data-name="Path 2737" d="M960.119,37.287c0,.168.016.365.1.285s0-.479,0-.479c-.035-.2-.065-.282-.084-.455s.032-.287.1-.271c.155.035.175.325.189.505a1.579,1.579,0,0,0,.085.52c.062.1.14.024.064-.1a.828.828,0,0,1-.076-.559c.053-.162.187-.027.187-.027a.778.778,0,0,1,.111.6c.252.231.286.2.345.2s.034-.21-.018-.258-.234-.35-.181-.511.233-.151.345.021c.14.2.046.246-.035.17a1.347,1.347,0,0,1,.14.664c-.065.183-.435.352-.584.215s-.24-.059-.24.032a4.253,4.253,0,0,1,.035.764c-.064.419-.227.355-.227.355s-.029-.731-.062-.859-.113-.1-.283-.158-.123-.462-.123-.462.038-.277-.03-.339c-.1,0-.1.188-.1.307s0,.441-.181.441-.3-.15-.327-.371a3.718,3.718,0,0,1,0-.6s.076-.14.122.113.093.527.169.527.105-.339.152-.478.132-.335.286-.307S960.121,37.157,960.119,37.287Z" transform="translate(-7.648 -4.605)" fill="#fff"/>
    <path id="Union_9" data-name="Union 9" d="M10.606,3.769a1,1,0,0,1,.1-.107c.1-.063.212-.091.316-.151a.876.876,0,0,0,.351-.419c.014-.117-.023-.478-.023-.624,0-.051-.036-.444-.059-.645-.027-.238-.047-.446-.093-.732a2.638,2.638,0,0,1-.07-.85L11.214.09c.059.023.093.094.128.14.049.064.093.129.141.193a1.264,1.264,0,0,0,.1.172.134.134,0,0,1-.012.054L11.459.66V.671h-.012A1.314,1.314,0,0,0,11.505,1c.034.125.03.258.059.377.007.122.027.208.034.33a7.45,7.45,0,0,1,.024.9,1.757,1.757,0,0,1-.129.914.8.8,0,0,1-.431.291,1.09,1.09,0,0,1-.257.043.591.591,0,0,1-.1.01C10.554,3.865,10.606,3.769,10.606,3.769Zm-9.382.036A.608.608,0,0,1,.6,3.275a.927.927,0,0,1,.073-.5c.01-.02.023-.046.049-.05.01,0,.05.008.054.019.046.209.027.517.187.623a1.04,1.04,0,0,0,1.2-.247,1.26,1.26,0,0,0,.2-.376c.021-.1.051-.2.07-.3a.253.253,0,0,0-.023-.14c-.124.016-.13.306-.174.409a1.007,1.007,0,0,1-.584.56c-.671.224-1-.482-.7-.958h.059c.05.189.026.52.186.613a.531.531,0,0,0,.386-.011.746.746,0,0,0,.549-.559.512.512,0,0,0-.089.029c-.034.019-.062.042-.1.058a.354.354,0,0,1-.207.019.211.211,0,0,1-.172-.242.523.523,0,0,1,.105-.365.349.349,0,0,1,.3-.124.526.526,0,0,1,.3.226c.143-.005.148-.155.125-.254A4.912,4.912,0,0,1,2.28,1.2a4.738,4.738,0,0,0-.1-.6A1.438,1.438,0,0,1,2.14.325c-.008-.138.174-.17.174-.17A.132.132,0,0,1,2.433.2a.778.778,0,0,1,.155.329c.009.034.017.068.03.1s.065.133,0,.154a.111.111,0,0,1-.055,0,.088.088,0,0,0-.065,0c-.041.026-.02.092-.01.128.016.059.032.117.043.177.043.225.056.454.084.681l.006,0,.005.006c.051-.009.113-.052.164-.021.068.032.026.132.07.183a.151.151,0,0,0,.163-.011c.048-.036.056-.1.093-.151L3.2,1.725a.117.117,0,0,1,.058.011c.064.021.077.1.1.15.139,0,.069-.084.117-.161.026-.059.112-.052.163-.086h.012c0,.242-.021.677-.362.592-.054-.014-.091-.05-.152-.065-.084.106-.36.242-.479.076a.177.177,0,0,0-.047.01A2.765,2.765,0,0,1,2.64,2.8a1.253,1.253,0,0,1-1.027.958,1.36,1.36,0,0,1-.348.047Zm7.519-.05a.66.66,0,0,1-.2-.17.7.7,0,0,1,.008-.8c.023-.038-.051.41.116.6.038.041.1.142.2.086.1-.034.132-.2.175-.29a1.808,1.808,0,0,1,.21-.366c.084-.1.14-.1.14-.1.1-.011.146.061.221.174a.874.874,0,0,0,.164.181.148.148,0,0,0,.116-.011.624.624,0,0,0,.132-.494C10,2.207,9.964,1.6,9.964,1.6c0-.1-.008-.2-.012-.3-.024-.064-.11-.131-.152-.183C9.716,1.006,9.64.905,9.555.8a2.816,2.816,0,0,1-.21-.237.731.731,0,0,1,0-.484c.077,0,.335.277.4.333S9.8.5,9.764.5A.124.124,0,0,0,9.7.52V.542c.043.039.073.09.117.129.011,0,0-.07,0-.074C9.807.5,9.792.4,9.781.306A.228.228,0,0,1,9.8.176c.016-.035.066-.1.117-.087.083.017.12.161.157.222.065.106.13.212.2.317,0,.035.005.059-.023.086-.05,0-.058-.021-.105-.043a.466.466,0,0,0,.012.215c0,.079.008.157.012.236.105.14.331.43.339.43a2.6,2.6,0,0,0-.057-.328c-.038-.186-.075-.369-.112-.556A1.991,1.991,0,0,1,10.3.382.284.284,0,0,1,10.34.155.209.209,0,0,1,10.407.1c.174-.094.324.487.352.58,0,.076-.012.089-.093.086V.778h-.012a1.564,1.564,0,0,0,.071.43c.043.158.043.322.082.473l.046.373.193.243c.084.112.165.225.24.342a.747.747,0,0,1,.011.495c-.007.019,0,.011-.011.022a1.9,1.9,0,0,0-.129-.2c-.086-.13-.257-.4-.257-.409s0,.271-.024.387a.906.906,0,0,1-.245.3h-.012c0-.26-.014-.468-.023-.786-.008-.122-.016-.244-.023-.366-.086-.114-.172-.229-.257-.344h-.023c0,.3.007.6.011.893a1.608,1.608,0,0,1-.023.463.556.556,0,0,1-.116.195.376.376,0,0,1-.469.084,1.723,1.723,0,0,1-.23-.172c-.1-.089-.167-.042-.167-.042-.113.073-.093.251-.141.387a.44.44,0,0,1-.152.232.156.156,0,0,1-.094.03A.4.4,0,0,1,8.743,3.755ZM3.434,3.694a.636.636,0,0,1-.163-.237c-.176.054-.349.12-.514.183l-.386.108a.2.2,0,0,1-.093-.011c-.035-.036.17-.177.21-.2.17-.113.365-.2.549-.311.086-.05.17-.1.257-.15.056-.033.049-.093.067-.149s.028-.093.045-.139.08-.154.132-.154c-.007.078-.068.2-.01.268a.615.615,0,0,0,.139-.1c.12-.1.331-.224.385-.377a.264.264,0,0,0,.009-.168.5.5,0,0,0-.157-.209.315.315,0,0,1-.112-.233.246.246,0,0,1,.051-.179.206.206,0,0,1,.292.013.473.473,0,0,1,.163.314.133.133,0,0,1-.082-.022H4.159c.031.1.1.192.128.312a.615.615,0,0,1-.1.5,1.611,1.611,0,0,1-.619.527c0,.1.039.114.081.172a.707.707,0,0,0,.293-.011A1.632,1.632,0,0,0,4.6,2.769a.765.765,0,0,0,.011-.3c-.027-.111-.054-.222-.082-.333a.818.818,0,0,0-.082-.165A1.172,1.172,0,0,1,4.379,1.8a.316.316,0,0,1,.012-.308c.125-.141.221.094.258.172a3.02,3.02,0,0,1,.175.473c.037.131.01.252.07.355.04-.011.043-.032.057-.065a.241.241,0,0,1,.057-.079,1.411,1.411,0,0,1,.61-.276c.072-.019.146-.013.21-.032.029-.159,0-.333.082-.441.13-.179.375-.192.6.011a.392.392,0,0,1,.012.409.835.835,0,0,1-.736.355c-.011.011,0,0-.012.01a.133.133,0,0,0,.012.043l.829.011c.03,0,.063,0,.1,0a.405.405,0,0,1,.263.037c-.138.1-.1.253-.186.377A3.5,3.5,0,0,1,6,3.006l-.233.021s-.144.088-.156.162.121.167.227.209c.088.036.177.08.14.188s-.167.092-.259.079a1.479,1.479,0,0,1-.568-.188,1.225,1.225,0,0,1-.2-.158c-.018-.017-.156-.2-.163-.2-.126.02-.181.147-.245.226a1.18,1.18,0,0,1-.8.438A.55.55,0,0,1,3.434,3.694ZM.015,3.6a.951.951,0,0,1,.173-.729S.2,2.986.2,3c-.005.061-.018.121-.025.181a.372.372,0,0,0,.041.3c.258-.237.2.052.166.144-.014.036-.061.13-.111.137H.241A.218.218,0,0,1,.015,3.6Zm6.359-.022a1,1,0,0,1,0-.1c0-.02,0-.046-.024-.055a.081.081,0,0,0-.055,0,.084.084,0,0,1-.057.005C6.212,3.423,6.22,3.42,6.2,3.4s.139-.155.19-.179l.009,0a.2.2,0,0,1,.1.023c0,.063-.06.134-.011.193l.013.032c.092-.006.26-.119.35-.064h.024c.007.019,0,.01.011.021a.112.112,0,0,1-.011.064c-.095.069-.3.069-.4.14h-.02C6.421,3.629,6.384,3.626,6.373,3.583Zm.67-.933c-.007-.119-.011-.222-.011-.366l-.024-.376-.062-.527-.125-.172c-.136-.179-.26-.365-.4-.54a1.48,1.48,0,0,1-.241-.3A.621.621,0,0,1,6.157.1.265.265,0,0,0,6.2.047a.939.939,0,0,1,.543.371A.593.593,0,0,1,6.752.23.277.277,0,0,1,6.845.09c.012-.009,0,0,.023-.011A5.229,5.229,0,0,1,7.184.5a.834.834,0,0,1,.073.2s.058.122-.07.042C7.158.725,7.17.8,7.173.825a1.6,1.6,0,0,0,.036.219c.019.084,0,.17.025.253a.521.521,0,0,0,.124.187,8.713,8.713,0,0,1,.539.832.8.8,0,0,1,.095.243c.027.105.08.295-.012.387-.051.051-.084-.075-.1-.108-.029-.056-.054-.114-.082-.17-.113-.222-.278-.419-.4-.64-.014-.027-.03-.054-.046-.08S7.307,1.9,7.3,1.876c-.036-.006-.012.161-.011.193,0,.074.008.15.013.224.007.151.013.3.013.454a1.453,1.453,0,0,1-.012.387c-.091.279-.265.29-.268.29C7.033,3.173,7.058,2.9,7.044,2.65ZM8.7,3.275a8.316,8.316,0,0,0-.2-1.819c-.043-.2-.063-.39-.116-.57C8.327.684,8.317.2,8.48.1a2.559,2.559,0,0,0,.2.356c.055.08.147.158.151.279a.322.322,0,0,0-.151.021,1.772,1.772,0,0,0,.07.419c.046.18.039.367.081.538.036.294.07.588.106.882a1.22,1.22,0,0,1-.064.492c-.075.148-.138.188-.162.188A.012.012,0,0,1,8.7,3.275ZM3.143,2.9c.005-.192,0-.3-.14-.377a.07.07,0,0,1,.056-.106c.1-.016.327.2.131.472a.056.056,0,0,1-.034.019A.013.013,0,0,1,3.143,2.9ZM9.73,2.779a.717.717,0,0,0-.093-.462c-.027-.1-.007-.125.043-.172.078-.044.239.055.192.516a.2.2,0,0,1-.093.129A.162.162,0,0,1,9.73,2.779ZM.236,2.261a1.012,1.012,0,0,1,.357-.274A.776.776,0,0,1,.806,1.9a.288.288,0,0,1,.211.025c.041.026.04.061.07.1s-.3.138-.322.148c-.145.062-.281.141-.425.207-.066.031-.162.049-.225.085A.946.946,0,0,1,.236,2.261Zm8.946-.051c0-.073.165-.147.217-.184a2.716,2.716,0,0,1,.286-.191.707.707,0,0,0,.083-.048c.018-.014.04-.048.069-.034s.02.051.021.07a.239.239,0,0,1-.117.21,2.956,2.956,0,0,1-.535.314C9.176,2.349,9.182,2.211,9.182,2.211ZM5.245,1.854a.16.16,0,0,1-.07-.226c0-.011.007-.021.012-.032a.083.083,0,0,1,.072.033c.01.014.01.047.034.052s.033-.02.041-.042S5.346,1.6,5.35,1.6c.073.007.07.061.093.108h.024a.853.853,0,0,1,.046-.119H5.56a.152.152,0,0,1,.023.043A.232.232,0,0,1,5.6,1.79c-.021.058-.127.1-.223.1A.212.212,0,0,1,5.245,1.854Zm4.074-.192a.652.652,0,0,1-.253-.241c-.04-.081-.027-.217.1-.223.051,0,.067.033.093.064a.086.086,0,0,0,.042.031l.04-.005.038,0a.2.2,0,0,1,0-.182.123.123,0,0,1,.1-.066.155.155,0,0,1,.145.1.418.418,0,0,1,.037.116c.013.072-.023.065-.091.051a.2.2,0,0,1-.047.032L9.5,1.747A.858.858,0,0,1,9.319,1.663ZM4.552,1.108c0-.046-.006-.088-.007-.133A.83.83,0,0,0,4.535.822c-.11.008-.1.145-.119.215a.98.98,0,0,1-.129.3c-.071.089-.19.047-.273,0a.477.477,0,0,1-.155-.17.865.865,0,0,1-.077-.38,1.359,1.359,0,0,1,.049-.4A.151.151,0,0,1,3.878.4c.029.009.048.168.053.194.011.065.038.556.215.482.093-.039.08-.193.106-.268A1.618,1.618,0,0,1,4.418.478C4.464.406,4.531.3,4.637.306c.288.018.026.582.164.73.027.073.1.077.164.118.278,0,.321-.284.292-.484a2.676,2.676,0,0,1-.1-.382A.3.3,0,0,1,5.218.132.72.72,0,0,1,5.3,0H5.35a1.32,1.32,0,0,1,.116.279c.052.206,0,.452.059.635.029.087.04.187.129.215.111.036.172-.056.221-.086a.746.746,0,0,0-.1-.441A1.182,1.182,0,0,1,5.677.477.357.357,0,0,1,5.7.187c.03-.084.123-.1.222-.1.05.047.293.254.222.355C6.124.485,6.032.482,5.993.5a1.706,1.706,0,0,0,.164.5.366.366,0,0,0,.195.007C6.4,1,6.439.954,6.484.947c.068-.009.05.089.037.127a.382.382,0,0,1-.089.136c-.032.033-.072.092-.123.1-.031,0-.063,0-.075-.025a.549.549,0,0,1,.026-.12.146.146,0,0,1-.034-.022c-.041,0-.049,0-.07.022a.7.7,0,0,0-.143.175.292.292,0,0,1-.041.066.438.438,0,0,1-.19.057.272.272,0,0,1-.16-.034.444.444,0,0,1-.109-.1c-.013-.014-.064-.1-.081-.1,0,0-.07-.005-.188.1a1.037,1.037,0,0,1-.134.1.355.355,0,0,1-.559-.328Zm-1.235.27a.2.2,0,0,1-.068-.17.256.256,0,0,1,.043-.091c.011-.017.051-.087.072-.091s.023,0,.035-.01l.047.01a.106.106,0,0,1-.023.076.274.274,0,0,0,.035.172.167.167,0,0,0,.1-.034c.011-.009.019-.025.032-.03h.041a.253.253,0,0,1-.139.181.3.3,0,0,1-.092.018A.11.11,0,0,1,3.317,1.377Zm7.6-.362a.785.785,0,0,0,.008-.109c0-.071-.059-.125-.088-.188s-.077-.124-.07-.187a.083.083,0,0,1,.082-.068.138.138,0,0,1,.105.042.381.381,0,0,1,.077.19.5.5,0,0,1,.01.252.32.32,0,0,1-.046.1.288.288,0,0,1-.066.065h0A.6.6,0,0,1,10.92,1.015ZM2.757,1.08c-.012-.01,0,0-.012-.011a4.488,4.488,0,0,0,.414-.3c.057-.044.121-.082.174-.131.034-.03.1-.074.108-.12S3.372.444,3.34.411A.158.158,0,0,1,3.313.262c.014-.065.046-.081.1-.118.011-.007.037-.015.046-.022.145,0,.251.054.234.2a.142.142,0,0,1-.057.084c-.04.037-.048.047,0,.085.088.072-.027.118-.082.173-.143.143-.239.348-.455.414a.5.5,0,0,1-.17.019A.49.49,0,0,1,2.757,1.08ZM7.534.542C7.506.449,7.418.391,7.371.316,7.358.3,7.361.267,7.347.251A.159.159,0,0,1,7.371.176.185.185,0,0,0,7.417.155c.3,0,.288.424.152.592a.172.172,0,0,1-.047.011C7.526.685,7.53.614,7.534.542ZM.461.374C.434.306.359.263.333.2.323.181.332.09.374.09a.161.161,0,0,1,.1.022.253.253,0,0,1,.1.236c0,.059-.024.222-.1.246C.453.524.49.445.461.374Zm4.386.1A.645.645,0,0,1,4.977.025h.035a.063.063,0,0,0,.023.022C5.1.2,4.994.369,4.953.488,4.933.5,4.941.49,4.93.5A.146.146,0,0,1,4.848.477Zm-.792-.1c-.046-.068,0-.187.039-.251A.258.258,0,0,1,4.176.036c.017-.011.081-.045.1-.033s-.005.071-.017.089A.4.4,0,0,1,4.2.161.07.07,0,0,0,4.173.24c.009.046.031.045.061.045a.155.155,0,0,1,.039,0,.173.173,0,0,1-.143.131A.089.089,0,0,1,4.056.374ZM1.478.383A.161.161,0,0,1,1.408.157L1.42.125c.079,0,.069.038.093.086A.087.087,0,0,0,1.56.2.2.2,0,0,0,1.583.125c.074.007.07.06.094.107H1.7A.809.809,0,0,1,1.747.114h.047a.148.148,0,0,1,.023.043.227.227,0,0,1,.012.161c-.021.059-.127.1-.223.1A.209.209,0,0,1,1.478.383Z" transform="translate(951.553 31.622)" fill="#fff"/>
    <path id="Path_2765" data-name="Path 2765" d="M982.859,43.945s-.148-.061-.094-.162a.526.526,0,0,1,.149-.018c.093,0,.152.043.113.108s-.074.113.013.113.151.019.065.1-.327.175-.378.1.066-.123.106-.162A.073.073,0,0,0,982.859,43.945Z" transform="translate(-20.914 -8.791)" fill="#fff"/>
    <path id="Path_2766" data-name="Path 2766" d="M976.119,38.325s0,.068.039.068.043-.013.051-.068.081-.038.081.011.031.077.053.057c0,0-.009-.113.064-.106s.066.129.051.192-.1.116-.214.116-.2-.028-.226-.14S976.084,38.243,976.119,38.325Z" transform="translate(-17.123 -5.692)" fill="#fff"/>
    <path id="Path_2767" data-name="Path 2767" d="M974.495,37.309l.1-.009.049.212S974.495,37.349,974.495,37.309Z" transform="translate(-16.264 -5.133)" fill="#fff"/>
    <path id="Path_2768" data-name="Path 2768" d="M976.36,37a1.029,1.029,0,0,1,.019-.534c.094-.168.059-.208.179-.007s.28.476.078.494a3.507,3.507,0,0,0,.093.778,10.179,10.179,0,0,1,.074,1.413,1.394,1.394,0,0,1-.561.8c-.244.159-.5.122-.565-.072a6.963,6.963,0,0,0,.619-.387c.241-.19.276-.216.276-.423s-.116-1.248-.116-1.248Z" transform="translate(-16.934 -4.579)" fill="#fff"/>
    <path id="Exclusion_49" data-name="Exclusion 49" d="M8.34,1.04a.164.164,0,0,1-.163-.1L7.3.943c-.014.018-.062.077-.115.077A.1.1,0,0,1,7.106.96.364.364,0,0,1,7.074.62H7.02c-.46,0-2.172.006-2.188.006H2.021l-1.1,0S.9.626.86.626A1.078,1.078,0,0,1,0,.226H0c.008,0,.988.05,1.643.05.628,0,2.534.01,2.615.011L7.094.294l0,0C7.063.26,7,.176,7.02.1c.014-.049.064-.084.148-.1a.1.1,0,0,0,.018.072A.02.02,0,0,0,7.2.079c.008,0,.076,0,.1.047S7.3.222,7.254.3c.256.013.417.024.523.03s.144.009.177.009.125-.011.2-.021S8.276.3,8.3.3a.331.331,0,0,1,.285.326c.03.264-.027.383-.2.409A.3.3,0,0,1,8.34,1.04ZM7.758.732a.175.175,0,0,1,.118.053H8.13A.127.127,0,0,0,8.156.712.079.079,0,0,0,8.13.655c-.191,0-.771-.009-.836-.01,0,0-.059.086,0,.14h.347A.179.179,0,0,1,7.758.732Z" transform="translate(953.15 38.081)" fill="#fff"/>
  </g>
</svg>
