<svg xmlns="http://www.w3.org/2000/svg" width="25" height="25" viewBox="0 0 25 25">
  <g id="Group_1449" data-name="Group 1449" transform="translate(-912 -1345)">
    <circle id="Ellipse_206" data-name="Ellipse 206" cx="12.5" cy="12.5" r="12.5" transform="translate(912 1345)" fill="#03a9f4"/>
    <g id="responsive-design" transform="translate(918.704 1352.778)">
      <path id="Path_174" data-name="Path 174" d="M11.4,9.424H10.46V6.062A.561.561,0,0,0,9.9,5.5H.56a.561.561,0,0,0-.56.56v6.912a.561.561,0,0,0,.56.56h3.3l-.267.934H3.362a.561.561,0,0,0-.56.56v.187a.187.187,0,0,0,.187.187H7.472a.187.187,0,0,0,.187-.187v-.187a.561.561,0,0,0-.56-.56H6.866L6.6,13.535h2v1.308a.561.561,0,0,0,.56.56H11.4a.561.561,0,0,0,.56-.56V9.985A.561.561,0,0,0,11.4,9.424Zm-2.9,0L6.869,7.438a.146.146,0,0,0-.016-.013s-.006-.01-.011-.013A.146.146,0,0,0,6.827,7.4a.176.176,0,0,0-.035-.019.194.194,0,0,0-.032-.01.182.182,0,0,0-.036,0,.2.2,0,0,0-.035,0,.175.175,0,0,0-.033.01.183.183,0,0,0-.035.018s-.011,0-.015.008-.007.009-.011.013a.165.165,0,0,0-.016.013L5.7,8.514,5.281,8a.182.182,0,0,0-.015-.012s-.007-.011-.012-.015-.011-.005-.016-.009a.191.191,0,0,0-.067-.027.18.18,0,0,0-.1.01.184.184,0,0,0-.033.017.168.168,0,0,0-.016.009.159.159,0,0,0-.012.015A.182.182,0,0,0,4.991,8L3.833,9.424H1.121v-2.8h8.22v2.8H8.494Zm-4.179,0,.821-1.011.322.4-.5.615ZM6.724,7.851,8.011,9.424H5.437ZM9.877,12.04l.211-.317.055.083-.156.234Zm.646-.129,0,0,.31-.465.4.6h-.8ZM10.991,11h0a.185.185,0,0,0-.036-.036c-.006,0-.009-.011-.016-.016h0a.184.184,0,0,0-.068-.028.173.173,0,0,0-.035,0,.175.175,0,0,0-.036,0,.185.185,0,0,0-.068.028s-.006.007-.01.01A.175.175,0,0,0,10.68,11h0l-.311.467-.124-.186h0a666.644,666.644,0,0,1-.052-.052h0a.185.185,0,0,0-.068-.027,3.406,3.406,0,0,0-.071,0,.185.185,0,0,0-.12.08h0l-.5.756h-.46V10.546h2.615V11.89ZM8.968,12.413h2.615v1.869H8.968Zm2.615-2.429v.187H8.968V9.985A.187.187,0,0,1,9.155,9.8H11.4A.187.187,0,0,1,11.583,9.985ZM.56,5.876H9.9a.187.187,0,0,1,.187.187V9.424H9.714V6.435a.187.187,0,0,0-.187-.187H.934a.187.187,0,0,0-.187.187V9.611A.187.187,0,0,0,.934,9.8H8.629a.553.553,0,0,0-.035.187v.187H.934a.187.187,0,0,0,0,.374h7.66v.374H.934a.187.187,0,0,0,0,.374h7.66v.374H.934a.187.187,0,0,0,0,.374h7.66v.372H.374V6.062A.187.187,0,0,1,.56,5.876Zm2.8,8.966H7.1a.187.187,0,0,1,.187.187H3.176a.187.187,0,0,1,.187-.187Zm3.115-.374H3.984l.267-.934H6.21ZM5.236,13.161H.56a.187.187,0,0,1-.187-.187v-.187h4.86a.187.187,0,1,0,.189.187.186.186,0,0,0-.189-.187H8.594v.374Zm6.16,1.868H9.155a.187.187,0,0,1-.187-.187v-.187h1.311a.187.187,0,1,0,.189.187.186.186,0,0,0-.189-.187h1.3v.187A.187.187,0,0,1,11.4,15.029Z" transform="translate(0 -5.502)" fill="#eef3f5"/>
      <path id="Path_175" data-name="Path 175" d="M12.564,13.5a.56.56,0,1,0,.56.56A.561.561,0,0,0,12.564,13.5Zm0,.747a.187.187,0,1,1,.187-.187A.187.187,0,0,1,12.564,14.245Z" transform="translate(-9.761 -12.004)" fill="#eef3f5"/>
      <path id="Path_176" data-name="Path 176" d="M49.214,33.494h0a.187.187,0,1,0,.189.187.186.186,0,0,0-.189-.187Z" transform="translate(-39.867 -28.265)" fill="#eef3f5"/>
      <path id="Path_177" data-name="Path 177" d="M51.053,46.5H49.185a.187.187,0,1,0,0,.374h1.868a.187.187,0,1,0,0-.374Z" transform="translate(-39.844 -38.839)" fill="#eef3f5"/>
      <path id="Path_178" data-name="Path 178" d="M51.053,43.5H49.185a.187.187,0,0,0,0,.374h1.868a.187.187,0,1,0,0-.374Z" transform="translate(-39.844 -36.4)" fill="#eef3f5"/>
      <path id="Path_179" data-name="Path 179" d="M51.053,49.5H49.185a.187.187,0,0,0,0,.374h1.868a.187.187,0,1,0,0-.374Z" transform="translate(-39.844 -41.279)" fill="#eef3f5"/>
    </g>
  </g>
</svg>
