<svg xmlns="http://www.w3.org/2000/svg" width="154" height="144.003" viewBox="0 0 154 144.003">
  <g id="Group_1650" data-name="Group 1650" transform="translate(-247 -371)">
    <g id="Group_1647" data-name="Group 1647" transform="translate(-1083.753 -43.757)">
      <g id="Group_1579" data-name="Group 1579" transform="translate(1433.191 419.008)">
        <g id="Group_1578" data-name="Group 1578" transform="translate(0)">
          <g id="Group_1577" data-name="Group 1577">
            <path id="Path_4652" data-name="Path 4652" d="M1473.231,492.956a8.28,8.28,0,0,1-8.281-8.28V429.291a8.281,8.281,0,1,1,16.562,0v55.385A8.28,8.28,0,0,1,1473.231,492.956Z" transform="translate(-1464.95 -421.01)" fill="#2386c9"/>
          </g>
        </g>
      </g>
      <g id="Group_1582" data-name="Group 1582" transform="translate(1365.756 419.008)" opacity="0.16">
        <g id="Group_1581" data-name="Group 1581" transform="translate(0)">
          <g id="Group_1580" data-name="Group 1580">
            <path id="Path_4653" data-name="Path 4653" d="M1374.037,492.956a8.28,8.28,0,0,1-8.281-8.28V429.291a8.281,8.281,0,1,1,16.562,0v55.385A8.28,8.28,0,0,1,1374.037,492.956Z" transform="translate(-1365.757 -421.01)" fill="#2386c9"/>
          </g>
        </g>
      </g>
      <g id="Group_1585" data-name="Group 1585" transform="translate(1365.753 419.008)">
        <g id="Group_1584" data-name="Group 1584">
          <g id="Group_1583" data-name="Group 1583">
            <path id="Path_4654" data-name="Path 4654" d="M1407.752,469.275c-23.158,0-42-17.938-42-39.984a8.281,8.281,0,1,1,16.562,0c0,12.915,11.411,23.423,25.438,23.423s25.439-10.508,25.439-23.423a8.281,8.281,0,1,1,16.562,0C1449.753,451.338,1430.912,469.275,1407.752,469.275Z" transform="translate(-1365.753 -421.01)" fill="#2386c9"/>
          </g>
        </g>
      </g>
      <g id="Group_1588" data-name="Group 1588" transform="translate(1365.756 474.391)">
        <g id="Group_1587" data-name="Group 1587" transform="translate(0)">
          <g id="Group_1586" data-name="Group 1586">
            <path id="Path_4655" data-name="Path 4655" d="M1374.037,519.036a8.759,8.759,0,0,1-1.62-.156,8.128,8.128,0,0,1-1.545-.479,7.6,7.6,0,0,1-1.434-.763,8.292,8.292,0,0,1-1.261-1.021,9.018,9.018,0,0,1-1.031-1.26,8.136,8.136,0,0,1-.755-1.436,8.377,8.377,0,0,1-.478-1.545,8.688,8.688,0,0,1-.156-1.619,8.337,8.337,0,0,1,2.42-5.852,8.475,8.475,0,0,1,1.261-1.031,8.281,8.281,0,0,1,1.434-.763,8.153,8.153,0,0,1,1.545-.469,8,8,0,0,1,3.24,0,8.354,8.354,0,0,1,1.545.469,8.538,8.538,0,0,1,1.426.763,7.648,7.648,0,0,1,1.26,1.031,8.3,8.3,0,0,1,2.43,5.852,7.971,7.971,0,0,1-.167,1.619,8.257,8.257,0,0,1-.469,1.545,8.757,8.757,0,0,1-.763,1.436,8.437,8.437,0,0,1-1.031,1.26,7.5,7.5,0,0,1-1.26,1.021,7.807,7.807,0,0,1-1.426.763,8.331,8.331,0,0,1-1.545.479A8.826,8.826,0,0,1,1374.037,519.036Z" transform="translate(-1365.757 -502.474)" fill="#2386c9"/>
          </g>
        </g>
      </g>
      <g id="Group_1591" data-name="Group 1591" transform="translate(1392.19 414.757)">
        <g id="Group_1590" data-name="Group 1590">
          <g id="Group_1589" data-name="Group 1589">
            <circle id="Ellipse_447" data-name="Ellipse 447" cx="5.734" cy="5.734" r="5.734" fill="#2386c9"/>
          </g>
        </g>
      </g>
      <g id="Group_1594" data-name="Group 1594" transform="translate(1411.848 414.757)">
        <g id="Group_1593" data-name="Group 1593" transform="translate(0)">
          <g id="Group_1592" data-name="Group 1592">
            <circle id="Ellipse_448" data-name="Ellipse 448" cx="5.734" cy="5.734" r="5.734" fill="#2386c9"/>
          </g>
        </g>
      </g>
    </g>
    <text id="مجالات_تك" data-name="مجالات تك" transform="translate(279 475.003)" fill="#2386c9" font-size="21" font-family="SegoeUI, Segoe UI"><tspan x="0" y="0">مجالات تك</tspan></text>
    <g id="Group_1648" data-name="Group 1648" transform="translate(-111.438 -95.191)">
      <text id="لا_رسوم_ولا_عمولة" data-name="لا رسوم ولا عمولة" transform="translate(435.438 604.195)" fill="#2386c9" font-size="21" font-family="SegoeUI, Segoe UI"><tspan x="-76.14" y="0">لا رسوم ولا عمولة</tspan></text>
    </g>
  </g>
</svg>
