<svg xmlns="http://www.w3.org/2000/svg" width="25" height="25" viewBox="0 0 25 25">
  <g id="Group_1774" data-name="Group 1774" transform="translate(-371 -723)">
    <circle id="Ellipse_199" data-name="Ellipse 199" cx="12.5" cy="12.5" r="12.5" transform="translate(371 723)" fill="#607d8b"/>
    <g id="racing" transform="translate(377.569 730.033)">
      <g id="Group_1406" data-name="Group 1406" transform="translate(6.313 4.545)">
        <g id="Group_1405" data-name="Group 1405" transform="translate(0 0)">
          <path id="Path_167" data-name="Path 167" d="M269.144,230.954a.589.589,0,1,0,.589.589A.589.589,0,0,0,269.144,230.954Z" transform="translate(-268.555 -230.954)" fill="#f2f6f8"/>
        </g>
      </g>
      <g id="Group_1408" data-name="Group 1408" transform="translate(7.291 2.76)">
        <g id="Group_1407" data-name="Group 1407" transform="translate(0 0)">
          <path id="Path_168" data-name="Path 168" d="M310.189,155.037V156.1a1.373,1.373,0,0,1,.736.536l1.01-.328A2.412,2.412,0,0,0,310.189,155.037Z" transform="translate(-310.189 -155.037)" fill="#f2f6f8"/>
        </g>
      </g>
      <g id="Group_1410" data-name="Group 1410" transform="translate(7.987 4.771)">
        <g id="Group_1409" data-name="Group 1409">
          <path id="Path_169" data-name="Path 169" d="M341.095,240.574l-1.01.328c0,.011,0,.023,0,.034a1.361,1.361,0,0,1-.283.831l.624.858a2.4,2.4,0,0,0,.668-2.052Z" transform="translate(-339.803 -240.574)" fill="#f2f6f8"/>
        </g>
      </g>
      <g id="Group_1412" data-name="Group 1412" transform="translate(0 0)">
        <g id="Group_1411" data-name="Group 1411">
          <path id="Path_170" data-name="Path 170" d="M6.9,37.6H2.158a.39.39,0,1,0,0,.78H4.184a5.172,5.172,0,0,0-1.144.975H.39a.39.39,0,0,0,0,.78H2.476A5.123,5.123,0,0,0,2.712,45.7H1.605a.39.39,0,0,0,0,.78H3.392a5.166,5.166,0,0,0,.792.61H.43a.39.39,0,0,0,0,.78H6.9A5.134,5.134,0,1,0,6.9,37.6ZM8.8,45.292l-.022.018-.027.018a3.179,3.179,0,0,1-3.691,0l-.027-.018-.022-.018a3.185,3.185,0,1,1,3.788,0Z" transform="translate(0 -37.6)" fill="#f2f6f8"/>
        </g>
      </g>
      <g id="Group_1414" data-name="Group 1414" transform="translate(4.765 2.76)">
        <g id="Group_1413" data-name="Group 1413" transform="translate(0 0)">
          <path id="Path_171" data-name="Path 171" d="M202.722,156.305l1.01.328a1.374,1.374,0,0,1,.737-.536v-1.062A2.412,2.412,0,0,0,202.722,156.305Z" transform="translate(-202.722 -155.036)" fill="#f2f6f8"/>
        </g>
      </g>
      <g id="Group_1416" data-name="Group 1416" transform="translate(5.822 6.424)">
        <g id="Group_1415" data-name="Group 1415">
          <path id="Path_172" data-name="Path 172" d="M249.22,310.894a1.365,1.365,0,0,1-.911,0l-.624.858a2.4,2.4,0,0,0,2.159,0Z" transform="translate(-247.685 -310.894)" fill="#f2f6f8"/>
        </g>
      </g>
      <g id="Group_1418" data-name="Group 1418" transform="translate(4.496 4.771)">
        <g id="Group_1417" data-name="Group 1417">
          <path id="Path_173" data-name="Path 173" d="M192.319,240.937c0-.012,0-.023,0-.034l-1.01-.328a2.4,2.4,0,0,0,.668,2.052l.624-.858A1.361,1.361,0,0,1,192.319,240.937Z" transform="translate(-191.283 -240.574)" fill="#f2f6f8"/>
        </g>
      </g>
    </g>
  </g>
</svg>
