<svg xmlns="http://www.w3.org/2000/svg" width="25" height="25" viewBox="0 0 25 25">
  <g id="Group_1452" data-name="Group 1452" transform="translate(-371 -1345)">
    <circle id="Ellipse_207" data-name="Ellipse 207" cx="12.5" cy="12.5" r="12.5" transform="translate(371 1345)" fill="#009688"/>
    <g id="school-bus-front" transform="translate(376.969 1351.524)">
      <path id="Path_156" data-name="Path 156" d="M.4,5.6H.8V8.01H.4a.4.4,0,0,1-.4-.4V6A.4.4,0,0,1,.4,5.6Zm12.052,0h-.4V8.01h.4a.4.4,0,0,0,.4-.4V6A.4.4,0,0,0,12.454,5.6Zm-1.205-.8v7.231a.8.8,0,0,1-.8.8v.8a.8.8,0,0,1-.8.8h-.8a.8.8,0,0,1-.8-.8v-.8H4.821v.8a.8.8,0,0,1-.8.8h-.8a.8.8,0,0,1-.8-.8v-.8a.8.8,0,0,1-.8-.8V4.8a2.411,2.411,0,0,1,2.41-2.41H8.839A2.411,2.411,0,0,1,11.249,4.8Zm-6.428-.8H8.035v-.8H4.821Zm-.8,7.232a.8.8,0,1,0-.8.8A.8.8,0,0,0,4.018,11.225Zm6.428,0a.8.8,0,1,0-.8.8A.8.8,0,0,0,10.445,11.225Zm0-6.428H2.411V9.617h8.035V4.8Z" transform="translate(0 -2.386)" fill="#fff"/>
    </g>
  </g>
</svg>
