<svg xmlns="http://www.w3.org/2000/svg" width="25" height="25" viewBox="0 0 25 25">
  <g id="Group_1772" data-name="Group 1772" transform="translate(-1455 -1654)">
    <circle id="Ellipse_208" data-name="Ellipse 208" cx="12.5" cy="12.5" r="12.5" transform="translate(1455 1654)" fill="#3f51b5"/>
    <g id="handyman-tools" transform="translate(1461.467 1660.67)">
      <path id="Path_146" data-name="Path 146" d="M11.646,13.9a2.271,2.271,0,0,0,.692-.108l1.328,1.327,1.455-1.454-1.328-1.329a2.261,2.261,0,0,0-.551-2.282,2.234,2.234,0,0,0-1.59-.659,2.274,2.274,0,0,0-.973.22.155.155,0,0,0-.043.249l1.4,1.4a.543.543,0,0,1,0,.77.556.556,0,0,1-.77,0l-1.4-1.4a.155.155,0,0,0-.249.043,2.251,2.251,0,0,0,2.03,3.223Z" transform="translate(-9.318 -9.396)" fill="#f9fafe"/>
      <path id="Path_147" data-name="Path 147" d="M151.96,149.71a2.271,2.271,0,0,0-.693.109l-1.469-1.469-1.456,1.455,1.47,1.47a2.263,2.263,0,0,0,.551,2.282,2.235,2.235,0,0,0,1.59.659,2.275,2.275,0,0,0,.973-.22.155.155,0,0,0,.043-.249l-1.4-1.4a.543.543,0,0,1,0-.77.556.556,0,0,1,.77,0l1.4,1.4a.155.155,0,0,0,.249-.043,2.251,2.251,0,0,0-2.029-3.223Z" transform="translate(-142.535 -142.619)" fill="#f9fafe"/>
      <path id="Path_148" data-name="Path 148" d="M120.381,14.645s.243.213.444.113c.227-.114.865.515,1.069.663l0,0-.111.112a.374.374,0,1,0,.529.528l.882-.88a.374.374,0,0,0-.529-.529l-.147.147c-.122-.168-.324-.453-.3-.548.107-.414-.737-1.393-.737-1.393-2.1-2.1-3.5-2.049-4.165-1.82-.268.092-.218.15.06.2,2.022.353,2.273,1.545,1.93,2.006-.132.178.06.392.06.392l.072.072-3.414,3.414a.671.671,0,0,1,.131.1l.574.574a.667.667,0,0,1,.1.13l3.414-3.414Z" transform="translate(-111.554 -10.868)" fill="#f9fafe"/>
      <path id="Path_149" data-name="Path 149" d="M11.876,166.7a.355.355,0,0,0-.475-.017l-3.794,3.4a.3.3,0,0,0-.017.442l1.033,1.033a.3.3,0,0,0,.442-.015l3.4-3.8a.355.355,0,0,0-.017-.474Z" transform="translate(-7.5 -160.117)" fill="#f9fafe"/>
    </g>
  </g>
</svg>
