<svg xmlns="http://www.w3.org/2000/svg" width="25" height="25" viewBox="0 0 25 25">
  <g id="Group_1771" data-name="Group 1771" transform="translate(-1455 -1345)">
    <circle id="Ellipse_205" data-name="Ellipse 205" cx="12.5" cy="12.5" r="12.5" transform="translate(1455 1345)" fill="#ec407a"/>
    <g id="restaurant" transform="translate(1461.163 1351.236)">
      <g id="Group_1403" data-name="Group 1403">
        <path id="Path_153" data-name="Path 153" d="M34.874,29.813a5.044,5.044,0,0,0-2.173,9.6l.158-3.053s-.3-.1-.362-.129a2.265,2.265,0,0,1-1.088-2.156,2.108,2.108,0,0,1,1.766-2.163h0a2.108,2.108,0,0,1,1.766,2.163,2.268,2.268,0,0,1-1.088,2.156l-.365.133.176,3.394a4.948,4.948,0,0,0,2.811-.114l.156-3.025a1.622,1.622,0,0,1-.984-.682c-.273-.409.21-4.027.21-4.027h.314V35.3h.312V31.91h.341v3.4h.311v-3.4h.354v3.4h.312v-3.4h.241s.483,3.618.21,4.027a1.626,1.626,0,0,1-.973.68l-.014.005.136,2.6a5.045,5.045,0,0,0-2.531-9.41Z" transform="translate(-28.888 -28.876)" fill="#f2e4e4"/>
        <path id="Path_154" data-name="Path 154" d="M91.187,142.009a1.451,1.451,0,0,1,.043-.145.066.066,0,0,0-.037-.074.06.06,0,0,0-.079.017l-.085.136a1.462,1.462,0,0,0-.142.321,2.655,2.655,0,0,0-.1.466,2.223,2.223,0,0,0-.007.27,1.277,1.277,0,0,0,.052.286,1.853,1.853,0,0,0,.451.824,1.554,1.554,0,0,0,.241.2l.023.016.04.025a.465.465,0,0,0,.1.04.058.058,0,0,0,.066-.028.059.059,0,0,0-.02-.07.631.631,0,0,1-.072-.079,1.426,1.426,0,0,1-.092-.127l-.081-.116a4.085,4.085,0,0,1-.319-.784,1.043,1.043,0,0,1-.045-.216,2.2,2.2,0,0,1-.013-.231,3.046,3.046,0,0,1,.019-.428A1.671,1.671,0,0,1,91.187,142.009Z" transform="translate(-87.927 -137.325)" fill="#f2e4e4"/>
        <path id="Path_155" data-name="Path 155" d="M5.985,0A5.985,5.985,0,1,0,11.97,5.985,5.992,5.992,0,0,0,5.985,0Zm0,11.524a5.539,5.539,0,1,1,5.539-5.539A5.545,5.545,0,0,1,5.985,11.524Z" fill="#f2e4e4"/>
      </g>
    </g>
  </g>
</svg>
