<svg xmlns="http://www.w3.org/2000/svg" width="25" height="25" viewBox="0 0 25 25">
  <g id="Group_1770" data-name="Group 1770" transform="translate(-371 -1038)">
    <circle id="Ellipse_204" data-name="Ellipse 204" cx="12.5" cy="12.5" r="12.5" transform="translate(371 1038)" fill="#558b2f"/>
    <g id="airplane-flight-in-circle-around-earth" transform="translate(377.069 1043.606)">
      <g id="Group_1398" data-name="Group 1398" transform="translate(0 0)">
        <path id="Path_135" data-name="Path 135" d="M32.4,3.107,31.38,2.484a12.976,12.976,0,0,0,.6-2.125A.553.553,0,0,0,31.643,0l-1.1,2.03-1.13-.491L29.406.8,29.06.49a4.053,4.053,0,0,1-.245,1.051,4.113,4.113,0,0,1-.708.588l.3.3.771-.415.951.658L28.946,4.65s.238.293.472.166a15.775,15.775,0,0,0,1.38-1.6s1.113.622,1.231.649.41.182.558-.172A.419.419,0,0,0,32.4,3.107Z" transform="translate(-19.533 0)" fill="#ebf1e7"/>
        <path id="Path_136" data-name="Path 136" d="M17.166,12.318a4.983,4.983,0,0,0-.55-.555l-.286.3a4.651,4.651,0,0,1,.506.5,4.794,4.794,0,0,1-.961.475,4.645,4.645,0,0,0-1.116-1.883,4.424,4.424,0,0,1,.511.205l.219-.352a4.954,4.954,0,0,0-2.151-.489h-.029a4.974,4.974,0,0,0-3.8,1.8q-.126.151-.239.312a4.964,4.964,0,0,0,0,5.746c.076.107.155.212.239.312a4.973,4.973,0,0,0,3.8,1.8h.029a4.974,4.974,0,0,0,3.828-1.8c.084-.1.163-.205.239-.312a4.965,4.965,0,0,0,0-5.746C17.329,12.523,17.251,12.419,17.166,12.318Zm-5.284-1.149a4.659,4.659,0,0,0-1.1,1.863,4.728,4.728,0,0,1-.94-.468A4.593,4.593,0,0,1,11.882,11.169ZM9.6,12.876a5.235,5.235,0,0,0,1.064.537,7.929,7.929,0,0,0-.272,2.049H8.766A4.548,4.548,0,0,1,9.6,12.876Zm-.82,2.994H10.4a7.834,7.834,0,0,0,.264,1.724,5.252,5.252,0,0,0-1.064.537A4.547,4.547,0,0,1,8.781,15.87Zm1.061,2.572a4.752,4.752,0,0,1,.938-.467,4.657,4.657,0,0,0,1.1,1.862A4.585,4.585,0,0,1,9.842,18.442Zm3.292,1.619c-.839-.115-1.563-.975-1.973-2.214a7.566,7.566,0,0,1,1.973-.3Zm0-2.925a7.817,7.817,0,0,0-2.087.327,7.6,7.6,0,0,1-.237-1.594h2.324Zm0-1.676H10.8a7.706,7.706,0,0,1,.247-1.918,7.791,7.791,0,0,0,2.086.327v1.592Zm0-2a7.562,7.562,0,0,1-1.973-.3c.411-1.238,1.134-2.1,1.973-2.215Zm.409-2.513c.829.128,1.544.988,1.95,2.218a7.561,7.561,0,0,1-1.95.3V10.948Zm0,2.922a7.807,7.807,0,0,0,2.064-.32,7.717,7.717,0,0,1,.245,1.912H13.543Zm0,2h2.3a7.638,7.638,0,0,1-.235,1.587,7.81,7.81,0,0,0-2.066-.321Zm0,4.189V17.546a7.575,7.575,0,0,1,1.952.3C15.088,19.072,14.373,19.931,13.543,20.059Zm1.215-.209a4.647,4.647,0,0,0,1.117-1.882,4.792,4.792,0,0,1,.96.474A4.59,4.59,0,0,1,14.758,19.85Zm2.317-1.719a5.243,5.243,0,0,0-1.086-.545,7.838,7.838,0,0,0,.262-1.715H17.9A4.547,4.547,0,0,1,17.076,18.131Zm-.815-2.67a7.928,7.928,0,0,0-.271-2.04,5.263,5.263,0,0,0,1.085-.545,4.545,4.545,0,0,1,.835,2.585h-1.65Z" transform="translate(-6.059 -7.177)" fill="#ebf1e7"/>
        <path id="Path_137" data-name="Path 137" d="M1.942,9.888A6.616,6.616,0,0,1,8.55,3.28a6.549,6.549,0,0,1,1.1.1l.418-.258.138-.458a9.528,9.528,0,0,0-1.66-.2A7.431,7.431,0,0,0,1.127,9.888,9.661,9.661,0,0,0,1.2,11.1c.2,1.608,2.25,4.4,3.874,4.4A7.022,7.022,0,0,1,1.942,9.888Z" transform="translate(-1.127 -1.682)" fill="#ebf1e7"/>
      </g>
    </g>
  </g>
</svg>
