<svg id="instagram_1_" data-name="instagram (1)" xmlns="http://www.w3.org/2000/svg" width="24" height="24" viewBox="0 0 24 24">
  <path id="Path_4642" data-name="Path 4642" d="M3.516,24H20.485A3.52,3.52,0,0,0,24,20.485V3.516A3.52,3.52,0,0,0,20.485,0H3.516A3.52,3.52,0,0,0,0,3.516V20.485A3.52,3.52,0,0,0,3.516,24ZM1.406,3.516A2.112,2.112,0,0,1,3.516,1.406H20.485a2.112,2.112,0,0,1,2.109,2.109V20.485a2.112,2.112,0,0,1-2.109,2.109H3.516a2.112,2.112,0,0,1-2.109-2.109Zm0,0" fill="#2386c9"/>
  <path id="Path_4643" data-name="Path 4643" d="M127.328,133.657A6.328,6.328,0,1,0,121,127.328,6.336,6.336,0,0,0,127.328,133.657Zm0-11.25a4.922,4.922,0,1,1-4.922,4.922A4.927,4.927,0,0,1,127.328,122.406Zm0,0" transform="translate(-115.328 -115.328)" fill="#2386c9"/>
  <path id="Path_4644" data-name="Path 4644" d="M363.109,65.219A2.109,2.109,0,1,0,361,63.109,2.112,2.112,0,0,0,363.109,65.219Zm0-2.813a.7.7,0,1,1-.7.7A.7.7,0,0,1,363.109,62.406Zm0,0" transform="translate(-344.078 -58.141)" fill="#2386c9"/>
</svg>
