<svg xmlns="http://www.w3.org/2000/svg" width="16.145" height="15.576" viewBox="0 0 16.145 15.576">
  <path id="mail_tag" d="M16.135,7.476a7.566,7.566,0,0,0-1.6-4.352A8.222,8.222,0,0,0,6.41.162,7.917,7.917,0,0,0,.153,6.252a7.886,7.886,0,0,0,7.919,9.324,8.193,8.193,0,0,0,3.535-.792.948.948,0,0,0,.23-1.547h0a1.008,1.008,0,0,0-1.116-.2,6.25,6.25,0,0,1-3.554.527,5.973,5.973,0,0,1-5.1-5.055A5.926,5.926,0,0,1,8.072,1.947a6.132,6.132,0,0,1,3.633,1.178,5.8,5.8,0,0,1,1.614,1.752,5.625,5.625,0,0,1,.808,2.911,1.01,1.01,0,0,1-2.019,0A3.895,3.895,0,0,0,9.7,4.235,4.142,4.142,0,0,0,6.87,4.063,3.915,3.915,0,0,0,4.12,6.98a3.938,3.938,0,0,0,3.952,4.7A3.943,3.943,0,0,0,9.7,11.34a3.8,3.8,0,0,0,1.6-1.226,3.08,3.08,0,0,0,1.817.593,1.434,1.434,0,0,0,.2-.009,3,3,0,0,0,2.816-2.6c0-.1.01-.205.01-.312S16.135,7.574,16.135,7.476ZM8.476,9.7a1.847,1.847,0,0,1-.4.039A1.989,1.989,0,0,1,6.054,7.788,1.989,1.989,0,0,1,8.072,5.84a1.847,1.847,0,0,1,.4.039,1.935,1.935,0,0,1,0,3.816Z" fill="#2386c9"/>
</svg>
