<svg xmlns="http://www.w3.org/2000/svg" width="15.8" height="15.8" viewBox="0 0 15.8 15.8">
  <g id="Group_159" data-name="Group 159" transform="translate(-384 -224)">
    <path id="Path_794" data-name="Path 794" d="M396.092,232.49a.994.994,0,0,0-.489,1.928c1.353.363,2.222.915,2.222,1.539,0,1.086-2.656,1.975-5.925,1.975s-5.925-.889-5.925-1.975c0-.623.869-1.175,2.222-1.539a.994.994,0,0,0-.489-1.928c-2.12.558-3.708,1.65-3.708,3.466,0,2.913,4.078,3.95,7.9,3.95s7.9-1.037,7.9-3.95C399.8,234.14,398.212,233.048,396.092,232.49Z" transform="translate(0 -0.106)" fill="#2386c9"/>
    <path id="Path_795" data-name="Path 795" d="M390.963,231.76v4.09a.988.988,0,1,0,1.975,0v-4.09a3.95,3.95,0,1,0-1.975,0Zm.988-5.785a1.975,1.975,0,1,1-1.975,1.975A1.974,1.974,0,0,1,391.95,225.975Z" transform="translate(-0.05)" fill="#2386c9"/>
  </g>
</svg>
