<svg xmlns="http://www.w3.org/2000/svg" width="17.333" height="26" viewBox="0 0 17.333 26">
  <path id="microphone-alt" d="M16.545,9.75h-.788a.8.8,0,0,0-.788.812V13a6.389,6.389,0,0,1-6.933,6.469,6.634,6.634,0,0,1-5.673-6.758V10.562a.8.8,0,0,0-.788-.812H.788A.8.8,0,0,0,0,10.562V12.6c0,4.552,3.15,8.61,7.485,9.226v1.734H4.727a.8.8,0,0,0-.788.813v.813A.8.8,0,0,0,4.727,26h7.879a.8.8,0,0,0,.788-.812v-.812a.8.8,0,0,0-.788-.812H9.848V21.848A8.86,8.86,0,0,0,17.333,13V10.562A.8.8,0,0,0,16.545,9.75ZM8.667,17.875A4.8,4.8,0,0,0,13.394,13h-4.2a.478.478,0,0,1-.525-.406v-.812a.478.478,0,0,1,.525-.406h4.2V9.75h-4.2a.478.478,0,0,1-.525-.406V8.531a.478.478,0,0,1,.525-.406h4.2V6.5h-4.2a.478.478,0,0,1-.525-.406V5.281a.478.478,0,0,1,.525-.406h4.2A4.8,4.8,0,0,0,8.667,0,4.8,4.8,0,0,0,3.939,4.875V13A4.8,4.8,0,0,0,8.667,17.875Z" fill="#fff"/>
</svg>
