<svg xmlns="http://www.w3.org/2000/svg" width="21.552" height="18.137" viewBox="0 0 21.552 18.137">
  <g id="multiple-users-silhouette" transform="translate(0 -6.348)">
    <path id="Path_4680" data-name="Path 4680" d="M13.006,9.461a3.916,3.916,0,0,1,1.823,2.909,3.16,3.16,0,1,0-1.823-2.909Zm-2.071,6.472a3.161,3.161,0,1,0-3.161-3.161A3.161,3.161,0,0,0,10.935,15.933Zm1.341.215H9.594A4.052,4.052,0,0,0,5.547,20.2v3.28l.008.051.226.071a18.422,18.422,0,0,0,5.5.887,11.3,11.3,0,0,0,4.8-.9l.211-.107h.023V20.2A4.051,4.051,0,0,0,12.276,16.148Zm5.229-3.263H14.844a3.9,3.9,0,0,1-1.2,2.713,4.809,4.809,0,0,1,3.435,4.6v1.011a10.891,10.891,0,0,0,4.242-.891l.211-.107h.023V16.932A4.052,4.052,0,0,0,17.505,12.885ZM5.389,12.67a3.14,3.14,0,0,0,1.681-.488A3.912,3.912,0,0,1,8.54,9.687c0-.059.009-.118.009-.178a3.161,3.161,0,1,0-3.16,3.16ZM8.227,15.6a3.9,3.9,0,0,1-1.2-2.7c-.1-.007-.2-.015-.3-.015H4.047A4.052,4.052,0,0,0,0,16.932v3.281l.008.051.226.071a18.975,18.975,0,0,0,4.558.857V20.2A4.81,4.81,0,0,1,8.227,15.6Z" fill="#fff"/>
  </g>
</svg>
