<svg xmlns="http://www.w3.org/2000/svg" width="16" height="16" viewBox="0 0 16 16">
  <path id="news_2_add" d="M268,463v-1h-1a1,1,0,1,1,0-2h1v-1a1,1,0,0,1,2,0v1h1a1,1,0,1,1,0,2h-1v1a1,1,0,1,1-2,0Zm-9,1a2.954,2.954,0,0,1-1.291-.3A2.992,2.992,0,0,1,256,461v-8a1,1,0,0,1,2,0v8a1,1,0,1,0,2,0V450a2.006,2.006,0,0,1,2-2h8a2.006,2.006,0,0,1,2,2v5a1,1,0,1,1-2,0v-5h-8v12h1a1,1,0,0,1,0,2Zm6-7a1,1,0,0,1,0-2h2a1,1,0,0,1,0,2Zm0-3a1,1,0,1,1,0-2h2a1,1,0,1,1,0,2Z" transform="translate(-256 -448)" fill="#2386c9"/>
</svg>
