<svg xmlns="http://www.w3.org/2000/svg" width="14.915" height="17.547" viewBox="0 0 14.915 17.547">
  <g id="notifications-bell-button" transform="translate(-38.25)">
    <g id="notifications-none" transform="translate(38.25)">
      <path id="Path_4318" data-name="Path 4318" d="M45.708,17.547a1.76,1.76,0,0,0,1.755-1.755H43.953A1.76,1.76,0,0,0,45.708,17.547Zm5.7-5.264V7.458A5.646,5.646,0,0,0,47.024,1.93V1.316a1.316,1.316,0,1,0-2.632,0V1.93A5.646,5.646,0,0,0,40,7.458v4.825L38.25,14.038v.877H53.165v-.877Zm-1.755.877h-7.9v-5.7a3.948,3.948,0,1,1,7.9,0Z" transform="translate(-38.25)" fill="#2386c9"/>
    </g>
  </g>
</svg>
