<svg xmlns="http://www.w3.org/2000/svg" width="18.879" height="16" viewBox="0 0 18.879 16">
  <path id="Path_4537" data-name="Path 4537" d="M239.2,773.23l-1.637.5c-.016-.039-.024-.082-.041-.12a2.91,2.91,0,0,0,1.216-1.793,6.1,6.1,0,0,1-1.814.861,4.426,4.426,0,0,0-1-.923,4.338,4.338,0,0,0-4.023-.359,4.105,4.105,0,0,0-1.061.648,4.255,4.255,0,0,0-1.566,2.994,6.7,6.7,0,0,1-6.009-3.269.95.95,0,0,0-.9-.466.961.961,0,0,0-.819.593,5.483,5.483,0,0,0-.254,4.081.96.96,0,0,0-.385.727,4.727,4.727,0,0,0,1.375,3.435.962.962,0,0,0-.019.535A4.414,4.414,0,0,0,224,783.047a9.553,9.553,0,0,1-2.738.455.962.962,0,0,0-.5,1.77,11.1,11.1,0,0,0,17.141-9.3c0-.165,0-.341-.01-.473-.009-.253-.037-.5-.064-.751A3.4,3.4,0,0,0,239.2,773.23Zm-12.393,11.908a9.177,9.177,0,0,1-2.2-.266,11.186,11.186,0,0,0,2.442-1.13.962.962,0,0,0-.42-1.776,3.093,3.093,0,0,1-1.762-.676.962.962,0,0,0,.007-1.868,2.548,2.548,0,0,1-1.7-1.255,1.738,1.738,0,0,0,.4-.018.963.963,0,0,0,.423-1.715,2.5,2.5,0,0,1-1.052-1.979,8.574,8.574,0,0,0,7.484,2.4.963.963,0,0,0,.784-1.16,1.447,1.447,0,0,1-.025-.31,2.362,2.362,0,0,1,.882-1.854,2.214,2.214,0,0,1,.566-.352,2.413,2.413,0,0,1,3.272,1.613c.032.251.055.512.064.8.009.123.008.255.008.379A9.18,9.18,0,0,1,226.805,785.137Z" transform="translate(-220.32 -771.062)" fill="#2386c9"/>
</svg>
