<svg xmlns="http://www.w3.org/2000/svg" width="20.983" height="21" viewBox="0 0 20.983 21">
  <path id="pen_2_plus" d="M111.74,435.688v-1.312h-1.31a1.312,1.312,0,0,1,0-2.625h1.31v-1.314a1.312,1.312,0,1,1,2.623,0v1.314h1.312a1.312,1.312,0,0,1,0,2.625h-1.312v1.312a1.312,1.312,0,1,1-2.623,0ZM97.316,437A1.316,1.316,0,0,1,96,435.688V417.312A1.316,1.316,0,0,1,97.316,416h7.868a1.312,1.312,0,0,1,0,2.625H98.628v15.751h6.556a1.312,1.312,0,0,1,0,2.625Zm6.556-5.25a2.632,2.632,0,0,1-2.623-2.626v-1.312a2.574,2.574,0,0,1,.775-1.85l9.177-9.188a2.592,2.592,0,0,1,3.7,0l1.312,1.312a2.592,2.592,0,0,1,0,3.7l-9.177,9.188a2.582,2.582,0,0,1-1.849.775Zm0-3.938v1.312h1.312l9.178-9.187-1.312-1.314Z" transform="translate(-96.005 -416)" fill="#2386c9"/>
</svg>
