<svg xmlns="http://www.w3.org/2000/svg" width="15.785" height="16" viewBox="0 0 15.785 16">
  <path id="Shape_581" data-name="Shape 581" d="M3.238,13.406c-.126-.114-.239-.229-.337-.327a9.494,9.494,0,0,1-1.478-1.9,7.888,7.888,0,0,1-.383-.721A9.9,9.9,0,0,1,0,6,10,10,0,0,1,.841,1.958,1.992,1.992,0,0,1,2.023.872L4.311.1A1.963,1.963,0,0,1,6.8,1.368l.986,3A2.011,2.011,0,0,1,6.8,6.789l-.718.365a3.988,3.988,0,0,0,1,1.68,3.861,3.861,0,0,0,1.644,1l.359-.727a1.958,1.958,0,0,1,2.389-1l2.959,1a2.005,2.005,0,0,1,1.249,2.526l-.76,2.32a1.989,1.989,0,0,1-1.072,1.2A9.645,9.645,0,0,1,9.865,16,9.766,9.766,0,0,1,3.238,13.406ZM2.644,2.77A8.017,8.017,0,0,0,1.973,6a7.928,7.928,0,0,0,.839,3.58,6.037,6.037,0,0,0,.3.56,7.483,7.483,0,0,0,1.174,1.51c.089.09.176.18.275.27A7.817,7.817,0,0,0,9.865,14a7.723,7.723,0,0,0,3.187-.68l.76-2.32-2.96-1-.987,2a5.825,5.825,0,0,1-4.182-1.76A5.985,5.985,0,0,1,3.946,6L5.919,5,4.933,2ZM13.812,7A5.46,5.46,0,0,0,8.879,2a.993.993,0,0,1-.987-1,.994.994,0,0,1,.987-1,7.426,7.426,0,0,1,6.906,7,.986.986,0,1,1-1.973,0ZM9.865,6a1,1,0,0,1,0-2,1.946,1.946,0,0,1,1.974,2A.987.987,0,1,1,9.865,6Z" fill="#2386c9"/>
</svg>
