<svg xmlns="http://www.w3.org/2000/svg" width="14" height="16" viewBox="0 0 14 16">
  <path id="profile_close_1" d="M12.973,9.969a10.049,10.049,0,0,0-2.527-1.355A4.979,4.979,0,0,0,7.59.038,3.654,3.654,0,0,0,7,0a3.654,3.654,0,0,0-.589.038A4.98,4.98,0,0,0,3.554,8.614,10.044,10.044,0,0,0,1.028,9.969a2.52,2.52,0,0,0,0,4.062,10.041,10.041,0,0,0,11.944,0,2.521,2.521,0,0,0,0-4.062ZM3.992,5a2.99,2.99,0,0,1,2.7-2.98A1.576,1.576,0,0,1,7,2a1.581,1.581,0,0,1,.311.02A3,3,0,1,1,3.992,5Zm7.786,7.424a8.03,8.03,0,0,1-9.555,0,.523.523,0,0,1,0-.849,8.034,8.034,0,0,1,9.555,0A.524.524,0,0,1,11.778,12.424Z" fill="#2386c9"/>
</svg>
