<svg xmlns="http://www.w3.org/2000/svg" width="10.974" height="10.964" viewBox="0 0 10.974 10.964">
  <path id="profile_close_2" d="M426.9,361.143a5.541,5.541,0,0,0-3.042-3.161,3.345,3.345,0,0,0,1.222-2.556,3.469,3.469,0,0,0-3.165-3.4,3.42,3.42,0,0,0-.843,0,3.469,3.469,0,0,0-3.165,3.4,3.343,3.343,0,0,0,1.222,2.556,5.54,5.54,0,0,0-3.043,3.161,1.323,1.323,0,0,0,.186,1.245,1.456,1.456,0,0,0,1.169.576h8.106a1.454,1.454,0,0,0,1.169-.576A1.319,1.319,0,0,0,426.9,361.143Zm-7.56-5.717a2.086,2.086,0,0,1,1.93-2.042,1.182,1.182,0,0,1,.223-.014,1.17,1.17,0,0,1,.222.014,2.062,2.062,0,1,1-2.374,2.042Zm-1.9,6.167a4.367,4.367,0,0,1,8.106,0Z" transform="translate(-416.005 -352)" fill="#4e67fd"/>
</svg>
