<svg xmlns="http://www.w3.org/2000/svg" width="18.695" height="17.495" viewBox="0 0 18.695 17.495">
  <g id="Group_251" data-name="Group 251" transform="translate(-359.662 -771.445)">
    <path id="Path_4538" data-name="Path 4538" d="M369.009,772.455c-.032,0-.062-.01-.1-.01a4.331,4.331,0,0,0-4.135,4.5,4.83,4.83,0,0,0,.162,1.182l-.474-.232a1.017,1.017,0,0,0-1.387.554,1.163,1.163,0,0,0,.525,1.489l1.013.667a5.858,5.858,0,0,1-3.956,3.918s.517.654,2.857,1.09c0,0-.045.8.563.92a6.635,6.635,0,0,1,2.7.678,3.78,3.78,0,0,0,4.455,0,6.631,6.631,0,0,1,2.7-.678c.607-.121.562-.92.562-.92,2.34-.436,2.858-1.09,2.858-1.09a5.86,5.86,0,0,1-3.957-3.918l1.013-.667a1.162,1.162,0,0,0,.526-1.489,1.018,1.018,0,0,0-1.388-.554l-.474.232a4.83,4.83,0,0,0,.162-1.182,4.331,4.331,0,0,0-4.135-4.5C369.072,772.445,369.041,772.455,369.009,772.455Z" fill="none" stroke="#2386c9" stroke-linejoin="round" stroke-width="2"/>
  </g>
</svg>
