<svg xmlns="http://www.w3.org/2000/svg" width="29.262" height="23.95" viewBox="0 0 29.262 23.95">
  <path id="twitter" d="M29.262,3.2c-1.841.085-1.8.078-2.009.1L28.343.181s-3.4,1.252-4.265,1.476a6.827,6.827,0,0,0-8.041-.647A5.569,5.569,0,0,0,13.36,6.736,14.853,14.853,0,0,1,3.738,1.319L2.931.349l-.6,1.108a6.694,6.694,0,0,0-.713,4.507,6.475,6.475,0,0,0,.627,1.759l-.693-.268L1.467,8.611a6.174,6.174,0,0,0,1.047,3.67,6.526,6.526,0,0,0,.816,1.006l-.358-.055.437,1.326A6.446,6.446,0,0,0,6.722,18.4c-1.545.656-2.793,1.074-4.845,1.749L0,20.763l1.734.948a18.2,18.2,0,0,0,5.3,1.931c5.13.8,10.906.149,14.8-3.353,3.275-2.95,4.35-7.146,4.127-11.512A2.728,2.728,0,0,1,26.47,7c.726-.97,2.787-3.8,2.792-3.8ZM25.1,5.974a4.443,4.443,0,0,0-.85,2.891c.225,4.4-.973,7.82-3.562,10.152-3.024,2.724-7.9,3.793-13.383,2.933A13.272,13.272,0,0,1,4.436,21.1,45.468,45.468,0,0,0,9.63,18.963l2.995-1.417-3.306-.212a4.676,4.676,0,0,1-3.713-2.115,5.93,5.93,0,0,0,1.259-.21l3.153-.878-3.18-.779A4.736,4.736,0,0,1,3.945,11.34a4.85,4.85,0,0,1-.627-1.383,7.938,7.938,0,0,0,1.29.206l2.943.291L5.219,8.634a4.908,4.908,0,0,1-1.86-5.172A17.058,17.058,0,0,0,15.38,8.636,10.152,10.152,0,0,0,15.2,7.182a3.937,3.937,0,0,1,1.73-4.712,5.121,5.121,0,0,1,6.041.5,1.534,1.534,0,0,0,1.408.377,11.849,11.849,0,0,0,1.16-.353L24.8,5.105h.944l-.649.868Zm0,0" transform="translate(0 0)" fill="#2386c9"/>
</svg>
