<svg id="Group_110" data-name="Group 110" xmlns="http://www.w3.org/2000/svg" width="15.959" height="16.175" viewBox="0 0 15.959 16.175">
  <g id="Group_108" data-name="Group 108" transform="translate(5.074 5.185)">
    <path id="Path_4314" data-name="Path 4314" d="M314.845,780.409,313.611,780a.468.468,0,0,0-.536.222l-.291.584-.3-.093a2,2,0,0,1-1.348-1.348l-.094-.3.584-.293a.445.445,0,0,0,.222-.536l-.41-1.23a.46.46,0,0,0-.424-.3.421.421,0,0,0-.14.02l-.95.32a.422.422,0,0,0-.266.233,3.71,3.71,0,0,0-.319,1.512,3.749,3.749,0,0,0,.392,1.665c.028.056.061.114.094.172l.058.1a3.468,3.468,0,0,0,.551.689l.134.125a3.759,3.759,0,0,0,4.005.654.448.448,0,0,0,.234-.261l.32-.954a.452.452,0,0,0-.027-.348A.43.43,0,0,0,314.845,780.409Z" transform="translate(-309.335 -776.698)" fill="#2386c9" fill-rule="evenodd"/>
  </g>
  <g id="Group_109" data-name="Group 109">
    <path id="Path_4315" data-name="Path 4315" d="M305.26,787.688a1,1,0,0,1-.977-1.211l.839-3.889a7.807,7.807,0,0,1-.672-3.191A7.878,7.878,0,1,1,309,786.546l-3.44,1.095A1.013,1.013,0,0,1,305.26,787.688Zm3.826-3.218a1.008,1.008,0,0,1,.473.118,5.886,5.886,0,1,0-3.109-5.191,5.819,5.819,0,0,0,.616,2.625,1,1,0,0,1,.082.658l-.546,2.531,2.181-.694A.982.982,0,0,1,309.086,784.47Z" transform="translate(-304.261 -771.513)" fill="#2386c9"/>
  </g>
</svg>
