<svg xmlns="http://www.w3.org/2000/svg" width="50" height="51" viewBox="0 0 50 51">
  <g id="Group_1757" data-name="Group 1757" transform="translate(-59 -942)">
    <g id="Group_1722" data-name="Group 1722" transform="translate(59.037 942)">
      <ellipse id="Ellipse_453" data-name="Ellipse 453" cx="25" cy="25.5" rx="25" ry="25.5" transform="translate(-0.037)" fill="#2ed645"/>
    </g>
    <g id="like" transform="translate(72 954.839)">
      <g id="Group_1713" data-name="Group 1713" transform="translate(0 4.764)">
        <g id="Group_1712" data-name="Group 1712">
          <path id="Path_4676" data-name="Path 4676" d="M53.957,102.831A2.355,2.355,0,0,0,52.2,98.905H47.63a15.227,15.227,0,0,0,.646-3.979v-.785A3.145,3.145,0,0,0,45.135,91H44.35a.785.785,0,0,0-.762.595l-.428,1.711c-.6,2.4-2.5,5.041-4.472,5.522A2.359,2.359,0,0,0,36.5,97.335H31.785A.786.786,0,0,0,31,98.12v14.135a.786.786,0,0,0,.785.785H36.5a2.358,2.358,0,0,0,2.127-1.343l2.7.9a8.619,8.619,0,0,0,2.732.443h6.578a2.356,2.356,0,0,0,2.19-3.224,2.354,2.354,0,0,0,1.134-3.844,2.351,2.351,0,0,0,0-3.141Zm-16.675,7.853a.786.786,0,0,1-.785.785H32.571V98.905H36.5a.786.786,0,0,1,.785.785Zm13.35-7.067H52.2a.785.785,0,1,1,0,1.571H50.632a.785.785,0,0,0,0,1.571H52.2a.785.785,0,1,1,0,1.571H50.632a.785.785,0,0,0,0,1.571.785.785,0,1,1,0,1.571H44.053a7.052,7.052,0,0,1-2.235-.363l-2.965-.988V100.4a6.328,6.328,0,0,0,3.526-2.291,11.458,11.458,0,0,0,2.305-4.423l.279-1.117h.172a1.572,1.572,0,0,1,1.571,1.571v.785a12.426,12.426,0,0,1-.752,3.979h-1.6a.785.785,0,1,0,0,1.571H52.2a.785.785,0,1,1,0,1.571H50.632a.785.785,0,0,0,0,1.571Z" transform="translate(-31 -91)" fill="#fff"/>
        </g>
      </g>
      <g id="Group_1715" data-name="Group 1715" transform="translate(2.865 21.652)">
        <g id="Group_1714" data-name="Group 1714" transform="translate(0)">
          <ellipse id="Ellipse_452" data-name="Ellipse 452" cx="0.642" cy="1.284" rx="0.642" ry="1.284" fill="#fff"/>
        </g>
      </g>
      <g id="Group_1717" data-name="Group 1717" transform="translate(14.135)">
        <g id="Group_1716" data-name="Group 1716">
          <path id="Path_4677" data-name="Path 4677" d="M301.785,0A.785.785,0,0,0,301,.785V2.408a.785.785,0,0,0,1.571,0V.785A.785.785,0,0,0,301.785,0Z" transform="translate(-301)" fill="#fff"/>
        </g>
      </g>
      <g id="Group_1719" data-name="Group 1719" transform="translate(9.137 2.122)">
        <g id="Group_1718" data-name="Group 1718">
          <path id="Path_4678" data-name="Path 4678" d="M207.992,41.882l-1.111-1.111a.785.785,0,1,0-1.111,1.111l1.111,1.111a.785.785,0,0,0,1.111-1.111Z" transform="translate(-205.54 -40.542)" fill="#fff"/>
        </g>
      </g>
      <g id="Group_1721" data-name="Group 1721" transform="translate(18.022 2.122)">
        <g id="Group_1720" data-name="Group 1720">
          <path id="Path_4679" data-name="Path 4679" d="M377.7,40.772a.785.785,0,0,0-1.111,0l-1.111,1.11a.785.785,0,0,0,1.111,1.111l1.111-1.111A.785.785,0,0,0,377.7,40.772Z" transform="translate(-375.247 -40.542)" fill="#fff"/>
        </g>
      </g>
    </g>
  </g>
</svg>
