<svg xmlns="http://www.w3.org/2000/svg" width="23.988" height="24" viewBox="0 0 23.988 24">
  <g id="worlwide" transform="translate(-0.138)">
    <g id="Group_1566" data-name="Group 1566" transform="translate(0.138)">
      <path id="Path_4645" data-name="Path 4645" d="M20.613,3.519A11.912,11.912,0,0,0,12.294.008C12.239,0,12.185,0,12.132,0s-.108,0-.162.008A11.993,11.993,0,0,0,3.651,20.481a11.912,11.912,0,0,0,8.318,3.511c.055.005.109.008.162.008s.108,0,.162-.008A11.993,11.993,0,0,0,20.613,3.519ZM4.659,4.528a10.511,10.511,0,0,1,4.5-2.673,11.45,11.45,0,0,0-1.091,1.5A14.207,14.207,0,0,0,6.933,5.644H3.688A10.722,10.722,0,0,1,4.659,4.528ZM2.779,7.07H6.453a17.892,17.892,0,0,0-.664,4.218h-4.2A10.485,10.485,0,0,1,2.779,7.07Zm0,9.861a10.483,10.483,0,0,1-1.191-4.218h4.2a17.891,17.891,0,0,0,.664,4.218Zm1.88,2.542a10.7,10.7,0,0,1-.971-1.116H6.933A14.2,14.2,0,0,0,8.068,20.65a11.45,11.45,0,0,0,1.091,1.5A10.511,10.511,0,0,1,4.659,19.473Zm6.76,2.808A7.694,7.694,0,0,1,9.281,19.9a12.518,12.518,0,0,1-.806-1.545h2.944v3.924Zm0-5.35H7.941a16.316,16.316,0,0,1-.725-4.218h4.2v4.218Zm0-5.644h-4.2A16.312,16.312,0,0,1,7.941,7.07h3.478v4.218Zm0-5.644H8.475A12.518,12.518,0,0,1,9.281,4.1a7.693,7.693,0,0,1,2.138-2.38V5.644ZM21.484,7.07a10.484,10.484,0,0,1,1.191,4.218h-4.2A17.891,17.891,0,0,0,17.81,7.07ZM19.6,4.528a10.722,10.722,0,0,1,.971,1.116H17.33A14.2,14.2,0,0,0,16.2,3.351a11.446,11.446,0,0,0-1.091-1.5A10.511,10.511,0,0,1,19.6,4.528Zm-6.76-2.808A7.694,7.694,0,0,1,14.983,4.1a12.518,12.518,0,0,1,.806,1.545H12.845V1.719Zm0,5.35h3.478a16.313,16.313,0,0,1,.725,4.218h-4.2Zm4.2,5.644a16.312,16.312,0,0,1-.725,4.218H12.845V12.713Zm-4.2,9.568V18.357h2.944a12.518,12.518,0,0,1-.806,1.545A7.693,7.693,0,0,1,12.845,22.281Zm6.76-2.808a10.512,10.512,0,0,1-4.5,2.673,11.45,11.45,0,0,0,1.091-1.5,14.207,14.207,0,0,0,1.134-2.293h3.245A10.716,10.716,0,0,1,19.6,19.473Zm1.88-2.542H17.81a17.889,17.889,0,0,0,.664-4.218h4.2A10.485,10.485,0,0,1,21.484,16.931Z" transform="translate(-0.138)" fill="#2386c9"/>
    </g>
  </g>
</svg>
