<svg xmlns="http://www.w3.org/2000/svg" width="55" height="55" viewBox="0 0 55 55">
  <g id="أجهزة_طبية" data-name="أجهزة طبية" transform="translate(-160 -101)">
    <rect id="Rectangle_12" data-name="Rectangle 12" width="55" height="55" rx="18" transform="translate(160 101)" fill="#66bb6a"/>
    <g id="lifeline" transform="translate(154 59)">
      <path id="Path_241" data-name="Path 241" d="M47.1,75.926a3.532,3.532,0,0,0,1.2-2.656V60.54A3.544,3.544,0,0,0,44.764,57H23.236a3.544,3.544,0,0,0-3.54,3.54V73.27a3.532,3.532,0,0,0,1.2,2.657A1.951,1.951,0,0,0,19,77.884V80.23a2.01,2.01,0,0,0,1.992,2.023H47.008A2.01,2.01,0,0,0,49,80.23V77.884A1.952,1.952,0,0,0,47.1,75.926ZM23.236,57.886H44.764a2.657,2.657,0,0,1,2.654,2.654v5.674H45.329a.443.443,0,0,0-.414.285l-.194.509-.457-1.476a.437.437,0,0,0-.424-.306h0a.436.436,0,0,0-.423.308l-.626,2.071-1.2-5.908a.443.443,0,0,0-.874.032l-.962,7.7L38.67,63.7a.443.443,0,0,0-.866-.022l-.843,3.485-.356-.733a.443.443,0,0,0-.4-.25H32.514l-.638-1.8a.442.442,0,0,0-.417-.293h-.006a.438.438,0,0,0-.415.306l-.4,1.238-.723-2.4a.443.443,0,0,0-.858.04l-1.013,4.994-.976-7.8a.443.443,0,0,0-.875-.027l-1.235,6.568-.644-2.6a.443.443,0,0,0-.837-.07l-.779,1.8-2.115,0v-5.6A2.657,2.657,0,0,1,23.236,57.886ZM20.582,73.27V67.027l2.405.036h0a.458.458,0,0,0,.406-.283l.373-.869.818,3.3a.443.443,0,0,0,.865-.028L26.539,63.4l.96,7.669a.443.443,0,0,0,.874.033l1.2-5.921L30.2,67.25a.445.445,0,0,0,.42.319h0a.447.447,0,0,0,.422-.311l.434-1.347.305.858a.442.442,0,0,0,.418.294h3.727l.774,1.594a.443.443,0,0,0,.829-.089l.65-2.686,1.228,6.493a.443.443,0,0,0,.435.361h.014a.443.443,0,0,0,.426-.388l.977-7.823,1.012,4.981a.443.443,0,0,0,.858.04l.714-2.367.407,1.323a.443.443,0,0,0,.837.028l.544-1.427,1.783,0V73.27a2.657,2.657,0,0,1-2.654,2.654H23.236A2.657,2.657,0,0,1,20.582,73.27Zm27.532,6.96a1.137,1.137,0,0,1-1.106,1.137H20.992a1.137,1.137,0,0,1-1.106-1.137V77.884a1.078,1.078,0,0,1,1.106-1.074h1.679a.441.441,0,0,0,.147-.025,3.554,3.554,0,0,0,.418.025H44.764a3.553,3.553,0,0,0,.372-.02.443.443,0,0,0,.131.02h1.743a1.078,1.078,0,0,1,1.106,1.074Z"/>
      <path id="Path_242" data-name="Path 242" d="M55.551,380.44a1.551,1.551,0,1,0,1.551,1.551,1.551,1.551,0,0,0-1.551-1.551Zm0,2.215a.665.665,0,1,1,.665-.665A.665.665,0,0,1,55.551,382.655Z" transform="translate(-32.785 -302.969)"/>
      <path id="Path_243" data-name="Path 243" d="M347.911,387h-2.468a.443.443,0,0,0-.443.443v1.9a.443.443,0,0,0,.443.443h2.468a.443.443,0,0,0,.443-.443v-1.9A.443.443,0,0,0,347.911,387Zm-.443,1.9h-1.582v-1.013h1.582Z" transform="translate(-305.367 -309.114)"/>
      <path id="Path_244" data-name="Path 244" d="M408.785,387h-2.342a.443.443,0,0,0-.443.443v1.9a.443.443,0,0,0,.443.443h2.342a.443.443,0,0,0,.443-.443v-1.9A.443.443,0,0,0,408.785,387Zm-.443,1.9h-1.456v-1.013h1.456Z" transform="translate(-362.506 -309.114)"/>
      <path id="Path_245" data-name="Path 245" d="M147.987,378h-7.595A1.394,1.394,0,0,0,139,379.392v.886a1.394,1.394,0,0,0,1.392,1.392h7.595a1.394,1.394,0,0,0,1.392-1.392v-.886A1.394,1.394,0,0,0,147.987,378Zm.506,2.279a.507.507,0,0,1-.506.506h-7.595a.507.507,0,0,1-.506-.506v-.886a.507.507,0,0,1,.506-.506h7.595a.507.507,0,0,1,.506.506Z" transform="translate(-112.405 -300.684)"/>
    </g>
  </g>
</svg>
