<svg xmlns="http://www.w3.org/2000/svg" width="55" height="55" viewBox="0 0 55 55">
  <g id="أخرى" transform="translate(-218 -42)">
    <rect id="حرفي_و_بناء" data-name="حرفي و بناء" width="55" height="55" rx="18" transform="translate(218 42)" fill="#607d8b"/>
    <g id="deal" transform="translate(233 -24.333)">
      <g id="Group_1635" data-name="Group 1635" transform="translate(0 85.333)">
        <path id="Path_4338" data-name="Path 4338" d="M26.691,86.556a.557.557,0,0,0-.513-.067L21.6,88.152a2.228,2.228,0,0,0-1.271,1.169,2.255,2.255,0,0,0-.11.316,20.735,20.735,0,0,1-3.7-1.437,4.546,4.546,0,0,0-5.3.524c-.728.014-1.731.1-2.717.187-.629.055-1.223.107-1.705.136A2.245,2.245,0,0,0,5.327,87.03L.753,85.367A.561.561,0,0,0,0,85.894V97.115a.561.561,0,0,0,.561.561H2.2a2.256,2.256,0,0,0,1.765-.86c.223.17.488.369.765.577.655.493,1.371,1.03,1.686,1.294,2.089,1.749,4.6,3.637,5.1,3.966a4.118,4.118,0,0,0,1.949.633,2.06,2.06,0,0,0,1.324-.374,1.8,1.8,0,0,0,1.406-.031,2.1,2.1,0,0,0,1.04-1.041,2.184,2.184,0,0,0,1.4-.2,1.913,1.913,0,0,0,.912-.918,1.763,1.763,0,0,0,1.226-.391,1.818,1.818,0,0,0,.735-1.664l1.423-.787a2.248,2.248,0,0,0,1.8.923h1.639a.561.561,0,0,0,.561-.561V87.016A.561.561,0,0,0,26.691,86.556ZM3.251,95.825a1.127,1.127,0,0,1-1.051.728H1.122V86.695l3.821,1.389a1.122,1.122,0,0,1,.667,1.448ZM20.09,99.434c-.19.146-.456.227-.575.109-.006-.006-.015-.005-.022-.011s-.016-.023-.028-.033c-.4-.317-2.2-2.155-3.309-3.314a.561.561,0,1,0-.81.776c.261.272,2.353,2.451,3.191,3.214a.775.775,0,0,1-.407.457.865.865,0,0,1-.874.02s-.01,0-.015-.007-.01-.015-.017-.02c-.673-.538-2.361-2.331-2.743-2.747a.561.561,0,1,0-.826.759c.018.02,1.673,1.8,2.6,2.633a.986.986,0,0,1-.516.585.732.732,0,0,1-.766-.114c-.806-.683-2.423-2.4-2.741-2.745a.561.561,0,1,0-.82.766c.377.4,1.491,1.585,2.339,2.384a2.424,2.424,0,0,1-.288.018,3.084,3.084,0,0,1-1.332-.449c-.393-.259-2.863-2.1-5-3.888C6.814,97.556,6.077,97,5.4,96.5c-.361-.271-.694-.521-.939-.71l2.1-5.6c.545-.024,1.272-.087,2.042-.155.435-.038.871-.076,1.287-.108-.64.657-1.591,1.833-1.466,2.936a1.617,1.617,0,0,0,.8,1.209,2.99,2.99,0,0,0,3.431-.913,3.9,3.9,0,0,0,1.273-.4c.657.618,1.539,1.345,2.465,2.108a22.483,22.483,0,0,1,3.922,3.678A.676.676,0,0,1,20.09,99.434Zm.962-1.8a27.776,27.776,0,0,0-3.947-3.639c-1.052-.867-2.046-1.686-2.683-2.323a.564.564,0,0,0-.661-.1,3.243,3.243,0,0,1-1.474.5.561.561,0,0,0-.419.259,2.007,2.007,0,0,1-2.051.788.5.5,0,0,1-.275-.385,3.4,3.4,0,0,1,1.231-2.106c1.985-1.985,3.4-2.373,5.24-1.427A21.766,21.766,0,0,0,20.2,90.8a2.252,2.252,0,0,0,.067.251l2.178,5.81Zm4.756.046H24.73a1.127,1.127,0,0,1-1.051-.728l-2.36-6.293a1.123,1.123,0,0,1,.667-1.449l3.821-1.389v9.859Z" transform="translate(0 -85.333)" fill="#fff"/>
      </g>
    </g>
  </g>
</svg>
