<svg xmlns="http://www.w3.org/2000/svg" width="315" height="120" viewBox="0 0 315 120">
  <g id="أسواق_تجارية" data-name="أسواق تجارية" transform="translate(-31 -431)">
    <g id="أدوات_كهربائية" data-name="أدوات كهربائية">
      <rect id="Rectangle_82" data-name="Rectangle 82" width="55" height="55" rx="18" transform="translate(31 496)" fill="#f44336"/>
      <g id="kitchen-set" transform="translate(43 508)">
        <path id="Path_309" data-name="Path 309" d="M29.626,104H18.579a.5.5,0,0,0-.5.5v12.051H15.566v-.5h.5a.5.5,0,0,0,0-1H11.047a.5.5,0,0,0,0,1h.5v.5H6.528v-.5h.5a.5.5,0,0,0,0-1H2.009a.5.5,0,0,0,0,1h.5v.5H.5a.5.5,0,0,0-.5.5V127.1a.5.5,0,0,0,.5.5H29.626a.5.5,0,0,0,.5-.5V104.5A.5.5,0,0,0,29.626,104Zm-10.545,1H29.124v7.03H19.081Zm-6.528,11.047h2.009v.5H12.554Zm-9.039,0H5.524v.5H3.515ZM1,117.558h7.03v2.009H1Zm0,3.013h7.03V126.6H1Zm8.034-3.013h9.039V126.6H9.039ZM29.124,126.6H19.081V113.039H29.124Zm0,0" transform="translate(0 -97.472)" fill="#fff"/>
        <path id="Path_310" data-name="Path 310" d="M166.528,336H160.5a.5.5,0,0,0-.5.5v6.026a.5.5,0,0,0,.5.5h6.026a.5.5,0,0,0,.5-.5V336.5A.5.5,0,0,0,166.528,336Zm-.5,6.026H161V337h5.021Zm0,0" transform="translate(-149.957 -314.91)" fill="#fff"/>
        <path id="Path_311" data-name="Path 311" d="M312.5,176a.5.5,0,0,0-.5.5v2.009a.5.5,0,1,0,1,0V176.5A.5.5,0,0,0,312.5,176Zm0,0" transform="translate(-292.416 -164.953)" fill="#fff"/>
        <path id="Path_312" data-name="Path 312" d="M312.5,259.013a.5.5,0,0,0,.5-.5V256.5a.5.5,0,0,0-1,0v2.009A.5.5,0,0,0,312.5,259.013Zm0,0" transform="translate(-292.416 -239.931)" fill="#fff"/>
        <path id="Path_313" data-name="Path 313" d="M16.491,9.039H31.556a.5.5,0,0,0,.386-.824L26.921,2.189a.5.5,0,0,0-.386-.18h-.5V.5a.5.5,0,0,0-.5-.5H22.517a.5.5,0,0,0-.5.5V2.009h-.5a.5.5,0,0,0-.386.18L16.105,8.215a.5.5,0,0,0,.386.824ZM23.019,1h2.009v1H23.019ZM21.749,3.013H26.3l4.185,5.021H17.563Zm0,0" transform="translate(-14.985)" fill="#fff"/>
      </g>
    </g>
    <g id="بقالة">
      <rect id="Rectangle_82-2" data-name="Rectangle 82" width="55" height="55" rx="18" transform="translate(31 431)" fill="#f44336"/>
      <g id="groceries" transform="translate(48 445)">
        <path id="Path_314" data-name="Path 314" d="M267.784,182.013a.489.489,0,0,0,.62-.306.862.862,0,0,1,1.091-.538,1.84,1.84,0,0,0,2.331-1.15.489.489,0,1,0-.926-.314.861.861,0,0,1-1.091.538,1.843,1.843,0,0,0-2.331,1.15A.49.49,0,0,0,267.784,182.013Zm0,0" transform="translate(-252.942 -169.643)" fill="#fff"/>
        <path id="Path_315" data-name="Path 315" d="M289.1,119.211a.489.489,0,0,0,.62-.306.859.859,0,0,1,1.091-.538,1.84,1.84,0,0,0,2.331-1.15.489.489,0,1,0-.925-.314.86.86,0,0,1-1.091.538,1.837,1.837,0,0,0-2.331,1.15.488.488,0,0,0,.306.62Zm0,0" transform="translate(-273.106 -110.246)" fill="#fff"/>
        <path id="Path_316" data-name="Path 316" d="M310.411,61.349a.489.489,0,0,0,.62-.306.636.636,0,0,1,.805-.4,1.612,1.612,0,0,0,2.046-1.008.489.489,0,1,0-.926-.314.634.634,0,0,1-.806.4,1.617,1.617,0,0,0-2.046,1.009A.49.49,0,0,0,310.411,61.349Zm0,0" transform="translate(-293.257 -55.791)" fill="#fff"/>
        <path id="Path_317" data-name="Path 317" d="M20.694,12.334a.636.636,0,0,0-.279-.1A34.407,34.407,0,0,0,22,3.037,3.289,3.289,0,0,0,20.655.3,2,2,0,0,0,18.568.279c-1.46.753-2.5,2.969-3.343,4.75l-.143.3A2.831,2.831,0,0,0,13.533,3.37a2.331,2.331,0,0,0-1.812-1.8,1.524,1.524,0,0,0-.037-.151,1.685,1.685,0,0,0-1.4-1.193A1.662,1.662,0,0,0,9.247.438,1.774,1.774,0,0,0,8.383.213,1.8,1.8,0,0,0,6.633,1.6,2.2,2.2,0,0,0,5.015,3.7,2.448,2.448,0,0,0,3.348,6.951,1.921,1.921,0,0,0,2.92,8.162a1.9,1.9,0,0,0,.159.764,2.6,2.6,0,0,0-1.947-.94.489.489,0,0,0,.015.978h.047a1.7,1.7,0,0,1,1.194.655A3.327,3.327,0,0,0,.242,11.028a2.489,2.489,0,0,0-.118,1.8A.849.849,0,0,0,0,13.31L.833,25.132a2.784,2.784,0,0,0,2.782,2.643H17.336a2.782,2.782,0,0,0,2.781-2.634l.853-12.234s0-.006,0-.009a.634.634,0,0,0-.277-.564ZM15.481,6.729c.194-.361.4-.809.628-1.284.735-1.56,1.742-3.7,2.907-4.3a1.065,1.065,0,0,1,1.12-.019,2.361,2.361,0,0,1,.884,1.882,33.482,33.482,0,0,1-1.569,9.04c-.032.1-.1.308-.2.591l-.833.37a.483.483,0,0,0-.053.028,1.5,1.5,0,0,1-1.56,0l-.348-.209a2.523,2.523,0,0,0-1.3-.361h-.017a2.519,2.519,0,0,0-1.316.36l-.348.209a1.534,1.534,0,0,1-.626.2c.012-.042.026-.084.039-.126.134-.455.278-.9.428-1.349.057-.169.117-.337.177-.5.126-.353.257-.7.393-1.049.061-.155.12-.311.182-.465a32.661,32.661,0,0,1,1.414-3.015ZM9.25,7.889c.057-.073.113-.145.166-.214v0a1.206,1.206,0,0,0,.1-.158,1.047,1.047,0,0,0,.093-.729l2.04-.446a1.12,1.12,0,0,0,.052.182,1.1,1.1,0,0,0,.482.54c.074.041.152.082.232.125l.2.107.1.052c.058.033.114.069.171.1s.1.061.143.093.106.079.158.121.089.078.132.119a1.961,1.961,0,0,1,.135.143,1.68,1.68,0,0,1,.207.3c-.207.458-.4.924-.591,1.4-.029.073-.061.144-.089.217a4.99,4.99,0,0,0-1.693.845,2.877,2.877,0,0,1-2.394.581L8.593,9.9A2.23,2.23,0,0,1,9.25,7.889ZM11.673,4.92a.212.212,0,0,1,.038,0,.206.206,0,0,1,.2.159.2.2,0,0,1-.154.24l-2.7.591a.2.2,0,0,1-.086-.4L10.405,5.2Zm-1.58,7.56c-.037,0-.075,0-.112.007a2.509,2.509,0,0,0-.779.207l-.093-.428c.141.012.281.024.413.024a3.78,3.78,0,0,0,2.328-.815,5.976,5.976,0,0,1,.677-.422c-.045.128-.089.255-.133.383-.031.092-.065.182-.1.275q-.216.653-.408,1.316l-.325-.195a2.522,2.522,0,0,0-1.3-.361h-.018c-.052,0-.1,0-.154.008ZM4.247,7.426l.32-.264L4.36,6.8A1.47,1.47,0,0,1,5.573,4.6l.593-.025-.138-.578A1.2,1.2,0,0,1,7.112,2.5l.452-.034V1.983a.821.821,0,0,1,.82-.793A.808.808,0,0,1,8.93,1.4l.343.309L9.6,1.389a.692.692,0,0,1,.57-.194.705.705,0,0,1,.575.5.64.64,0,0,1,.023.26l-.057.546h.55A1.346,1.346,0,0,1,12.6,3.749l.022.321.3.106a1.863,1.863,0,0,1,1.249,1.8,1.764,1.764,0,0,1-.321.97,5.172,5.172,0,0,0-.976-.621c-.077-.041-.151-.08-.226-.121a.106.106,0,0,1-.055-.084.279.279,0,0,1,.068-.217A1.05,1.05,0,0,0,12.9,5l-.059-.269a1.042,1.042,0,0,0-1.24-.8l-.131.029h0l-1.435.314-1.4.306a1.044,1.044,0,0,0-.8,1.241l.029.133h0s0,0,0,0L7.89,6.1a1.04,1.04,0,0,0,.6.732.3.3,0,0,1,.162.158c.013.036.005.055-.023.1h0c-.048.065-.1.131-.154.2s-.11.14-.166.215c-.019.025-.037.051-.056.076-.041.055-.081.111-.121.17-.022.032-.043.065-.065.1-.037.057-.073.116-.108.177-.02.035-.04.07-.06.106-.037.068-.07.14-.1.214-.014.031-.029.061-.042.094a2.68,2.68,0,0,0-.111.335c0,.019-.007.039-.011.058a2.668,2.668,0,0,0-.055.31c0,.043-.006.088-.009.132s-.011.113-.011.172l-.006-.007-.02-.025C7.45,9.3,7.365,9.2,7.279,9.1c-.027-.031-.054-.06-.082-.09q-.108-.116-.216-.219c-.023-.022-.047-.046-.071-.068A3.39,3.39,0,0,0,6.635,8.5c-.026-.018-.052-.034-.078-.052-.07-.047-.139-.09-.209-.128-.034-.019-.068-.037-.1-.053a2.175,2.175,0,0,0-.22-.092c-.024-.009-.049-.021-.073-.028a2.009,2.009,0,0,0-.242-.061c-.009,0-.019,0-.028,0s-.033-.009-.049-.012c-.057-.008-.111,0-.166-.009-.039,0-.078-.011-.117-.011l-.036,0a1.985,1.985,0,0,0-.223.019c-.037,0-.073.008-.11.015a2.3,2.3,0,0,0-.282.071l-.042.013a3.07,3.07,0,0,0-.69.341.931.931,0,0,1-.068-.35.953.953,0,0,1,.349-.736ZM1.107,11.484a2.439,2.439,0,0,1,1.58-.936A2.639,2.639,0,0,0,3.78,9.921c.139-.133.27-.246.4-.349a2.175,2.175,0,0,1,1.041-.534l.021,0a.993.993,0,0,1,.283.008c.024,0,.048.013.073.019a1.011,1.011,0,0,1,.136.041c.029.011.058.028.088.042s.085.039.127.065.066.046.1.069.079.053.119.086.074.066.111.1.074.065.111.1.083.09.124.136.067.072.1.113c.046.056.093.119.14.181.03.039.059.074.089.116.053.074.107.157.161.239.024.036.047.068.071.106q.117.184.235.392a3.713,3.713,0,0,1,.323,2.39l-.077-.01a1.517,1.517,0,0,1-.529-.189l-.349-.209a2.522,2.522,0,0,0-1.3-.361H5.36a2.519,2.519,0,0,0-1.316.36l-.17.1a1.9,1.9,0,0,1-.958.27,1.888,1.888,0,0,1-.958-.27l-.658-.4h0a.835.835,0,0,0-.276-.1,1.4,1.4,0,0,1,.083-.949Zm18.037,13.6A1.807,1.807,0,0,1,17.338,26.8H3.617a1.809,1.809,0,0,1-1.806-1.725L1,13.516l.425.255a2.871,2.871,0,0,0,1.495.41,2.867,2.867,0,0,0,1.495-.41l.17-.1a1.5,1.5,0,0,1,1.56,0l.349.209a2.514,2.514,0,0,0,1.434.351c.044,0,.088,0,.132-.006.005,0,.01,0,.016,0a2.51,2.51,0,0,0,.963-.315.473.473,0,0,0,.085-.026l.349-.209a1.5,1.5,0,0,1,1.56,0l.349.209a2.526,2.526,0,0,0,1.2.353H12.6a2.484,2.484,0,0,0,.427-.02c.081-.01.16-.031.239-.049.039-.009.077-.018.115-.029a2.5,2.5,0,0,0,.627-.257l.349-.209a1.5,1.5,0,0,1,1.56,0l.349.209a2.524,2.524,0,0,0,1.309.359H17.6a2.523,2.523,0,0,0,1.272-.344l.959-.426a.5.5,0,0,0,.054-.039l.075-.033Zm0,0" transform="translate(0 0)" fill="#fff"/>
        <path id="Path_318" data-name="Path 318" d="M45.551,370.431h3.422a.489.489,0,0,0,0-.978H45.551a.489.489,0,0,0,0,.978Zm0,0" transform="translate(-42.617 -349.411)" fill="#fff"/>
        <path id="Path_319" data-name="Path 319" d="M45.551,406.474h4.4a.489.489,0,1,0,0-.978h-4.4a.489.489,0,0,0,0,.978Zm0,0" transform="translate(-42.617 -383.499)" fill="#fff"/>
        <path id="Path_320" data-name="Path 320" d="M50.928,441.539H45.552a.489.489,0,0,0,0,.978h5.377a.489.489,0,1,0,0-.978Zm0,0" transform="translate(-42.618 -417.586)" fill="#fff"/>
        <path id="Path_321" data-name="Path 321" d="M181.681,441.539H180.7a.489.489,0,1,0,0,.978h.978a.489.489,0,1,0,0-.978Zm0,0" transform="translate(-170.438 -417.586)" fill="#fff"/>
      </g>
    </g>
    <g id="مكتبات_و_قرطاسية" data-name="مكتبات و قرطاسية">
      <rect id="Rectangle_82-3" data-name="Rectangle 82" width="55" height="55" rx="18" transform="translate(96 431)" fill="#f44336"/>
      <path id="pencil-cup" d="M121.682,4.042a2.22,2.22,0,0,0-.878-.808l.254-1.094a1.77,1.77,0,0,0,.045-.394,1.745,1.745,0,0,0-3.446-.395l-2.3,9.889h-.41V3.087a1.473,1.473,0,0,0-1.472-1.472h-1.987a1.473,1.473,0,0,0-1.472,1.472V11.24h-.447l-1.951-6.134a1.745,1.745,0,1,0-3.337,1.023l1.567,5.111h-.969l1.91,21.627h11.329l1.909-21.627h-1.085l1.6-6.884a1.154,1.154,0,0,1,.363,1.128l-1.068,4.6,1.055.245,1.068-4.6A2.22,2.22,0,0,0,121.682,4.042Zm-7.816,2.6H111.1v-.4h2.764ZM111.491,2.7h1.987a.389.389,0,0,1,.388.388V5.155H111.1V3.087A.389.389,0,0,1,111.491,2.7ZM111.1,7.726h2.764V11.24H111.1Zm7.743,4.6-.13,1.466H106.194l-.13-1.466ZM107.371,7.9l-1.292.4-.434-1.416,1.277-.391Zm-1.613-2.912a.662.662,0,0,1,.829.444l.007.023-1.266.388-.009-.028A.663.663,0,0,1,105.758,4.985Zm.639,4.343,1.3-.4.735,2.312h-1.452Zm10.73,22.456h-9.345l-1.493-16.91H118.62Zm-.655-20.543,1.408-6.062,1.29.3-1.339,5.762ZM120,1.9l-.587,2.527-1.29-.3.587-2.528a.662.662,0,0,1,1.307.15A.683.683,0,0,1,120,1.9Z" transform="translate(10.793 441.999)" fill="#fff"/>
    </g>
    <g id="أدوات_صحية" data-name="أدوات صحية">
      <rect id="Rectangle_82-4" data-name="Rectangle 82" width="55" height="55" rx="18" transform="translate(161 431)" fill="#f44336"/>
      <g id="toothpaste" transform="translate(179 445)">
        <path id="Path_322" data-name="Path 322" d="M12.338,0H.425A.426.426,0,0,0,0,.468L2.129,21.741a.419.419,0,0,0,.1.226l-.005,0,2.029,2.434v1.548a.425.425,0,0,0,.425.425h3.4a.425.425,0,0,0,.425-.425V24.405l2.029-2.434-.005,0a.419.419,0,0,0,.1-.226L12.762.468A.425.425,0,0,0,12.338,0ZM7.233.851V3.4h-1.7V.851ZM4.68.851V3.829a.426.426,0,0,0,.425.425H7.658a.426.426,0,0,0,.425-.425V.851h3.785l-.425,4.255H1.321L.9.851Zm3.2,22.975H4.879l-1.418-1.7H9.3Zm-2.779.851h.851v.851H5.105Zm2.553.851H6.807v-.851h.851Zm2.168-4.255H2.938L1.406,5.956h9.951Zm0,0" transform="translate(0)" fill="#fff"/>
        <path id="Path_323" data-name="Path 323" d="M276.68,0h-4.255A.426.426,0,0,0,272,.425V5.531a.426.426,0,0,0,.425.425h3.829v5.106h-2.127a.426.426,0,0,0-.425.425V24.677a1.7,1.7,0,1,0,3.4,0V.425A.426.426,0,0,0,276.68,0ZM273.7,3.4h-.851V2.553h.851Zm0-2.553V1.7h-.851V.851Zm-.851,3.4h.851v.851h-.851Zm1.7-3.4h1.7V5.106h-1.7Zm1.7,23.826a.851.851,0,1,1-1.7,0V11.913h1.7Zm0,0" transform="translate(-257.534 0)" fill="#fff"/>
        <path id="Path_324" data-name="Path 324" d="M66.978,160c-1.67,0-2.978,2.056-2.978,4.68s1.308,4.68,2.978,4.68,2.978-2.056,2.978-4.68S68.648,160,66.978,160Zm0,.851c1.073,0,1.991,1.52,2.112,3.4H64.865c.122-1.884,1.04-3.4,2.113-3.4Zm0,7.658c-1.073,0-1.991-1.519-2.112-3.4h4.225c-.122,1.884-1.039,3.4-2.113,3.4Zm0,0" transform="translate(-60.596 -151.491)" fill="#fff"/>
      </g>
    </g>
    <g id="محلات_جملة" data-name="محلات جملة">
      <rect id="Rectangle_82-5" data-name="Rectangle 82" width="55" height="55" rx="18" transform="translate(226 431)" fill="#f44336"/>
      <g id="wholesaler" transform="translate(239.699 445)">
        <path id="Path_325" data-name="Path 325" d="M232.3,201.6h1.779v.889H232.3Zm0,0" transform="translate(-219.104 -190.395)" fill="#fff"/>
        <path id="Path_326" data-name="Path 326" d="M328.3,201.6h1.779v.889H328.3Zm0,0" transform="translate(-309.767 -190.395)" fill="#fff"/>
        <path id="Path_327" data-name="Path 327" d="M328.3,265.6h1.779v.889H328.3Zm0,0" transform="translate(-309.767 -250.837)" fill="#fff"/>
        <path id="Path_328" data-name="Path 328" d="M232.3,265.6h1.779v.889H232.3Zm0,0" transform="translate(-219.104 -250.837)" fill="#fff"/>
        <path id="Path_329" data-name="Path 329" d="M232.3,329.6h1.779v.889H232.3Zm0,0" transform="translate(-219.104 -311.28)" fill="#fff"/>
        <path id="Path_330" data-name="Path 330" d="M328.3,329.6h1.779v.889H328.3Zm0,0" transform="translate(-309.767 -311.28)" fill="#fff"/>
        <path id="Path_331" data-name="Path 331" d="M320.3,433.6h.889v.889H320.3Zm0,0" transform="translate(-302.212 -409.499)" fill="#fff"/>
        <path id="Path_332" data-name="Path 332" d="M25.649,6.938,13.642,0,1.635,6.938v10.94h.889V7.471l11.118-6.4,11.118,6.4V25.882H20.313a1.791,1.791,0,0,0,.4-.889h1.823a1.31,1.31,0,0,0,1.334-1.334V21.435A1.31,1.31,0,0,0,22.536,20.1V10.762a1.329,1.329,0,0,0-1.29-1.334H12.263a1.329,1.329,0,0,0-1.29,1.334V20.1h-.889v-7.56H9.195v.889H7.06a1.282,1.282,0,0,0-1.156.711l-3.2,6a1.022,1.022,0,0,0-.178.623v2.891a1.31,1.31,0,0,0,1.334,1.334h.934a3.21,3.21,0,0,0,.4.889H.3v.889H26.983v-.889H25.649ZM9.15,24.993h7.2a3.21,3.21,0,0,0,.4.889h-8a3.216,3.216,0,0,0,.4-.889Zm8.049-.445a1.334,1.334,0,1,1,1.334,1.334A1.31,1.31,0,0,1,17.2,24.548Zm0-4.447V17.433h4.447V20.1Zm0-6.226h4.447v2.668H17.2Zm-.889,2.668H11.863V13.875H16.31Zm5.337-5.781v2.224H17.2V10.317h4.047a.439.439,0,0,1,.4.445Zm-9.383-.445H16.31v2.668H11.863V10.762A.439.439,0,0,1,12.263,10.317Zm-.4,7.115H16.31V20.1H11.863Zm-5.2-2.891a.467.467,0,0,1,.4-.222H9.195V20.1H3.725ZM3.414,23.659V20.99H22.536a.42.42,0,0,1,.445.445v2.224a.42.42,0,0,1-.445.445H20.713a2.222,2.222,0,0,0-2.624-1.735A2.182,2.182,0,0,0,16.355,24.1H9.15a2.222,2.222,0,0,0-2.624-1.735A2.182,2.182,0,0,0,4.792,24.1H3.858a.42.42,0,0,1-.445-.445Zm2.224.889a1.334,1.334,0,1,1,1.334,1.334A1.31,1.31,0,0,1,5.637,24.548Zm0,0" fill="#fff"/>
        <path id="Path_333" data-name="Path 333" d="M112.3,433.6h.889v.889H112.3Zm0,0" transform="translate(-105.774 -409.499)" fill="#fff"/>
        <path id="Path_334" data-name="Path 334" d="M197.638,49.6,194.969,48,192.3,49.6v3.825h5.337Zm-4.447.534,1.334-.8v3.2H193.19Zm3.558,2.4h-1.334v-3.2l1.334.8Zm0,0" transform="translate(-181.327 -45.332)" fill="#fff"/>
      </g>
    </g>
    <g id="خضار_و_فواكه" data-name="خضار و فواكه">
      <rect id="Rectangle_82-6" data-name="Rectangle 82" width="55" height="55" rx="18" transform="translate(291 431)" fill="#f44336"/>
      <g id="diet" transform="translate(305 419.363)">
        <g id="Group_227" data-name="Group 227" transform="translate(8.652 35.687)">
          <g id="Group_226" data-name="Group 226" transform="translate(0 0)">
            <path id="Path_335" data-name="Path 335" d="M159.632,191.7a1.283,1.283,0,0,0-2.23.844.412.412,0,0,0,.405.419h.007a.412.412,0,0,0,.412-.405.458.458,0,0,1,.466-.45.453.453,0,0,1,.33.149.412.412,0,1,0,.609-.556Z" transform="translate(-157.402 -191.28)" fill="#fff"/>
          </g>
        </g>
        <g id="Group_229" data-name="Group 229" transform="translate(10.862 36.732)">
          <g id="Group_228" data-name="Group 228">
            <path id="Path_336" data-name="Path 336" d="M199.807,211a1.178,1.178,0,0,0-2.188.052.412.412,0,1,0,.773.287.355.355,0,0,1,.454-.209.348.348,0,0,1,.2.192.412.412,0,0,0,.759-.323Z" transform="translate(-197.594 -210.283)" fill="#fff"/>
          </g>
        </g>
        <g id="Group_231" data-name="Group 231" transform="translate(14.641 33.676)">
          <g id="Group_230" data-name="Group 230" transform="translate(0 0)">
            <path id="Path_337" data-name="Path 337" d="M267.431,154.814a.412.412,0,0,0-.583,0l-.389.389a.412.412,0,0,0,.584.582l.389-.389A.412.412,0,0,0,267.431,154.814Z" transform="translate(-266.339 -154.693)" fill="#fff"/>
          </g>
        </g>
        <g id="Group_233" data-name="Group 233" transform="translate(12.206 39.119)">
          <g id="Group_232" data-name="Group 232" transform="translate(0 0)">
            <path id="Path_338" data-name="Path 338" d="M223.011,253.709h-.549a.412.412,0,1,0,0,.825h.549a.412.412,0,1,0,0-.825Z" transform="translate(-222.049 -253.709)" fill="#fff"/>
          </g>
        </g>
        <g id="Group_235" data-name="Group 235" transform="translate(16.419 39.119)">
          <g id="Group_234" data-name="Group 234" transform="translate(0 0)">
            <path id="Path_339" data-name="Path 339" d="M299.654,253.709h-.55a.412.412,0,1,0,0,.825h.55a.412.412,0,1,0,0-.825Z" transform="translate(-298.692 -253.709)" fill="#fff"/>
          </g>
        </g>
        <g id="Group_237" data-name="Group 237" transform="translate(0 26.637)">
          <g id="Group_236" data-name="Group 236" transform="translate(0 0)">
            <path id="Path_340" data-name="Path 340" d="M28.131,46.553l-.107-.579a.782.782,0,0,0-.911-.626l-2.186.4.99-.662a.779.779,0,0,0,.246-1.032l-.3-.53a.78.78,0,0,0-.783-.39,10.429,10.429,0,0,0,.167-1.862.689.689,0,0,0-.41-.629,3.161,3.161,0,0,0,.025-2.392.5.5,0,0,0-.28-.281,3.136,3.136,0,0,0-1.165-.224q-.077,0-.153,0a2.173,2.173,0,0,0-2.619-2.023,3.4,3.4,0,0,0-.192-1.815.507.507,0,0,0-.285-.287,3.388,3.388,0,0,0-3.063.281,4.077,4.077,0,0,0-.971-1.553.7.7,0,0,0-.991,0l-2,2a2.072,2.072,0,0,0-1.383-.526,2.085,2.085,0,0,0-1.488.625,2.072,2.072,0,0,0-1.537-.11V32.8a1.946,1.946,0,0,0-1.909-1.945v-.874a.688.688,0,0,0,.57-.676V27.324a.688.688,0,0,0-.687-.687H3.362a.688.688,0,0,0-.687.687v1.981a.688.688,0,0,0,.57.676v.874A1.946,1.946,0,0,0,1.336,32.8V44.834A3.938,3.938,0,0,0,0,47.761a4.267,4.267,0,0,0,4.414,4.092l16.5,0a1.887,1.887,0,0,0,1.867-2.182l3.3.592a.788.788,0,0,0,.139.012.782.782,0,0,0,.774-.666l.089-.6a.779.779,0,0,0-.6-.876l-1.162-.266,2.183-.4a.781.781,0,0,0,.628-.91Zm-4.713-7.982a2.312,2.312,0,0,1,.727.117,2.335,2.335,0,0,1-.2,1.9H22.837l.354-.355a.412.412,0,0,0-.584-.582l-.188.188a1.912,1.912,0,0,0-.443-.761A2.305,2.305,0,0,1,23.418,38.571Zm-2.325-2.066a1.354,1.354,0,0,1,1.35,1.354c0,.014,0,.028,0,.041a3.132,3.132,0,0,0-1.177.7c-.054-.021-.11-.04-.166-.055a1.913,1.913,0,0,0-1.14-1.418A1.348,1.348,0,0,1,21.093,36.505Zm-2.179-2.3a2.554,2.554,0,0,1,.82.135,2.583,2.583,0,0,1-.1,1.9,2.19,2.19,0,0,0-.528.732,1.945,1.945,0,0,0-.22.025,1.925,1.925,0,0,0-.876.4,2.182,2.182,0,0,0-.312-.433l.945-.948a.412.412,0,0,0-.584-.582l-1.033,1.036a2.155,2.155,0,0,0-.632-.188,2.573,2.573,0,0,1,2.522-2.081Zm-3.159,6.375H15.4a.412.412,0,0,0-.767,0h-.42a.412.412,0,0,0-.643-.507l-.389.389a.41.41,0,0,0-.081.117h-.839a3.261,3.261,0,0,1-.529-1.664H18.27a3.261,3.261,0,0,1-.529,1.664h-.873a.411.411,0,0,0-.081-.117l-.389-.389a.412.412,0,0,0-.643.507ZM14.8,38.1a1.349,1.349,0,0,1,2.607,0Zm.843-5.069a3.26,3.26,0,0,1,.779,1.456,3.4,3.4,0,0,0-.523.75.41.41,0,0,0-.215-.061H15.13a.412.412,0,1,0,0,.825h.482a3.414,3.414,0,0,0-.063.345,2.156,2.156,0,0,0-.466.182,2.081,2.081,0,0,0-1.269-.969v0a2.087,2.087,0,0,0-.166-.528Zm-7.453,3.72a1.244,1.244,0,0,1-.055-.207,1.258,1.258,0,0,1,1.024-1.452,1.272,1.272,0,0,1,.217-.019,1.246,1.246,0,0,1,.751.25.412.412,0,0,0,.59-.1,1.248,1.248,0,0,1,.834-.546,1.272,1.272,0,0,1,.218-.019A1.25,1.25,0,0,1,13,35.691a1.264,1.264,0,0,1,.018.214.412.412,0,0,0,.376.41,1.255,1.255,0,0,1,1.035.739,2.174,2.174,0,0,0-.476,1.041H11.6a.7.7,0,0,0-.648.436,3.146,3.146,0,0,0-2.931-.318.5.5,0,0,0-.279.28,3.159,3.159,0,0,0-.192.733,1.254,1.254,0,0,1,.419-1.967A.412.412,0,0,0,8.186,36.746Zm1.229,3.725.112.113h-.99a2.336,2.336,0,0,1-.076-1.653,2.319,2.319,0,0,1,2.536.75,4.073,4.073,0,0,0,.316.9h-.621l-.694-.7a.412.412,0,0,0-.584.582Zm-1.756.113H6.19a1.356,1.356,0,0,1,.639-.941,2.073,2.073,0,0,0,.752.623A3.188,3.188,0,0,0,7.66,40.583ZM3.5,27.462H6.577v1.706H3.5Zm2.508,2.531v.863H4.069v-.863ZM2.16,34.473H4.837a.412.412,0,1,0,0-.825H2.16V32.8A1.121,1.121,0,0,1,3.278,31.68H6.8A1.121,1.121,0,0,1,7.916,32.8v.847h-.77a.412.412,0,1,0,0,.825h.77v.366a2.078,2.078,0,0,0-.6,1.841v0a2.083,2.083,0,0,0-.873,2.07c.008.047.018.094.03.14a2.186,2.186,0,0,0-.549.432H2.16Zm0,5.678H5.448a2.163,2.163,0,0,0-.09.433H5.289a.689.689,0,0,0-.688.689A10.433,10.433,0,0,0,4.779,43.2c-.118-.01-.24-.015-.364-.015a3.757,3.757,0,0,0-1.337.223c-.557.22-.71.532-.744.748-.059.029-.117.06-.174.092v-4.1Zm5.221,5.065a1.561,1.561,0,0,1,.292.293H7.657a2.562,2.562,0,0,1-1.129-.358,2.971,2.971,0,0,1-.473-.321.412.412,0,0,0-.533,0,2.954,2.954,0,0,1-.473.321,2.561,2.561,0,0,1-1.129.358H3.9a1.559,1.559,0,0,1,.292-.293.412.412,0,0,0-.21-.731,1.97,1.97,0,0,1-.776-.224,2.348,2.348,0,0,1,1.206-.251,2.57,2.57,0,0,1,1.17.229.412.412,0,0,0,.4,0,2.571,2.571,0,0,1,1.171-.229,2.348,2.348,0,0,1,1.205.251,1.968,1.968,0,0,1-.776.224.412.412,0,0,0-.21.731Zm-.825,5.018.014.076a1.878,1.878,0,0,0,.3.719H4.414a3.444,3.444,0,0,1-3.59-3.267A3.239,3.239,0,0,1,2.685,44.9a1.771,1.771,0,0,0,.474.243.977.977,0,0,0-.139.408.672.672,0,0,0,.164.508.936.936,0,0,0,.736.274,3.4,3.4,0,0,0,1.529-.461q.18-.1.34-.21.159.11.34.21a3.406,3.406,0,0,0,1.529.461h0a.936.936,0,0,0,.735-.274.671.671,0,0,0,.164-.508.977.977,0,0,0-.139-.408,1.775,1.775,0,0,0,.474-.243,3.335,3.335,0,0,1,1.767,2.121L7.743,48.128A1.885,1.885,0,0,0,6.556,50.233Zm15.18.408a1.067,1.067,0,0,1-.821.383h-.433l-.27-1.46a.412.412,0,0,0-.811.15l.243,1.31H18.226l-.183-.987a.412.412,0,0,0-.811.15l.155.837h-3.3l-.248-1.341a.412.412,0,0,0-.811.15l.221,1.191-4.818,0h0a1.066,1.066,0,0,1-1.05-.869l-.014-.076A1.061,1.061,0,0,1,8.036,48.9l1.62-.616.121.652a.412.412,0,0,0,.4.337.418.418,0,0,0,.076-.007.412.412,0,0,0,.33-.48l-.148-.8,2.405-.914a.412.412,0,0,0-.293-.771l-1.119.425a4.178,4.178,0,0,0-2.19-2.572c-.034-.216-.187-.528-.744-.748a3.757,3.757,0,0,0-1.337-.223,4.183,4.183,0,0,0-.96.107v-.249a.412.412,0,0,0-.667-.324,9.631,9.631,0,0,1-.107-1.31H18.855a.412.412,0,1,0,0-.825h-.169A4.081,4.081,0,0,0,19.1,38.8a.7.7,0,0,0-.633-.7,1.087,1.087,0,0,1,.562-.281,1.112,1.112,0,0,1,.19-.016,1.089,1.089,0,0,1,1.075.905,1.1,1.1,0,0,1,.016.186.412.412,0,0,0,.376.41,1.093,1.093,0,0,1,.98.9,1.078,1.078,0,0,1,0,.38h-.442a.412.412,0,0,0,0,.825h3.2a9.5,9.5,0,0,1-.289,2.212L21.9,44.939A1.893,1.893,0,0,0,19.407,43.7l-4.6,1.748a.412.412,0,0,0,.293.771l.606-.23L15.893,47a.412.412,0,0,0,.4.337.417.417,0,0,0,.076-.007.412.412,0,0,0,.33-.48l-.216-1.164,3.212-1.22a1.07,1.07,0,0,1,.9.067,1.059,1.059,0,0,1,.526.733l.834,4.5A1.054,1.054,0,0,1,21.736,50.641Zm1.471-3.227a.412.412,0,0,0-.018.807l3.07.7-.077.514L22.624,48.8l-.556-3,3.1-1.83.258.457-2.614,1.748a.412.412,0,0,0,.3.748l4.107-.754.091.494Z" transform="translate(0 -26.637)" fill="#fff"/>
          </g>
        </g>
      </g>
    </g>
    <g id="محلات">
      <rect id="Rectangle_82-7" data-name="Rectangle 82" width="55" height="55" rx="18" transform="translate(96 496)" fill="#f44336"/>
      <g id="shop" transform="translate(110 479.95)">
        <g id="Group_240" data-name="Group 240" transform="translate(0 31.05)">
          <path id="Path_341" data-name="Path 341" d="M253.842,263.75h-3.77a1.873,1.873,0,0,0-1.871,1.871v2.892a1.873,1.873,0,0,0,1.871,1.871h3.77a1.873,1.873,0,0,0,1.871-1.871v-2.892A1.873,1.873,0,0,0,253.842,263.75Zm.51,4.763a.512.512,0,0,1-.51.51h-3.77a.512.512,0,0,1-.51-.51v-2.892a.512.512,0,0,1,.51-.51h3.77a.512.512,0,0,1,.51.51Z" transform="translate(-234.127 -250.556)" fill="#fff"/>
          <path id="Path_342" data-name="Path 342" d="M27.748,38.988a.632.632,0,0,0-.091-.335L23.53,31.4a.684.684,0,0,0-.59-.346H4.8a.672.672,0,0,0-.59.346L.091,38.653A.688.688,0,0,0,0,38.988a3.98,3.98,0,0,0,2.381,3.64V54.6a.682.682,0,0,0,.68.68H24.681a.682.682,0,0,0,.68-.68V42.713a.3.3,0,0,0-.006-.074A3.991,3.991,0,0,0,27.748,38.988ZM5.2,32.416H22.543l3.226,5.676H1.979Zm14.549,7.031a2.615,2.615,0,0,1-5.148,0Zm-6.594,0a2.618,2.618,0,0,1-5.154,0Zm-11.748,0H6.56a2.618,2.618,0,0,1-5.154,0ZM11.43,53.916H7.518V46.574a.969.969,0,0,1,.97-.97h1.979a.969.969,0,0,1,.97.97v7.342Zm12.57,0H12.791V46.574a2.334,2.334,0,0,0-2.33-2.33H8.482a2.334,2.334,0,0,0-2.33,2.33v7.348H3.742V42.962c.079.006.159.006.238.006a3.975,3.975,0,0,0,3.3-1.758,3.976,3.976,0,0,0,6.6,0,3.966,3.966,0,0,0,6.588,0,3.975,3.975,0,0,0,3.3,1.758c.079,0,.153-.006.232-.006V53.916Zm-.232-12.309a2.614,2.614,0,0,1-2.574-2.155h5.154A2.63,2.63,0,0,1,23.768,41.607Z" transform="translate(0 -31.05)" fill="#fff"/>
        </g>
      </g>
    </g>
    <g id="مغسلة_و_مصابغ" data-name="مغسلة و مصابغ">
      <rect id="Rectangle_82-8" data-name="Rectangle 82" width="55" height="55" rx="18" transform="translate(161 496)" fill="#f44336"/>
      <g id="washing-machine" transform="translate(174 510)">
        <path id="Path_343" data-name="Path 343" d="M25.994,0H4.688a.426.426,0,0,0-.426.426V16.238A2.125,2.125,0,0,0,1.7,18.324v.009A2.135,2.135,0,0,0,.9,19.6H.426A.426.426,0,0,0,0,20.028v1.7a.426.426,0,0,0,.426.426H.852v1.278a2.987,2.987,0,0,0,2.983,2.983H25.994a.426.426,0,0,0,.426-.426V.426A.426.426,0,0,0,25.994,0Zm-.426.852V5.114H5.114V.852ZM2.362,18.919a.427.427,0,0,0,.214-.426l-.007-.05a.86.86,0,0,1-.012-.12,1.28,1.28,0,0,1,1.278-1.278,1.266,1.266,0,0,1,1.093.629.426.426,0,0,0,.642.107,1.262,1.262,0,0,1,.822-.309,1.278,1.278,0,0,1,1.109.657.427.427,0,0,0,.447.211.863.863,0,0,1,.985.679.426.426,0,0,0,.746.2,1.265,1.265,0,0,1,2.175.389H1.79a1.283,1.283,0,0,1,.572-.683Zm5.735-4a7.276,7.276,0,1,1,5.482,7.02.416.416,0,0,0,.057-.2v-.657a6.4,6.4,0,1,0-3.845-2.992,2.071,2.071,0,0,0-.277.149,1.706,1.706,0,0,0-.917-.683,7.2,7.2,0,0,1-.5-2.636ZM10.678,17.9a5.491,5.491,0,0,1-.729-1.707h.278a1.446,1.446,0,0,0,1.029-.426l.25-.249a.616.616,0,0,1,.852,0l.25.249a1.49,1.49,0,0,0,2.057,0l.25-.249a.616.616,0,0,1,.852,0l.25.249a1.49,1.49,0,0,0,2.057,0l.25-.249a.616.616,0,0,1,.852,0l.25.249a1.446,1.446,0,0,0,1.029.426h.272a5.52,5.52,0,0,1-7.09,3.988v-.153a.426.426,0,0,0-.426-.426h-.469a2.133,2.133,0,0,0-2.063-1.7ZM9.8,14.915a5.54,5.54,0,0,1,11.08,0c0,.144-.011.285-.022.426h-.4a.6.6,0,0,1-.426-.176l-.25-.25a1.49,1.49,0,0,0-2.057,0l-.25.249a.616.616,0,0,1-.852,0l-.25-.249a1.49,1.49,0,0,0-2.057,0l-.25.249a.616.616,0,0,1-.852,0l-.25-.249a1.49,1.49,0,0,0-2.057,0l-.25.249a.6.6,0,0,1-.426.177h-.41C9.807,15.2,9.8,15.058,9.8,14.915ZM.852,20.455H12.784v.852H.852Zm8.523,5.114H3.835A2.133,2.133,0,0,1,1.7,23.438V22.159H11.932v1.278A2.133,2.133,0,0,1,9.8,25.568Zm2.51,0a2.972,2.972,0,0,0,.9-2.131v-.845a8.141,8.141,0,1,0-5.273-5.647,2.083,2.083,0,0,0-2.12-.069,2.147,2.147,0,0,0-.278-.246V5.966H25.568v19.6Zm0,0" fill="#fff"/>
        <path id="Path_344" data-name="Path 344" d="M113.278,34.557A1.278,1.278,0,1,0,112,33.278,1.28,1.28,0,0,0,113.278,34.557Zm0-1.7a.426.426,0,1,1-.426.426A.427.427,0,0,1,113.278,32.852Zm0,0" transform="translate(-106.034 -30.296)" fill="#fff"/>
        <path id="Path_345" data-name="Path 345" d="M177.278,34.557A1.278,1.278,0,1,0,176,33.278,1.28,1.28,0,0,0,177.278,34.557Zm0-1.7a.426.426,0,1,1-.426.426A.427.427,0,0,1,177.278,32.852Zm0,0" transform="translate(-166.625 -30.296)" fill="#fff"/>
        <path id="Path_346" data-name="Path 346" d="M241.278,34.557A1.278,1.278,0,1,0,240,33.278,1.28,1.28,0,0,0,241.278,34.557Zm0-1.7a.426.426,0,1,1-.426.426A.427.427,0,0,1,241.278,32.852Zm0,0" transform="translate(-227.216 -30.296)" fill="#fff"/>
        <path id="Path_347" data-name="Path 347" d="M448,64h.852v.852H448Zm0,0" transform="translate(-424.136 -60.591)" fill="#fff"/>
        <path id="Path_348" data-name="Path 348" d="M448,32h.852v.852H448Zm0,0" transform="translate(-424.136 -30.296)" fill="#fff"/>
        <path id="Path_349" data-name="Path 349" d="M416,64h.852v.852H416Zm0,0" transform="translate(-393.841 -60.591)" fill="#fff"/>
        <path id="Path_350" data-name="Path 350" d="M416,32h.852v.852H416Zm0,0" transform="translate(-393.841 -30.296)" fill="#fff"/>
        <path id="Path_351" data-name="Path 351" d="M384,64h.852v.852H384Zm0,0" transform="translate(-363.545 -60.591)" fill="#fff"/>
        <path id="Path_352" data-name="Path 352" d="M384,32h.852v.852H384Zm0,0" transform="translate(-363.545 -30.296)" fill="#fff"/>
        <path id="Path_353" data-name="Path 353" d="M352,64h.852v.852H352Zm0,0" transform="translate(-333.25 -60.591)" fill="#fff"/>
        <path id="Path_354" data-name="Path 354" d="M352,32h.852v.852H352Zm0,0" transform="translate(-333.25 -30.296)" fill="#fff"/>
      </g>
    </g>
  </g>
</svg>
