<svg xmlns="http://www.w3.org/2000/svg" width="55" height="55" viewBox="0 0 55 55">
  <g id="أطباء" transform="translate(-30 -101)">
    <rect id="Rectangle_12" data-name="Rectangle 12" width="55" height="55" rx="18" transform="translate(30 101)" fill="#66bb6a"/>
    <g id="doctor" transform="translate(25.201 116)">
      <g id="Group_172" data-name="Group 172" transform="translate(20.799 0)">
        <path id="Path_237" data-name="Path 237" d="M36.488,12.594a10.608,10.608,0,0,0,2.472-6.317,6.277,6.277,0,1,0-12.553,0,10.608,10.608,0,0,0,2.472,6.317c-9.208,3.095-8.243,11.613-7.839,13.35H44.327A11.3,11.3,0,0,0,36.488,12.594ZM32.683.838a5.432,5.432,0,0,1,4.949,3.2,3.759,3.759,0,0,1-4.208-.184,4.41,4.41,0,0,0-4.739.2l-1.267.889A5.445,5.445,0,0,1,32.683.838ZM27.244,6.277c0-.066.005-.133.01-.2l1.91-1.343A3.571,3.571,0,0,1,33,4.571a4.591,4.591,0,0,0,4.923.271,5.493,5.493,0,0,1,.2,1.43c0,2.972-2.436,7.533-5.439,7.533S27.244,9.249,27.244,6.277Zm16.388,18.83H21.739a10.438,10.438,0,0,1,3.938-9.974,11.879,11.879,0,0,0,1.042,3.376,3.349,3.349,0,0,0-1.374,3.938l.695,1.971,1.578-.557-.276-.792-.792.276-.419-1.185a2.512,2.512,0,0,1,4.739-1.665l.414,1.185-.792.276.276.792,1.578-.557-.695-1.976a3.345,3.345,0,0,0-4.183-2.073,10.966,10.966,0,0,1-1.027-3.56,10.573,10.573,0,0,1,3.1-1.318,4.685,4.685,0,0,0,3.136,1.364,4.685,4.685,0,0,0,3.136-1.364,10.4,10.4,0,0,1,3.56,1.629,10.868,10.868,0,0,1-1.226,3.151,1.622,1.622,0,0,0-.449-.071,1.675,1.675,0,1,0,1.675,1.675,1.659,1.659,0,0,0-.5-1.19,11.831,11.831,0,0,0,1.226-3A10.505,10.505,0,0,1,43.632,25.106Zm-5.092-5.439a.838.838,0,1,1-.838-.838A.841.841,0,0,1,38.541,19.667Z" transform="translate(-20.799 0)"/>
      </g>
    </g>
  </g>
</svg>
