<svg xmlns="http://www.w3.org/2000/svg" width="315" height="120" viewBox="0 0 315 120">
  <g id="التعليم_و_التدريب" data-name="التعليم و التدريب" transform="translate(-30 -217)">
    <g id="تعليم_قيادة" data-name="تعليم قيادة">
      <rect id="Rectangle_51" data-name="Rectangle 51" width="55" height="55" rx="18" transform="translate(30 217)" fill="#fbc02d"/>
      <g id="steering-wheel" transform="translate(42 136)">
        <path id="Path_48" data-name="Path 48" d="M30.98,114.4v-4.324a1.2,1.2,0,0,0-.036-.291L30,106.015a1.2,1.2,0,0,0-.217-.446l-3.1-3.991a1.54,1.54,0,0,0-1.438-.553,11.974,11.974,0,0,0-19.5,0,1.545,1.545,0,0,0-1.439.554l-3.1,3.99a1.192,1.192,0,0,0-.218.448l-.942,3.77a1.2,1.2,0,0,0-.036.291V114.4a1.2,1.2,0,0,0,.036.291l.823,3.293H0v3H8v-3H7v-1.533a11.982,11.982,0,0,0,16.989,0v1.532h-1v3H30.98v-3h-.859l.823-3.293a1.2,1.2,0,0,0,.036-.291ZM15.49,97a10.993,10.993,0,0,1,10.5,14.261l-.778-2.595a1.635,1.635,0,0,0-.737-.941,8.984,8.984,0,0,0-17.961,0,1.635,1.635,0,0,0-.737.941l-.778,2.595A10.993,10.993,0,0,1,15.49,97Zm11.952,13.392a.2.2,0,0,1-.009.125l-.738,1.844a.169.169,0,0,1-.064.072,11.805,11.805,0,0,0,.7-2.5Zm-5.371-.565.575,1.726a8.031,8.031,0,0,1-5.157,4.174v-3.736a3.5,3.5,0,0,1,3.5-3.5h1.132a1.643,1.643,0,0,0-.133.647v.167A1.651,1.651,0,0,0,22.07,109.826ZM8.862,108.492H9.994a3.5,3.5,0,0,1,3.5,3.5v3.743a7.959,7.959,0,0,1-5.141-4.138l-.036.019.6-1.786a1.651,1.651,0,0,0,.084-.521v-.167a1.643,1.643,0,0,0-.133-.647Zm10.573-.718a5.265,5.265,0,0,0-.872-2.28H23.08a7.976,7.976,0,0,1,.38,2H20.987a4.473,4.473,0,0,0-1.552.282Zm-11.122-3.28a7.977,7.977,0,0,1,14.356,0Zm-.412,1h4.518a5.265,5.265,0,0,0-.872,2.28,4.473,4.473,0,0,0-1.552-.282H7.521a7.954,7.954,0,0,1,.38-2Zm4.6,2.766a4.29,4.29,0,0,1,1.2-2.766h3.572a4.288,4.288,0,0,1,1.2,2.766,4.5,4.5,0,0,0-1.987,3.729v3.93a7.9,7.9,0,0,1-1,.067,8.068,8.068,0,0,1-1-.065v-3.932A4.5,4.5,0,0,0,12.5,108.26Zm-8.85,1.67a11.832,11.832,0,0,0,.7,2.5.166.166,0,0,1-.065-.071l-.738-1.844a.205.205,0,0,1-.009-.126ZM7,119.984H1v-1H7Zm-5.106-2L1,114.4l.006-4.374.942-3.768a.2.2,0,0,1,.038-.077l2.823-3.629a11.89,11.89,0,0,0-1.166,3.587,1.2,1.2,0,0,0-.161.361l-.912,3.647a1.193,1.193,0,0,0,.051.739l.738,1.845a1.2,1.2,0,0,0,2.269-.1l1.1-3.679A.646.646,0,0,1,8,109.138v.167a.645.645,0,0,1-.033.2L6,115.406v2.579Zm13.6,1a10.96,10.96,0,0,1-8.35-3.849l.77-2.31a8.946,8.946,0,0,0,7.58,4.16,9.036,9.036,0,0,0,7.58-4.159l.77,2.309a10.952,10.952,0,0,1-8.35,3.85Zm14.49,1h-6v-1h6Zm-5-2v-2.579l-1.966-5.9a.645.645,0,0,1-.033-.2v-.167a.646.646,0,0,1,1.265-.186l1.1,3.679a1.2,1.2,0,0,0,2.269.1l.738-1.845a1.2,1.2,0,0,0,.05-.738L27.5,106.5a1.2,1.2,0,0,0-.161-.36,11.883,11.883,0,0,0-1.166-3.586L29,106.184a.206.206,0,0,1,.037.074l.948,3.82-.006,4.374-.884,3.535Zm0,0" transform="translate(0)"/>
        <path id="Path_49" data-name="Path 49" d="M227,265.5a1.5,1.5,0,1,0-1.5,1.5A1.5,1.5,0,0,0,227,265.5Zm-2,0a.5.5,0,1,1,.5.5A.5.5,0,0,1,225,265.5Zm0,0" transform="translate(-210.009 -157.507)"/>
      </g>
    </g>
    <g id="مراكز_تدريب" data-name="مراكز تدريب">
      <rect id="Rectangle_53" data-name="Rectangle 53" width="55" height="55" rx="18" transform="translate(95 217)" fill="#fbc02d"/>
      <g id="education" transform="translate(110 232)">
        <g id="Group_92" data-name="Group 92" transform="translate(0 0)">
          <g id="Group_91" data-name="Group 91">
            <path id="Path_50" data-name="Path 50" d="M24.05,0H.408A.408.408,0,0,0,0,.407H0V8.56H.815V.815H23.642V9.783H9.375V10.6H24.05a.408.408,0,0,0,.408-.407h0V.408A.408.408,0,0,0,24.05,0Z" transform="translate(0 0)"/>
          </g>
        </g>
        <g id="Group_96" data-name="Group 96" transform="translate(14.926 4.621)">
          <g id="Group_95" data-name="Group 95" transform="translate(0 0)">
            <rect id="Rectangle_55" data-name="Rectangle 55" width="7.717" height="0.702" transform="translate(0)"/>
          </g>
        </g>
        <g id="Group_98" data-name="Group 98" transform="translate(12.821 6.725)">
          <g id="Group_97" data-name="Group 97" transform="translate(0 0)">
            <rect id="Rectangle_56" data-name="Rectangle 56" width="8.419" height="0.702" transform="translate(0 0)"/>
          </g>
        </g>
        <g id="Group_100" data-name="Group 100" transform="translate(0 1.63)">
          <g id="Group_99" data-name="Group 99">
            <path id="Path_51" data-name="Path 51" d="M13.011,33.884a1.315,1.315,0,0,0-1.72-.709l-.034.015L7.952,34.9a2.016,2.016,0,0,0,.2-.866,2.038,2.038,0,1,0-3.658,1.223H4.477a2.8,2.8,0,0,0-2.6,1.81L.791,40.821a1.306,1.306,0,1,0,2.452.9l.426-1.357v5.9a2.032,2.032,0,0,0-2.645,3.076A1.878,1.878,0,0,0,0,51v3.416a.408.408,0,0,0,.407.408H4.484a.408.408,0,0,0,.408-.407h0V51a1.874,1.874,0,0,0-.727-1.476H7.249A1.873,1.873,0,0,0,6.522,51v3.416a.408.408,0,0,0,.407.408h4.076a.408.408,0,0,0,.408-.407h0V51a1.878,1.878,0,0,0-1.023-1.666,2.036,2.036,0,0,0-1.83-3.452V37.547L12.3,35.6A1.315,1.315,0,0,0,13.011,33.884Zm-6.9-1.069a1.223,1.223,0,1,1-1.223,1.223A1.223,1.223,0,0,1,6.114,32.815ZM2.446,46.659a1.223,1.223,0,1,1-1.223,1.223A1.223,1.223,0,0,1,2.446,46.659Zm1.63,7.352H.815V51a1.07,1.07,0,0,1,1.068-1.068H3.008A1.07,1.07,0,0,1,4.076,51ZM10.6,51v3.008H7.337V51a1.07,1.07,0,0,1,1.068-1.068H9.53A1.07,1.07,0,0,1,10.6,51Zm-1.63-4.344a1.223,1.223,0,1,1-1.223,1.223A1.224,1.224,0,0,1,8.968,46.659Zm3.3-12.1a.524.524,0,0,1-.308.3L7.965,36.937a.408.408,0,0,0-.22.362v8.963a2.011,2.011,0,0,0-.634,2.45H6.522v-6.93H5.707v6.93H4.3a2.019,2.019,0,0,0,.179-.815h0V37.707a.408.408,0,0,0-.8-.122L2.47,41.458a.49.49,0,0,1-.68.271.5.5,0,0,1-.228-.647l1.088-3.751a1.969,1.969,0,0,1,1.827-1.255H7.364a.406.406,0,0,0,.188-.046l4.051-2.1a.5.5,0,0,1,.641.238A.5.5,0,0,1,12.266,34.564Z" transform="translate(0 -32)"/>
          </g>
        </g>
        <g id="Group_102" data-name="Group 102" transform="translate(13.044 15.47)">
          <g id="Group_101" data-name="Group 101">
            <path id="Path_52" data-name="Path 52" d="M259.868,307.116a2.038,2.038,0,1,0-2.882-.038l.038.038A1.878,1.878,0,0,0,256,308.782V312.2a.407.407,0,0,0,.407.408h4.076a.408.408,0,0,0,.408-.407h0v-3.416A1.878,1.878,0,0,0,259.868,307.116Zm-1.422-2.678a1.223,1.223,0,1,1-1.223,1.223A1.223,1.223,0,0,1,258.446,304.438Zm1.63,7.352h-3.261v-3.008a1.069,1.069,0,0,1,1.068-1.068h1.125a1.069,1.069,0,0,1,1.068,1.068Z" transform="translate(-256 -303.618)"/>
          </g>
        </g>
        <g id="Group_104" data-name="Group 104" transform="translate(19.566 15.47)">
          <g id="Group_103" data-name="Group 103">
            <path id="Path_53" data-name="Path 53" d="M387.868,307.116a2.038,2.038,0,1,0-2.882-.038l.038.038A1.878,1.878,0,0,0,384,308.782V312.2a.407.407,0,0,0,.407.408h4.076a.408.408,0,0,0,.408-.407h0v-3.416A1.878,1.878,0,0,0,387.868,307.116Zm-1.422-2.678a1.223,1.223,0,1,1-1.223,1.223A1.223,1.223,0,0,1,386.446,304.438Zm1.63,7.352h-3.261v-3.008a1.069,1.069,0,0,1,1.068-1.068h1.125a1.069,1.069,0,0,1,1.068,1.068Z" transform="translate(-384 -303.618)"/>
          </g>
        </g>
      </g>
    </g>
    <g id="تربية_خاصة" data-name="تربية خاصة">
      <rect id="Rectangle_58" data-name="Rectangle 58" width="55" height="55" rx="18" transform="translate(225 217)" fill="#fbc02d"/>
      <g id="study" transform="translate(241 232.994)">
        <g id="Group_105" data-name="Group 105" transform="translate(0 0.006)">
          <path id="Path_54" data-name="Path 54" d="M21.99,12.488V10.317a.684.684,0,0,0-.684-.684A20.645,20.645,0,0,0,17.329,10,6.179,6.179,0,0,0,14.76,8.508a4.791,4.791,0,1,0-6.16,0A6.18,6.18,0,0,0,6.03,10a20.648,20.648,0,0,0-3.977-.363.684.684,0,0,0-.684.684v2.171A2.056,2.056,0,0,0,0,14.423v1.369a2.056,2.056,0,0,0,1.369,1.935V19.9a.684.684,0,0,0,.684.684A15.926,15.926,0,0,1,11.3,23.25a.687.687,0,0,0,.759,0,15.926,15.926,0,0,1,9.247-2.668.684.684,0,0,0,.684-.684V17.727a2.056,2.056,0,0,0,1.369-1.935V14.423A2.056,2.056,0,0,0,21.99,12.488ZM8.258,4.842A3.422,3.422,0,1,1,11.68,8.264,3.449,3.449,0,0,1,8.258,4.842Zm-6.2,11.634a.685.685,0,0,1-.684-.684V14.423a.684.684,0,1,1,1.369,0v1.369A.685.685,0,0,1,2.053,16.476ZM11,21.453a17.123,17.123,0,0,0-8.258-2.23v-1.5a2.056,2.056,0,0,0,1.369-1.935V14.423a2.056,2.056,0,0,0-1.369-1.935V11.011A15.469,15.469,0,0,1,11,13.425Zm.684-9.213A16.264,16.264,0,0,0,7.7,10.409a4.8,4.8,0,0,1,2.613-.777h2.737a4.8,4.8,0,0,1,2.613.777A16.263,16.263,0,0,0,11.68,12.239Zm8.942,6.984a17.124,17.124,0,0,0-8.258,2.23V13.426a15.467,15.467,0,0,1,8.258-2.415v1.477a2.056,2.056,0,0,0-1.369,1.935v1.369a2.056,2.056,0,0,0,1.369,1.935Zm1.369-3.432a.684.684,0,0,1-1.369,0V14.423a.684.684,0,1,1,1.369,0Z" transform="translate(0 -0.006)"/>
        </g>
      </g>
    </g>
    <g id="مدرس_خاص" data-name="مدرس خاص">
      <rect id="Rectangle_57" data-name="Rectangle 57" width="55" height="55" rx="18" transform="translate(160 217)" fill="#fbc02d"/>
      <g id="presentation" transform="translate(175.994 233)">
        <g id="Group_107" data-name="Group 107" transform="translate(1.194)">
          <g id="Group_106" data-name="Group 106">
            <path id="Path_55" data-name="Path 55" d="M29.174,0a3.565,3.565,0,1,0,3.565,3.565A3.569,3.569,0,0,0,29.174,0Zm0,5.941A2.376,2.376,0,1,1,31.55,3.565,2.376,2.376,0,0,1,29.174,5.941Z" transform="translate(-25.609)"/>
          </g>
        </g>
        <g id="Group_109" data-name="Group 109" transform="translate(9.512 5.941)">
          <g id="Group_108" data-name="Group 108">
            <path id="Path_56" data-name="Path 56" d="M217.879,128H206a1.188,1.188,0,0,0-1.188,1.188v.907l1.188.594v-1.5h11.882v9.505H206v-1.412l-1.188-.3v1.709A1.188,1.188,0,0,0,206,139.882h4.892l-3.025,5.042a.594.594,0,0,0,1.019.61l2.461-4.1v3.8a.594.594,0,0,0,1.188,0v-3.8l2.461,4.1a.594.594,0,0,0,.509.289.583.583,0,0,0,.305-.085.593.593,0,0,0,.2-.815l-3.025-5.042h4.892a1.188,1.188,0,0,0,1.188-1.188v-9.5A1.188,1.188,0,0,0,217.879,128Z" transform="translate(-204.809 -128)"/>
          </g>
        </g>
        <g id="Group_111" data-name="Group 111" transform="translate(0.006 8.317)">
          <g id="Group_110" data-name="Group 110" transform="translate(0)">
            <path id="Path_57" data-name="Path 57" d="M20.776,180.226a.589.589,0,0,0-.734-.407l-7.332,2.095a1.187,1.187,0,0,0-.291-.21l-4.753-2.376a1.19,1.19,0,0,0-.532-.126H2.382a1.189,1.189,0,0,0-1.169.976L.025,186.711a1.188,1.188,0,0,0,1.169,1.4h.759l.433,5.441a1.188,1.188,0,0,0,1.184,1.094H5.947a1.188,1.188,0,0,0,1.181-1.057l1.038-9.342,3.434.858a1.188,1.188,0,0,0,1.476-1.153v-.91l7.293-2.084A.593.593,0,0,0,20.776,180.226Zm-8.888,3.728-4.753-1.188L5.947,193.459H3.571l-.52-6.535H1.194l1.188-6.535H4.165V184a.594.594,0,0,0,1.188,0v-3.615H7.135l4.753,2.376Z" transform="translate(-0.006 -179.201)"/>
          </g>
        </g>
      </g>
    </g>
    <g id="تعليم_خاص" data-name="تعليم خاص">
      <rect id="Rectangle_59" data-name="Rectangle 59" width="55" height="55" rx="18" transform="translate(290 217)" fill="#fbc02d"/>
      <g id="pencil" transform="translate(303 206)">
        <g id="Group_116" data-name="Group 116" transform="translate(13.593 44.787)">
          <g id="Group_115" data-name="Group 115">
            <path id="Path_58" data-name="Path 58" d="M246.553,366a.553.553,0,1,0,.553.553A.553.553,0,0,0,246.553,366Z" transform="translate(-246 -366)"/>
          </g>
        </g>
        <g id="Group_118" data-name="Group 118" transform="translate(0 26)">
          <g id="Group_117" data-name="Group 117">
            <path id="Path_59" data-name="Path 59" d="M26.634,30.421H23.539V29.039a1.933,1.933,0,0,0-2.857-1.7,1.932,1.932,0,0,0-3.221-.758l-.014-.015a1.932,1.932,0,0,0-2.749.016,1.933,1.933,0,0,0-3.315,1.352v2.487H4.97l-.056,0-.019,0-.041.007-.019,0-.04.012-.017.006-.043.018-.009,0-.009,0h0L.305,32.689a.553.553,0,0,0,0,.988l4.41,2.205h0l.009,0,.009,0,.043.019.017.006.041.012.019,0,.042.007.018,0a.574.574,0,0,0,.059,0h3.9a3.869,3.869,0,0,0,.88,1.362l1.926,1.926a2.744,2.744,0,0,1,.809,1.953v1.39h-.553a.553.553,0,0,0-.553.553v7.736a.553.553,0,0,0,.553.553H22.987a.553.553,0,0,0,.553-.553V43.129a.553.553,0,0,0-.553-.553h-.553V41.05a4.715,4.715,0,0,1,.445-1.992,6.167,6.167,0,0,0,.66-2.64v-.471h3.094a1.66,1.66,0,0,0,1.658-1.658v-2.21A1.66,1.66,0,0,0,26.634,30.421Zm-5.857-1.381a.829.829,0,1,1,1.658,0V31.8a.829.829,0,0,1-1.658,0Zm-2.763,1.934V27.934a.829.829,0,1,1,1.658,0V31.8a.829.829,0,1,1-1.658,0Zm-2.763-3.039a.829.829,0,1,1,1.658,0v2.487H15.251Zm-2.763,0a.829.829,0,1,1,1.658,0v2.487H12.488ZM4.836,34.707,1.788,33.183l3.048-1.524A2.579,2.579,0,0,1,4.836,34.707Zm3.784-.419v.285c0,.089,0,.179.01.268H6.046a3.694,3.694,0,0,0,0-3.315H9.781A3.867,3.867,0,0,0,8.62,34.288ZM22.434,50.313H12.488V43.682h9.946Zm0-13.9a5.1,5.1,0,0,1-.555,2.17,5.828,5.828,0,0,0-.55,2.462v1.527H13.593v-1.39a3.842,3.842,0,0,0-1.133-2.735l-1.926-1.926a2.765,2.765,0,0,1-.809-1.953v-.285a2.781,2.781,0,0,1,.553-1.658,2.766,2.766,0,0,1,2.21-1.105h4.351A2.213,2.213,0,0,1,14.7,33.183H13.041a.553.553,0,0,0-.1,1.1,3.423,3.423,0,0,1,2.237,1.429l0,0a3.433,3.433,0,0,1,.612,1.943l.006,1.055a.553.553,0,0,0,.553.55h0a.553.553,0,0,0,.55-.555L16.9,37.651a4.539,4.539,0,0,0-.34-1.7h5.872Zm2.542-1.576H15.913a4.567,4.567,0,0,0-.585-.612,3.291,3.291,0,0,0,1.714-.912,3.368,3.368,0,0,0,.281-.32,1.93,1.93,0,0,0,2.9.157A1.933,1.933,0,0,0,23.539,31.8v-.276h1.437Zm2.21-.553a.553.553,0,0,1-.553.553h-.553V31.526h.553a.553.553,0,0,1,.553.553Z" transform="translate(0 -26)"/>
          </g>
        </g>
        <g id="Group_120" data-name="Group 120" transform="translate(15.803 44.787)">
          <g id="Group_119" data-name="Group 119">
            <path id="Path_60" data-name="Path 60" d="M290.973,366h-4.421a.553.553,0,1,0,0,1.105h4.421a.553.553,0,1,0,0-1.105Z" transform="translate(-286 -366)"/>
          </g>
        </g>
      </g>
    </g>
    <g id="دورات_تصوير" data-name="دورات تصوير" transform="translate(-79 -54)">
      <rect id="Rectangle_60" data-name="Rectangle 60" width="55" height="55" rx="18" transform="translate(109 336)" fill="#fbc02d"/>
      <g id="camera" transform="translate(110.666 349)">
        <path id="Path_61" data-name="Path 61" d="M185.859,64a1.859,1.859,0,1,0,1.859,1.859A1.861,1.861,0,0,0,185.859,64Zm0,2.789a.93.93,0,1,1,.93-.93A.93.93,0,0,1,185.859,66.789Zm0,0" transform="translate(-160.23 -60.282)"/>
        <path id="Path_62" data-name="Path 62" d="M70.833,13.63l1.282,1.282a1.451,1.451,0,0,0,2.476-1.026,1.46,1.46,0,0,0-.425-1.026l-1.282-1.282a1.437,1.437,0,0,0-1.778-.208l-1.022-.681h-2.41l.7-1.394h2.966a.93.93,0,0,0,.93-.93V2.324a.93.93,0,0,0-.93-.93h-3L67.4,0H63.188l-.93,1.394h-3a.93.93,0,0,0-.93.93V8.366a.93.93,0,0,0,.93.93H62.22l.752,1.5v1.285h-.93V14.3L56.115,27.072a1.226,1.226,0,0,0,1.112,1.743h.133a1.226,1.226,0,0,0,1.125-.739l2.42-5.585,3,1.5v3.431a1.394,1.394,0,0,0,2.789,0V23.99l3-1.5,2.42,5.585a1.226,1.226,0,0,0,1.125.739h.133a1.226,1.226,0,0,0,1.112-1.742L68.549,14.3V12.084h-.93v-.465H69.8l.7.47a1.443,1.443,0,0,0-.1.516,1.46,1.46,0,0,0,.425,1.026ZM62.507,5.577A2.789,2.789,0,1,1,65.3,8.366,2.791,2.791,0,0,1,62.507,5.577ZM59.254,2.324h3.5l.93-1.394h3.221l.93,1.394h3.5V8.366H67.747a3.718,3.718,0,1,0-4.9,0H59.254ZM67.332,9.3l-.465.93H63.724l-.465-.93ZM63.9,11.154h.93v.93H63.9Zm-.93,1.859H67.62v.93H62.972Zm-5.34,14.693a.3.3,0,0,1-.272.179h-.133a.3.3,0,0,1-.269-.422L62.8,14.872h.39Zm3.643-6.069L63.9,15.576v7.374ZM65.3,27.885a.465.465,0,0,1-.465-.465V14.872h.93V27.421A.465.465,0,0,1,65.3,27.885Zm1.394-4.935V15.576l2.626,6.061Zm6.971,4.638a.3.3,0,0,1-.3.3h-.133a.3.3,0,0,1-.272-.179L67.4,14.872h.39l5.847,12.593a.3.3,0,0,1,.027.123Zm-7.9-15.5v-.93h.93v.93Zm6.467.152,1.282,1.282a.521.521,0,0,1-.369.89.517.517,0,0,1-.369-.152L71.49,12.973a.521.521,0,0,1,.369-.89A.517.517,0,0,1,72.227,12.236Zm0,0" transform="translate(-39.667)"/>
        <path id="Path_63" data-name="Path 63" d="M288,112h.93v.93H288Zm0,0" transform="translate(-258.189 -105.493)"/>
        <path id="Path_64" data-name="Path 64" d="M128,112h.93v.93H128Zm0,0" transform="translate(-107.484 -105.493)"/>
      </g>
    </g>
  </g>
</svg>
