<svg xmlns="http://www.w3.org/2000/svg" width="315" height="55" viewBox="0 0 315 55">
  <g id="النظافة_و_المنزل" data-name="النظافة و المنزل" transform="translate(-30 -367)">
    <g id="عاملات_منازل" data-name="عاملات منازل" transform="translate(-51 -76)">
      <rect id="Rectangle_61" data-name="Rectangle 61" width="55" height="55" rx="18" transform="translate(81 443)" fill="#673ab7"/>
      <g id="housekeeping" transform="translate(79.002 456)">
        <g id="Group_122" data-name="Group 122" transform="translate(15.998 7.557)">
          <g id="Group_121" data-name="Group 121" transform="translate(0)">
            <path id="Path_65" data-name="Path 65" d="M34.418,130.361A2.364,2.364,0,0,0,32.057,128h-5.9a1.9,1.9,0,0,0-1.511.756l-.992,1.31-1.275,1.713H20.249V128H19.3v3.778h-.472a.472.472,0,0,0-.472.472v1.889a.472.472,0,0,0,.472.472H19.3V145H16v.945h.761l-.737,2.212a.472.472,0,0,0,.448.622h6.612a.472.472,0,0,0,.448-.622l-.737-2.212h.761V145H20.249V134.611h3.292a1.417,1.417,0,0,0,1.15-.59l1.432-1.966,0-.007.005,0,.257-.378v1.025l-.3,2.533-.3,2.527-.409,3.471h1v5.084l-.9,1.79a.472.472,0,0,0,.423.683h6.612a.472.472,0,0,0,.425-.683l-.9-1.79v-5.084h1l-.222-1.889h1.58Zm-3.511-1.417h.2v1.417H30.057Zm-1.1,0-.583.971-.583-.971Zm-2.472,0h.2l.85,1.417H27.334Zm0,2.362h3.778v.945H27.331Zm-.6,6.557.1-.874.446-3.794h3.883l.549,4.668a.472.472,0,0,1-.469.528H27.2a.472.472,0,0,1-.469-.528ZM21.8,145.947l.63,1.889H21.194v-.945h-.945v.945H19.3v-.945H18.36v.945H17.126l.63-1.889Zm2.128-12.478a.472.472,0,0,1-.384.2H19.3v-.945H22.61a.472.472,0,0,0,.378-.189l1.119-1.5.992.826Zm2.463-3.108a.472.472,0,0,0-.39.205l-.354.516-.475-.4-.495-.412.721-.953a.949.949,0,0,1,.756-.378h.236v1.417Zm2.362,17.475h-2.07l.472-.945h1.6Zm0-1.889H27.334v-4.723H28.75Zm.945,1.889v-.945h1.6l.472.945Zm0-1.889v-4.723h1.417v4.723Zm-3.247-5.668.128-1.095a1.417,1.417,0,0,0,.625.15h4.043a1.411,1.411,0,0,0,.625-.151l.128,1.1Zm7.026-1.889h-.539l-.878-5.7v-.436h1.417Zm0-7.085H32.057v-2.362a1.417,1.417,0,0,1,1.417,1.417Z" transform="translate(-15.998 -127.999)" fill="#fff"/>
          </g>
        </g>
        <g id="Group_124" data-name="Group 124" transform="translate(26.861 0)">
          <g id="Group_123" data-name="Group 123" transform="translate(0 0)">
            <path id="Path_66" data-name="Path 66" d="M204.751,0a1.889,1.889,0,0,0-1.706,1.051,2.323,2.323,0,0,0-.682-.106A2.364,2.364,0,0,0,200,3.306v.945a2.362,2.362,0,0,0,2.362,2.362h.005c.075,0,.15,0,.225-.011a2.424,2.424,0,0,0,2.131-2.432V3.779A1.889,1.889,0,1,0,204.751,0Zm-3.8,3.306a1.417,1.417,0,0,1,1.417-1.417,1.385,1.385,0,0,1,1.007.43c-.011.009-.02.02-.032.029a4.233,4.233,0,0,1-.5.358c-.041.025-.084.047-.125.071-.146.084-.3.162-.448.232l-.155.071c-.187.081-.375.157-.557.221l-.029.009c-.18.062-.353.115-.52.161l-.055.016Zm1.559,2.355a1.4,1.4,0,0,1-1.094-.362,1.423,1.423,0,0,1-.448-.836l.026-.008c.2-.05.4-.109.614-.175.052-.017.1-.035.156-.052q.26-.087.52-.193c.053-.021.105-.041.158-.064.215-.094.425-.194.634-.307.039-.021.075-.047.113-.068a5.6,5.6,0,0,0,.5-.322c.031-.023.066-.04.094-.063,0,.032,0,.063,0,.094V4.17A1.473,1.473,0,0,1,202.505,5.661Zm2.22-2.827c-.018,0-.037,0-.056-.005a2.341,2.341,0,0,0-.8-1.322.94.94,0,1,1,.853,1.328Z" transform="translate(-200.002 0)" fill="#fff"/>
          </g>
        </g>
        <g id="Group_126" data-name="Group 126" transform="translate(34.89 17.948)">
          <g id="Group_125" data-name="Group 125" transform="translate(0)">
            <path id="Path_67" data-name="Path 67" d="M339.78,304A3.778,3.778,0,0,0,336,307.777v.472a.41.41,0,0,0,.008.041.337.337,0,0,0,0,.037l.945,5.668a.472.472,0,0,0,.464.394h4.723a.472.472,0,0,0,.466-.394l.945-5.668a.322.322,0,0,0,0-.037.405.405,0,0,0,.007-.041v-.472A3.778,3.778,0,0,0,339.78,304Zm1.961,9.446h-3.923l-.787-4.723h5.5Zm-4.8-5.668a2.834,2.834,0,1,1,5.668,0Z" transform="translate(-336.002 -303.999)" fill="#fff"/>
          </g>
        </g>
      </g>
    </g>
    <g id="تنسيق_حدائق" data-name="تنسيق حدائق">
      <rect id="Rectangle_66" data-name="Rectangle 66" width="55" height="55" rx="18" transform="translate(290 367)" fill="#673ab7"/>
      <g id="ecology" transform="translate(304 381)">
        <g id="Group_129" data-name="Group 129" transform="translate(0 5.499)">
          <g id="Group_128" data-name="Group 128">
            <path id="Path_68" data-name="Path 68" d="M11.9,113.413a6.8,6.8,0,0,0-3.362-5.527l-3.165-3.517a1.711,1.711,0,0,0-1.709-.525V97.833a1.833,1.833,0,0,0-3.666,0v8.673a4.137,4.137,0,0,0,.519,2l4.063,7.313v1.714a.458.458,0,0,0,.458.458h6.415a.458.458,0,0,0,.458-.458v-4.124ZM11,117.078H5.5V115.7a.458.458,0,0,0-.058-.223L1.32,108.064a3.22,3.22,0,0,1-.4-1.558V97.833a.916.916,0,0,1,1.833,0v6.577a1.741,1.741,0,0,0,.031,2.306l3.754,4.13.678-.617L3.458,106.1a.833.833,0,0,1,1.2-1.15l.031.033,3.214,3.57a.647.647,0,0,0,.137.105A5.871,5.871,0,0,1,11,113.745Z" transform="translate(0 -96)" fill="#fff"/>
          </g>
        </g>
        <g id="Group_131" data-name="Group 131" transform="translate(15.58 5.499)">
          <g id="Group_130" data-name="Group 130">
            <path id="Path_69" data-name="Path 69" d="M282.081,96a1.833,1.833,0,0,0-1.833,1.833v6.011a1.775,1.775,0,0,0-.455-.054,1.733,1.733,0,0,0-1.255.579l-3.165,3.516a6.79,6.79,0,0,0-3.363,5.528H272v4.124a.458.458,0,0,0,.458.458h6.415a.458.458,0,0,0,.458-.458v-1.715l4.013-7.273a4.127,4.127,0,0,0,.57-2.091V97.833A1.833,1.833,0,0,0,282.081,96ZM283,106.458a3.223,3.223,0,0,1-.449,1.637l-4.078,7.387a.458.458,0,0,0-.055.221v1.375h-5.5v-3.334a5.881,5.881,0,0,1,2.976-5.1.458.458,0,0,0,.114-.092l3.214-3.574a.834.834,0,0,1,1.237,1.118l-3.756,4.13.678.618,3.754-4.13a1.741,1.741,0,0,0,.031-2.307V97.833a.916.916,0,0,1,1.833,0Z" transform="translate(-272 -96)" fill="#fff"/>
          </g>
        </g>
        <g id="Group_133" data-name="Group 133" transform="translate(7.79)">
          <g id="Group_132" data-name="Group 132">
            <path id="Path_70" data-name="Path 70" d="M147.456,11.456h-.916a5.036,5.036,0,0,0-4.124,2.154v-3.07h.458a5.046,5.046,0,0,0,5.04-5.04.458.458,0,0,0-.458-.458h-.916a5.036,5.036,0,0,0-4.124,2.154V4.124h.458A3.67,3.67,0,0,0,146.539.458.458.458,0,0,0,146.081,0h-.916a3.666,3.666,0,0,0-3.208,1.9A3.666,3.666,0,0,0,138.749,0h-.916a.458.458,0,0,0-.458.458,3.67,3.67,0,0,0,3.666,3.666h.458v3.07a5.036,5.036,0,0,0-4.124-2.154h-.916A.458.458,0,0,0,136,5.5a5.046,5.046,0,0,0,5.04,5.04h.458v3.07a5.036,5.036,0,0,0-4.124-2.154h-.916a.458.458,0,0,0-.458.458,5.046,5.046,0,0,0,5.04,5.04h.458V20.62h.916V16.954h.458a5.046,5.046,0,0,0,5.04-5.04A.458.458,0,0,0,147.456,11.456Zm-.916-5.5h.433a4.13,4.13,0,0,1-4.1,3.666h-.433A4.13,4.13,0,0,1,146.539,5.957ZM145.164.916h.42a2.754,2.754,0,0,1-2.711,2.291h-.42A2.754,2.754,0,0,1,145.164.916ZM141.04,3.208A2.754,2.754,0,0,1,138.329.916h.42a2.754,2.754,0,0,1,2.711,2.291Zm0,6.415a4.13,4.13,0,0,1-4.1-3.666h.433a4.13,4.13,0,0,1,4.1,3.666Zm0,6.415a4.13,4.13,0,0,1-4.1-3.666h.433a4.13,4.13,0,0,1,4.1,3.666Zm1.833,0h-.433a4.13,4.13,0,0,1,4.1-3.666h.433A4.13,4.13,0,0,1,142.873,16.038Z" transform="translate(-136)" fill="#fff"/>
          </g>
        </g>
      </g>
    </g>
    <g id="تنظيف_منازل" data-name="تنظيف منازل">
      <rect id="Rectangle_63" data-name="Rectangle 63" width="55" height="55" rx="18" transform="translate(95 367)" fill="#673ab7"/>
      <g id="Page-1" transform="translate(107 379)">
        <g id="_039---Pressure-Washer" data-name="039---Pressure-Washer" transform="translate(0 0)">
          <path id="Shape" d="M9.885,52.642a.925.925,0,0,1-.7-.3.629.629,0,0,1-.167-.495.5.5,0,1,0-.994-.116,1.628,1.628,0,0,0,.413,1.277,1.927,1.927,0,0,0,1.442.63.5.5,0,0,0,0-1Z" transform="translate(-4.008 -25.628)" fill="#fff"/>
          <path id="Shape-2" data-name="Shape" d="M30.016,20.761a3.256,3.256,0,0,0-3.252-3.252,3.194,3.194,0,0,0-1.237.25L23.15,14.67a1.488,1.488,0,0,0,.222-1.607l-1.03-2.207a2.366,2.366,0,0,0-.916-1.023l-.2-.123a2.368,2.368,0,0,0-.644-.267l-2.19-4.7a.975.975,0,0,0,.09-.993L17,.578a1,1,0,0,0-1.33-.484L13.857.94a.983.983,0,0,0-.2.127A5.315,5.315,0,0,0,9.511.059,5.373,5.373,0,0,0,5.862,1.838,2.151,2.151,0,0,0,5.59,3.648,3.659,3.659,0,0,0,6.868,5.456a18.974,18.974,0,0,0,2.794,1.83,18.38,18.38,0,0,1,2.582,1.674,8.312,8.312,0,0,1,3.236,5.253c.213,2.051-.876,3.692-2.254,5.145l-.047-.405a4.885,4.885,0,0,0-1.173-2.642V13.007a3,3,0,0,0-3-3H7a3,3,0,0,0-3,3v3.315a4.888,4.888,0,0,0-1.165,2.632l-.586,5.058H1a1,1,0,0,0-1,1v4a1,1,0,0,0,1,1H3a1,1,0,0,0,.88-.535,3.981,3.981,0,0,0,2,.535h4.262a3.975,3.975,0,0,0,1.99-.531,1,1,0,0,0,.878.531h2a1,1,0,0,0,1-1v-4a1,1,0,0,0-1-1H13.766l-.392-3.379c1.726-1.692,3.387-3.784,3.1-6.523a9.317,9.317,0,0,0-3.6-5.923,19.31,19.31,0,0,0-2.719-1.769A17.9,17.9,0,0,1,7.507,4.688a2.705,2.705,0,0,1-.954-1.3,1.147,1.147,0,0,1,.14-.993A4.541,4.541,0,0,1,9.637,1.051a4.322,4.322,0,0,1,3.406.819l-.337.157a2,2,0,0,0-.967,2.659l.212.453a2,2,0,0,0,2.657.969l.581-.271a.991.991,0,0,0,.476.171l2.193,4.7a2.371,2.371,0,0,0-.21.666l-.036.234a2.355,2.355,0,0,0,.195,1.36l1.029,2.207a1.507,1.507,0,0,0,1.361.867,1.46,1.46,0,0,0,.155-.017l.344,1.462a4.75,4.75,0,0,0,1.341,8.975,4,4,0,1,0,6.846-3.237,3.236,3.236,0,0,0,1.134-2.466ZM7,11.006H9a2,2,0,0,1,2,2v2.417a5.363,5.363,0,0,0-6,.006V13.007A2,2,0,0,1,7,11.006ZM1,29.015v-4H2.135l-.1.865a3.6,3.6,0,0,0,.907,2.837c.019.021.041.04.06.061v.24Zm4.877,0a2.927,2.927,0,0,1-2.189-.965,2.609,2.609,0,0,1-.66-2.057l.8-6.923A4.13,4.13,0,0,1,8.01,15.508a4.127,4.127,0,0,1,4.176,3.562l.8,6.923a2.608,2.608,0,0,1-.66,2.057c-.055.062-.114.119-.174.175l0,0a2.939,2.939,0,0,1-2.012.787Zm9.13-4v4h-2v-.231c.023-.024.047-.045.069-.07a3.594,3.594,0,0,0,.907-2.837l-.1-.865ZM18.56,9.848,16.633,5.716l.906-.423,1.927,4.132a2.374,2.374,0,0,0-.477.16,2.342,2.342,0,0,0-.43.263ZM16.091,1l1.481,3.173-1.814.846-1.48-3.174ZM14.186,5.2a1,1,0,0,1-1.329-.486l-.212-.454a1,1,0,0,1,.484-1.329l.453-.212L14.64,4.99Zm5.558,9.55-1.03-2.207a1.367,1.367,0,0,1-.112-.786l.036-.234a1.368,1.368,0,0,1,2.065-.963l.2.123a1.368,1.368,0,0,1,.53.591l1.029,2.208a.5.5,0,0,1-.242.664l-1.812.846a.5.5,0,0,1-.666-.242Zm8.085,7.988a.5.5,0,0,0-.056.85,3,3,0,1,1-4.761,2.418.5.5,0,0,0-.471-.5,3.752,3.752,0,0,1-1.608-7.019l1.091,4.636A.5.5,0,0,0,23,22.9l-1.7-7.214,1.006-.469,4.311,5.6a.5.5,0,1,0,.793-.61l-1.242-1.615a2.212,2.212,0,0,1,.6-.082,2.251,2.251,0,0,1,1.066,4.231Z" transform="translate(0 0)" fill="#fff"/>
          <path id="Shape-3" data-name="Shape" d="M13,33a3,3,0,1,0,3,3A3,3,0,0,0,13,33Zm0,5a2,2,0,0,1-.5-3.931V35.5a.5.5,0,1,0,1,0v-1.43A2,2,0,0,1,13,38Z" transform="translate(-4.997 -16.491)" fill="#fff"/>
        </g>
      </g>
    </g>
    <g id="مكافحة_حشرات" data-name="مكافحة حشرات" transform="translate(2 -6)">
      <rect id="Rectangle_64" data-name="Rectangle 64" width="55" height="55" rx="18" transform="translate(158 373)" fill="#673ab7"/>
      <g id="bee" transform="translate(172 387.001)">
        <path id="Path_71" data-name="Path 71" d="M.794,14.348H2.383a.794.794,0,0,0,.71-.439l1.369-2.738H8.1L3.172,15.566a4.765,4.765,0,0,0,3.182,8.312,4.861,4.861,0,0,0,3.918-2,25.936,25.936,0,0,0,2.488,3.113v1.322a.794.794,0,0,0,1.588,0V24.992a25.95,25.95,0,0,0,2.481-3.1A4.759,4.759,0,0,0,20.7,23.878a4.765,4.765,0,0,0,3.233-8.314l-4.927-4.393h3.639l1.369,2.738a.794.794,0,0,0,.71.439h1.588a.794.794,0,0,0,0-1.588h-1.1l-1.369-2.738a.794.794,0,0,0-.71-.439H17.226L16.9,9.294l5-3a.794.794,0,0,0,.386-.681V2.435a.794.794,0,0,0-1.588,0V5.162L16.6,7.623a5.1,5.1,0,0,0,.131-1.217c0-1.5-1.282-3.148-2.064-4.014L15.7,1.355A.794.794,0,0,0,14.581.232L13.554,1.259,12.527.232A.794.794,0,0,0,11.4,1.355l1.037,1.037c-.782.865-2.064,2.513-2.064,4.014a5.1,5.1,0,0,0,.131,1.217l-4.1-2.461V2.382a.794.794,0,1,0-1.588,0v3.23a.794.794,0,0,0,.386.681l5,3-.324.289H3.971a.794.794,0,0,0-.71.439L1.892,12.759H.794a.794.794,0,0,0,0,1.588ZM13.554,23.5A24.275,24.275,0,0,1,11.4,20.7h4.315A24.276,24.276,0,0,1,13.554,23.5ZM16.31,10.894a.8.8,0,0,0,.16.143l6.4,5.711a3.192,3.192,0,1,1-5.315,2.84l-1.307-8.745ZM13.554,3.53a5.665,5.665,0,0,1,1.588,2.876c0,1.3-.286,1.588-1.588,1.588s-1.588-.285-1.588-1.588A5.665,5.665,0,0,1,13.554,3.53Zm1.379,9.23H12.175l.485-3.242a6.134,6.134,0,0,0,1.789,0Zm-3,1.588h3.233l.237,1.588H11.7Zm-.475,3.177h4.183l.237,1.588H11.225Zm-.825-6.488a.8.8,0,0,0,.16-.143l.058-.052L9.548,19.588a3.225,3.225,0,0,1-3.195,2.7,3.177,3.177,0,0,1-2.123-5.54Z" transform="translate(0 0)" fill="#fff"/>
      </g>
    </g>
    <g id="مربية_أطفال" data-name="مربية أطفال">
      <rect id="Rectangle_65" data-name="Rectangle 65" width="55" height="55" rx="18" transform="translate(225 367)" fill="#673ab7"/>
      <g id="baby-head-outline-with-pacifier" transform="translate(238 352.843)">
        <path id="Path_72" data-name="Path 72" d="M3.749,44.3a11.571,11.571,0,0,0,7.626,7.072,3.7,3.7,0,0,0,6.575,0A11.572,11.572,0,0,0,25.575,44.3a3.793,3.793,0,0,0,0-7.586,11.612,11.612,0,0,0-9-7.391.74.74,0,0,0-.223-.049c-.051,0-.106,0-.158,0a11.579,11.579,0,0,0-12.45,7.445,3.793,3.793,0,0,0,0,7.586Zm8.627,2.173c0-.4.912-1.011,2.286-1.011s2.286.608,2.286,1.011a.428.428,0,0,1-.088.222,3.677,3.677,0,0,0-4.4,0A.432.432,0,0,1,12.376,46.47Zm3.019,5.353a2.3,2.3,0,1,1,1.49-1.642A2.267,2.267,0,0,1,15.394,51.824ZM3.793,38.13a2.45,2.45,0,0,1,.351.029l.6.089.178-.584a10.055,10.055,0,0,1,5.647-6.233,2.853,2.853,0,0,0,1.559,3.575c1.678.789,4.392.892,5.537-.825A1.8,1.8,0,0,0,17.1,31.9a3.168,3.168,0,0,0-3.181-.435c-.84.334-.474,1.706.377,1.368a1.943,1.943,0,0,1,1.771.062c.812.446.064.956-.5,1.119a4.043,4.043,0,0,1-3.447-.687c-1.044-.938.3-2,1.133-2.292a7.826,7.826,0,0,1,2.849-.352,10.16,10.16,0,0,1,8.3,6.981l.178.584.6-.089a2.426,2.426,0,0,1,.352-.029,2.374,2.374,0,1,1-.35,4.719l-.605-.09-.178.585a10.074,10.074,0,0,1-6.034,6.39c0-.022,0-.043,0-.065a3.672,3.672,0,0,0-.543-1.92,1.87,1.87,0,0,0,.543-1.278c0-1.363-1.627-2.43-3.7-2.43s-3.7,1.067-3.7,2.43a1.871,1.871,0,0,0,.543,1.278,3.677,3.677,0,0,0-.543,1.92c0,.022,0,.043,0,.065a10.073,10.073,0,0,1-6.034-6.39l-.178-.585-.6.09a2.428,2.428,0,0,1-.351.029,2.374,2.374,0,0,1,0-4.748Z" fill="#fff"/>
        <path id="Path_73" data-name="Path 73" d="M123.666,154.981a.947.947,0,0,0,0-1.892A.947.947,0,0,0,123.666,154.981Z" transform="translate(-111.999 -113.077)" fill="#fff"/>
        <path id="Path_74" data-name="Path 74" d="M192.068,153.632a.946.946,0,0,0,0-1.892A.946.946,0,0,0,192.068,153.632Z" transform="translate(-174.41 -111.846)" fill="#fff"/>
      </g>
    </g>
  </g>
</svg>
