<svg xmlns="http://www.w3.org/2000/svg" width="250" height="55" viewBox="0 0 250 55">
  <g id="النقل_و_المواصلات" data-name="النقل و المواصلات" transform="translate(-31 -186)">
    <g id="تاكسي">
      <rect id="Rectangle_79" data-name="Rectangle 79" width="55" height="55" rx="18" transform="translate(31 186)" fill="#009688"/>
      <g id="taxi" transform="translate(45 201)">
        <path id="Path_246" data-name="Path 246" d="M25.631,11.777h.187a1.359,1.359,0,1,0,0-2.718H24.459a5.9,5.9,0,0,0-5.888-5.888V2.265A2.267,2.267,0,0,0,16.306,0H10.871A2.267,2.267,0,0,0,8.606,2.265v.906A5.9,5.9,0,0,0,2.717,9.059H1.359a1.359,1.359,0,0,0,0,2.718h.187A3.171,3.171,0,0,0,0,14.495v4.077a2.267,2.267,0,0,0,2.265,2.265h.453v1.359A2.267,2.267,0,0,0,4.982,24.46H6.794a2.267,2.267,0,0,0,2.265-2.265V20.836h9.059v1.359a2.267,2.267,0,0,0,2.265,2.265h1.812a2.267,2.267,0,0,0,2.265-2.265V20.836h.453a2.267,2.267,0,0,0,2.265-2.265V14.495A3.171,3.171,0,0,0,25.631,11.777Zm.187-1.812a.453.453,0,1,1,0,.906H24.459V9.965ZM9.512,2.265A1.359,1.359,0,0,1,10.871.906h5.435a1.359,1.359,0,0,1,1.359,1.359v.906H9.512ZM3.623,9.059A4.988,4.988,0,0,1,8.606,4.077h9.965a4.988,4.988,0,0,1,4.983,4.983v2.265H3.623ZM.906,10.418a.453.453,0,0,1,.453-.453H2.717v.906H1.359A.453.453,0,0,1,.906,10.418ZM8.153,22.195a1.359,1.359,0,0,1-1.359,1.359H4.982a1.359,1.359,0,0,1-1.359-1.359V20.836h4.53Zm15.4,0a1.359,1.359,0,0,1-1.359,1.359H20.383a1.359,1.359,0,0,1-1.359-1.359V20.836h4.53Zm2.718-3.624a1.359,1.359,0,0,1-1.359,1.359H2.264A1.359,1.359,0,0,1,.906,18.571V14.495A2.267,2.267,0,0,1,3.17,12.23H24.006a2.267,2.267,0,0,1,2.265,2.265Zm0,0" fill="#fff"/>
        <path id="Path_247" data-name="Path 247" d="M72.453,86.341H90.571a.453.453,0,0,0,.453-.453V84.53A4.534,4.534,0,0,0,86.495,80H76.53A4.534,4.534,0,0,0,72,84.53v1.359A.453.453,0,0,0,72.453,86.341Zm.453-1.812a3.628,3.628,0,0,1,3.624-3.624h9.965a3.628,3.628,0,0,1,3.624,3.624v.906H72.906Zm0,0" transform="translate(-67.924 -75.47)" fill="#fff"/>
        <path id="Path_248" data-name="Path 248" d="M147.324,280H136.453a.453.453,0,0,0-.453.453v1.812a.453.453,0,0,0,.453.453h10.871a.453.453,0,0,0,.453-.453v-1.812A.453.453,0,0,0,147.324,280Zm-.453,1.812h-9.965v-.906h9.965Zm0,0" transform="translate(-128.3 -264.147)" fill="#fff"/>
        <path id="Path_249" data-name="Path 249" d="M57.812,272a1.812,1.812,0,1,0,1.812,1.812A1.812,1.812,0,0,0,57.812,272Zm0,2.718a.906.906,0,1,1,.906-.906A.906.906,0,0,1,57.812,274.718Zm0,0" transform="translate(-52.83 -256.599)" fill="#fff"/>
        <path id="Path_250" data-name="Path 250" d="M361.812,272a1.812,1.812,0,1,0,1.812,1.812A1.812,1.812,0,0,0,361.812,272Zm0,2.718a.906.906,0,1,1,.906-.906A.906.906,0,0,1,361.812,274.718Zm0,0" transform="translate(-339.617 -256.599)" fill="#fff"/>
      </g>
    </g>
    <g id="نقل_عفش" data-name="نقل عفش">
      <rect id="Rectangle_79-2" data-name="Rectangle 79" width="55" height="55" rx="18" transform="translate(96 186)" fill="#009688"/>
      <path id="delivery-truck" d="M32.087,8.911,27.009,3.833a.947.947,0,0,0-.67-.278h-4.13V3.487A3.491,3.491,0,0,0,18.721,0H3.487A3.491,3.491,0,0,0,0,3.487v12.7A3.491,3.491,0,0,0,3.487,19.67h.67a4.757,4.757,0,0,0,9.323,0h5.4a4.757,4.757,0,0,0,9.323,0h3.209a.948.948,0,0,0,.948-.948V9.581a.947.947,0,0,0-.278-.67Zm-6.141-3.46,3.182,3.182H22.208V5.451ZM1.9,16.183V3.487A1.593,1.593,0,0,1,3.487,1.9H18.721a1.593,1.593,0,0,1,1.591,1.591v11.75a4.755,4.755,0,0,0-1.428,2.536h-5.4a4.757,4.757,0,0,0-9.323,0h-.67A1.592,1.592,0,0,1,1.9,16.183Zm6.923,5.4a2.861,2.861,0,1,1,2.86-2.861A2.864,2.864,0,0,1,8.819,21.582Zm14.727,0a2.861,2.861,0,1,1,2.86-2.861A2.864,2.864,0,0,1,23.545,21.582Zm4.662-3.809a4.753,4.753,0,0,0-6-3.616V10.53h8.26v7.244H28.207Zm0,0" transform="translate(107 202)" fill="#fff"/>
    </g>
    <g id="توصيل_مدارس" data-name="توصيل مدارس">
      <rect id="Rectangle_79-3" data-name="Rectangle 79" width="55" height="55" rx="18" transform="translate(161 186)" fill="#009688"/>
      <g id="bus" transform="translate(171 202)">
        <path id="Path_251" data-name="Path 251" d="M79.781,275.387a1.755,1.755,0,1,0,1.755,1.755A1.757,1.757,0,0,0,79.781,275.387Zm0,2.233a.478.478,0,1,1,.478-.478A.479.479,0,0,1,79.781,277.62Z" transform="translate(-71.385 -257.864)" fill="#fff"/>
        <path id="Path_252" data-name="Path 252" d="M293.013,275.387a1.755,1.755,0,1,0,1.755,1.755A1.757,1.757,0,0,0,293.013,275.387Zm0,2.233a.478.478,0,1,1,.478-.478A.479.479,0,0,1,293.013,277.62Z" transform="translate(-266.467 -257.864)" fill="#fff"/>
        <path id="Path_253" data-name="Path 253" d="M34.132,85.714V73.2a3.689,3.689,0,0,0-3.685-3.685H6.535A5.731,5.731,0,0,0,.81,75.24V85.714A2.021,2.021,0,0,0,0,87.333v.078a2.024,2.024,0,0,0,2.022,2.022h2.6a3.829,3.829,0,0,0,7.552,0h10.6a3.829,3.829,0,0,0,7.552,0h2.6a2.024,2.024,0,0,0,2.022-2.022v-.078A2.021,2.021,0,0,0,34.132,85.714Zm-1.277-6.628H31.1a.163.163,0,0,1-.163-.163V74a.163.163,0,0,1,.163-.163h1.752ZM1.277,87.411v-.078a.746.746,0,0,1,.745-.746H5.269a3.809,3.809,0,0,0-.648,1.569h-2.6A.746.746,0,0,1,1.277,87.411ZM8.4,91.347a2.553,2.553,0,1,1,2.553-2.553A2.556,2.556,0,0,1,8.4,91.347ZM22.77,88.156h-10.6A3.827,3.827,0,0,0,6.808,85.31H2.087V75.24a4.453,4.453,0,0,1,4.448-4.448H30.447a2.412,2.412,0,0,1,2.322,1.77H31.1A1.441,1.441,0,0,0,29.663,74v4.922A1.441,1.441,0,0,0,31.1,80.363h1.752V85.31h-4.72a3.827,3.827,0,0,0-5.365,2.845Zm3.776,3.192A2.553,2.553,0,1,1,29.1,88.794,2.556,2.556,0,0,1,26.546,91.347Zm7.119-3.936a.746.746,0,0,1-.745.745h-2.6a3.809,3.809,0,0,0-.648-1.569H32.92a.746.746,0,0,1,.745.746Z" transform="translate(0 -69.516)" fill="#fff"/>
        <path id="Path_254" data-name="Path 254" d="M66.533,111.669v-4.922a1.441,1.441,0,0,0-1.439-1.439H45.438a3.083,3.083,0,0,0-3.08,3.08v3.281a1.441,1.441,0,0,0,1.439,1.439h21.3A1.441,1.441,0,0,0,66.533,111.669Zm-11.449-5.084H60.1v5.247H55.084Zm-1.277,5.247H48.789v-5.247h5.018Zm-10.172-.163v-3.281a1.805,1.805,0,0,1,1.8-1.8h2.074v5.247H43.8A.163.163,0,0,1,43.635,111.669Zm21.621,0a.163.163,0,0,1-.163.163H61.379v-5.247h3.714a.163.163,0,0,1,.163.163Z" transform="translate(-38.753 -102.262)" fill="#fff"/>
        <path id="Path_255" data-name="Path 255" d="M362.675,223.59a.638.638,0,0,0,.638-.638v-.567a.638.638,0,0,0-1.277,0v.567A.638.638,0,0,0,362.675,223.59Z" transform="translate(-331.222 -208.789)" fill="#fff"/>
      </g>
    </g>
    <g id="توصيل_طلبات" data-name="توصيل طلبات">
      <rect id="Rectangle_79-4" data-name="Rectangle 79" width="55" height="55" rx="18" transform="translate(226 186)" fill="#009688"/>
      <g id="gift" transform="translate(241 201.899)">
        <path id="Path_256" data-name="Path 256" d="M25.649,16.21a1.7,1.7,0,0,0-1.39-1.233V5.209h.851a.426.426,0,0,0,.426-.426V.527A.425.425,0,0,0,25.111.1H6.384a.425.425,0,0,0-.426.426V4.783a.426.426,0,0,0,.426.426h.851v8.512H6.81a5.481,5.481,0,0,0-2.979.872V12.444a.425.425,0,0,0-.426-.426H.426A.425.425,0,0,0,0,12.444v9.789a.426.426,0,0,0,.426.426H3.4a.426.426,0,0,0,.426-.426V20.084a5.486,5.486,0,0,0,2.979.872H13.8a5.6,5.6,0,0,0,1.434-.189L24.447,18.3a1.709,1.709,0,0,0,1.2-2.088ZM6.81.953H24.685v3.4H6.81ZM8.086,5.209H23.408V15.05l-4.94,1.325a1.711,1.711,0,0,0-1.126-.988l-5.735-1.538a3.868,3.868,0,0,0-.989-.128H8.086Zm-5.107,16.6H.851V12.869H2.979Zm21.246-4.331-9.213,2.468a4.737,4.737,0,0,1-1.215.16H6.81A4.65,4.65,0,0,1,4,19.168l-.17-.128v-3.4L4,15.508a4.647,4.647,0,0,1,2.809-.936h3.809a3.008,3.008,0,0,1,.771.1l5.733,1.537a.858.858,0,0,1,.625.733.415.415,0,0,0,.017.052.419.419,0,0,0-.011.056.725.725,0,0,1-.028.2.851.851,0,0,1-.82.629.839.839,0,0,1-.222-.028l-3.618-.97a.426.426,0,1,0-.22.822l3.618.97a1.731,1.731,0,0,0,.443.057,1.7,1.7,0,0,0,1.638-1.25,1.525,1.525,0,0,0,.048-.261l5.188-1.391c.037-.009.077-.019.115-.025a.851.851,0,0,1,.932.626.831.831,0,0,1,.028.22.851.851,0,0,1-.629.823Zm0,0" transform="translate(0 0)" fill="#fff"/>
        <path id="Path_257" data-name="Path 257" d="M248.426,112.953h4.256a.426.426,0,1,0,0-.851h-4.256a.426.426,0,1,0,0,.851Zm0,0" transform="translate(-234.806 -106.042)" fill="#fff"/>
      </g>
    </g>
  </g>
</svg>
