<svg xmlns="http://www.w3.org/2000/svg" width="250" height="55" viewBox="0 0 250 55">
  <g id="السياحة" transform="translate(-30 -356)">
    <g id="شقق">
      <rect id="Rectangle_81" data-name="Rectangle 81" width="55" height="55" rx="18" transform="translate(160 356)" fill="#558b2f"/>
      <g id="appartment" transform="translate(116.88 369)">
        <g id="Group_203" data-name="Group 203" transform="translate(59.12)">
          <g id="Group_202" data-name="Group 202">
            <path id="Path_285" data-name="Path 285" d="M81.072,12.378H77.461V.508A.508.508,0,0,0,76.953,0H59.628a.508.508,0,0,0-.508.508V29.459a.508.508,0,0,0,.508.508H81.072a.508.508,0,0,0,.508-.508V12.886A.508.508,0,0,0,81.072,12.378Zm-18.229.508V28.951H60.136V1.016H76.445V12.378H63.351A.508.508,0,0,0,62.843,12.886ZM71.7,28.951H67.13V24.263H71.7Zm5.587,0H72.717V24.263h4.571Zm1,0v-5.2a.508.508,0,0,0-.508-.508H66.642a.508.508,0,0,0-.508.508v5.2H63.859V13.394H80.564l.015,15.558Z" transform="translate(-59.12)" fill="#fff"/>
          </g>
        </g>
        <g id="Group_205" data-name="Group 205" transform="translate(70.076 2.143)">
          <g id="Group_204" data-name="Group 204">
            <path id="Path_286" data-name="Path 286" d="M235.078,33.76h-2.89a.508.508,0,0,0-.508.508v2.885a.508.508,0,0,0,.508.508h2.885a.508.508,0,0,0,.508-.508V34.268A.508.508,0,0,0,235.078,33.76ZM232.7,36.645V34.776h1.869l.005,1.869Z" transform="translate(-231.68 -33.76)" fill="#fff"/>
          </g>
        </g>
        <g id="Group_207" data-name="Group 207" transform="translate(62.457 2.143)">
          <g id="Group_206" data-name="Group 206">
            <path id="Path_287" data-name="Path 287" d="M115.073,33.76h-2.885a.508.508,0,0,0-.508.508v2.885a.508.508,0,0,0,.508.508h2.885a.508.508,0,0,0,.508-.508V34.268A.508.508,0,0,0,115.073,33.76Zm-.508,2.885H112.7V34.776h1.869Z" transform="translate(-111.68 -33.76)" fill="#fff"/>
          </g>
        </g>
        <g id="Group_209" data-name="Group 209" transform="translate(70.076 7.365)">
          <g id="Group_208" data-name="Group 208">
            <path id="Path_288" data-name="Path 288" d="M235.078,116h-2.89a.508.508,0,0,0-.508.508v2.9a.508.508,0,0,0,.508.508h2.885a.508.508,0,0,0,.508-.508v-2.9A.508.508,0,0,0,235.078,116Zm-2.382,2.885v-1.869h1.869l.005,1.869Z" transform="translate(-231.68 -116)" fill="#fff"/>
          </g>
        </g>
        <g id="Group_211" data-name="Group 211" transform="translate(62.457 7.365)">
          <g id="Group_210" data-name="Group 210">
            <path id="Path_289" data-name="Path 289" d="M115.073,116h-2.885a.508.508,0,0,0-.508.508v2.9a.508.508,0,0,0,.508.508h2.885a.508.508,0,0,0,.508-.508v-2.9A.508.508,0,0,0,115.073,116Zm-.508,2.885H112.7v-1.869h1.869Z" transform="translate(-111.68 -116)" fill="#fff"/>
          </g>
        </g>
        <g id="Group_213" data-name="Group 213" transform="translate(74.068 14.095)">
          <g id="Group_212" data-name="Group 212">
            <path id="Path_290" data-name="Path 290" d="M297.953,222h-2.885a.508.508,0,0,0-.508.508v2.885a.508.508,0,0,0,.508.508h2.885a.508.508,0,0,0,.508-.508v-2.885A.508.508,0,0,0,297.953,222Zm-.508,2.885h-1.869v-1.869h1.869Z" transform="translate(-294.56 -222)" fill="#fff"/>
          </g>
        </g>
        <g id="Group_215" data-name="Group 215" transform="translate(66.449 14.095)">
          <g id="Group_214" data-name="Group 214">
            <path id="Path_291" data-name="Path 291" d="M177.953,222h-2.885a.508.508,0,0,0-.508.508v2.885a.508.508,0,0,0,.508.508h2.885a.508.508,0,0,0,.508-.508v-2.885A.508.508,0,0,0,177.953,222Zm-.508,2.885h-1.869v-1.869h1.869Z" transform="translate(-174.56 -222)" fill="#fff"/>
          </g>
        </g>
        <g id="Group_217" data-name="Group 217" transform="translate(74.068 18.783)">
          <g id="Group_216" data-name="Group 216">
            <path id="Path_292" data-name="Path 292" d="M297.953,295.84h-2.885a.508.508,0,0,0-.508.508v2.885a.508.508,0,0,0,.508.508h2.885a.508.508,0,0,0,.508-.508v-2.885A.508.508,0,0,0,297.953,295.84Zm-.508,2.885h-1.869v-1.869h1.869Z" transform="translate(-294.56 -295.84)" fill="#fff"/>
          </g>
        </g>
        <g id="Group_219" data-name="Group 219" transform="translate(66.449 18.783)">
          <g id="Group_218" data-name="Group 218">
            <path id="Path_293" data-name="Path 293" d="M177.953,295.84h-2.885a.508.508,0,0,0-.508.508v2.885a.508.508,0,0,0,.508.508h2.885a.508.508,0,0,0,.508-.508v-2.885A.508.508,0,0,0,177.953,295.84Zm-.508,2.885h-1.869v-1.869h1.869Z" transform="translate(-174.56 -295.84)" fill="#fff"/>
          </g>
        </g>
      </g>
    </g>
    <g id="فنادق">
      <rect id="Rectangle_81-2" data-name="Rectangle 81" width="55" height="55" rx="18" transform="translate(30 356)" fill="#558b2f"/>
      <path id="bed" d="M27.216,65.1V58.03a1.76,1.76,0,0,0-1.758-1.758H3.239A1.76,1.76,0,0,0,1.481,58.03V65.1A1.747,1.747,0,0,0,0,66.827v4.378a.554.554,0,0,0,.554.554h.593v2.731a.554.554,0,0,0,.554.554h1v1.066a.554.554,0,0,0,1.107,0V75.043H24.89v1.066a.554.554,0,0,0,1.107,0V75.043h1a.554.554,0,0,0,.554-.554V71.759h.593a.553.553,0,0,0,.554-.554V66.827A1.747,1.747,0,0,0,27.216,65.1ZM2.588,58.03a.651.651,0,0,1,.651-.651H25.458a.651.651,0,0,1,.651.651v7.053H24.165c.387-.416.78-.854,1.188-1.323a.554.554,0,0,0,0-.727,45.148,45.148,0,0,0-4.782-4.782.554.554,0,0,0-.727,0,45.147,45.147,0,0,0-4.782,4.782.554.554,0,0,0,0,.727c.407.469.8.906,1.188,1.323h-3.8c.387-.416.78-.854,1.188-1.323a.553.553,0,0,0,0-.727,45.162,45.162,0,0,0-4.782-4.782.554.554,0,0,0-.727,0,45.162,45.162,0,0,0-4.782,4.782.553.553,0,0,0,0,.727c.407.468.8.906,1.188,1.323H2.588Zm15.188,7.053C17.267,64.56,16.752,64,16.215,63.4a43.217,43.217,0,0,1,3.992-3.992A43.218,43.218,0,0,1,24.2,63.4c-.537.607-1.052,1.163-1.561,1.686Zm-11.717,0C5.549,64.56,5.035,64,4.5,63.4A43.227,43.227,0,0,1,8.49,59.405,43.226,43.226,0,0,1,12.481,63.4c-.537.607-1.052,1.163-1.561,1.686Zm20.384,8.853H2.254V71.759H26.443Zm1.146-3.284H1.107V66.827a.638.638,0,0,1,.637-.637H26.952a.638.638,0,0,1,.637.637v3.824Z" transform="translate(43 316.728)" fill="#fff"/>
    </g>
    <g id="منتجعات">
      <rect id="Rectangle_81-3" data-name="Rectangle 81" width="55" height="55" rx="18" transform="translate(95 356)" fill="#558b2f"/>
      <g id="sun-bath" transform="translate(107 338.653)">
        <g id="Group_221" data-name="Group 221" transform="translate(0 31.347)">
          <g id="Group_220" data-name="Group 220">
            <path id="Path_294" data-name="Path 294" d="M24.89,248.48v-3.111h1.244a.622.622,0,0,0,.622-.622v-2.489a.621.621,0,0,0-.21-.466l3.761-3.761a.622.622,0,0,0,0-.88l-1.867-1.867A.622.622,0,0,0,28,235.1h0a.622.622,0,0,0-.441.186L26.3,236.567l-.972-.972a.622.622,0,0,0-.88,0l-4.173,4.173h-1.92a.622.622,0,0,0-.622.622v1.244H10.267V240.7a1.234,1.234,0,0,1,0-1.244v-.933a1.246,1.246,0,0,0-1.244-1.244H4.045A1.246,1.246,0,0,0,2.8,238.524v.933a1.234,1.234,0,0,1,0,1.244v.933H.622a.622.622,0,0,0-.622.622v2.489a.622.622,0,0,0,.622.622H1.867v3.111H0v1.244H30.49V248.48Zm-5.911-7.467h1.556a.622.622,0,0,0,.44-.182l3.916-3.916.54.54-4.1,4.18H18.978v-.622ZM4.045,238.524H9.022v.933H4.045Zm0,2.178H9.022v.933H4.045Zm-.311,7.778H3.111v-3.111h.622Zm18.045,0H4.978v-3.111h16.8Zm1.867,0h-.622v-3.111h.622ZM22.4,244.125H1.244V242.88H21.592a.622.622,0,0,0,.444-.187l4.716-4.81L28,236.608l.983.983-4.045,4.045h-1.3v1.244h1.867v1.244H22.4Z" transform="translate(0 -222.968)" fill="#fff"/>
            <path id="Path_295" data-name="Path 295" d="M304.7,36.881l-.871.871.88.88.871-.871a2.784,2.784,0,0,0,.867.36v1.315h1.244V38.121a2.783,2.783,0,0,0,.867-.36l.871.871.88-.88-.871-.871a2.784,2.784,0,0,0,.36-.867h1.315V34.769h-1.315a2.783,2.783,0,0,0-.36-.867l.871-.871-.88-.88-.871.871a2.782,2.782,0,0,0-.867-.36V31.347h-1.245v1.315a2.783,2.783,0,0,0-.867.36l-.871-.871-.88.88.871.871a2.784,2.784,0,0,0-.36.867H303.02v1.244h1.315A2.785,2.785,0,0,0,304.7,36.881Zm2.369-3.045a1.556,1.556,0,1,1-1.556,1.556A1.557,1.557,0,0,1,307.065,33.836Z" transform="translate(-284.975 -31.347)" fill="#fff"/>
            <path id="Path_296" data-name="Path 296" d="M75.01,100.509a.623.623,0,0,1,.622.622h1.244a.622.622,0,0,1,1.244,0h1.244a1.866,1.866,0,0,0-3.111-1.39,1.866,1.866,0,0,0-3.111,1.39h1.244A.623.623,0,0,1,75.01,100.509Z" transform="translate(-68.787 -95.22)" fill="#fff"/>
            <path id="Path_297" data-name="Path 297" d="M135.837,153.377h1.244a.622.622,0,0,1,1.244,0h1.244a.622.622,0,0,1,1.244,0h1.244a1.866,1.866,0,0,0-3.111-1.39,1.866,1.866,0,0,0-3.111,1.39Z" transform="translate(-127.748 -144.354)" fill="#fff"/>
          </g>
        </g>
      </g>
    </g>
    <g id="رحلات_بحرية" data-name="رحلات بحرية">
      <rect id="Rectangle_81-4" data-name="Rectangle 81" width="55" height="55" rx="18" transform="translate(225 356)" fill="#558b2f"/>
      <g id="sunset" transform="translate(238.822 370)">
        <path id="Path_298" data-name="Path 298" d="M329.4,275.726a4.57,4.57,0,1,0,4.57-4.57A4.57,4.57,0,0,0,329.4,275.726Zm4.57-3.656a3.656,3.656,0,1,1-3.656,3.656A3.656,3.656,0,0,1,333.968,272.07Zm0,0" transform="translate(-313.681 -258.357)" fill="#fff"/>
        <path id="Path_299" data-name="Path 299" d="M370.9,561.637h5.223v.914H370.9Zm0,0" transform="translate(-353.222 -535.128)" fill="#fff"/>
        <path id="Path_300" data-name="Path 300" d="M329.4,522.9h9.141v.914H329.4Zm0,0" transform="translate(-313.681 -498.221)" fill="#fff"/>
        <path id="Path_301" data-name="Path 301" d="M116.379,522.9h.914v.914h-.914Zm0,0" transform="translate(-110.716 -498.221)" fill="#fff"/>
        <path id="Path_302" data-name="Path 302" d="M58.285,542.27H59.2v.914h-.914Zm0,0" transform="translate(-55.364 -516.675)" fill="#fff"/>
        <path id="Path_303" data-name="Path 303" d="M5.709,22.109a34.613,34.613,0,0,0,4.4-13.528l4.25,4.225a.456.456,0,0,0,.32.133.432.432,0,0,0,.074-.006.456.456,0,0,0,.335-.247,4.462,4.462,0,0,0-.837-5.157l-.374-.374h3.215a.457.457,0,0,0,.434-.6A4.462,4.462,0,0,0,13.284,3.5H12.69l2.282-2.3a.457.457,0,0,0-.12-.731,4.463,4.463,0,0,0-5.159.837l-.436.436a4.47,4.47,0,0,0-.4.457,4.391,4.391,0,0,0-.393-.457L8.031,1.31A4.461,4.461,0,0,0,2.875.473a.457.457,0,0,0-.12.731L5.04,3.5h-.6A4.462,4.462,0,0,0,.2,6.555a.457.457,0,0,0,.434.6H3.847l-.374.374a4.462,4.462,0,0,0-.837,5.157.457.457,0,0,0,.335.247.434.434,0,0,0,.074.006.456.456,0,0,0,.322-.133L7.325,8.872A24.771,24.771,0,0,1,2.547,20.95a17.052,17.052,0,0,0-1.866-.38L.4,20.541l-.091.91.266.026c.457.065.911.158,1.363.262-.091.115-.183.231-.277.344l.7.586a25.73,25.73,0,0,0,5.979-14.8l.526-.523.394.392a33.415,33.415,0,0,1-5.8,16.224l.749.524c.359-.513.7-1.045,1.034-1.588a16.21,16.21,0,0,1,5.53,4.332l.707-.579a17.071,17.071,0,0,0-3.035-2.882H27.6v-.914H7.091c-.448-.27-.91-.516-1.383-.744Zm8.8-10.441-4.829-4.8a3.525,3.525,0,0,1,3.489.873l.436.437a3.548,3.548,0,0,1,.9,3.492Zm1.883-5.426H12.607A4.457,4.457,0,0,0,9.776,5.9a3.544,3.544,0,0,1,2.889-1.49h.617a3.548,3.548,0,0,1,3.109,1.828ZM9.9,2.393l.437-.436a3.551,3.551,0,0,1,3.493-.9L11.122,3.778A4.458,4.458,0,0,0,8.964,5.471,3.459,3.459,0,0,1,9.9,2.393ZM7.384,1.956l.436.436a3.469,3.469,0,0,1,.526.692A4.348,4.348,0,0,0,8,4.6,4.458,4.458,0,0,0,6.6,3.778L3.893,1.053a3.549,3.549,0,0,1,3.492.9ZM4.439,4.414h.617A3.545,3.545,0,0,1,7.948,5.9a4.459,4.459,0,0,0-2.829.338H1.333A3.549,3.549,0,0,1,4.44,4.414ZM3.216,11.668a3.548,3.548,0,0,1,.9-3.492l.436-.437A3.493,3.493,0,0,1,7.034,6.72a3.615,3.615,0,0,1,1.013.145Zm0,0" transform="translate(0 0)" fill="#fff"/>
      </g>
    </g>
  </g>
</svg>
