<svg xmlns="http://www.w3.org/2000/svg" width="55" height="55" viewBox="0 0 55 55">
  <g id="تأجير_سيارات" data-name="تأجير سيارات" transform="translate(-134 -42)">
    <rect id="النقل_و_المواصلات" data-name="النقل و المواصلات" width="55" height="55" rx="18" transform="translate(134 42)" fill="#009688"/>
    <g id="rental" transform="translate(147 15.334)">
      <g id="Group_1634" data-name="Group 1634" transform="translate(0 42.666)">
        <g id="Group_1633" data-name="Group 1633" transform="translate(0 0)">
          <path id="Path_4334" data-name="Path 4334" d="M26.773,217.886l-5.826-.971-1.689-2.533a2.35,2.35,0,0,0-1.959-1.048H8.6a2.35,2.35,0,0,0-1.959,1.048l-1.7,2.556-3.6.9A1.763,1.763,0,0,0,0,219.55v2.957a2.581,2.581,0,0,0,.761,1.837A2.617,2.617,0,0,0,2.6,225.1H4.179a2.943,2.943,0,0,0,5.766,0h7.77a2.943,2.943,0,0,0,5.766,0h2.638a1.171,1.171,0,0,0,1.054-.651l.952-1.9a.585.585,0,0,0,.047-.13l.062-.263a.577.577,0,0,0,.015-.133v-2.395A1.759,1.759,0,0,0,26.773,217.886ZM7.062,226.281a1.766,1.766,0,1,1,1.766-1.766A1.767,1.767,0,0,1,7.062,226.281Zm13.536,0a1.766,1.766,0,1,1,1.766-1.766A1.767,1.767,0,0,1,20.6,226.281Zm6.474-4.327-.953,1.973H23.481a2.943,2.943,0,0,0-5.766,0H9.945a2.943,2.943,0,0,0-5.766,0H2.6a1.431,1.431,0,0,1-1-.416,1.414,1.414,0,0,1-.416-1V219.55a.589.589,0,0,1,.446-.571l3.816-.954a.586.586,0,0,0,.347-.244l1.83-2.745a1.174,1.174,0,0,1,.979-.524h8.7a1.174,1.174,0,0,1,.979.524l1.83,2.745a.584.584,0,0,0,.393.254l6.078,1.013a.586.586,0,0,1,.492.58v2.326Z" transform="translate(0 -203.918)" fill="#fff"/>
          <path id="Path_4335" data-name="Path 4335" d="M304.274,97.638a1.176,1.176,0,1,0-.832-.344A1.175,1.175,0,0,0,304.274,97.638Z" transform="translate(-286.375 -92.382)" fill="#fff"/>
          <path id="Path_4336" data-name="Path 4336" d="M118.753,48.41a.588.588,0,0,0,.416.172h5.075a4.018,4.018,0,0,0,.769,1.076,4.119,4.119,0,1,0,5.825-5.825,4.219,4.219,0,0,0-5.824,0,4.009,4.009,0,0,0-.77,1.076H119.17a.588.588,0,0,0-.416.172l-1.248,1.248a.588.588,0,0,0,0,.832Zm.66-2.324h5.216a.589.589,0,0,0,.551-.38,2.9,2.9,0,0,1,.666-1.041,3.013,3.013,0,0,1,4.161,0,2.941,2.941,0,0,1,0,4.161,3.013,3.013,0,0,1-4.162,0,2.9,2.9,0,0,1-.664-1.04.589.589,0,0,0-.551-.38h-5.216l-.66-.66Z" transform="translate(-110.859 -42.666)" fill="#fff"/>
          <path id="Path_4337" data-name="Path 4337" d="M138.424,256.278a.588.588,0,0,0-.5-.278h-8.074a.588.588,0,0,0-.518.311l-1.26,2.354a.588.588,0,0,0,.518.866h10.8a.589.589,0,0,0,.5-.9Zm-8.851,2.076.63-1.177H137.6l.731,1.177Z" transform="translate(-120.94 -244.23)" fill="#fff"/>
        </g>
      </g>
    </g>
  </g>
</svg>
