<svg xmlns="http://www.w3.org/2000/svg" width="315" height="55" viewBox="0 0 315 55">
  <g id="حاسب_آلي_و_الهاتف" data-name="حاسب آلي و الهاتف" transform="translate(-30 -132)">
    <g id="مبرمج">
      <rect id="Rectangle_46" data-name="Rectangle 46" width="55" height="55" rx="18" transform="translate(30 132)" fill="#03a9f4"/>
      <g id="programmer" transform="translate(45 147)">
        <path id="Path_17" data-name="Path 17" d="M13.309,36.62A1.308,1.308,0,1,0,12,35.312a1.309,1.309,0,0,0,1.308,1.308Zm0-1.869a.561.561,0,1,1-.561.561.561.561,0,0,1,.561-.561Z" transform="translate(-7.323 -20.831)" fill="#fff"/>
        <path id="Path_19" data-name="Path 19" d="M.388,22.325H.776V26.19a.388.388,0,0,0,.776,0V22.325H23.283V26.19a.388.388,0,0,0,.776,0V22.325h.388a.387.387,0,0,0,.388-.387V20.393a.387.387,0,0,0-.388-.387h-.388V17.687a2.714,2.714,0,0,0-2.716-2.706H20.179v-.628a4.632,4.632,0,0,0,2.328-4.009h0V6.865a2.324,2.324,0,0,0-1.94-2.284V3.387A.387.387,0,0,0,20.179,3H17.069a3.877,3.877,0,0,0-3.875,3.864v3.479a4.632,4.632,0,0,0,2.328,4.01v.628H14.358a2.714,2.714,0,0,0-2.716,2.706v.775h-.388V13.051a1.163,1.163,0,0,0-1.164-1.16H1.941a1.163,1.163,0,0,0-1.164,1.16v6.57a1.136,1.136,0,0,0,.071.386H.388A.387.387,0,0,0,0,20.393v1.546a.387.387,0,0,0,.388.387ZM17.074,3.774h2.716v1.16a.387.387,0,0,0,.388.387,1.551,1.551,0,0,1,1.552,1.546v1l-.5-.5a.147.147,0,0,0-.017-.011.353.353,0,0,0-.066-.044.43.43,0,0,0-.063-.033.4.4,0,0,0-.071-.014.41.41,0,0,0-.075-.008.422.422,0,0,0-.069.013.392.392,0,0,0-.077.024c-.007,0-.014,0-.02.006a7,7,0,0,1-2.92.727A7.038,7.038,0,0,1,14.93,7.3c-.007,0-.013,0-.02-.006a.4.4,0,0,0-.076-.023.34.34,0,0,0-.071-.014.365.365,0,0,0-.071.007.373.373,0,0,0-.075.014.406.406,0,0,0-.061.032.367.367,0,0,0-.067.044c-.005,0-.012.006-.017.011l-.5.5v-1a3.1,3.1,0,0,1,3.1-3.091Zm-3.1,6.571V8.958l.855-.852A7.671,7.671,0,0,0,17.85,8.8a7.671,7.671,0,0,0,3.025-.692l.855.852v1.387a3.881,3.881,0,0,1-7.761,0Zm3.881,4.637a4.643,4.643,0,0,0,1.552-.271v.5l-.493.49-.937-.311a.383.383,0,0,0-.042-.005.368.368,0,0,0-.08-.01.4.4,0,0,0-.08.01.325.325,0,0,0-.042.005l-.937.311-.493-.49v-.5a4.643,4.643,0,0,0,1.552.271Zm-5.433,2.706a1.939,1.939,0,0,1,1.94-1.933h1.392l.662.659a.242.242,0,0,0,.021.014.372.372,0,0,0,.084.056c.012.006.024.014.037.019a.385.385,0,0,0,.133.026.39.39,0,0,0,.123-.02l1.042-.346,1.042.346a.4.4,0,0,0,.123.02.389.389,0,0,0,.133-.026.411.411,0,0,0,.037-.019.367.367,0,0,0,.084-.056c.007-.006.015-.008.021-.014l.662-.659h1.391a1.939,1.939,0,0,1,1.94,1.933v2.319h-8.22a1.145,1.145,0,0,0,.071-.385v-.773a.387.387,0,0,0-.388-.387H12.418Zm1.94,1.548v.387a.386.386,0,0,1-.38.385H11.183a1.142,1.142,0,0,0,.071-.383s0,0,0,0v-.386ZM1.941,12.664H10.09a.387.387,0,0,1,.388.387v6.571a.386.386,0,0,1-.38.385H1.937a.387.387,0,0,1-.384-.386v-6.57a.387.387,0,0,1,.388-.387ZM.776,20.779H13.97l.015,0h9.678l.008,0,.008,0h.38v.773H.776Z" transform="translate(0 -1.879)" fill="#fff"/>
        <path id="Path_20" data-name="Path 20" d="M45.4,44.747a.374.374,0,0,0,0-.747h0a.374.374,0,0,0,0,.747Z" transform="translate(-27.533 -27.003)" fill="#fff"/>
        <path id="Path_21" data-name="Path 21" d="M45.4,40.747a.374.374,0,0,0,0-.747h0a.374.374,0,0,0,0,.747Z" transform="translate(-27.533 -24.548)" fill="#fff"/>
        <path id="Path_22" data-name="Path 22" d="M7.936,8.575l.284.284a.374.374,0,0,0,.528,0l.342-.342a4.3,4.3,0,1,0-1.154.058ZM8.3.747A3.548,3.548,0,0,1,8.852,7.8a.376.376,0,0,0-.206.105l-.161.162-.119-.119a.375.375,0,0,0-.246-.109A3.548,3.548,0,0,1,8.3.747Z" transform="translate(-2.505)" fill="#fff"/>
        <path id="Path_23" data-name="Path 23" d="M18.609,10.5a.374.374,0,0,0,.528,0l.93-.93,0,0a.375.375,0,0,0,0-.53l0,0-.93-.931a.374.374,0,0,0-.528.528l.669.67-.669.669a.373.373,0,0,0,0,.528Z" transform="translate(-11.301 -5.004)" fill="#fff"/>
        <path id="Path_24" data-name="Path 24" d="M9.044,10.5a.374.374,0,1,0,.528-.528L8.9,9.3l.669-.67A.374.374,0,0,0,9.044,8.1l-.93.931,0,0a.375.375,0,0,0,0,.53l0,0Z" transform="translate(-5.01 -5.004)" fill="#fff"/>
        <path id="Path_25" data-name="Path 25" d="M13.256,10.077a.372.372,0,0,0,.472-.236L14.85,6.476a.374.374,0,1,0-.709-.237L13.02,9.6a.374.374,0,0,0,.237.473Z" transform="translate(-7.94 -3.747)" fill="#fff"/>
      </g>
    </g>
    <g id="هاتف_محمول" data-name="هاتف محمول">
      <rect id="Rectangle_48" data-name="Rectangle 48" width="55" height="55" rx="18" transform="translate(95 132)" fill="#03a9f4"/>
      <g id="smartphone" transform="translate(104.676 146.001)">
        <path id="Path_26" data-name="Path 26" d="M34.25,50a1.574,1.574,0,1,0,1.574,1.574A1.576,1.576,0,0,0,34.25,50Zm0,2.249a.675.675,0,1,1,.675-.675A.675.675,0,0,1,34.25,52.248Z" transform="translate(-13.951 -27.514)" fill="#fff"/>
        <path id="Path_27" data-name="Path 27" d="M38.475,32.6a1.8,1.8,0,1,0-1.8-1.8A1.8,1.8,0,0,0,38.475,32.6Zm0-2.7a.9.9,0,1,1-.9.9A.9.9,0,0,1,38.475,29.9Z" transform="translate(-16.152 -15.958)" fill="#fff"/>
        <path id="Path_28" data-name="Path 28" d="M16.126,9.8a.448.448,0,0,0,.318-.132l.9-.9a.45.45,0,0,0-.636-.636l-.9.9a.45.45,0,0,0,.318.768Z" transform="translate(-4.596 -4.402)" fill="#fff"/>
        <path id="Path_29" data-name="Path 29" d="M27.719,13.377a1.472,1.472,0,0,0-.434-1.047l-.25-.25A2.02,2.02,0,0,0,25.7,8.544a1.978,1.978,0,0,0-.243.018,1.978,1.978,0,0,0,.018-.243A2.026,2.026,0,0,0,23.447,6.3a1.979,1.979,0,0,0-.243.018,1.978,1.978,0,0,0,.018-.243A2.026,2.026,0,0,0,21.2,4.047a1.978,1.978,0,0,0-.243.018,1.979,1.979,0,0,0,.018-.243,2.02,2.02,0,0,0-3.536-1.34l-.357-.357L15.388.433a1.482,1.482,0,0,0-2.095,0L7.756,5.97a1.484,1.484,0,0,0,0,2.1L9.449,9.757l2.208,2.208a2.012,2.012,0,0,0-.12,3.436.666.666,0,0,0,.1.109l4.837,4.819v.808h-.9v5.846H27.27V21.136h-.9V19.773a3.8,3.8,0,0,0,.658-5.092l.257-.257A1.472,1.472,0,0,0,27.719,13.377Zm-.9-2.81a1.123,1.123,0,0,1-.421.876L24.82,9.864a1.123,1.123,0,0,1,2,.7ZM24.571,8.319a1.123,1.123,0,0,1-.421.876L22.571,7.615a1.123,1.123,0,0,1,2,.7ZM22.323,6.07a1.123,1.123,0,0,1-.421.876L20.322,5.367a1.123,1.123,0,0,1,2,.7ZM18.95,2.7a1.123,1.123,0,0,1,.7,2L18.074,3.118A1.125,1.125,0,0,1,18.95,2.7ZM8.392,7.429a.584.584,0,0,1,0-.823l5.537-5.537a.43.43,0,0,1,.292-.147.565.565,0,0,1,.239,0,.574.574,0,0,1,.1.02.583.583,0,0,1,.192.127l1.056,1.056-6.36,6.36Zm8.052-4.668.53.53L19.223,5.54l.258.258,1.991,1.991.258.258,1.991,1.991.258.258,2.249,2.249.423.423a.582.582,0,0,1,0,.823l-.2.2h0l-5.34,5.34a.583.583,0,0,1-.823,0L16.7,15.739h.448a2.024,2.024,0,1,0,0-4.047h-4.5L10.084,9.121Zm-4.033,9.858L12.6,12.6a.385.385,0,0,1,.056-.007h4.5a1.124,1.124,0,0,1,0,2.249h-4.5a1.123,1.123,0,0,1-.242-2.221Zm4.065,13.464V22.035h3.789a2.51,2.51,0,0,1,2.507,2.507v1.541Zm9.894,0h-2.7V24.542a3.394,3.394,0,0,0-1.108-2.507H26.37Zm.011-10.754A2.91,2.91,0,0,1,25.65,19.2l-.179.135v1.8h-8.1V19.913l-.159-.134c-.02-.018-.042-.034-.081-.063l-3.992-3.977H15.43l4.222,4.223a1.484,1.484,0,0,0,2.1,0Z" transform="translate(0 0)" fill="#fff"/>
      </g>
    </g>
    <g id="شبكات_انترنت" data-name="شبكات انترنت">
      <rect id="Rectangle_49" data-name="Rectangle 49" width="55" height="55" rx="18" transform="translate(160 132)" fill="#03a9f4"/>
      <g id="antenna" transform="translate(149.992 146.001)">
        <g id="Group_89" data-name="Group 89" transform="translate(26.008 -0.001)">
          <g id="Group_88" data-name="Group 88" transform="translate(0 0)">
            <path id="Path_30" data-name="Path 30" d="M389.622.24v0a.451.451,0,0,0-.734.525,10.8,10.8,0,0,1,0,12.556.451.451,0,0,0,.1.63l0,0a.451.451,0,0,0,.629-.1A11.7,11.7,0,0,0,389.622.24Z" transform="translate(-368.351 -0.049)" fill="#fff"/>
            <path id="Path_31" data-name="Path 31" d="M28.818.083h0a.451.451,0,0,0-.629.1,11.7,11.7,0,0,0,0,13.605.451.451,0,0,0,.734-.524,10.8,10.8,0,0,1,0-12.556A.451.451,0,0,0,28.818.083Z" transform="translate(-26.008 0.001)" fill="#fff"/>
            <path id="Path_32" data-name="Path 32" d="M84.559,28.53a.451.451,0,0,0-.08-.633h0a.451.451,0,0,0-.631.078,8.532,8.532,0,0,0,0,10.5.451.451,0,1,0,.712-.554A7.63,7.63,0,0,1,84.559,28.53Z" transform="translate(-78.882 -26.236)" fill="#fff"/>
            <path id="Path_33" data-name="Path 33" d="M339.814,27.874h0a.451.451,0,0,0-.078.631,7.63,7.63,0,0,1,0,9.393.451.451,0,0,0,.712.554,8.532,8.532,0,0,0,0-10.5A.451.451,0,0,0,339.814,27.874Z" transform="translate(-321.96 -26.213)" fill="#fff"/>
            <path id="Path_34" data-name="Path 34" d="M290.158,56.525a4.493,4.493,0,0,1,0,6.17.451.451,0,0,0,.019.638h0a.451.451,0,0,0,.637-.02h0a5.4,5.4,0,0,0,0-7.406.451.451,0,0,0-.662.613Z" transform="translate(-275.149 -52.618)" fill="#fff"/>
            <path id="Path_35" data-name="Path 35" d="M139.809,63.455a.451.451,0,0,0,.329-.76,4.493,4.493,0,0,1,0-6.17.451.451,0,0,0-.652-.623l0,.005a5.4,5.4,0,0,0,0,7.406A.451.451,0,0,0,139.809,63.455Z" transform="translate(-131.695 -52.618)" fill="#fff"/>
            <path id="Path_36" data-name="Path 36" d="M141.714,104.857l-4.391-17.124a2.255,2.255,0,1,0-2.916,0l-4.391,17.124a.451.451,0,0,0,.324.549h0a.459.459,0,0,0,.112.014.451.451,0,0,0,.437-.339l.151-.586a.452.452,0,0,0,.074-.028l8.43-4.437,1.3,5.051a.451.451,0,0,0,.437.339.457.457,0,0,0,.112-.014.451.451,0,0,0,.325-.549Zm-4.348-13.323-2.452-2.146.31-1.21a2.023,2.023,0,0,0,1.282,0Zm-1.5-6.86a1.353,1.353,0,1,1-1.353,1.353A1.353,1.353,0,0,1,135.865,84.675Zm-1.2,5.692,2.716,2.378-4.014,2.674Zm-3.324,12.962,1.619-6.314,5.5,2.567Zm2.286-7,4.245-2.83,1.4,5.465Z" transform="translate(-124.139 -79.037)" fill="#fff"/>
          </g>
        </g>
      </g>
    </g>
    <g id="صيانة_الحاسب" data-name="صيانة الحاسب" transform="translate(99 -172)">
      <rect id="Rectangle_50" data-name="Rectangle 50" width="55" height="55" rx="18" transform="translate(126 304)" fill="#03a9f4"/>
      <g id="settings" transform="translate(124 302)">
        <path id="Path_37" data-name="Path 37" d="M100.169,112H97.39A1.391,1.391,0,0,0,96,113.39v2.316h.926V113.39a.464.464,0,0,1,.463-.463h2.779Z" transform="translate(-75.368 -90.441)" fill="#fff"/>
        <path id="Path_38" data-name="Path 38" d="M117.772,112H104.8v.926h11.117a.464.464,0,0,1,.463.463v13.9a.464.464,0,0,1-.463.463H97.39a.464.464,0,0,1-.463-.463v-.463H96v.463a1.391,1.391,0,0,0,1.39,1.39h7.546l1.043,1.529a1.985,1.985,0,0,1-1.64,3.1.463.463,0,0,0,0,.926h6.948a2.911,2.911,0,0,0,2.405-4.551l-.687-1.007h4.766a1.391,1.391,0,0,0,1.39-1.39v-13.9A1.391,1.391,0,0,0,117.772,112Zm-8.152,16.676.2.368c.007.013.015.026.023.038a.335.335,0,0,1-.279.52,1.076,1.076,0,0,1-.892-.472l-.272-.455Zm3.307,1.529a1.985,1.985,0,0,1-1.64,3.1h-4.813a2.99,2.99,0,0,0,.439-.625,3.058,3.058,0,0,0,.139-.3l.133-.449.069-.477a2.883,2.883,0,0,0-.51-1.772l-.687-1.007h1.261l.562.941.012.019a2,2,0,0,0,1.668.893,1.261,1.261,0,0,0,1.113-1.853h1.21Zm5.308-2.919a.464.464,0,0,1-.463.463h-.543a1.383,1.383,0,0,0,.08-.463v-13.9a1.383,1.383,0,0,0-.08-.463h.543a.464.464,0,0,1,.463.463Z" transform="translate(-75.368 -90.441)" fill="#fff"/>
        <path id="Path_39" data-name="Path 39" d="M272.338,156.044H264v.926h8.338a1.391,1.391,0,0,0,1.39-1.39V145.39a1.391,1.391,0,0,0-1.39-1.39H264v.926h8.338a.464.464,0,0,1,.463.463v10.191A.464.464,0,0,1,272.338,156.044Z" transform="translate(-233.64 -120.588)" fill="#fff"/>
        <path id="Path_42" data-name="Path 42" d="M21.559,34.992v-.926h1.39a.461.461,0,0,0,.336-.145l.8.531a.463.463,0,0,0,.257.078H24.8v.463a1.391,1.391,0,0,0,1.39,1.39h1.853a1.391,1.391,0,0,0,1.39-1.39v-.463h.926a1.391,1.391,0,0,0,1.39-1.39V27.581a1.391,1.391,0,0,0-1.39-1.39h-.818a1.4,1.4,0,0,0-.108-.108V24.8a1.392,1.392,0,0,0-.926-1.31V20.309l.849-1.273a.463.463,0,0,0,.045-.429l-.926-2.316a.463.463,0,0,0-.43-.291H26.191a.463.463,0,0,0-.43.291l-.926,2.316a.463.463,0,0,0,.045.429l.849,1.273v3.182A1.392,1.392,0,0,0,24.8,24.8v.926h-.463a.463.463,0,0,0-.328.136l-.845.845a.461.461,0,0,0-.217-.054h-1.39a.463.463,0,0,0-.463-.463H16v.926h4.632v7.412H16v.926h5.1a.463.463,0,0,0,.463-.463Zm6.948,0a.464.464,0,0,1-.463.463H26.191a.464.464,0,0,1-.463-.463v-.463h2.779Zm1.853-7.875a.464.464,0,0,1,.463.463v5.559a.464.464,0,0,1-.463.463H26.191v-5.1h2.316a1.391,1.391,0,0,0,1.39-1.39Zm-3.706-6.485h.926v2.779h-.926Zm-.15-3.706H27.73l.719,1.8-.654.981H26.439l-.654-.981ZM25.728,24.8a.464.464,0,0,1,.463-.463h1.853a.464.464,0,0,1,.463.463v.926H25.728Zm-1.2,1.853h3.977a.463.463,0,1,1,0,.926H25.728a.463.463,0,0,0-.463.463V33.6h-.786l-1.067-.711V27.773Zm-2.045.926v5.559h-.926V27.581Z" fill="#fff"/>
      </g>
    </g>
    <g id="صيانة_جوال" data-name="صيانة جوال">
      <rect id="Rectangle_47" data-name="Rectangle 47" width="55" height="55" rx="18" transform="translate(290 132)" fill="#03a9f4"/>
      <g id="repair" transform="translate(304.999 147)">
        <path id="Path_43" data-name="Path 43" d="M14.816,0H2.862A2.865,2.865,0,0,0,0,2.862V23.019a2.865,2.865,0,0,0,2.862,2.862H14.816a2.865,2.865,0,0,0,2.862-2.862V2.862A2.865,2.865,0,0,0,14.816,0ZM6.326,1.516h5.027V2.1a.211.211,0,0,1-.21.211H6.536a.211.211,0,0,1-.21-.211Zm9.836,21.5a1.347,1.347,0,0,1-1.345,1.345H2.862a1.347,1.347,0,0,1-1.345-1.345V2.862A1.347,1.347,0,0,1,2.862,1.516H4.809V2.1A1.729,1.729,0,0,0,6.536,3.826h4.606A1.73,1.73,0,0,0,12.87,2.1V1.516h1.947a1.347,1.347,0,0,1,1.345,1.345Zm0,0" fill="#fff"/>
        <path id="Path_44" data-name="Path 44" d="M124.689,432.5h-4.04a.758.758,0,1,0,0,1.516h4.04a.758.758,0,1,0,0-1.516Zm0,0" transform="translate(-113.829 -410.638)" fill="#fff"/>
        <path id="Path_45" data-name="Path 45" d="M390.184,16.04l.017-8.465,1.083-1.415a.811.811,0,0,0,.126-.75L389.8.557A.811.811,0,0,0,389.025,0h-1.558a.811.811,0,0,0-.77.555L385.075,5.41a.811.811,0,0,0,.125.751l1.081,1.413-.015,8.472a1.577,1.577,0,0,0-1.219,1.532V22.65a3.222,3.222,0,0,0,3.155,3.231h.038a3.194,3.194,0,0,0,3.194-3.2l0-5.106a1.573,1.573,0,0,0-1.251-1.54ZM387.975,1.517h.543l1.336,4.017-1,1.307a.819.819,0,0,0-.167.492L388.668,16h-.883l.015-8.669a.818.818,0,0,0-.167-.494l-1-1.306Zm1.943,21.168a1.677,1.677,0,0,1-1.7,1.68,1.7,1.7,0,0,1-1.656-1.714l0-5.072a.056.056,0,0,1,.055-.056h3.243a.052.052,0,0,1,.038.016.053.053,0,0,1,.016.039Zm0,0" transform="translate(-365.57 0)" fill="#fff"/>
        <path id="Path_46" data-name="Path 46" d="M59.3,134.191a6.157,6.157,0,1,0,6.152,6.157,6.162,6.162,0,0,0-6.152-6.157Zm0,10.8a4.641,4.641,0,1,1,4.636-4.641,4.644,4.644,0,0,1-4.636,4.641Zm0,0" transform="translate(-50.457 -127.408)" fill="#fff"/>
        <path id="Path_47" data-name="Path 47" d="M113.341,210.558l-2.822,2.824-.8-.8a.758.758,0,1,0-1.072,1.072l.98.98a1.254,1.254,0,0,0,.893.37h0a1.254,1.254,0,0,0,.893-.37l3-3a.758.758,0,0,0-1.073-1.072Zm0,0" transform="translate(-102.944 -199.703)" fill="#fff"/>
      </g>
    </g>
  </g>
</svg>
