<svg xmlns="http://www.w3.org/2000/svg" width="315" height="185" viewBox="0 0 315 185">
  <g id="حرفي_و_بناء" data-name="حرفي و بناء" transform="translate(-28 -602)">
    <g id="سباك">
      <rect id="Rectangle_78" data-name="Rectangle 78" width="55" height="55" rx="18" transform="translate(28 602)" fill="#3f51b5"/>
      <g id="Group_155" data-name="Group 155" transform="translate(1.491 -2)">
        <g id="plumber" transform="translate(27.453 603.748)">
          <path id="Path_170" data-name="Path 170" d="M36.235,30.229l-1-.225v-.284a.427.427,0,0,0-.315-.412l-1.6-.434a.427.427,0,0,0-.539.412v.168l-2.184-.49-.135-1.48a5.892,5.892,0,0,0,3.6-5.138l.128-.031.077-.02a.427.427,0,0,0,.319-.413V19.6a.427.427,0,0,0-.343-.418,6.061,6.061,0,0,0-6.052-5.925H28.05A6.061,6.061,0,0,0,22,19.177a.427.427,0,0,0-.343.418v2.287a.427.427,0,0,0,.319.413l.077.02.128.031a5.892,5.892,0,0,0,3.6,5.137l-.135,1.48-2.183.49v-.168a.427.427,0,0,0-.538-.412l-1.605.434A.427.427,0,0,0,21,29.72V30l-1,.225c-1.995.416-1.416,1.162.188.833L21,30.88v6.695a.427.427,0,0,0,.853,0V30.047l.752-.2v.837A3.194,3.194,0,0,0,25.8,33.87H30.44a3.194,3.194,0,0,0,3.189-3.19v-.836l.751.2v7.527a.427.427,0,0,0,.853,0V30.88l.813.182a3.489,3.489,0,0,1,2.788,3.369v3.143a.427.427,0,0,0,.853,0V34.431A4.338,4.338,0,0,0,36.235,30.229Zm-13.384-8.6a.415.415,0,0,0-.332-.077l-.01,0V21.19H33.728v.362l-.01,0a.415.415,0,0,0-.332.077,24,24,0,0,1-10.534,0Zm10.877-1.609v.314H22.508v-.313ZM28.05,14.1h.136a5.2,5.2,0,0,1,5.194,5.064H22.855A5.2,5.2,0,0,1,28.05,14.1Zm-5,8.444a24.575,24.575,0,0,0,5.068.523,24.579,24.579,0,0,0,5.068-.523,5.034,5.034,0,0,1-5,4.541h-.132A5.034,5.034,0,0,1,23.049,22.549Zm5,5.394h.132a5.873,5.873,0,0,0,1.443-.18l.128,1.423a2.131,2.131,0,0,1-3.274,0l.129-1.423A5.871,5.871,0,0,0,28.052,27.943Zm2.388,5.074H25.8a2.339,2.339,0,0,1-2.335-2.336v-.352l2.417-.542a2.975,2.975,0,0,0,4.483,0l2.415.542v.352a2.339,2.339,0,0,1-2.335,2.336Z" fill="#fff"/>
          <path id="Path_171" data-name="Path 171" d="M59.934,24.236a1.313,1.313,0,0,0,1.311-1.311,3.944,3.944,0,0,0-.987-1.8.441.441,0,0,0-.648,0,3.938,3.938,0,0,0-.987,1.8,1.313,1.313,0,0,0,1.311,1.311Zm0-2.143a2.483,2.483,0,0,1,.457.832.458.458,0,0,1-.915,0A2.491,2.491,0,0,1,59.934,22.093Z" transform="translate(-31.816 -5.846)" fill="#fff"/>
          <path id="Path_172" data-name="Path 172" d="M53.171,101.458H44.122a.427.427,0,0,0-.427.427v2.388a.427.427,0,0,0,.853,0v-1.961h8.2v1.961a.427.427,0,0,0,.853,0v-2.388a.427.427,0,0,0-.427-.427Z" transform="translate(-20.528 -66.698)" fill="#fff"/>
        </g>
        <path id="plunger" d="M34.391,27.688,33.35,26.647a.359.359,0,0,0-.507,0l-.123.123a4.189,4.189,0,0,0-2.72-1c-.044,0-.088.005-.133.006h0a4.184,4.184,0,0,0-2.075.621l-9.838-9.837a.358.358,0,0,0-.068-.41l-1.8-1.8a1.222,1.222,0,1,0-1.728,1.728l1.8,1.8a.353.353,0,0,0,.41.068L26.4,27.789a4.184,4.184,0,0,0-.621,2.075v0c0,.044-.006.088-.006.133a4.189,4.189,0,0,0,1,2.72l-.123.123a.359.359,0,0,0,0,.507L27.69,34.39a.359.359,0,0,0,.507,0l6.2-6.2a.359.359,0,0,0,0-.506ZM27.52,27.52a3.489,3.489,0,0,1,1.268-.809l-2.077,2.077a3.489,3.489,0,0,1,.809-1.268ZM14.859,15.573a.5.5,0,1,1,.713-.713l1.55,1.55-.713.713Zm2.229,1.886.372-.372,9.748,9.748c-.066.058-.132.114-.195.177s-.119.129-.177.195Zm9.406,12.56,3.526-3.526a3.478,3.478,0,0,1,2.191.785L27.279,32.21a3.478,3.478,0,0,1-.785-2.191Zm1.448,3.611-.533-.533L33.1,27.409l.533.533Z" transform="translate(44.005 597.939) rotate(45)" fill="#fff"/>
      </g>
    </g>
    <g id="نجار">
      <rect id="Rectangle_78-2" data-name="Rectangle 78" width="55" height="55" rx="18" transform="translate(93 602)" fill="#3f51b5"/>
      <g id="carpenter" transform="translate(81 617)">
        <g id="Group_157" data-name="Group 157" transform="translate(28)">
          <path id="Path_173" data-name="Path 173" d="M50.331,18.9H47.754V15.889a3.87,3.87,0,0,0-3.865-3.865H40.454V11.36a3.858,3.858,0,0,0,1.718-3.2V6.871H42.6a1.285,1.285,0,0,0,.411-2.5A4.727,4.727,0,0,0,38.307,0h-.859a4.727,4.727,0,0,0-4.706,4.368,1.285,1.285,0,0,0,.411,2.5h.429V8.159a3.857,3.857,0,0,0,1.718,3.2v.664H31.865A3.87,3.87,0,0,0,28,15.889v6.442a.429.429,0,0,0,.429.429h3.006v2.577a.429.429,0,0,0,.429.429h15.46a.429.429,0,0,0,.429-.429v-2.52l.309.268a.429.429,0,0,0,.562,0l.712-.616.712.616a26.683,26.683,0,0,1,.124.073.424.424,0,0,0,.157.032.429.429,0,0,0,.172-.037l.032-.022a.42.42,0,0,0,.11-.082s.008,0,.011-.009a.37.37,0,0,0,.03-.052.4.4,0,0,0,.043-.08,3.409,3.409,0,0,0,.032-.149V19.325A.429.429,0,0,0,50.331,18.9Zm-6.012-5.982A3.011,3.011,0,0,1,46.9,15.889v1.288H44.319Zm0,5.123H46.9V18.9H44.319Zm-3.006-5.153H43.46V18.9H41.313Zm-5.153-11.8V2.577a.429.429,0,1,0,.859,0V.885a3.84,3.84,0,0,1,.429-.026V3.006a.429.429,0,1,0,.859,0V.859a3.839,3.839,0,0,1,.429.026V2.577a.429.429,0,0,0,.859,0V1.083a3.874,3.874,0,0,1,2.553,3.211H33.606A3.874,3.874,0,0,1,36.159,1.083ZM33.153,6.012a.429.429,0,0,1,0-.859H42.6a.429.429,0,1,1,0,.859Zm1.288,2.147V6.871h6.871V8.159a3,3,0,0,1-1.506,2.6,2.955,2.955,0,0,1-1.5.4h-.859a2.955,2.955,0,0,1-1.5-.407A3,3,0,0,1,34.442,8.159ZM39.595,11.8v1.079a1.718,1.718,0,0,1-3.436,0V11.8c.08.029.162.052.244.075a.509.509,0,0,1,.049.017,3.839,3.839,0,0,0,.436.086l.105.013a3.8,3.8,0,0,0,.454.03h.859a3.894,3.894,0,0,0,.453-.03l.106-.014a3.869,3.869,0,0,0,.434-.086l.056-.018C39.436,11.855,39.517,11.832,39.595,11.8ZM35.3,12.883a2.577,2.577,0,1,0,5.153,0V18.9H37.877v-.429a.429.429,0,0,0-.429-.429H35.3ZM34.871,18.9h2.147V23.19H34.871a.429.429,0,0,1-.429-.429v-.054a1.693,1.693,0,0,0,.172-.061c.026-.009.053-.016.078-.027a1.694,1.694,0,0,0,.271-.147c.018-.012.034-.028.052-.041a1.812,1.812,0,0,0,.186-.153c.026-.025.049-.053.073-.079a1.7,1.7,0,0,0,.129-.154c.023-.032.043-.064.064-.1a1.631,1.631,0,0,0,.094-.172c.017-.035.033-.07.048-.107a1.713,1.713,0,0,0,.063-.2c.009-.033.019-.065.026-.1a1.6,1.6,0,0,0,0-.644c-.006-.034-.017-.066-.026-.1a1.713,1.713,0,0,0-.063-.2c-.015-.037-.031-.071-.048-.107a1.63,1.63,0,0,0-.094-.172c-.021-.033-.043-.066-.064-.1a1.7,1.7,0,0,0-.129-.154c-.024-.027-.047-.054-.073-.079a1.812,1.812,0,0,0-.186-.153c-.018-.013-.034-.028-.052-.041a1.694,1.694,0,0,0-.271-.147c-.025-.011-.052-.018-.078-.027a1.691,1.691,0,0,0-.172-.061v-.056A.429.429,0,0,1,34.871,18.9Zm-2.577-6.012h2.147v5.232a1.288,1.288,0,0,0-.859,1.209H32.294Zm-3.435,3.006a3.011,3.011,0,0,1,2.577-2.976v4.264H28.859Zm0,6.012V18.036h2.577v1.718a.429.429,0,0,0,.429.429h2.147a.859.859,0,1,1,0,1.718Zm14.6.859v2.147H32.294V22.76h1.288a1.288,1.288,0,0,0,1.288,1.288h2.577a.429.429,0,0,0,.429-.429v-.777l.28.242a.429.429,0,0,0,.563,0l.709-.615.709.615a.429.429,0,0,0,.563,0l.709-.615.709.615a.429.429,0,0,0,.563,0l.709-.615.118.1A.422.422,0,0,0,43.46,22.76ZM46.9,24.907H44.319V23.179a.423.423,0,0,0,.344-.094l.709-.615.708.615a.429.429,0,0,0,.563,0l.253-.22ZM49.9,21.821l-.283-.245a.429.429,0,0,0-.562,0h0l-.712.616-.711-.616a.429.429,0,0,0-.563,0l-.71.615-.711-.615a.429.429,0,0,0-.563,0l-.709.615-.708-.615a.429.429,0,0,0-.563,0l-.709.615-.709-.615a.429.429,0,0,0-.563,0l-.709.615-.709-.615a.429.429,0,0,0-.563,0l-.709.615-.561-.486V19.754H49.9Z" transform="translate(-28)" fill="#fff"/>
        </g>
      </g>
    </g>
    <g id="كهربائي">
      <rect id="Rectangle_78-3" data-name="Rectangle 78" width="55" height="55" rx="18" transform="translate(158 602)" fill="#3f51b5"/>
      <g id="electrician" transform="translate(161.529 616)">
        <g id="Group_160" data-name="Group 160" transform="translate(11.471)">
          <g id="Group_159" data-name="Group 159">
            <path id="Path_174" data-name="Path 174" d="M245.485,448.151a.547.547,0,1,0,.774,0A.547.547,0,0,0,245.485,448.151Z" transform="translate(-233.318 -424.99)" fill="#fff"/>
            <path id="Path_175" data-name="Path 175" d="M245.485,405.49a.548.548,0,1,0,.774,0A.548.548,0,0,0,245.485,405.49Z" transform="translate(-233.318 -384.52)" fill="#fff"/>
            <path id="Path_176" data-name="Path 176" d="M34.51,19.836l-.093-.027a14.537,14.537,0,0,1-2.424-.945,8.636,8.636,0,0,1-2.529-1.313l-.313-2.322A9.512,9.512,0,0,0,31.063,10.4h.589a.3.3,0,0,0,.29-.483,3.081,3.081,0,0,0-.631-.732V7.835A7.336,7.336,0,0,0,24.572.569c0-.007,0-.014,0-.021a.548.548,0,1,0-1.1,0c0,.006,0,.014,0,.021a7.335,7.335,0,0,0-6.741,7.266V9.19a3.073,3.073,0,0,0-.63.732.3.3,0,0,0,.29.483h.588A9.516,9.516,0,0,0,18.9,15.228l-.312,2.322a8.632,8.632,0,0,1-2.529,1.313,14.525,14.525,0,0,1-2.424.945l-.093.027a3,3,0,0,0-2.069,2.851v3.6H36.579v-3.6A3,3,0,0,0,34.51,19.836Zm-16.677-12a6.063,6.063,0,0,1,.494-2.4,6.315,6.315,0,0,1,3.319-3.3,6.076,6.076,0,0,1,4.759,0,6.309,6.309,0,0,1,3.32,3.3,6.069,6.069,0,0,1,.493,2.4v.584a12.6,12.6,0,0,0-6.192-1.3,12.592,12.592,0,0,0-6.192,1.3Zm11.73,1.474H18.487a8.515,8.515,0,0,1,2.018-.73,15.485,15.485,0,0,1,3.52-.365,15.5,15.5,0,0,1,3.52.365A8.525,8.525,0,0,1,29.563,9.309ZM18.085,10.4H29.964a8.759,8.759,0,0,1-2.224,4.831A8.659,8.659,0,0,1,25.7,16.969a3.554,3.554,0,0,1-1.678.578,3.554,3.554,0,0,1-1.678-.578,8.658,8.658,0,0,1-2.038-1.734A8.759,8.759,0,0,1,18.085,10.4Zm3.749,14.787H12.566v-2.5a1.908,1.908,0,0,1,1.3-1.8l.061-.018a10.6,10.6,0,0,0,2.044-.764c.176-.084.328-.156.475-.213a11.2,11.2,0,0,0,2.616-1.317l1.816,2.024a.548.548,0,0,0,.766.049l.19-.164Zm-.5-5.729L19.682,17.62l.17-1.266a8.507,8.507,0,0,0,2.786,1.982Zm3.785,5.729H22.93V19.533l1.032-.891h.128l1.032.891Zm.291-6.855A8.509,8.509,0,0,0,28.2,16.354l.17,1.266-1.654,1.842Zm10.072,6.855H26.215V20.478l.19.164a.548.548,0,0,0,.766-.049l1.816-2.024A11.186,11.186,0,0,0,31.6,19.887c.146.056.3.128.474.213a10.6,10.6,0,0,0,2.044.764l.062.018a1.908,1.908,0,0,1,1.3,1.8v2.5Z" transform="translate(-11.471)" fill="#fff"/>
            <path id="Path_177" data-name="Path 177" d="M226.09,47.257l1.1-1.631a.548.548,0,0,0-.454-.853h-1.164L226.09,44a.547.547,0,1,0-.909-.61l-1.1,1.63a.547.547,0,0,0,.454.853H225.7l-.522.778a.547.547,0,1,0,.909.61Z" transform="translate(-213.081 -40.928)" fill="#fff"/>
          </g>
        </g>
      </g>
    </g>
    <g id="حداد">
      <rect id="Rectangle_78-4" data-name="Rectangle 78" width="55" height="55" rx="18" transform="translate(223 602)" fill="#3f51b5"/>
      <g id="anvil" transform="translate(238.002 617)">
        <path id="Path_178" data-name="Path 178" d="M25.648,194.223a.758.758,0,0,0-.536-.222H10.058a.758.758,0,0,0-.758.758v.657H6.82a.758.758,0,0,0-.758.758v.556H.756a.758.758,0,0,0-.631,1.178l.172.258a7.235,7.235,0,0,0,6.19,3.313H9.3s-.018.988-.026,1.091a3.929,3.929,0,0,1-1.219,2.75H6.892a.758.758,0,0,0-.758.758v3.233a.758.758,0,0,0,.758.758H20.309a.758.758,0,0,0,.758-.758v-3.233a.758.758,0,0,0-.758-.758H19.235a4.068,4.068,0,0,1-1.194-2.937h0c.075-2.5,2.679-4.543,5.806-4.543a7.212,7.212,0,0,1,1.144.091.758.758,0,0,0,.879-.748v-2.424a.758.758,0,0,0-.222-.536ZM6.062,198.245v1.7a5.693,5.693,0,0,1-3.758-1.7Zm1.825,1.718H7.578v-3.031H9.3v3.032Zm11.664,8.59H7.65v-1.717h11.9ZM9.988,205.32a5.325,5.325,0,0,0,.757-2.2H16.56a5.453,5.453,0,0,0,.772,2.2Zm14.366-8.982q-.253-.015-.507-.015a8.068,8.068,0,0,0-5.064,1.709A5.864,5.864,0,0,0,16.6,201.6H10.816v-6.086H24.354Zm0,0" transform="translate(0 -184.198)" fill="#fff"/>
        <path id="Path_179" data-name="Path 179" d="M.676,5.393a2.066,2.066,0,0,0,1.434.569q.081,0,.163-.006L9.5,5.438c.053.2.11.4.167.591.1.33.187.642.254.953a.758.758,0,0,0,.741.6h3.032a.758.758,0,0,0,.741-.6c.067-.311.158-.624.255-.955a7.913,7.913,0,0,0,.419-2.236,7.932,7.932,0,0,0-.42-2.239c-.1-.331-.187-.643-.255-.954a.758.758,0,0,0-.741-.6H10.662a.758.758,0,0,0-.741.6c-.068.311-.158.624-.255.956-.056.194-.113.39-.166.588L2.725,1.655l-.451-.033a2.076,2.076,0,0,0-1.6.563A2.073,2.073,0,0,0,0,3.74v.1A2.073,2.073,0,0,0,.676,5.393ZM11.122,1.976c.044-.151.089-.3.131-.461H13.1c.043.155.088.309.132.46a6.706,6.706,0,0,1,.359,1.815A6.687,6.687,0,0,1,13.234,5.6c-.044.151-.089.305-.132.461H11.253c-.043-.155-.087-.308-.131-.458a6.693,6.693,0,0,1-.359-1.815,6.709,6.709,0,0,1,.359-1.814ZM1.516,3.74A.563.563,0,0,1,1.709,3.3a.563.563,0,0,1,.457-.161l.451.033,6.633.476c0,.049,0,.244,0,.293l-7.084.509a.563.563,0,0,1-.456-.161.563.563,0,0,1-.193-.444Zm0,0" transform="translate(-0.002)" fill="#fff"/>
      </g>
    </g>
    <g id="فني_تكييف" data-name="فني تكييف">
      <rect id="Rectangle_78-5" data-name="Rectangle 78" width="55" height="55" rx="18" transform="translate(288 602)" fill="#3f51b5"/>
      <g id="air-conditioner" transform="translate(298 573.142)">
        <path id="Path_180" data-name="Path 180" d="M31.93,44.858H2.351A2.354,2.354,0,0,0,0,47.209v8.617a3.914,3.914,0,0,0,3.909,3.909H30.372a3.914,3.914,0,0,0,3.909-3.909V47.209a2.354,2.354,0,0,0-2.351-2.351ZM5.1,46.744H29.185v2.221A1.585,1.585,0,0,1,27.6,50.549H6.68A1.585,1.585,0,0,1,5.1,48.965V46.744Zm27.3,9.081a2.025,2.025,0,0,1-2.023,2.023H3.909a2.025,2.025,0,0,1-2.023-2.023V47.209a.465.465,0,0,1,.464-.465H3.21v2.221a3.474,3.474,0,0,0,3.47,3.47H27.6a3.474,3.474,0,0,0,3.47-3.47V46.744h.859a.465.465,0,0,1,.464.465v8.617Z" fill="#fff"/>
        <path id="Path_181" data-name="Path 181" d="M50.742,119.248H24.767a.943.943,0,1,0,0,1.886H50.742a.943.943,0,0,0,0-1.886Z" transform="translate(-20.614 -64.366)" fill="#fff"/>
        <path id="Path_182" data-name="Path 182" d="M69.587,165.409l-.088-.051a.943.943,0,0,0-.668-1.762c-.234.077-1.409.515-1.51,1.562-.07.719.382,1.357,1.343,1.9.311.175.385.305.387.329a1.338,1.338,0,0,1-.493.668.943.943,0,1,0,1.137,1.506,3,3,0,0,0,1.239-2.3A2.294,2.294,0,0,0,69.587,165.409Z" transform="translate(-58.243 -102.697)" fill="#fff"/>
        <path id="Path_183" data-name="Path 183" d="M116.031,165.409l-.088-.051a.943.943,0,0,0-.668-1.762c-.234.077-1.409.515-1.51,1.562-.07.719.382,1.357,1.343,1.9.311.175.385.305.387.329a1.338,1.338,0,0,1-.493.668.943.943,0,1,0,1.137,1.506,3,3,0,0,0,1.239-2.3A2.294,2.294,0,0,0,116.031,165.409Z" transform="translate(-98.428 -102.697)" fill="#fff"/>
        <path id="Path_184" data-name="Path 184" d="M162.475,165.409l-.088-.051a.943.943,0,0,0-.668-1.762c-.234.077-1.409.515-1.51,1.562-.07.719.382,1.357,1.343,1.9.311.175.385.305.387.329a1.338,1.338,0,0,1-.493.668.943.943,0,1,0,1.137,1.506,3,3,0,0,0,1.239-2.3A2.294,2.294,0,0,0,162.475,165.409Z" transform="translate(-138.614 -102.697)" fill="#fff"/>
      </g>
    </g>
    <g id="فني_سيراميك" data-name="فني سيراميك" transform="translate(0 -10)">
      <rect id="Rectangle_78-6" data-name="Rectangle 78" width="55" height="55" rx="18" transform="translate(28 677)" fill="#3f51b5"/>
      <g id="tiles" transform="translate(42.992 691.985)">
        <path id="Path_185" data-name="Path 185" d="M23.075,17.136H15.892V9.947a.378.378,0,0,0-.378-.378H8.332V2.38A.378.378,0,0,0,7.953,2H.386a.378.378,0,0,0-.378.378v22.7a.378.378,0,0,0,.378.378H23.075a.378.378,0,0,0,.378-.378V17.514a.378.378,0,0,0-.378-.378ZM.765,10.326h6.8v6.81H.765Zm7.567,7.567h6.8V24.7h-6.8Zm6.8-.757h-6.8v-6.81h6.8ZM.765,2.759h6.81v6.81H.765Zm0,15.134h6.8V24.7H.765ZM22.7,24.7h-6.8v-6.81h6.8V24.7Z" transform="translate(0 -1.236)" fill="#fff"/>
        <path id="Path_186" data-name="Path 186" d="M8.683,5A.378.378,0,0,0,8.3,5.38V10.3H3.386a.378.378,0,0,0,0,.757h5.3a.378.378,0,0,0,.378-.378V5.38A.378.378,0,0,0,8.683,5Z" transform="translate(-1.865 -3.101)" fill="#fff"/>
        <path id="Path_187" data-name="Path 187" d="M8.683,25a.378.378,0,0,0-.378.378V30.3H3.386a.378.378,0,1,0,0,.757h5.3a.378.378,0,0,0,.378-.378v-5.3A.378.378,0,0,0,8.683,25Z" transform="translate(-1.865 -15.534)" fill="#fff"/>
        <path id="Path_188" data-name="Path 188" d="M8.683,45a.378.378,0,0,0-.378.378V50.3H3.386a.378.378,0,1,0,0,.757h5.3a.378.378,0,0,0,.378-.378v-5.3A.378.378,0,0,0,8.683,45Z" transform="translate(-1.865 -27.967)" fill="#fff"/>
        <path id="Path_189" data-name="Path 189" d="M23.386,31.056h5.3a.378.378,0,0,0,.378-.378v-5.3a.378.378,0,1,0-.757,0V30.3H23.386a.378.378,0,1,0,0,.757Z" transform="translate(-14.298 -15.534)" fill="#fff"/>
        <path id="Path_190" data-name="Path 190" d="M28.683,45a.378.378,0,0,0-.378.378V50.3H23.386a.378.378,0,1,0,0,.757h5.3a.378.378,0,0,0,.378-.378v-5.3A.378.378,0,0,0,28.683,45Z" transform="translate(-14.298 -27.967)" fill="#fff"/>
        <path id="Path_191" data-name="Path 191" d="M43.386,51.056h5.3a.378.378,0,0,0,.378-.378v-5.3a.378.378,0,0,0-.757,0V50.3H43.386a.378.378,0,1,0,0,.757Z" transform="translate(-26.731 -27.967)" fill="#fff"/>
        <path id="Path_192" data-name="Path 192" d="M23.366,3.739h6.053a.378.378,0,1,0,0-.757H23.366a.378.378,0,1,0,0,.757Z" transform="translate(-14.286 -1.845)" fill="#fff"/>
        <path id="Path_193" data-name="Path 193" d="M23.366,7.741h6.053a.378.378,0,1,0,0-.757H23.366a.378.378,0,1,0,0,.757Z" transform="translate(-14.286 -4.333)" fill="#fff"/>
        <path id="Path_194" data-name="Path 194" d="M23.366,11.743h6.053a.378.378,0,1,0,0-.757H23.366a.378.378,0,1,0,0,.757Z" transform="translate(-14.286 -6.82)" fill="#fff"/>
        <path id="Path_195" data-name="Path 195" d="M23.366,15.745h6.053a.378.378,0,1,0,0-.757H23.366a.378.378,0,1,0,0,.757Z" transform="translate(-14.286 -9.308)" fill="#fff"/>
        <path id="Path_196" data-name="Path 196" d="M23.366,19.745h6.053a.378.378,0,1,0,0-.757H23.366a.378.378,0,1,0,0,.757Z" transform="translate(-14.286 -11.795)" fill="#fff"/>
        <path id="Path_197" data-name="Path 197" d="M50.732.14c-.28.326-2.74,3.231-2.74,4.789A3.031,3.031,0,0,0,50.073,7.8V9.089h-.378a.378.378,0,1,0,0,.757h0v3.217a1.324,1.324,0,1,0,2.648,0V9.846a.378.378,0,1,0,0-.757h-.378V7.8a3.032,3.032,0,0,0,2.081-2.874c0-1.558-2.46-4.463-2.74-4.789a.391.391,0,0,0-.574,0Zm.855,12.924a.568.568,0,0,1-1.135,0h0V9.846h1.134v3.217Zm-.379-3.975H50.83V7.946c.063,0,.125.009.189.009s.126-.006.189-.009ZM51.019,7.2a2.272,2.272,0,0,1-2.27-2.27c0-.959,1.445-2.936,2.27-3.951.826,1.016,2.27,2.992,2.27,3.951A2.272,2.272,0,0,1,51.019,7.2Z" transform="translate(-29.83)" fill="#fff"/>
      </g>
    </g>
    <g id="بناء" transform="translate(0 -10)">
      <rect id="Rectangle_78-7" data-name="Rectangle 78" width="55" height="55" rx="18" transform="translate(93 677)" fill="#3f51b5"/>
      <g id="wall" transform="translate(105 689)">
        <path id="Path_200" data-name="Path 200" d="M28.026,20.62,30.1,16.168a.919.919,0,0,0-.057-.886.861.861,0,0,0-.728-.4H26.841V12.963h1.436V8.178a1.914,1.914,0,1,0-3.828,0v4.785h1.436v1.914H23.406a.86.86,0,0,0-.728.405.919.919,0,0,0-.057.885L24.7,20.62H21.1v-.066a4.725,4.725,0,0,0-4.719-4.719H14.772l-.322-1.287a4.881,4.881,0,0,0,2.1-2.542h.482a1.675,1.675,0,1,0,0-3.35h1.675V5.785h-.985C17.444,3.4,15.129,1,11.528,1S5.612,3.4,5.335,5.785H4.35V8.657H6.025a1.675,1.675,0,1,0,0,3.35h.482a4.879,4.879,0,0,0,2.1,2.542l-.322,1.287H7.155a5.2,5.2,0,0,0-5.2,5.2V23.97H1v6.7H30.669V20.62Zm-1.664-13.4a.9.9,0,0,1,.957.957H25.405A.9.9,0,0,1,26.362,7.221Zm-.957,1.914h1.914v2.871H25.405ZM9.614,27.8v1.914H4.828V27.8Zm2.871-2.871v1.914H7.7V24.927Zm-2.4-6.3a1.44,1.44,0,0,1-.952-1.352V17.2a5.22,5.22,0,0,0,2.393.544A5.22,5.22,0,0,0,13.92,17.2v.066a1.44,1.44,0,0,1-.952,1.352,1.4,1.4,0,0,0-.962,1.313V23.97h-.957V19.936A1.4,1.4,0,0,0,10.087,18.623ZM21.1,21.577V23.97H16.313V21.577Zm-1.914,5.264V24.927H23.97v1.914Zm-.957-1.914v1.914H13.442V24.927ZM10.571,27.8h4.785v1.914H10.571Zm5.742,0H21.1v1.914H16.313Zm5.742,0h4.785v1.914H22.056Zm2.871-.957V24.927h4.785v1.914Zm4.785-2.871H27.8V21.577h1.914Zm-3.828-8.135v1.914h.957V15.835H29.2l-2.842,6.089L23.5,15.835ZM25.577,22.5a.863.863,0,0,0,.785.509.846.846,0,0,0,.479-.149V23.97H22.056V21.577h3.089Zm-5.436-1.95v.066H18.227V17.281A3.761,3.761,0,0,1,20.141,20.554Zm-5.264-3.762h1.5a3.745,3.745,0,0,1,.891.111V20.62H15.356v3.35H12.963V19.936a.455.455,0,0,1,.328-.412,2.4,2.4,0,0,0,1.586-2.253Zm2.871-6.46a.719.719,0,0,1-.718.718h-.266a4.393,4.393,0,0,0,.027-.479V9.614h.239A.719.719,0,0,1,17.749,10.331Zm-1-4.546h-1.4V5.307a.479.479,0,0,1,.479-.479h.638A3.682,3.682,0,0,1,16.752,5.785Zm-.869-1.914h-.049A1.437,1.437,0,0,0,14.4,5.307v.479H12.963V2.119A5.185,5.185,0,0,1,15.883,3.871ZM12.006,1.978V5.785h-.957V1.978c.157-.011.315-.021.479-.021s.322.01.479.021Zm-1.914.142V5.785H8.657V5.307A1.437,1.437,0,0,0,7.221,3.871H7.172A5.185,5.185,0,0,1,10.092,2.119ZM6.583,4.828h.638a.479.479,0,0,1,.479.479v.479H6.3A3.682,3.682,0,0,1,6.583,4.828ZM5.307,7.7V6.742H17.749V7.7Zm.718,3.35a.718.718,0,1,1,0-1.436h.239v.957a4.394,4.394,0,0,0,.027.479Zm1.2-.479V8.657h8.614v1.914A4.093,4.093,0,0,1,11.528,14.4,4.093,4.093,0,0,1,7.221,10.571Zm4.307,4.785a5.684,5.684,0,0,0,2.045-.376l.288,1.152a4.012,4.012,0,0,1-2.333.66,4.016,4.016,0,0,1-2.333-.659l.288-1.152a5.7,5.7,0,0,0,2.045.376Zm-3.35,1.436v.479a2.4,2.4,0,0,0,1.586,2.253.455.455,0,0,1,.328.412V23.97H5.785V17.023a4.213,4.213,0,0,1,1.369-.231ZM2.914,21.032a4.24,4.24,0,0,1,1.914-3.542V23.97H2.914Zm3.828,3.894v1.914H1.957V24.927ZM1.957,27.8H3.871v1.914H1.957ZM27.8,29.712V27.8h1.914v1.914Z" fill="#fff"/>
        <circle id="Ellipse_3" data-name="Ellipse 3" cx="0.5" cy="0.5" r="0.5" transform="translate(13.835 9.835)" fill="#fff"/>
        <circle id="Ellipse_4" data-name="Ellipse 4" cx="0.5" cy="0.5" r="0.5" transform="translate(7.835 9.835)" fill="#fff"/>
      </g>
    </g>
    <g id="أصباغ" transform="translate(0 -10)">
      <rect id="Rectangle_78-8" data-name="Rectangle 78" width="55" height="55" rx="18" transform="translate(158 677)" fill="#3f51b5"/>
      <path id="paint-roller" d="M21.717,4.5h-.8V2.2a2.2,2.2,0,0,0-2.2-2.2H2.2A2.2,2.2,0,0,0,0,2.2v6a2.2,2.2,0,0,0,2.2,2.2H3v.8a2.2,2.2,0,1,0,4.4,0v-.8H18.715a2.2,2.2,0,0,0,2.2-2.2v-2.3h.8a.8.8,0,0,1,.8.8v4.5a.8.8,0,0,1-.8.8H11.96a2.2,2.2,0,0,0-2.2,2.2v.915a2.205,2.205,0,0,0-1.5,2.087v4.5a2.2,2.2,0,0,0,4.4,0v-4.5a2.195,2.195,0,0,0-1.5-2.086v-.917a.8.8,0,0,1,.8-.8h9.758a2.2,2.2,0,0,0,2.2-2.2v-4.5a2.2,2.2,0,0,0-2.2-2.2ZM2.2,9.007a.8.8,0,0,1-.8-.8v-6A.8.8,0,0,1,3,2.2V9.007Zm3.8,2.2a.8.8,0,1,1-1.6,0V2.2a2.191,2.191,0,0,0-.151-.8H12.16a2.191,2.191,0,0,0-.151.8v3a.8.8,0,1,1-1.6,0A2.2,2.2,0,0,0,6,5.2Zm13.511-3a.8.8,0,0,1-.8.8H7.406V5.2a.8.8,0,0,1,1.6,0,2.2,2.2,0,0,0,4.4,0v-3a.8.8,0,0,1,.8-.8h4.5a.8.8,0,0,1,.8.8v6ZM11.259,21.717a.8.8,0,0,1-1.6,0v-4.5a.8.8,0,0,1,1.6,0Z" transform="translate(174 693)" fill="#fff"/>
    </g>
    <g id="عامل" transform="translate(0 -10)">
      <rect id="Rectangle_78-9" data-name="Rectangle 78" width="55" height="55" rx="18" transform="translate(223 677)" fill="#3f51b5"/>
      <g id="engineer" transform="translate(239 693)">
        <g id="Group_166" data-name="Group 166" transform="translate(-1 -1)">
          <path id="Path_201" data-name="Path 201" d="M23.022,19.988a20.812,20.812,0,0,0-6.162-2.369l.178-.244a.328.328,0,0,0,.084-.337l-.395-1.58a9.016,9.016,0,0,0,1.659-5.079V8.693H19.65a.421.421,0,0,0,0-.843h-.421V7.429A7.327,7.327,0,0,0,13.75.349V.264A1.268,1.268,0,0,0,12.486-1H10.8A1.268,1.268,0,0,0,9.536.264V.349a7.327,7.327,0,0,0-5.479,7.08V7.85H3.636a.421.421,0,0,0,0,.843H4.9v1.686a9.016,9.016,0,0,0,1.659,5.079l-.395,1.58a.507.507,0,0,0,.084.337l.178.244A20.814,20.814,0,0,0,.264,19.988,2.241,2.241,0,0,0-1,22.053v1.812a.4.4,0,0,0,.421.421H23.865a.4.4,0,0,0,.421-.421V22.053A2.416,2.416,0,0,0,23.022,19.988ZM11.39,19.6l.255-.574.63,1.386.412.927H10.632Zm-1.079,2.582h2.66l.241,1.264H10.059Zm5.757-5.9.169.759-.431.591a.376.376,0,0,0-.075.083l-1.753,2.427-.556.764-1.136-2.556a6.089,6.089,0,0,0,3.55-1.827l.033-.032.008-.008Q15.973,16.381,16.068,16.279Zm-.549-14.2.139.095A7.328,7.328,0,0,1,17.08,3.552l-1.939.379ZM8.145,3.931,6.207,3.552A7.327,7.327,0,0,1,7.628,2.177l.139-.095ZM4.9,7.429a6.392,6.392,0,0,1,.793-3.1L8.609,4.9h.084a.991.991,0,0,0,.337-.084.34.34,0,0,0,.126-.379L8.578,1.621a6.99,6.99,0,0,1,.958-.376V2.372a.421.421,0,1,0,.843,0V.264A.422.422,0,0,1,10.8-.157h1.686a.422.422,0,0,1,.421.421V2.371a.421.421,0,0,0,.843,0V1.245a6.984,6.984,0,0,1,.988.391l-.567,2.759a.588.588,0,0,0,.126.379.383.383,0,0,0,.295.126h.084l2.9-.61a6.391,6.391,0,0,1,.812,3.138V7.85H4.9V7.429Zm.843,1.264h11.8v1.686a7.764,7.764,0,0,1-1.577,4.712l-.025.008-.126.126a7.062,7.062,0,0,1-.67.773,5.388,5.388,0,0,1-3.316,1.54.475.475,0,0,0-.186-.037.4.4,0,0,0-.176.038,4.765,4.765,0,0,1-2.09-.632,6.846,6.846,0,0,1-1.907-1.682L7.344,15.1l-.025-.008a7.765,7.765,0,0,1-1.577-4.712V8.693ZM11,18.347,9.864,20.9l-.556-.764L7.555,17.712c-.013-.013-.028-.027-.044-.04l-.462-.635.169-.759c.057.062.115.121.174.18A6.116,6.116,0,0,0,11,18.347ZM-.157,22.053a1.447,1.447,0,0,1,.8-1.306,18.789,18.789,0,0,1,6.343-2.357L9.5,21.847l-.319,1.6H-.157Zm23.6,1.391H14.1l-.319-1.6,2.542-3.5A20.5,20.5,0,0,1,22.643,20.7a1.559,1.559,0,0,1,.8,1.349Z" transform="translate(1 1)" fill="#fff"/>
        </g>
      </g>
    </g>
    <g id="فني_ستلايت" data-name="فني ستلايت" transform="translate(0 -10)">
      <rect id="Rectangle_78-10" data-name="Rectangle 78" width="55" height="55" rx="18" transform="translate(288 677)" fill="#3f51b5"/>
      <g id="Page-1" transform="translate(304 691.005)">
        <g id="_056---Ground-Satellite" data-name="056---Ground-Satellite" transform="translate(0 -0.005)">
          <path id="Shape" d="M16.457,10.529l.707-.707a2.334,2.334,0,1,0-2.676-2.6l-.67.671a53.19,53.19,0,0,0-6.353-5.3C4.533.6,3.674.885,3.284,1.277c-2.63,2.63-3.109,9.332,2.4,15.535L3.828,24.783H1.4a1.4,1.4,0,0,0-1.4,1.4v1.4a1.4,1.4,0,0,0,1.4,1.4H19.122a1.4,1.4,0,0,0,1.4-1.4v-1.4a1.4,1.4,0,0,0-1.4-1.4H16.714l-.339-1.891a11.65,11.65,0,0,0,1.257.069,7.68,7.68,0,0,0,5.439-1.9c.391-.391.68-1.25-1.316-4.182a53.2,53.2,0,0,0-5.3-6.353Zm-.976-.344h0l-2.956,2.956c-.222-.216-.444-.431-.666-.653s-.436-.443-.652-.665L14.16,8.867h0v0l.465-.466a2.3,2.3,0,0,0,1.337,1.3l-.482.482ZM16.79,6.127a1.4,1.4,0,0,1,.989,2.388,1.433,1.433,0,0,1-1.979,0,1.4,1.4,0,0,1,.989-2.388ZM13.159,8.55l-2.6,2.6c-5.14-5.382-6.872-8.7-6.625-9.207l0,0C4.465,1.677,7.779,3.413,13.159,8.55Zm6.43,17.632v1.4a.467.467,0,0,1-.466.466H1.4a.467.467,0,0,1-.466-.466v-1.4a.467.467,0,0,1,.466-.466H19.122A.467.467,0,0,1,19.588,26.182Zm-3.822-1.4H4.785l1.667-7.151c.044.045.085.09.129.134A17.112,17.112,0,0,0,15.4,22.742ZM7.241,17.107C1.98,11.845,1.549,5.92,3.2,2.943A12.157,12.157,0,0,0,4.6,5.458a54.292,54.292,0,0,0,5.613,6.685l.006.006,0,0h0q.478.5.976,1t1,.977v0l0,0,0,0a54.267,54.267,0,0,0,6.686,5.614,11.9,11.9,0,0,0,2.563,1.416c-4.021,2.534-10.731-.577-14.212-4.058ZM22.42,20.4c-.519.268-3.833-1.459-9.224-6.607l2.6-2.6c5.147,5.39,6.876,8.711,6.623,9.208Z" transform="translate(0 -0.995)" fill="#fff"/>
          <path id="Shape-2" data-name="Shape" d="M38.238,10.284a.459.459,0,0,0,.177.035.466.466,0,0,0,.431-.289,6.54,6.54,0,0,0-8.537-8.537.466.466,0,0,0,.354.863,5.607,5.607,0,0,1,7.32,7.32.466.466,0,0,0,.254.608Z" transform="translate(-16.019 -0.998)" fill="#fff"/>
          <path id="Shape-3" data-name="Shape" d="M37.316,11.7a.459.459,0,0,0,.176.035.466.466,0,0,0,.432-.291,4.671,4.671,0,0,0-6.1-6.1.466.466,0,1,0,.352.864,3.793,3.793,0,0,1,1.433-.282,3.737,3.737,0,0,1,3.731,3.731A3.793,3.793,0,0,1,37.06,11.1a.466.466,0,0,0,.256.608Z" transform="translate(-16.821 -3.132)" fill="#fff"/>
        </g>
      </g>
    </g>
    <g id="فني_تصوير" data-name="فني تصوير" transform="translate(0 -20)">
      <rect id="Rectangle_78-11" data-name="Rectangle 78" width="55" height="55" rx="18" transform="translate(28 752)" fill="#3f51b5"/>
      <g id="reporter" transform="translate(40 764)">
        <path id="Path_202" data-name="Path 202" d="M29.3,6.306,27.37,7.753H26.083V6.306a1.449,1.449,0,0,0-1.447-1.447H22.224V3.894h4.341a1.447,1.447,0,0,0,0-2.894H20.777A1.449,1.449,0,0,0,19.33,2.447V4.859H14.989a1.449,1.449,0,0,0-1.447,1.447v5.788a1.444,1.444,0,0,0,1.045,1.383l-.9,2.476-3.133-1.029a3.378,3.378,0,1,0-3.832-.114,4.343,4.343,0,0,0-2.609,2.918L3.069,21.64a4.108,4.108,0,0,0,2.39,4.854l1.329.554H2.929a1.929,1.929,0,0,0,0,3.859h7.7a2.919,2.919,0,0,0,2.912-2.92v-.049a2.811,2.811,0,0,0-1.037-2.175l1.286-.514,2.284,4.568a1.973,1.973,0,0,0,3.738-.882v-.087a1.974,1.974,0,0,0-.208-.882l-2.409-4.819a3.411,3.411,0,0,0-4.4-1.61l-3.265,1.4.959-3.681,2.08.462a4.034,4.034,0,0,0,4.676-2.582l1.283-3.592h6.1a1.449,1.449,0,0,0,1.447-1.447v-.482H27.37L29.3,13.059h1.608V6.306Zm-9-3.859a.483.483,0,0,1,.482-.482h5.788a.482.482,0,0,1,0,.965H21.26V4.859h-.965ZM6.306,12.095a2.412,2.412,0,1,1,2.412,2.412A2.415,2.415,0,0,1,6.306,12.095Zm6.873,10.328a2.447,2.447,0,0,1,3.152,1.155l2.41,4.819a1.009,1.009,0,0,1,.106.451v.087a1.008,1.008,0,0,1-1.91.451l-2.681-5.362-2.78,1.112-2.015-1.12Zm4.66-9.806-1.5,4.194a3.07,3.07,0,0,1-3.558,1.965l-3.961-.88-.209.942.938.208L8.157,24.394l3.468,1.927a1.85,1.85,0,0,1,.952,1.617v.049a1.953,1.953,0,0,1-1.947,1.955h-7.7a.965.965,0,0,1,0-1.929h7.718v-.965H9.3L5.83,25.6A3.147,3.147,0,0,1,4,21.889l1.043-3.912a3.381,3.381,0,0,1,3.263-2.506h.816l4.341,1.447h.9l1.75-4.812a.755.755,0,0,1,.706-.494h.315a.751.751,0,0,1,.707,1Zm7.279-.521a.483.483,0,0,1-.482.482H18.829a1.757,1.757,0,0,0,.018-.214,1.718,1.718,0,0,0-1.716-1.716h-.315a1.721,1.721,0,0,0-1.613,1.13l-.286.786a.477.477,0,0,1-.413-.468V6.306a.483.483,0,0,1,.482-.482h9.647a.483.483,0,0,1,.482.482Zm.965-3.377h.965v1.929h-.965Zm3.859,3.377H29.62l-1.608-1.206V8.477L29.62,7.271h.322Z" fill="#fff"/>
        <path id="Path_203" data-name="Path 203" d="M42.859,13H39.965a.966.966,0,0,0-.965.965v1.929a.966.966,0,0,0,.965.965h2.894a.966.966,0,0,0,.965-.965V13.965A.966.966,0,0,0,42.859,13Zm0,2.894H39.965V13.965h2.894Z" transform="translate(-19.67 -6.212)" fill="#fff"/>
        <path id="Path_204" data-name="Path 204" d="M31,13h.965v.965H31Z" transform="translate(-15.529 -6.212)" fill="#fff"/>
        <path id="Path_205" data-name="Path 205" d="M35,13h.965v.965H35Z" transform="translate(-17.599 -6.212)" fill="#fff"/>
        <path id="Path_206" data-name="Path 206" d="M31,17h.965v.965H31Z" transform="translate(-15.529 -8.282)" fill="#fff"/>
        <path id="Path_207" data-name="Path 207" d="M35,17h.965v.965H35Z" transform="translate(-17.599 -8.282)" fill="#fff"/>
      </g>
    </g>
    <g id="أعمال_ديكور" data-name="أعمال ديكور" transform="translate(0 -20)">
      <rect id="Rectangle_78-12" data-name="Rectangle 78" width="55" height="55" rx="18" transform="translate(93 752)" fill="#3f51b5"/>
      <g id="living-room" transform="translate(108 767)">
        <path id="Path_208" data-name="Path 208" d="M106.559,257.678a.376.376,0,0,0-.376-.376h-.426v-.426a.376.376,0,1,0-.752,0v.426h-.426a.376.376,0,0,0,0,.752h.426v.426a.376.376,0,1,0,.752,0v-.426h.426A.376.376,0,0,0,106.559,257.678Zm0,0" transform="translate(-98.991 -243.67)" fill="#fff"/>
        <path id="Path_209" data-name="Path 209" d="M232.829,258.054h.426v.426a.376.376,0,0,0,.752,0v-.426h.426a.376.376,0,1,0,0-.752h-.426v-.426a.376.376,0,0,0-.752,0v.426h-.426a.376.376,0,0,0,0,.752Zm0,0" transform="translate(-220.827 -243.67)" fill="#fff"/>
        <path id="Path_213" data-name="Path 213" d="M232.829,258.054h.426v.426a.376.376,0,0,0,.752,0v-.426h.426a.376.376,0,1,0,0-.752h-.426v-.426a.376.376,0,0,0-.752,0v.426h-.426a.376.376,0,0,0,0,.752Zm0,0" transform="translate(-224.462 -253.668)" fill="#fff"/>
        <path id="Path_210" data-name="Path 210" d="M25.368,24.907,22.6,23.349V7.167h2.631a.38.38,0,0,0,.369-.445L24.4.307A.376.376,0,0,0,24.031,0H19.219a.376.376,0,0,0-.369.307l-1.2,6.415a.38.38,0,0,0,.369.445h1.228V8.42h-.025a.376.376,0,0,0,0,.752h.025V10.4a.376.376,0,0,0,.752,0V9.172h.025a.376.376,0,0,0,0-.752H20V7.167h.651v16.2l-1.453.855V18.017a2.383,2.383,0,0,0-2.381-2.381h-.025V12.805a2.785,2.785,0,0,0-2.782-2.782H5.187a2.785,2.785,0,0,0-2.782,2.782v2.832H2.38A2.383,2.383,0,0,0,0,18.017v7.217a.376.376,0,0,0,.376.376H25.183a.376.376,0,0,0,.184-.7ZM.752,18.017a1.629,1.629,0,0,1,3.257,0v6.841H.752ZM4.761,21.6H6.005a.376.376,0,1,0,0-.752H4.761V18.017a2.384,2.384,0,0,0-1.6-2.25V12.805a2.032,2.032,0,0,1,2.03-2.03h8.821a2.032,2.032,0,0,1,2.03,2.03v2.962a2.384,2.384,0,0,0-1.6,2.25v2.832H7.776a.376.376,0,0,0,0,.752h6.657v3.257H4.761Zm13.682,3.257H15.185V18.017a1.629,1.629,0,0,1,3.257,0ZM19.531.752h4.187l1.062,5.663H18.47Zm2.319,6.415V23.254H21.4V7.167ZM19.6,24.858l1.448-.852h1.191l1.513.852Zm0,0" fill="#fff"/>
        <path id="Path_211" data-name="Path 211" d="M88.548,7.969H98.17a.376.376,0,0,0,.376-.376V.377A.376.376,0,0,0,98.17,0H88.548a.376.376,0,0,0-.376.376V7.593A.376.376,0,0,0,88.548,7.969ZM88.924.753h8.871V7.218H88.924Zm0,0" transform="translate(-83.762 0)" fill="#fff"/>
        <path id="Path_212" data-name="Path 212" d="M119.812,24.047H112.6a.376.376,0,0,0-.376.376v4.811a.376.376,0,0,0,.376.376h7.217a.376.376,0,0,0,.376-.376V24.423A.376.376,0,0,0,119.812,24.047Zm-.376,4.811h-6.465V24.8h6.465Zm0,0" transform="translate(-106.607 -22.844)" fill="#fff"/>
      </g>
    </g>
    <g id="فني_زجاج_" data-name="فني زجاج " transform="translate(0 -20)">
      <rect id="Rectangle_78-13" data-name="Rectangle 78" width="55" height="55" rx="18" transform="translate(158 752)" fill="#3f51b5"/>
      <g id="window" transform="translate(171 765)">
        <path id="Path_214" data-name="Path 214" d="M27.053,24.505H24.93V5.822A1.278,1.278,0,0,0,26.2,4.548V2.425A.425.425,0,0,0,25.779,2H3.7a.425.425,0,0,0-.425.425V4.548A1.278,1.278,0,0,0,4.548,5.822V24.505H2.425A.425.425,0,0,0,2,24.93v2.123a.425.425,0,0,0,.425.425H27.053a.425.425,0,0,0,.425-.425V24.93A.425.425,0,0,0,27.053,24.505ZM4.123,4.548v-1.7H25.355v1.7a.425.425,0,0,1-.425.425H4.548A.425.425,0,0,1,4.123,4.548ZM24.081,5.822V24.505H5.4V5.822Zm2.548,20.807H2.849V25.355H26.628Z" fill="#fff"/>
        <path id="Path_215" data-name="Path 215" d="M28.41,12H11.425a.425.425,0,0,0-.425.425V29.41a.425.425,0,0,0,.425.425H28.41a.425.425,0,0,0,.425-.425V12.425A.425.425,0,0,0,28.41,12ZM19.493,28.985H11.849V20.917h7.643Zm0-8.917H11.849V12.849h7.643Zm8.493,8.917H20.342V20.917h7.643Zm0-8.917H20.342V12.849h7.643Z" transform="translate(-5.178 -5.754)" fill="#fff"/>
        <path id="Path_216" data-name="Path 216" d="M0,0H2.4V.849H0Z" transform="translate(7.643 9.767) rotate(-45)" fill="#fff"/>
        <path id="Path_217" data-name="Path 217" d="M0,0H5.4V.849H0Z" transform="translate(7.643 11.891) rotate(-45)" fill="#fff"/>
      </g>
    </g>
    <g id="مظلات_و_عوازل" data-name="مظلات و عوازل" transform="translate(0 -20)">
      <rect id="Rectangle_78-14" data-name="Rectangle 78" width="55" height="55" rx="18" transform="translate(223 752)" fill="#3f51b5"/>
      <g id="Property-House" transform="translate(233 764)">
        <path id="Path_218" data-name="Path 218" d="M31.993,50H27.454a.454.454,0,0,0-.454.454v2.723a.454.454,0,0,0,.454.454h4.539a.454.454,0,0,0,.454-.454V50.454A.454.454,0,0,0,31.993,50Zm-.454,2.723H27.908V50.908h3.631Z" transform="translate(-12.014 -26.213)" fill="#fff"/>
        <path id="Path_219" data-name="Path 219" d="M27.241,24.653c1.392-.24,2.27-1.593,2.27-3.589,0-2.206-1.069-3.631-2.723-3.631s-2.723,1.425-2.723,3.631c0,2,.877,3.349,2.27,3.589v3.673H22.248V21.972H22.7a.454.454,0,0,0,.382-.7l-3.105-4.83V14.255a.454.454,0,0,0-.454-.454H17.709a.454.454,0,0,0-.454.454v.454H15.894V12.894h8.624a.454.454,0,0,0,.454-.454,9.536,9.536,0,0,0-9.078-9.509V2h-.908v.931A9.535,9.535,0,0,0,5.908,12.44a.454.454,0,0,0,.454.454h8.624v1.816H10.447v.014a.448.448,0,0,0-.382.195L5.98,21.272a.454.454,0,0,0,.382.7h.454v6.355H5v.908H29.511v-.908h-2.27Zm-2.27-3.589c0-1.316.477-2.723,1.816-2.723S28.6,19.748,28.6,21.064c0,1.155-.368,2.379-1.362,2.662V21.518h-.908v2.208C25.339,23.443,24.972,22.219,24.972,21.064Zm-9.078-17.2c2.179.433,3.949,3.94,4.072,8.125H15.894Zm8.158,8.125H20.875C20.79,8.705,19.8,5.911,18.323,4.321a8.635,8.635,0,0,1,5.73,7.665ZM12.558,4.321c-1.481,1.589-2.468,4.384-2.552,7.665H6.828a8.636,8.636,0,0,1,5.73-7.665Zm-1.644,7.665c.123-4.185,1.894-7.692,4.072-8.125v8.125Zm7.25,2.723h.908v2.723h-.908Zm-.454,3.631h1.816a.454.454,0,0,0,.418-.276l1.928,3H14.78l-3.5-5.447h5.977v2.27A.454.454,0,0,0,17.709,18.341ZM10.447,16,13.7,21.064H7.193ZM9.539,28.326V24.7h1.816v3.631Zm2.723,0V24.241a.454.454,0,0,0-.454-.454H9.085a.454.454,0,0,0-.454.454v4.085H7.723V21.972H13.17v6.355Zm1.816,0V21.972h7.262v6.355Z" transform="translate(0)" fill="#fff"/>
      </g>
    </g>
  </g>
</svg>
