<svg xmlns="http://www.w3.org/2000/svg" width="315" height="120" viewBox="0 0 315 120">
  <g id="خدمات_عامة" data-name="خدمات عامة" transform="translate(-30 -452)">
    <g id="أمن_و_حراسة" data-name="أمن و حراسة" transform="translate(-130 -132)">
      <rect id="Rectangle_67" data-name="Rectangle 67" width="55" height="55" rx="18" transform="translate(160 584)" fill="#795548"/>
      <g id="cctv" transform="translate(170.549 534.41)">
        <g id="Group_135" data-name="Group 135" transform="translate(0 64.002)">
          <g id="Group_134" data-name="Group 134" transform="translate(0 0)">
            <path id="Path_75" data-name="Path 75" d="M34.53,75.717,14.814,64.441a3.584,3.584,0,0,0-4.6,1.033l-3.82,5.46A3.175,3.175,0,0,0,7.4,75.5l4.158,2.4-.751,1a3.09,3.09,0,0,0,.036,3.787L9.738,84.358H4.362V82.17a.72.72,0,0,0-.727-.72H.727A.72.72,0,0,0,0,82.17v7.277a.727.727,0,0,0,.727.728H3.635a.727.727,0,0,0,.727-.728V88.72H9.738a4.352,4.352,0,0,0,3.629-1.943l1.192-1.789a3.292,3.292,0,0,0,.7.1,3.329,3.329,0,0,0,2.841-1.61l.8-1.333,6.187,3.573a.726.726,0,0,0,1.014-.3l.538-1.079c.088.007.173.026.263.026a5.1,5.1,0,0,0,5.089-5.094,4.7,4.7,0,0,0-.113-.951L34.495,77a.728.728,0,0,0,.035-1.283Zm-31.622,13H1.454V82.9H2.908V88.72Zm9.249-2.747a2.9,2.9,0,0,1-2.42,1.295H4.362V85.815H9.738a1.448,1.448,0,0,0,1.21-.647l1.007-1.511,1.249.749Zm4.694-3.243a1.912,1.912,0,0,1-2.551.638l-1.844-1.106a1.7,1.7,0,0,1-.485-2.474l.856-1.142,4.809,2.775Zm8.291,1.342L8.128,74.255a1.717,1.717,0,0,1-.547-2.471l1.825-2.607L27.4,79.557Zm2.231-1.214L28.9,79.811,30.51,79c.008.089.024.182.024.268A3.629,3.629,0,0,1,27.373,82.859Zm1-4.414L10.243,67.982,11.4,66.329a2.046,2.046,0,0,1,2.692-.6L32.63,76.319Z" transform="translate(0 -64.002)" fill="#fff"/>
            <circle id="Ellipse_2" data-name="Ellipse 2" cx="0.727" cy="0.727" r="0.727" transform="translate(23.264 15.994)" fill="#fff"/>
          </g>
        </g>
      </g>
    </g>
    <g id="التأمين">
      <rect id="Rectangle_69" data-name="Rectangle 69" width="55" height="55" rx="18" transform="translate(95 452)" fill="#795548"/>
      <g id="Page-1" transform="translate(106.983 463.999)">
        <g id="_033---Insurance" data-name="033---Insurance" transform="translate(0.017 0.001)">
          <path id="Shape" d="M30.161,3.423,22.441.043a.515.515,0,0,0-.412,0l-7.72,3.379A.515.515,0,0,0,14,3.894v8.08a5.669,5.669,0,0,0,2.347,4.585l5.336,3.848a.942.942,0,0,0,1.1,0l5.336-3.848a5.669,5.669,0,0,0,2.347-4.585V3.894A.515.515,0,0,0,30.161,3.423Zm-.721,8.552a4.637,4.637,0,0,1-1.92,3.75l-5.286,3.812-5.286-3.812a4.637,4.637,0,0,1-1.92-3.75V4.231l7.205-3.154L29.44,4.231Z" transform="translate(-6.804 -0.001)" fill="#fff"/>
          <path id="Shape-2" data-name="Shape" d="M23.97,4.409,18.309,6.888A.515.515,0,0,0,18,7.36v6.734a3.6,3.6,0,0,0,1.493,2.915l4.382,3.161a.515.515,0,0,0,.6,0l4.382-3.161a3.6,3.6,0,0,0,1.493-2.915V7.36a.515.515,0,0,0-.309-.471L24.382,4.409A.515.515,0,0,0,23.97,4.409ZM29.323,7.7v6.4a2.573,2.573,0,0,1-1.065,2.08l-4.081,2.944-4.081-2.944a2.573,2.573,0,0,1-1.065-2.08V7.7l5.147-2.253Z" transform="translate(-8.745 -2.119)" fill="#fff"/>
          <path id="Shape-3" data-name="Shape" d="M4.272,29.825l-1.113-2.6a1.641,1.641,0,0,0-3,1.325l2.017,4.437A5.466,5.466,0,0,0,3.292,34.6l3.172,3.172a1.023,1.023,0,0,0-.279.7v4.117a1.029,1.029,0,0,0,1.029,1.029h5.661A1.029,1.029,0,0,0,13.9,42.589V38.471a1.029,1.029,0,0,0-1.029-1.029v-.958a5.393,5.393,0,0,0-1.128-3.371,3.706,3.706,0,0,0-1.715-1.251,10.18,10.18,0,0,1-2.946-1.891A2.367,2.367,0,0,0,4.272,29.825Zm8.6,12.764H7.214V38.471h5.661Zm-1.932-8.833a4.367,4.367,0,0,1,.9,2.728v.958H7.59L4.019,33.871a4.451,4.451,0,0,1-.908-1.311L1.094,28.123a.612.612,0,1,1,1.119-.494l1.151,2.685a6.073,6.073,0,0,0,1.3,1.917l2.351,2.352a.515.515,0,1,0,.728-.728L5.39,31.5a5.076,5.076,0,0,1-.635-.772,1.338,1.338,0,0,1,1.667.028,10.972,10.972,0,0,0,3.284,2.079A2.7,2.7,0,0,1,10.944,33.756Z" transform="translate(-0.017 -12.738)" fill="#fff"/>
          <path id="Shape-4" data-name="Shape" d="M21.029,53h-.515a.515.515,0,1,0,0,1.029h.515a.515.515,0,1,0,0-1.029Z" transform="translate(-9.716 -25.723)" fill="#fff"/>
          <path id="Shape-5" data-name="Shape" d="M44.73,32.963l2.017-4.437a1.641,1.641,0,1,0-3-1.325l-1.111,2.591a2.374,2.374,0,0,0-2.816.154,10.18,10.18,0,0,1-2.946,1.891,3.706,3.706,0,0,0-1.715,1.251,5.393,5.393,0,0,0-1.128,3.373v.958A1.029,1.029,0,0,0,33,38.448v4.117A1.029,1.029,0,0,0,34.029,43.6h5.661a1.029,1.029,0,0,0,1.029-1.029V38.448a1.023,1.023,0,0,0-.279-.7l3.172-3.172A5.466,5.466,0,0,0,44.73,32.963Zm-5.04,9.6H34.029V38.448h5.661Zm-.376-5.147H35.059v-.958a4.367,4.367,0,0,1,.9-2.728,2.705,2.705,0,0,1,1.235-.918,10.968,10.968,0,0,0,3.284-2.079,1.338,1.338,0,0,1,1.67-.032,5.047,5.047,0,0,1-.638.777l-2.351,2.352a.515.515,0,0,0,.728.728l2.351-2.352a6.073,6.073,0,0,0,1.3-1.917l1.151-2.686a.612.612,0,1,1,1.119.495l-2.017,4.437a4.451,4.451,0,0,1-.908,1.311Z" transform="translate(-16.025 -12.715)" fill="#fff"/>
          <path id="Shape-6" data-name="Shape" d="M38.029,53h-.515a.515.515,0,1,0,0,1.029h.515a.515.515,0,1,0,0-1.029Z" transform="translate(-17.966 -25.723)" fill="#fff"/>
          <path id="Shape-7" data-name="Shape" d="M23.823,16.735a.515.515,0,1,0-.618.823L25.265,19.1a.515.515,0,0,0,.309.1.554.554,0,0,0,.087-.007A.515.515,0,0,0,26,18.976L30.119,12.8a.515.515,0,0,0-.856-.571l-3.816,5.724Z" transform="translate(-11.172 -5.824)" fill="#fff"/>
        </g>
      </g>
    </g>
    <g id="ادارة_أملاك" data-name="ادارة أملاك">
      <rect id="Rectangle_70" data-name="Rectangle 70" width="55" height="55" rx="18" transform="translate(160 452)" fill="#795548"/>
      <g id="assets" transform="translate(172 463.951)">
        <path id="Path_76" data-name="Path 76" d="M2.917,29.525h2.75a.918.918,0,0,0,.917-.917v-.917h10.36A12.273,12.273,0,0,0,29.03,17.551l.2-1.127a1.721,1.721,0,0,0-2.48-1.834V12.568h.458a.458.458,0,0,0,.324-.782L23.864,8.119a.458.458,0,0,0-.648,0L22.165,9.17V2.943a.458.458,0,0,0-.458-.458H17.124a.458.458,0,0,0-.458.458V7.985H14.809a7.463,7.463,0,0,0-.814-1.476l1.158-2.83a.794.794,0,0,0-1.088-1.016L13.2,3.1l-.546-.728a.795.795,0,0,0-1.2-.086l-.7.7L10.3,2.368a.795.795,0,0,0-1.2-.086l-.879.879L6.9,2.784a.794.794,0,0,0-.916,1.143L7.37,6.486a8.718,8.718,0,0,0-2.161,5.593v1.406a2.753,2.753,0,0,0,2.75,2.75H25.549l-.968,1.936-2.52,1.08a2.289,2.289,0,0,0-2.187-1.642h-6.6a12.68,12.68,0,0,0-6.693,1.9v-.984a.918.918,0,0,0-.917-.917H2.917A.918.918,0,0,0,2,18.526V28.608a.918.918,0,0,0,.917.917ZM8.039,4.063a.793.793,0,0,0,.78-.2L9.65,3.03l.458.612a.795.795,0,0,0,1.2.085l.7-.7.523.7a.792.792,0,0,0,.991.235l.667-.334L13.15,6.151H11.908l.585-1.17-.82-.41-.79,1.58h-.8L9.441,4.822l-.826.4.448.932H8.231l-1.3-2.406Zm4.5,4.38v6.875H7.958a1.835,1.835,0,0,1-1.833-1.833V12.079A7.753,7.753,0,0,1,8.078,7.068h5.191a4.938,4.938,0,0,1,.527.917H13a.458.458,0,0,0-.458.458Zm.917.458h3.208v6.416H13.458Zm10.083.19,2.56,2.56H20.98ZM17.582,3.4h3.666v6.685l-1.7,1.7a.458.458,0,0,0,.324.782h.458v2.75h-2.75Zm3.666,9.166h4.583v2.75h-.917V13.484a.458.458,0,0,0-.458-.458H22.624a.458.458,0,0,0-.458.458v1.833h-.917ZM24,15.318h-.917V13.943H24ZM13.276,18.526h6.6a1.375,1.375,0,0,1,0,2.75H12.541v.917h7.333a2.287,2.287,0,0,0,2.259-1.976l2.962-1.27a.455.455,0,0,0,.23-.216l1.483-2.967a.808.808,0,0,1,1.519.5l-.2,1.127a11.357,11.357,0,0,1-11.184,9.383H6.583v-6.17a11.773,11.773,0,0,1,6.693-2.08Zm-10.359,0h2.75V28.608H2.917Z" fill="#fff"/>
        <path id="Path_77" data-name="Path 77" d="M6,41h.917v1.375H6Z" transform="translate(-2.167 -21.099)" fill="#fff"/>
        <path id="Path_78" data-name="Path 78" d="M38,7h.458v.917H38Z" transform="translate(-19.501 -2.682)" fill="#fff"/>
        <path id="Path_79" data-name="Path 79" d="M41,7h.458v.917H41Z" transform="translate(-21.126 -2.682)" fill="#fff"/>
        <path id="Path_84" data-name="Path 84" d="M29,19h.458v.917H29Z" transform="translate(-14.626 -9.182)" fill="#fff"/>
        <path id="Path_85" data-name="Path 85" d="M32,19h.458v.917H32Z" transform="translate(-16.251 -9.182)" fill="#fff"/>
        <path id="Path_92" data-name="Path 92" d="M19.292,17.458h-.458V17h-.917v.458h-.458a.458.458,0,0,0-.458.458v1.375a.458.458,0,0,0,.458.458h1.375v.458H17v.458a.458.458,0,0,0,.458.458h.458v.458h.917v-.458h.458a.458.458,0,0,0,.458-.458V19.292a.458.458,0,0,0-.458-.458H17.917v-.458H19.75v-.458A.458.458,0,0,0,19.292,17.458Z" transform="translate(-8.125 -8.099)" fill="#fff"/>
      </g>
    </g>
    <g id="دعاية_و_اعلان" data-name="دعاية و اعلان">
      <rect id="Rectangle_71" data-name="Rectangle 71" width="55" height="55" rx="18" transform="translate(225 452)" fill="#795548"/>
      <g id="megaphone" transform="translate(208.151 465)">
        <g id="Group_140" data-name="Group 140" transform="translate(30.849 1.119)">
          <g id="Group_139" data-name="Group 139" transform="translate(0)">
            <path id="Path_93" data-name="Path 93" d="M55.231,29.809,45.29,19.868a2.636,2.636,0,0,0-4.049,3.339l-.014.069a18.392,18.392,0,0,1-5.046,9.429l-4.56,4.56a2.634,2.634,0,0,0,0,3.728l2.485,2.485a2.634,2.634,0,0,0,3.728,0l.621-.621,4.349,4.349a2.636,2.636,0,0,0,3.728-3.728l-1.864-1.864.621-.621a2.634,2.634,0,0,0,0-3.728l-.422-.422a18.4,18.4,0,0,1,6.955-2.97l.07-.014a2.639,2.639,0,0,0,3.338-.321h0A2.639,2.639,0,0,0,55.231,29.809ZM36.592,42.235a.878.878,0,0,1-1.243,0L32.865,39.75a.878.878,0,0,1,0-1.243l4.349-4.349,3.728,3.728Zm8.7,2.485a.879.879,0,1,1-1.243,1.243L39.7,41.614l1.243-1.243Zm-3.106-5.592c.264-.264.66-.669,1.284-1.2l.58.58a.878.878,0,0,1,0,1.243l-.621.621Zm.037-2.448-3.8-3.8A20.121,20.121,0,0,0,42.7,24.73L50.369,32.4A20.12,20.12,0,0,0,42.221,36.681Zm11.767-4.386a.878.878,0,0,1-1.243,0l-9.941-9.941a.879.879,0,0,1,1.243-1.243l9.941,9.941A.88.88,0,0,1,53.989,32.294Z" transform="translate(-30.849 -19.098)" fill="#fff"/>
          </g>
        </g>
        <g id="Group_142" data-name="Group 142" transform="translate(35.092 19.029)">
          <g id="Group_141" data-name="Group 141">
            <path id="Path_94" data-name="Path 94" d="M106.008,325.019a.879.879,0,0,0-1.243,0l-1.243,1.243a.879.879,0,0,0,1.243,1.243l1.243-1.243A.879.879,0,0,0,106.008,325.019Z" transform="translate(-103.266 -324.762)" fill="#fff"/>
          </g>
        </g>
        <g id="Group_144" data-name="Group 144" transform="translate(48.447)">
          <g id="Group_143" data-name="Group 143" transform="translate(0)">
            <path id="Path_95" data-name="Path 95" d="M332.073,0a.879.879,0,0,0-.879.879V2.636a.879.879,0,1,0,1.757,0V.879A.879.879,0,0,0,332.073,0Z" transform="translate(-331.194)" fill="#fff"/>
          </g>
        </g>
        <g id="Group_146" data-name="Group 146" transform="translate(53.719 7.029)">
          <g id="Group_145" data-name="Group 145">
            <path id="Path_96" data-name="Path 96" d="M423.8,119.966h-1.757a.879.879,0,1,0,0,1.757H423.8a.879.879,0,0,0,0-1.757Z" transform="translate(-421.169 -119.966)" fill="#fff"/>
          </g>
        </g>
        <g id="Group_148" data-name="Group 148" transform="translate(51.962 1.757)">
          <g id="Group_147" data-name="Group 147">
            <path id="Path_97" data-name="Path 97" d="M394.435,30.248a.879.879,0,0,0-1.243,0l-1.757,1.757a.879.879,0,1,0,1.243,1.243l1.757-1.757A.879.879,0,0,0,394.435,30.248Z" transform="translate(-391.178 -29.991)" fill="#fff"/>
          </g>
        </g>
      </g>
    </g>
    <g id="أعمال_حرة_" data-name="أعمال حرة ">
      <rect id="Rectangle_72" data-name="Rectangle 72" width="55" height="55" rx="18" transform="translate(290 452)" fill="#795548"/>
      <g id="Outline" transform="translate(288.164 450.164)">
        <path id="Path_98" data-name="Path 98" d="M38.876,26.882a3.568,3.568,0,0,0,3.391,2.474.445.445,0,0,0,.445-.445V21.788a3.56,3.56,0,0,0-2.988-3.515A4.914,4.914,0,0,0,35.589,16H34.7a4.9,4.9,0,0,0-4.9,4.9v1.13a1.78,1.78,0,0,0,.89,3.322h.09a4.465,4.465,0,0,0,2.136,2.963v1.935h-.89v-.89a1.783,1.783,0,0,0-1.781-1.781H17.781A1.783,1.783,0,0,0,16,29.356V37.37a1.783,1.783,0,0,0,1.781,1.781h2.991L20.1,41.822H16v.89H42.712v-.89h-.892a2.214,2.214,0,0,0,.446-1.336V32.918A2.674,2.674,0,0,0,39.6,30.247H37.37V28.312A4.485,4.485,0,0,0,38.876,26.882Zm1.61-3.313a.891.891,0,0,1-.89.89V22.678A.891.891,0,0,1,40.486,23.568Zm1.336-1.781v6.641A2.676,2.676,0,0,1,39.6,25.794v-.445a1.78,1.78,0,0,0,.89-3.322V20.9a4.908,4.908,0,0,0-.251-1.549,2.667,2.667,0,0,1,1.587,2.44Zm-11.13-.89A4.011,4.011,0,0,1,34.7,16.89h.89a4.022,4.022,0,0,1,3.471,2l.007.013A4.007,4.007,0,0,1,39.6,20.9v.89H39.4L38.2,19.778a.445.445,0,0,0-.566-.176,30.516,30.516,0,0,1-6.538,2.121l-.016,0c-.134.018-.262.032-.385.043Zm-.89,2.671a.891.891,0,0,1,.89-.89v1.781A.891.891,0,0,1,29.8,23.568Zm1.781.89V22.548a30.78,30.78,0,0,0,6.053-1.975l1.07,1.783v2.1a3.562,3.562,0,0,1-7.123,0Zm-13.8,13.8a.891.891,0,0,1-.89-.89V29.356a.891.891,0,0,1,.89-.89H30.247a.891.891,0,0,1,.89.89V37.37a.891.891,0,0,1-.89.89H25.854l.383-3.061a.445.445,0,0,0-.442-.5H22.233a.445.445,0,0,0-.432.337l-.806,3.224Zm12.511.889a1.785,1.785,0,0,0,.255-.025c.046.064.094.128.145.189v2.507H29.506Zm-4.661.891.111-.89h.34l-.213.89Zm-4.609,1.781,1.558-6.233h2.71l-.779,6.233Zm4.386,0,.111-.89h1.61v.89Zm2.612,0V40.486a.445.445,0,0,0-.445-.445h-.79l.213-.89h2.365l-.785,2.671Zm7.9-3.547-1.288.258,1.4-2.158a.5.5,0,0,1,.673-.144.444.444,0,0,1,.209.281.415.415,0,0,1-.058.322Zm-2.556,3.4-.265.059-.148-.615.413-.636Zm.89.143V39.516l1.718-.344,1.644.822a.444.444,0,0,0,.248.045l3.512-.39v.838a1.337,1.337,0,0,1-1.336,1.336Zm6.213-4.9h.91v1.828l-1.5.167A3.809,3.809,0,0,0,40.467,36.925ZM39.6,31.137a1.783,1.783,0,0,1,1.781,1.781v3.116H40.366A3.826,3.826,0,0,0,38.979,33.9l-.548.7a2.881,2.881,0,0,1,.386,4.25.445.445,0,0,0-.1.193l-.822.091-1.115-.557.821-1.264a1.3,1.3,0,0,0,.179-1.007,1.327,1.327,0,0,0-.618-.844,1.4,1.4,0,0,0-1.878.423L32.1,40.8a.445.445,0,0,0-.059.347l.163.678h-.62V39.151a.445.445,0,0,0-.113-.3q-.048-.054-.094-.11c.019-.016.039-.031.058-.048a1.783,1.783,0,0,0,.594-1.327V31.522a3.585,3.585,0,0,0,2.11,1.7,3.492,3.492,0,0,0,.382.09,3.563,3.563,0,0,0,3.925-2.171Zm-2.226,0h.085a2.689,2.689,0,0,1-2.311,1.336,2.659,2.659,0,0,1-.468-.041,2.61,2.61,0,0,1-.286-.067,2.688,2.688,0,0,1-1.556-1.227h.085a.891.891,0,0,0,.89-.89V28.706a4.454,4.454,0,0,0,2.671,0v1.541A.891.891,0,0,0,37.37,31.137Z" transform="translate(0 0)" fill="#fff"/>
        <path id="Path_99" data-name="Path 99" d="M312.668,128a.668.668,0,1,0,.668.668A.668.668,0,0,0,312.668,128Z" transform="translate(-279.527 -105.767)" fill="#fff"/>
        <path id="Path_100" data-name="Path 100" d="M384.668,129.336a.668.668,0,1,0-.668-.668A.668.668,0,0,0,384.668,129.336Z" transform="translate(-347.521 -105.767)" fill="#fff"/>
        <path id="Path_101" data-name="Path 101" d="M338.671,176h-.89a.445.445,0,0,1-.89,0H336a1.336,1.336,0,1,0,2.671,0Z" transform="translate(-302.192 -151.096)" fill="#fff"/>
      </g>
    </g>
    <g id="محاسبين">
      <rect id="Rectangle_73" data-name="Rectangle 73" width="55" height="55" rx="18" transform="translate(30 517)" fill="#795548"/>
      <g id="accounting" transform="translate(44 531.001)">
        <path id="Path_102" data-name="Path 102" d="M108.519,288a4.519,4.519,0,1,0,4.519,4.519A4.518,4.518,0,0,0,108.519,288Zm0,8.133a3.615,3.615,0,1,1,3.615-3.615A3.615,3.615,0,0,1,108.519,296.133Zm0,0" transform="translate(-98.126 -271.734)" fill="#fff"/>
        <path id="Path_103" data-name="Path 103" d="M153.807,321.356c.552,0,.9.267.9.452h.9a1.475,1.475,0,0,0-1.356-1.31V320h-.9v.5a1.473,1.473,0,0,0-1.356,1.31c0,.76.794,1.356,1.807,1.356.552,0,.9.267.9.452s-.352.452-.9.452-.9-.267-.9-.452H152a1.475,1.475,0,0,0,1.356,1.31v.5h.9v-.5a1.473,1.473,0,0,0,1.356-1.31c0-.761-.794-1.356-1.807-1.356-.552,0-.9-.267-.9-.452S153.256,321.356,153.807,321.356Zm0,0" transform="translate(-143.415 -301.927)" fill="#fff"/>
        <path id="Path_104" data-name="Path 104" d="M23.044,26.207H4.066V15.362H11.3a1.356,1.356,0,0,0,1.356-1.356V2.71h4.97V8.132h5.422v6.326h.9V7.493L18.261,1.806H12.651V1.355A1.356,1.356,0,0,0,11.3,0H1.355A1.356,1.356,0,0,0,0,1.355V14.006a1.356,1.356,0,0,0,1.356,1.356H3.162V27.11H23.948V20.784h-.9ZM18.526,3.349l3.88,3.88h-3.88ZM.9,14.007V1.355A.452.452,0,0,1,1.355.9H11.3a.452.452,0,0,1,.452.452V14.007a.452.452,0,0,1-.452.452H1.355A.452.452,0,0,1,.9,14.007Zm0,0" fill="#fff"/>
        <path id="Path_105" data-name="Path 105" d="M256,200h.9v.9H256Zm0,0" transform="translate(-241.541 -188.705)" fill="#fff"/>
        <path id="Path_106" data-name="Path 106" d="M288,200h5.422v.9H288Zm0,0" transform="translate(-271.734 -188.705)" fill="#fff"/>
        <path id="Path_107" data-name="Path 107" d="M256,168h.9v.9H256Zm0,0" transform="translate(-241.541 -158.512)" fill="#fff"/>
        <path id="Path_108" data-name="Path 108" d="M288,168h5.422v.9H288Zm0,0" transform="translate(-271.734 -158.512)" fill="#fff"/>
        <path id="Path_109" data-name="Path 109" d="M256,232h.9v.9H256Zm0,0" transform="translate(-241.541 -218.897)" fill="#fff"/>
        <path id="Path_110" data-name="Path 110" d="M288,232h5.422v.9H288Zm0,0" transform="translate(-271.734 -218.897)" fill="#fff"/>
        <path id="Path_111" data-name="Path 111" d="M256,264h.9v.9H256Zm0,0" transform="translate(-241.541 -249.09)" fill="#fff"/>
        <path id="Path_112" data-name="Path 112" d="M288,264h5.422v.9H288Zm0,0" transform="translate(-271.734 -249.09)" fill="#fff"/>
        <path id="Path_113" data-name="Path 113" d="M33.941,24H24v3.163h9.941Zm-.9,2.259H24.9V24.9h8.133Zm0,0" transform="translate(-22.645 -22.645)" fill="#fff"/>
        <path id="Path_114" data-name="Path 114" d="M33.807,88h-.9a.9.9,0,0,0-.9.9v.9a.9.9,0,0,0,.9.9h.9a.9.9,0,0,0,.9-.9v-.9A.9.9,0,0,0,33.807,88Zm-.9,1.807v-.9h.9v.9Zm0,0" transform="translate(-30.193 -83.031)" fill="#fff"/>
        <path id="Path_115" data-name="Path 115" d="M89.807,88h-.9a.9.9,0,0,0-.9.9v.9a.9.9,0,0,0,.9.9h.9a.9.9,0,0,0,.9-.9v-.9A.9.9,0,0,0,89.807,88Zm-.9,1.807v-.9h.9v.9Zm0,0" transform="translate(-83.03 -83.031)" fill="#fff"/>
        <path id="Path_116" data-name="Path 116" d="M145.807,88h-.9a.9.9,0,0,0-.9.9v.9a.9.9,0,0,0,.9.9h.9a.9.9,0,0,0,.9-.9v-.9A.9.9,0,0,0,145.807,88Zm-.9,1.807v-.9h.9v.9Zm0,0" transform="translate(-135.867 -83.031)" fill="#fff"/>
        <path id="Path_117" data-name="Path 117" d="M33.807,144h-.9a.9.9,0,0,0-.9.9v.9a.9.9,0,0,0,.9.9h.9a.9.9,0,0,0,.9-.9v-.9A.9.9,0,0,0,33.807,144Zm-.9,1.807v-.9h.9v.9Zm0,0" transform="translate(-30.193 -135.868)" fill="#fff"/>
        <path id="Path_118" data-name="Path 118" d="M89.807,144h-.9a.9.9,0,0,0-.9.9v.9a.9.9,0,0,0,.9.9h.9a.9.9,0,0,0,.9-.9v-.9A.9.9,0,0,0,89.807,144Zm-.9,1.807v-.9h.9v.9Zm0,0" transform="translate(-83.03 -135.868)" fill="#fff"/>
        <path id="Path_119" data-name="Path 119" d="M145.807,144h-.9a.9.9,0,0,0-.9.9v.9a.9.9,0,0,0,.9.9h.9a.9.9,0,0,0,.9-.9v-.9A.9.9,0,0,0,145.807,144Zm-.9,1.807v-.9h.9v.9Zm0,0" transform="translate(-135.867 -135.868)" fill="#fff"/>
        <path id="Path_120" data-name="Path 120" d="M33.807,200h-.9a.9.9,0,0,0-.9.9v.9a.9.9,0,0,0,.9.9h.9a.9.9,0,0,0,.9-.9v-.9A.9.9,0,0,0,33.807,200Zm-.9,1.807v-.9h.9v.9Zm0,0" transform="translate(-30.193 -188.705)" fill="#fff"/>
        <path id="Path_121" data-name="Path 121" d="M89.807,200h-.9a.9.9,0,0,0-.9.9v.9a.9.9,0,0,0,.9.9h.9a.9.9,0,0,0,.9-.9v-.9A.9.9,0,0,0,89.807,200Zm-.9,1.807v-.9h.9v.9Zm0,0" transform="translate(-83.03 -188.705)" fill="#fff"/>
        <path id="Path_122" data-name="Path 122" d="M145.807,200h-.9a.9.9,0,0,0-.9.9v.9a.9.9,0,0,0,.9.9h.9a.9.9,0,0,0,.9-.9v-.9A.9.9,0,0,0,145.807,200Zm-.9,1.807v-.9h.9v.9Zm0,0" transform="translate(-135.867 -188.705)" fill="#fff"/>
        <path id="Path_123" data-name="Path 123" d="M290.9,248.85a1.388,1.388,0,0,0-1.917,0l-7.746,7.746a.457.457,0,0,0-.09.131l-1.091,2.369a.452.452,0,0,0,.6.6l2.369-1.091a.452.452,0,0,0,.131-.09l7.746-7.746A1.355,1.355,0,0,0,290.9,248.85Zm-8.328,8.966-1.184.545.545-1.184,5.775-5.776.639.639Zm6.416-6.416-.639-.639.316-.316.639.639Zm1.274-1.274-.319.319-.639-.639.32-.319a.462.462,0,0,1,.638,0A.452.452,0,0,1,290.261,250.126Zm0,0" transform="translate(-264.198 -234.433)" fill="#fff"/>
      </g>
    </g>
    <g id="محامين">
      <rect id="Rectangle_74" data-name="Rectangle 74" width="55" height="55" rx="18" transform="translate(95 517)" fill="#795548"/>
      <g id="court" transform="translate(110.247 532.142)">
        <path id="Path_124" data-name="Path 124" d="M40.592,440.911a.391.391,0,0,1,0-.782h0a.391.391,0,0,1,0,.782Zm0,0" transform="translate(-38.235 -418.619)" fill="#fff"/>
        <path id="Path_125" data-name="Path 125" d="M465.174,299.83a.391.391,0,0,1-.2-.729,1.173,1.173,0,0,0-.586-2.19.391.391,0,1,1,0-.782,1.955,1.955,0,0,1,.978,3.648A.387.387,0,0,1,465.174,299.83Zm0,0" transform="translate(-441.324 -281.657)" fill="#fff"/>
        <path id="Path_126" data-name="Path 126" d="M264.387,362.3a.391.391,0,0,1-.186-.735l10.556-5.684a.391.391,0,1,1,.37.688l-10.556,5.684A.387.387,0,0,1,264.387,362.3Zm0,0" transform="translate(-251.093 -338.445)" fill="#fff"/>
        <path id="Path_127" data-name="Path 127" d="M89.384,450.075a.355.355,0,0,1-.051,0L80.341,448.9a.391.391,0,1,1,.1-.775l8.993,1.173a.391.391,0,0,1-.05.779Zm0,0" transform="translate(-76.09 -426.219)" fill="#fff"/>
        <path id="Path_128" data-name="Path 128" d="M4.3,259.467H.391A.391.391,0,0,1,0,259.076V248.52a.391.391,0,0,1,.391-.391H4.3a.391.391,0,0,1,.391.391v10.556A.391.391,0,0,1,4.3,259.467Zm-3.519-.782H3.91v-9.774H.782Zm0,0" transform="translate(0 -236.002)" fill="#fff"/>
        <path id="Path_129" data-name="Path 129" d="M304.4,298.528a.391.391,0,0,1-.058-.778l7.552-1.15a.391.391,0,1,1,.118.773l-7.553,1.15A.363.363,0,0,1,304.4,298.528Zm0,0" transform="translate(-289.148 -282.1)" fill="#fff"/>
        <path id="Path_130" data-name="Path 130" d="M272.391,292.5a.391.391,0,0,1,0-.782,1.173,1.173,0,0,0,.2-2.329.391.391,0,0,1,.133-.77,1.955,1.955,0,0,1-.335,3.881Zm0,0" transform="translate(-258.707 -274.504)" fill="#fff"/>
        <path id="Path_131" data-name="Path 131" d="M158.52,266.093a.387.387,0,0,1-.075-.007l-6.134-1.2a.391.391,0,1,1,.15-.767l6.134,1.2a.391.391,0,0,1-.075.775Zm0,0" transform="translate(-144.566 -251.207)" fill="#fff"/>
        <path id="Path_132" data-name="Path 132" d="M83.91,264.911H80.391a.391.391,0,1,1,0-.782H83.91a.391.391,0,1,1,0,.782Zm0,0" transform="translate(-76.09 -251.22)" fill="#fff"/>
        <path id="Path_133" data-name="Path 133" d="M173.309,345.282h-.031l-4.918-.382a.391.391,0,0,1,.06-.78l4.918.382a.391.391,0,0,1-.03.781Zm0,0" transform="translate(-159.788 -327.3)" fill="#fff"/>
        <path id="Path_134" data-name="Path 134" d="M458.92,296.932a.391.391,0,0,1-.064-.776,2.01,2.01,0,0,1,.332-.027.391.391,0,1,1,0,.782,1.223,1.223,0,0,0-.2.017A.371.371,0,0,1,458.92,296.932Zm0,0" transform="translate(-436.12 -281.656)" fill="#fff"/>
        <path id="Path_135" data-name="Path 135" d="M269.206,352.719a1.808,1.808,0,0,1-.208-.012.391.391,0,0,1-.345-.432.385.385,0,0,1,.432-.344,1.089,1.089,0,0,0,.12.007.391.391,0,1,1,0,.782Zm0,0" transform="translate(-255.522 -334.727)" fill="#fff"/>
        <path id="Path_136" data-name="Path 136" d="M184.511,257.531a.352.352,0,0,1-.047,0,.391.391,0,0,1-.342-.435,1.173,1.173,0,0,1,1.164-1.031.391.391,0,0,1,0,.782.39.39,0,0,0-.388.342A.391.391,0,0,1,184.511,257.531Zm0,0" transform="translate(-175.121 -243.548)" fill="#fff"/>
        <path id="Path_137" data-name="Path 137" d="M345.181,257.627a.391.391,0,0,1-.391-.391.391.391,0,0,0-.391-.391.391.391,0,1,1,0-.782,1.174,1.174,0,0,1,1.173,1.173A.391.391,0,0,1,345.181,257.627Zm0,0" transform="translate(-327.195 -243.549)" fill="#fff"/>
        <path id="Path_138" data-name="Path 138" d="M360.4,274.805a.391.391,0,0,1-.391-.391v-1.96a.391.391,0,0,1,.782,0v1.96A.391.391,0,0,1,360.4,274.805Zm0,0" transform="translate(-342.414 -258.766)" fill="#fff"/>
        <path id="Path_139" data-name="Path 139" d="M207.429,256.845h-7.038a.391.391,0,1,1,0-.782h7.038a.391.391,0,1,1,0,.782Zm0,0" transform="translate(-190.226 -243.549)" fill="#fff"/>
        <path id="Path_140" data-name="Path 140" d="M260.4,58.95a.391.391,0,0,1-.391-.391V48.391a.391.391,0,1,1,.782,0V58.559A.39.39,0,0,1,260.4,58.95Zm0,0" transform="translate(-247.301 -45.654)" fill="#fff"/>
        <path id="Path_141" data-name="Path 141" d="M284.391,58.95a.391.391,0,0,1-.391-.391V48.391a.391.391,0,1,1,.782,0V58.559A.391.391,0,0,1,284.391,58.95Zm0,0" transform="translate(-270.12 -45.654)" fill="#fff"/>
        <path id="Path_142" data-name="Path 142" d="M261.564,1.368a.391.391,0,0,1-.391-.391.2.2,0,0,0-.391,0,.391.391,0,1,1-.782,0,.977.977,0,0,1,1.955,0A.391.391,0,0,1,261.564,1.368Zm0,0" transform="translate(-247.293)" fill="#fff"/>
        <path id="Path_143" data-name="Path 143" d="M388.52,25.955a.391.391,0,1,1,0-.782.2.2,0,1,0,0-.391.391.391,0,1,1,0-.782.977.977,0,0,1,0,1.955Zm0,0" transform="translate(-369.16 -22.827)" fill="#fff"/>
        <path id="Path_144" data-name="Path 144" d="M145.082,25.955a.977.977,0,1,1,0-1.955.391.391,0,0,1,0,.782.2.2,0,1,0,0,.391.391.391,0,0,1,0,.782Zm0,0" transform="translate(-137.062 -22.827)" fill="#fff"/>
        <path id="Path_145" data-name="Path 145" d="M168.345,24.8H157.032a.391.391,0,1,1,0-.782h11.313a.391.391,0,1,1,0,.782Zm0,0" transform="translate(-148.986 -22.842)" fill="#fff"/>
        <path id="Path_146" data-name="Path 146" d="M168.345,48.782H157.032a.391.391,0,1,1,0-.782h11.313a.391.391,0,1,1,0,.782Zm0,0" transform="translate(-148.986 -45.654)" fill="#fff"/>
        <path id="Path_147" data-name="Path 147" d="M260.391,13.369a.391.391,0,0,1-.391-.391v-.587a.391.391,0,1,1,.782,0v.587A.39.39,0,0,1,260.391,13.369Zm0,0" transform="translate(-247.293 -11.414)" fill="#fff"/>
        <path id="Path_148" data-name="Path 148" d="M284.391,13.368a.391.391,0,0,1-.391-.391v-.586a.391.391,0,1,1,.782,0v.586A.391.391,0,0,1,284.391,13.368Zm0,0" transform="translate(-270.12 -11.414)" fill="#fff"/>
        <path id="Path_149" data-name="Path 149" d="M122.451,162.784a2.349,2.349,0,0,1-2.346-2.346.391.391,0,1,1,.782,0,1.564,1.564,0,0,0,3.129,0,.391.391,0,0,1,.782,0A2.349,2.349,0,0,1,122.451,162.784Zm0,0" transform="translate(-114.235 -152.225)" fill="#fff"/>
        <path id="Path_150" data-name="Path 150" d="M124.407,160.829H120.5a.391.391,0,1,1,0-.782h3.911a.391.391,0,0,1,0,.782Zm0,0" transform="translate(-114.236 -152.225)" fill="#fff"/>
        <path id="Path_151" data-name="Path 151" d="M120.492,54.245a.392.392,0,0,1-.368-.522l1.956-5.476a.391.391,0,1,1,.736.263l-1.956,5.476A.39.39,0,0,1,120.492,54.245Zm0,0" transform="translate(-114.231 -45.642)" fill="#fff"/>
        <path id="Path_152" data-name="Path 152" d="M162.467,54.252a.39.39,0,0,1-.368-.26l-1.955-5.476a.391.391,0,0,1,.736-.263l1.955,5.476a.392.392,0,0,1-.368.522Zm0,0" transform="translate(-152.296 -45.648)" fill="#fff"/>
        <path id="Path_153" data-name="Path 153" d="M346.551,170.79a2.355,2.355,0,0,1-2.352-2.352.391.391,0,0,1,.782,0,1.57,1.57,0,1,0,3.14,0,.391.391,0,0,1,.782,0A2.355,2.355,0,0,1,346.551,170.79Zm0,0" transform="translate(-327.377 -159.834)" fill="#fff"/>
        <path id="Path_154" data-name="Path 154" d="M348.622,168.829h-3.911a.391.391,0,1,1,0-.782h3.911a.391.391,0,1,1,0,.782Zm0,0" transform="translate(-327.493 -159.834)" fill="#fff"/>
        <path id="Path_155" data-name="Path 155" d="M344.712,54.643a.391.391,0,0,1-.371-.515l1.956-5.867a.391.391,0,1,1,.742.247l-1.956,5.867A.391.391,0,0,1,344.712,54.643Zm0,0" transform="translate(-327.494 -45.648)" fill="#fff"/>
        <path id="Path_156" data-name="Path 156" d="M386.684,54.642a.39.39,0,0,1-.371-.267l-1.955-5.867a.391.391,0,1,1,.742-.247l1.955,5.867a.391.391,0,0,1-.247.495A.4.4,0,0,1,386.684,54.642Zm0,0" transform="translate(-365.555 -45.647)" fill="#fff"/>
      </g>
    </g>
    <g id="مقاولات_عامة" data-name="مقاولات عامة">
      <rect id="Rectangle_75" data-name="Rectangle 75" width="55" height="55" rx="18" transform="translate(160 517)" fill="#795548"/>
      <g id="building" transform="translate(174 531)">
        <g id="Group_154" data-name="Group 154">
          <g id="Group_153" data-name="Group 153">
            <path id="Path_157" data-name="Path 157" d="M26.624,26.172H23.916V11.281a.451.451,0,0,0-.451-.451H17.147V.451A.451.451,0,0,0,16.7,0H4.964a.451.451,0,0,0-.451.451V26.172H.451a.451.451,0,1,0,0,.9H26.624a.451.451,0,0,0,0-.9Zm-17.147,0h-1.8V22.111a.451.451,0,0,1,.451-.451h.9a.451.451,0,0,1,.451.451Zm1.8-14.891V26.172h-.9V22.111a1.354,1.354,0,0,0-1.354-1.354h-.9a1.354,1.354,0,0,0-1.354,1.354v4.061H5.415V.9h10.83V10.83H11.732A.451.451,0,0,0,11.281,11.281ZM23.014,26.172H12.184V11.732h10.83Z" fill="#fff"/>
            <path id="Path_158" data-name="Path 158" d="M203.159,112h-2.707a.451.451,0,0,0-.451.451v2.707a.451.451,0,0,0,.451.451h2.707a.451.451,0,0,0,.451-.451v-2.707A.451.451,0,0,0,203.159,112Zm-.451,2.707h-1.8v-1.8h1.8Z" transform="translate(-188.719 -105.683)" fill="#fff"/>
            <path id="Path_159" data-name="Path 159" d="M203.159,32h-2.707a.451.451,0,0,0-.451.451v2.707a.451.451,0,0,0,.451.451h2.707a.451.451,0,0,0,.451-.451V32.451A.451.451,0,0,0,203.159,32Zm-.451,2.707h-1.8V32.9h1.8Z" transform="translate(-188.719 -30.195)" fill="#fff"/>
            <path id="Path_160" data-name="Path 160" d="M123.159,112h-2.707a.451.451,0,0,0-.451.451v2.707a.451.451,0,0,0,.451.451h2.707a.451.451,0,0,0,.451-.451v-2.707A.451.451,0,0,0,123.159,112Zm-.451,2.707h-1.8v-1.8h1.8Z" transform="translate(-113.231 -105.683)" fill="#fff"/>
            <path id="Path_161" data-name="Path 161" d="M123.159,32h-2.707a.451.451,0,0,0-.451.451v2.707a.451.451,0,0,0,.451.451h2.707a.451.451,0,0,0,.451-.451V32.451A.451.451,0,0,0,123.159,32Zm-.451,2.707h-1.8V32.9h1.8Z" transform="translate(-113.231 -30.195)" fill="#fff"/>
            <path id="Path_162" data-name="Path 162" d="M123.159,192h-2.707a.451.451,0,0,0-.451.451v2.707a.451.451,0,0,0,.451.451h2.707a.451.451,0,0,0,.451-.451v-2.707A.451.451,0,0,0,123.159,192Zm-.451,2.707h-1.8v-1.8h1.8Z" transform="translate(-113.231 -181.17)" fill="#fff"/>
            <path id="Path_163" data-name="Path 163" d="M123.159,272h-2.707a.451.451,0,0,0-.451.451v2.707a.451.451,0,0,0,.451.451h2.707a.451.451,0,0,0,.451-.451v-2.707A.451.451,0,0,0,123.159,272Zm-.451,2.707h-1.8v-1.8h1.8Z" transform="translate(-113.231 -256.658)" fill="#fff"/>
            <path id="Path_164" data-name="Path 164" d="M320.451,307.61h2.707a.451.451,0,0,0,.451-.451v-2.707a.451.451,0,0,0-.451-.451h-2.707a.451.451,0,0,0-.451.451v2.707A.451.451,0,0,0,320.451,307.61Zm.451-2.707h1.8v1.8h-1.8Z" transform="translate(-301.95 -286.853)" fill="#fff"/>
            <path id="Path_165" data-name="Path 165" d="M320.451,227.61h2.707a.451.451,0,0,0,.451-.451v-2.707a.451.451,0,0,0-.451-.451h-2.707a.451.451,0,0,0-.451.451v2.707A.451.451,0,0,0,320.451,227.61Zm.451-2.707h1.8v1.8h-1.8Z" transform="translate(-301.95 -211.365)" fill="#fff"/>
            <path id="Path_166" data-name="Path 166" d="M320.451,387.61h2.707a.451.451,0,0,0,.451-.451v-2.708a.451.451,0,0,0-.451-.451h-2.707a.451.451,0,0,0-.451.451v2.708A.451.451,0,0,0,320.451,387.61Zm.451-2.707h1.8v1.8h-1.8Z" transform="translate(-301.95 -362.34)" fill="#fff"/>
            <path id="Path_167" data-name="Path 167" d="M240.451,307.61h2.707a.451.451,0,0,0,.451-.451v-2.707a.451.451,0,0,0-.451-.451h-2.707a.451.451,0,0,0-.451.451v2.707A.451.451,0,0,0,240.451,307.61Zm.451-2.707h1.8v1.8h-1.8Z" transform="translate(-226.463 -286.853)" fill="#fff"/>
            <path id="Path_168" data-name="Path 168" d="M240.451,227.61h2.707a.451.451,0,0,0,.451-.451v-2.707a.451.451,0,0,0-.451-.451h-2.707a.451.451,0,0,0-.451.451v2.707A.451.451,0,0,0,240.451,227.61Zm.451-2.707h1.8v1.8h-1.8Z" transform="translate(-226.463 -211.365)" fill="#fff"/>
            <path id="Path_169" data-name="Path 169" d="M240.451,387.61h2.707a.451.451,0,0,0,.451-.451v-2.708a.451.451,0,0,0-.451-.451h-2.707a.451.451,0,0,0-.451.451v2.708A.451.451,0,0,0,240.451,387.61Zm.451-2.707h1.8v1.8h-1.8Z" transform="translate(-226.463 -362.34)" fill="#fff"/>
          </g>
        </g>
      </g>
    </g>
    <g id="مقاول_صحي" data-name="مقاول صحي">
      <rect id="Rectangle_76" data-name="Rectangle 76" width="55" height="55" rx="18" transform="translate(225 517)" fill="#795548"/>
      <g id="plumber" transform="translate(224.453 518.748)">
        <path id="Path_170" data-name="Path 170" d="M36.235,30.229l-1-.225v-.284a.427.427,0,0,0-.315-.412l-1.6-.434a.427.427,0,0,0-.539.412v.168l-2.184-.49-.135-1.48a5.892,5.892,0,0,0,3.6-5.138l.128-.031.077-.02a.427.427,0,0,0,.319-.413V19.6a.427.427,0,0,0-.343-.418,6.061,6.061,0,0,0-6.052-5.925H28.05A6.061,6.061,0,0,0,22,19.177a.427.427,0,0,0-.343.418v2.287a.427.427,0,0,0,.319.413l.077.02.128.031a5.892,5.892,0,0,0,3.6,5.137l-.135,1.48-2.183.49v-.168a.427.427,0,0,0-.538-.412l-1.605.434A.427.427,0,0,0,21,29.72V30l-1,.225a4.338,4.338,0,0,0-3.452,4.2v3.143a.427.427,0,1,0,.853,0V34.431a3.489,3.489,0,0,1,2.787-3.369L21,30.88v6.695a.427.427,0,0,0,.853,0V30.047l.752-.2v.837A3.194,3.194,0,0,0,25.8,33.87H30.44a3.194,3.194,0,0,0,3.189-3.19v-.836l.751.2v7.527a.427.427,0,0,0,.853,0V30.88l.813.182a3.489,3.489,0,0,1,2.788,3.369v3.143a.427.427,0,0,0,.853,0V34.431A4.338,4.338,0,0,0,36.235,30.229Zm-13.384-8.6a.415.415,0,0,0-.332-.077l-.01,0V21.19H33.728v.362l-.01,0a.415.415,0,0,0-.332.077,24,24,0,0,1-10.534,0Zm10.877-1.609v.314H22.508v-.313ZM28.05,14.1h.136a5.2,5.2,0,0,1,5.194,5.064H22.855A5.2,5.2,0,0,1,28.05,14.1Zm-5,8.444a24.575,24.575,0,0,0,5.068.523,24.579,24.579,0,0,0,5.068-.523,5.034,5.034,0,0,1-5,4.541h-.132A5.034,5.034,0,0,1,23.049,22.549Zm5,5.394h.132a5.873,5.873,0,0,0,1.443-.18l.128,1.423a2.131,2.131,0,0,1-3.274,0l.129-1.423A5.871,5.871,0,0,0,28.052,27.943Zm2.388,5.074H25.8a2.339,2.339,0,0,1-2.335-2.336v-.352l2.417-.542a2.975,2.975,0,0,0,4.483,0l2.415.542v.352a2.339,2.339,0,0,1-2.335,2.336Z" fill="#fff"/>
        <path id="Path_171" data-name="Path 171" d="M59.934,24.236a1.313,1.313,0,0,0,1.311-1.311,3.944,3.944,0,0,0-.987-1.8.441.441,0,0,0-.648,0,3.938,3.938,0,0,0-.987,1.8,1.313,1.313,0,0,0,1.311,1.311Zm0-2.143a2.483,2.483,0,0,1,.457.832.458.458,0,0,1-.915,0A2.491,2.491,0,0,1,59.934,22.093Z" transform="translate(-31.816 -5.846)" fill="#fff"/>
        <path id="Path_172" data-name="Path 172" d="M53.171,101.458H44.122a.427.427,0,0,0-.427.427v2.388a.427.427,0,0,0,.853,0v-1.961h8.2v1.961a.427.427,0,0,0,.853,0v-2.388a.427.427,0,0,0-.427-.427Z" transform="translate(-20.528 -66.698)" fill="#fff"/>
      </g>
    </g>
    <g id="تأجير_ملاعب" data-name="تأجير ملاعب">
      <rect id="Rectangle_77" data-name="Rectangle 77" width="55" height="55" rx="18" transform="translate(290 517)" fill="#795548"/>
      <path id="football-field" d="M0,0V27.255H20.761V0ZM6.388,3.247V1.6h7.985v1.65Zm5.375,1.6A1.6,1.6,0,0,1,9,4.844ZM4.791,1.6V4.844h2.5a3.194,3.194,0,0,0,6.186,0h2.5V1.6h3.194V12.829H15.1a4.791,4.791,0,0,0-9.448,0H1.6V1.6Zm2.5,11.232a3.194,3.194,0,0,1,6.186,0Zm6.186,1.6a3.194,3.194,0,0,1-6.186,0Zm.9,9.582v1.65H6.388v-1.65ZM9,22.411a1.6,1.6,0,0,1,2.764,0Zm6.972,3.247V22.411h-2.5a3.194,3.194,0,0,0-6.186,0h-2.5v3.247H1.6V14.426H5.656a4.791,4.791,0,0,0,9.448,0h4.059V25.658Zm0,0" transform="translate(304 554.761) rotate(-90)" fill="#fff"/>
    </g>
  </g>
</svg>
