<svg xmlns="http://www.w3.org/2000/svg" width="55" height="55" viewBox="0 0 55 55">
  <g id="صالون_رجالي" data-name="صالون رجالي" transform="translate(-225 -26)">
    <rect id="Rectangle_12" data-name="Rectangle 12" width="55" height="55" rx="18" transform="translate(225 26)" fill="#66bb6a"/>
    <g id="hairstyle" transform="translate(240.221 40.001)">
      <path id="Path_235" data-name="Path 235" d="M20.714,1.987A8.1,8.1,0,0,0,10.067,2a2.055,2.055,0,0,1-1.818.633C6.916,2.316,6.076.292,6.067.271A.432.432,0,0,0,5.678,0a.423.423,0,0,0-.4.248,11.872,11.872,0,0,0-1.456,5.9,4.12,4.12,0,0,1-.64-.436A4.526,4.526,0,0,1,2.111,4.423a.433.433,0,1,0-.834-.233,12.841,12.841,0,0,0,2.3,12.992.433.433,0,0,0,.735-.352C3.849,12.25,6.1,10.344,7.231,9.685a9.3,9.3,0,0,0,3.238,0c3.374-.937,6.2-.7,8.392.692,3.427,2.181,4.188,6.523,4.2,6.566a.432.432,0,0,0,.4.362h.022a.433.433,0,0,0,.417-.319c1.745-6.4.556-12-3.184-15ZM5.693,1.432A4.186,4.186,0,0,0,8.047,3.473a2.861,2.861,0,0,0,2.589-.822,7.26,7.26,0,0,1,9.538.011,9.758,9.758,0,0,1,3.343,5.751c-1.9-2.7-5.439-5.474-11.482-3.328-2.042.883-4.925,2.126-7.278,1.462-.29-1.249.02-2.964.935-5.115ZM23.448,15.123A10.636,10.636,0,0,0,19.33,9.652c-2.413-1.539-5.472-1.808-9.061-.809a8.441,8.441,0,0,1-3.02-.036.378.378,0,0,0-.064,0,.388.388,0,0,0-.091,0,.419.419,0,0,0-.084.026.48.48,0,0,0-.064.019c-1.12.609-3.545,2.425-3.565,6.731a11.907,11.907,0,0,1-1.6-10.065,6.924,6.924,0,0,0,.838.86c2.913,2.463,7.033.683,9.733-.485,6.324-2.247,9.682,1.238,11.384,4.557a.378.378,0,0,0,.058.073,18.5,18.5,0,0,1-.348,4.6Zm0,0" transform="translate(0 0)"/>
      <path id="Path_236" data-name="Path 236" d="M94.5,372.934c3.271,2.812,7.111.735,8.73-.81l.008-.008a.433.433,0,0,0-.49-.7,4.3,4.3,0,0,1-.824-.145l-.055-.013a3.227,3.227,0,0,1-1-.4,3.6,3.6,0,0,1-1.225-1.55l-.122-.254a3.463,3.463,0,0,0-1.544-1.892,2.325,2.325,0,0,0-1.99.1,3.858,3.858,0,0,0-1.471,1.329q-.156-.217-.367-.457a3.151,3.151,0,0,0-2.365-1.1,2.049,2.049,0,0,0-1.6.813,5.076,5.076,0,0,0-.606,1.107c-.056.126-.112.253-.173.377a3.478,3.478,0,0,1-3.337,2.044.433.433,0,0,0-.3.744,8.513,8.513,0,0,0,5.153,2.214,5.365,5.365,0,0,0,3.583-1.4Zm-7.346-.8a4.214,4.214,0,0,0,3.028-2.426c.064-.133.124-.268.184-.4a4.395,4.395,0,0,1,.5-.927,1.194,1.194,0,0,1,.945-.479,2.336,2.336,0,0,1,1.69.8,2.851,2.851,0,0,1,.577.865.433.433,0,0,0,.845.183,2.92,2.92,0,0,1,1.445-1.711,1.464,1.464,0,0,1,1.267-.079c.519.224.829.884,1.1,1.467l.127.265a4.438,4.438,0,0,0,1.537,1.9,4.093,4.093,0,0,0,1.273.513l.05.012.112.026c-1.394.985-4.356,2.478-7.034-.1a.432.432,0,0,0-.6,0c-2.693,2.593-5.662,1.08-7.048.093Zm0,0" transform="translate(-80.837 -348.38)"/>
    </g>
  </g>
</svg>
