<svg xmlns="http://www.w3.org/2000/svg" width="55" height="55" viewBox="0 0 55 55">
  <g id="صهريج_مياه" data-name="صهريج مياه" transform="translate(-49 -42)">
    <rect id="النظافة_و_المنزل" data-name="النظافة و المنزل" width="55" height="55" rx="18" transform="translate(49 42)" fill="#673ab7"/>
    <g id="water-tank" transform="translate(68 55.001)">
      <path id="Path_4331" data-name="Path 4331" d="M16.605,4.525,8.672.063a.5.5,0,0,0-.486,0L.253,4.525A.5.5,0,0,0,.5,5.453h.5V18.344H0v.992H2.48V29.747h.992V28.016l4.958-3.605,4.958,3.605v1.731h.992V19.336h1.983v-.992h-.5V5.453h.5a.5.5,0,0,0,.243-.928ZM8.429,1.064l6.04,3.4H2.389Zm6.445,15.3H1.984V7.436H14.875ZM3.471,26.79V20.805L7.586,23.8Zm5.8-2.992,4.115-2.993V26.79Zm4.115-4.219L8.429,23.184,3.471,19.579v-.243h9.916Zm-11.4-1.235v-.992H14.875v.992Zm12.891-11.9H1.984V5.453H14.875Zm0,0" transform="translate(0)" fill="#fff"/>
      <path id="Path_4332" data-name="Path 4332" d="M90.979,135.535a2.978,2.978,0,0,0,2.975-2.975c0-1.524-2.348-4.028-2.616-4.309a.511.511,0,0,0-.718,0c-.268.28-2.616,2.785-2.616,4.309a2.978,2.978,0,0,0,2.975,2.975Zm0-6.208c.882,1,1.983,2.486,1.983,3.233a1.983,1.983,0,0,1-3.966,0C89,131.817,90.1,130.324,90.979,129.327Zm0,0" transform="translate(-82.55 -120.166)" fill="#fff"/>
      <path id="Path_4333" data-name="Path 4333" d="M113.491,193.987a.5.5,0,0,0,0-.992.5.5,0,0,1-.5-.5.5.5,0,1,0-.992,0A1.487,1.487,0,0,0,113.491,193.987Zm0,0" transform="translate(-105.062 -180.105)" fill="#fff"/>
    </g>
  </g>
</svg>
