<svg xmlns="http://www.w3.org/2000/svg" width="55" height="55" viewBox="0 0 55 55">
  <g id="صيدلية" transform="translate(-95 -101)">
    <rect id="Rectangle_12" data-name="Rectangle 12" width="55" height="55" rx="18" transform="translate(95 101)" fill="#66bb6a"/>
    <g id="medicine" transform="translate(96.299 115)">
      <g id="Group_175" data-name="Group 175" transform="translate(20.855 6.494)">
        <g id="Group_174" data-name="Group 174" transform="translate(0)">
          <path id="Path_238" data-name="Path 238" d="M116.211,125.994a.515.515,0,1,0,.515.515A.516.516,0,0,0,116.211,125.994Z" transform="translate(-115.696 -125.994)"/>
        </g>
      </g>
      <g id="Group_177" data-name="Group 177" transform="translate(21.37 14.069)">
        <g id="Group_176" data-name="Group 176" transform="translate(0)">
          <path id="Path_239" data-name="Path 239" d="M130.334,275.047h-1.546V273.5a.515.515,0,1,0-1.031,0v1.546h-1.546a.515.515,0,1,0,0,1.031h1.546v1.546a.515.515,0,1,0,1.031,0v-1.546h1.546a.515.515,0,1,0,0-1.031Z" transform="translate(-125.696 -272.986)"/>
        </g>
      </g>
      <g id="Group_179" data-name="Group 179" transform="translate(15.701)">
        <g id="Group_178" data-name="Group 178" transform="translate(0)">
          <path id="Path_240" data-name="Path 240" d="M39.918,16.595a4.121,4.121,0,0,0-5.632-1.509l-2.093,1.209V11.819a2.6,2.6,0,0,0-.515-1.546L29.1,6.837V5.374a1.549,1.549,0,0,0,1.031-1.457V1.546A1.548,1.548,0,0,0,28.585,0H19.309a1.548,1.548,0,0,0-1.546,1.546V3.917a1.549,1.549,0,0,0,1.031,1.457V6.837l-2.577,3.436a2.6,2.6,0,0,0-.515,1.546V21.8a2.58,2.58,0,0,0,2.577,2.577H26.56a4.119,4.119,0,0,0,5.6,1.457l6.248-3.608A4.126,4.126,0,0,0,39.918,16.595ZM18.793,1.546a.516.516,0,0,1,.515-.515h9.277a.516.516,0,0,1,.515.515V3.917a.516.516,0,0,1-.515.515H19.309a.516.516,0,0,1-.515-.515V1.546Zm-1.752,9.345,2.68-3.573a.515.515,0,0,0,.1-.309V5.463H28.07V6.494H23.432a.515.515,0,1,0,0,1.031h4.9l2.525,3.367a1.559,1.559,0,0,1,.3.756H16.743A1.559,1.559,0,0,1,17.041,10.891Zm1.237,12.455A1.548,1.548,0,0,1,16.732,21.8v-.52H26.1a4.13,4.13,0,0,0,.025,2.067H18.278ZM26.5,20.254H16.732V12.678h14.43v4.211l-3.124,1.8A4.092,4.092,0,0,0,26.5,20.254Zm5.146,4.688a3.092,3.092,0,1,1-3.092-5.356l2.8-1.615,3.092,5.356Zm6.248-3.608-2.558,1.477-3.092-5.356L34.8,15.978a3.092,3.092,0,1,1,3.092,5.356Z" transform="translate(-15.701 0)"/>
        </g>
      </g>
    </g>
  </g>
</svg>
