<svg xmlns="http://www.w3.org/2000/svg" width="55" height="55" viewBox="0 0 55 55">
  <g id="صيانة_دراجات_نارية" data-name="صيانة دراجات نارية" transform="translate(-15 -228)">
    <rect id="Rectangle_45" data-name="Rectangle 45" width="55" height="55" rx="18" transform="translate(15 228)" fill="#607d8b"/>
    <g id="scooter" transform="translate(28.317 181.232)">
      <path id="Path_15" data-name="Path 15" d="M357.818,303.19a1.934,1.934,0,1,0,1.934,1.934A1.936,1.936,0,0,0,357.818,303.19Zm0,2.911a.976.976,0,1,1,.976-.976A.977.977,0,0,1,357.818,306.1Z" transform="translate(-333.157 -223.918)" fill="#fff"/>
      <path id="Path_16" data-name="Path 16" d="M29.184,77.44A5.889,5.889,0,0,0,23.8,75.384c-.194-1.261-1.38-2.929-2.529-4.294V67.033a.479.479,0,0,0-.606-.462l-.781.215a2.294,2.294,0,0,0-1.063.643l-.41-1.886a.479.479,0,0,0-.468-.377H17.1v-.69a.479.479,0,1,0-.958,0v2.411a.479.479,0,1,0,.958,0v-.763h.45l.59,2.714a1.937,1.937,0,0,0-.495.961L16.27,71.313a.479.479,0,0,0,.709.645l.832-.915a1.97,1.97,0,0,0,.22.348,14.24,14.24,0,0,1,1.788,2.837,3.936,3.936,0,0,1,.375,2.938,4.155,4.155,0,0,1-3.258,2.284,4.786,4.786,0,0,1-4.271-.907,1.556,1.556,0,0,1-.5-1.183c.051-.722.692-1.589,1.908-2.576l.1-.113a1.772,1.772,0,0,0-1.455-2.783H5.812A2.527,2.527,0,0,0,3.3,74.2a15.513,15.513,0,0,0-1.566,1.887A8.108,8.108,0,0,0,0,80.622a.479.479,0,0,0,.479.479H2.118c0,.035,0,.07,0,.105a3.913,3.913,0,0,0,7.7.99H20.875a3.912,3.912,0,1,0,7.057-3.133l1.183-.942a.479.479,0,0,0,.069-.681ZM9.944,72.845h2.779a.817.817,0,0,1,.769,1.088H9.944Zm-4.132,0H8.986v1.088H4.32A1.57,1.57,0,0,1,5.812,72.845Zm.216,11.316a2.958,2.958,0,0,1-2.955-2.955c0-.035,0-.07,0-.105H4.1c0,.035,0,.07,0,.105a1.934,1.934,0,1,0,3.868,0c0-.035,0-.07,0-.105H8.981c0,.035,0,.07,0,.105A2.958,2.958,0,0,1,6.028,84.161Zm-.976-2.955a1,1,0,0,1,.006-.105H7a.976.976,0,1,1-1.947.105Zm4.119-1.063H2.135a6.259,6.259,0,0,1,.956-1.778,5.485,5.485,0,0,1,5.025-2.005c.965.068,1.572.322,1.8.756C10.221,77.682,9.969,78.7,9.171,80.143Zm9.6,1.1H9.94c0-.011,0-.022,0-.032a3.941,3.941,0,0,0-.025-.433c.742-1.3,1.48-2.92.848-4.108A2.917,2.917,0,0,0,8.183,75.4a6.413,6.413,0,0,0-5.874,2.406,7.221,7.221,0,0,0-1.181,2.333H.986c.273-2.337,2.42-4.678,2.979-5.252h8.566a3.973,3.973,0,0,0-1.317,2.4,2.491,2.491,0,0,0,.749,1.9,5.665,5.665,0,0,0,5.159,1.2,6.789,6.789,0,0,0,1.834-.633,5.875,5.875,0,0,0-.181,1.449C18.776,81.217,18.776,81.228,18.776,81.238ZM20.136,67.71l.174-.048V70c-.492-.534-.911-.955-1.146-1.187A1.347,1.347,0,0,1,20.136,67.71ZM18.782,70.8a.985.985,0,0,1-.206-.739,1,1,0,0,1,.115-.358c1.39,1.4,4.03,4.353,4.17,5.9a5.869,5.869,0,0,0-1.563.776C21.325,75.131,20.778,73.318,18.782,70.8Zm5.879,13.365a2.955,2.955,0,1,1,2.955-2.955A2.958,2.958,0,0,1,24.661,84.161Zm2.652-5.828a3.91,3.91,0,0,0-6.564,2.874c0,.011,0,.022,0,.032H19.734c0-.011,0-.022,0-.032a4.928,4.928,0,0,1,8.382-3.514Z" transform="translate(0)" fill="#fff"/>
    </g>
  </g>
</svg>
