<svg xmlns="http://www.w3.org/2000/svg" width="250" height="55" viewBox="0 0 250 55">
  <g id="طعام_و_مناسبات" data-name="طعام و مناسبات" transform="translate(-30 -271)">
    <g id="طباخ" transform="translate(-65)">
      <rect id="Rectangle_80" data-name="Rectangle 80" width="55" height="55" rx="18" transform="translate(160 271)" fill="#ec407a"/>
      <g id="chef" transform="translate(175 286)">
        <g id="Group_181" data-name="Group 181">
          <g id="Group_180" data-name="Group 180">
            <path id="Path_258" data-name="Path 258" d="M107.839,213.92a.587.587,0,1,0-1.173,0c0,1.54,1.7,3.655,1.893,3.892a.587.587,0,1,0,.907-.745A7.111,7.111,0,0,1,107.839,213.92Z" transform="translate(-100.801 -201.602)" fill="#fff"/>
            <path id="Path_259" data-name="Path 259" d="M311.683,213.333a.586.586,0,0,0-.587.587,7.136,7.136,0,0,1-1.627,3.148.587.587,0,0,0,.907.744c.194-.237,1.893-2.351,1.893-3.892A.586.586,0,0,0,311.683,213.333Z" transform="translate(-292.327 -201.602)" fill="#fff"/>
            <path id="Path_260" data-name="Path 260" d="M224.587,213.333a.586.586,0,0,0-.587.587v3.519a.587.587,0,0,0,1.173,0V213.92A.586.586,0,0,0,224.587,213.333Z" transform="translate(-211.682 -201.602)" fill="#fff"/>
            <path id="Path_261" data-name="Path 261" d="M19.356,2.346a6.143,6.143,0,0,0-1.113.119,7.016,7.016,0,0,0-10.679,0,6.149,6.149,0,0,0-1.113-.119,6.449,6.449,0,0,0-2.919,12.2l-.011,8.864a2.394,2.394,0,0,0,2.393,2.4H19.9a2.4,2.4,0,0,0,2.393-2.393V14.54A6.448,6.448,0,0,0,19.356,2.346Zm1.76,21.069a1.222,1.222,0,0,1-1.22,1.22H5.915a1.22,1.22,0,0,1-1.22-1.222l0-2.3H21.116Zm.363-9.789a.526.526,0,0,0-.088.045.587.587,0,0,0-.269.412.567.567,0,0,0-.006.1v5.761H4.7l.008-5.753a.6.6,0,0,0-.006-.1.588.588,0,0,0-.093-.243.581.581,0,0,0-.174-.17.614.614,0,0,0-.092-.048A5.277,5.277,0,0,1,6.452,3.519c.114,0,.234.014.352.023a6.988,6.988,0,0,0-.938,3.5.587.587,0,0,0,1.173,0,5.866,5.866,0,1,1,11.731,0,.587.587,0,0,0,1.173,0A6.988,6.988,0,0,0,19,3.542c.118-.009.238-.023.352-.023a5.276,5.276,0,0,1,2.123,10.107Z" fill="#fff"/>
          </g>
        </g>
      </g>
    </g>
    <g id="مطاعم">
      <rect id="Rectangle_80-2" data-name="Rectangle 80" width="55" height="55" rx="18" transform="translate(30 271)" fill="#ec407a"/>
      <g id="cutlery" transform="translate(45.181 287)">
        <g id="Group_197" data-name="Group 197" transform="translate(0.819 0)">
          <g id="Group_196" data-name="Group 196" transform="translate(0)">
            <path id="Path_282" data-name="Path 282" d="M7.11,1.436A3.294,3.294,0,0,0,4.476,0,3.3,3.3,0,0,0,1.841,1.436,5.46,5.46,0,0,0,.819,4.7,5.459,5.459,0,0,0,1.841,7.97,3.69,3.69,0,0,0,3.193,9.11L2.42,20.743a2.061,2.061,0,1,0,4.112,0L5.758,9.111A3.69,3.69,0,0,0,7.11,7.97,5.46,5.46,0,0,0,8.132,4.7,5.46,5.46,0,0,0,7.11,1.436Zm-1.9,20.133a1.009,1.009,0,0,1-1.743-.756l.76-11.421c.082.007.164.012.247.012s.165,0,.247-.012l.76,11.421A1,1,0,0,1,5.212,21.569ZM4.476,8.351a1.9,1.9,0,0,1-.549-.082l-.045-.015A3.612,3.612,0,0,1,1.871,4.7c0-2.011,1.168-3.648,2.6-3.648S7.08,2.692,7.08,4.7,5.912,8.351,4.476,8.351Z" transform="translate(-0.819 -0.003)" fill="#fff"/>
          </g>
        </g>
        <g id="Group_199" data-name="Group 199" transform="translate(19.453 0)">
          <g id="Group_198" data-name="Group 198" transform="translate(0 0)">
            <path id="Path_283" data-name="Path 283" d="M420.976,13.705V.592l0,0a.526.526,0,0,0-.8-.516,7.184,7.184,0,0,0-3.428,6.148h0v6.889a1.118,1.118,0,0,0,1.083,1.115v7.124a1.574,1.574,0,0,0,3.148,0V13.705Zm-3.114-.523a.065.065,0,0,1-.065-.065V6.228h0a6.132,6.132,0,0,1,2.126-4.665V13.182Zm2.062,8.175a.522.522,0,0,1-1.044,0V14.234h1.044Z" transform="translate(-416.745 0)" fill="#fff"/>
          </g>
        </g>
        <g id="Group_201" data-name="Group 201" transform="translate(10.381 0)">
          <g id="Group_200" data-name="Group 200">
            <path id="Path_284" data-name="Path 284" d="M219.555,0a.526.526,0,0,0-.526.526V6.505h-1.34V.529a.526.526,0,0,0-1.052,0V6.505H215.3V.529a.526.526,0,1,0-1.052,0V8.144A1.557,1.557,0,0,0,215.8,9.7h.094l-.738,11.095a2.012,2.012,0,1,0,4.016,0l-.738-11.1h.094a1.557,1.557,0,0,0,1.555-1.555V.529A.526.526,0,0,0,219.555,0Zm-1.691,21.581a.96.96,0,0,1-1.659-.72L216.947,9.7h.431l.743,11.165A.95.95,0,0,1,217.864,21.584Zm1.165-13.44a.5.5,0,0,1-.5.5H215.8a.5.5,0,0,1-.5-.5V7.558h3.733Z" transform="translate(-214.244 -0.003)" fill="#fff"/>
          </g>
        </g>
      </g>
    </g>
    <g id="كوفي_شوب" data-name="كوفي شوب" transform="translate(65)">
      <rect id="Rectangle_80-3" data-name="Rectangle 80" width="55" height="55" rx="18" transform="translate(95 271)" fill="#ec407a"/>
      <g id="coffee-cup" transform="translate(108 253.999)">
        <g id="Group_183" data-name="Group 183" transform="translate(3.559 41.494)">
          <g id="Group_182" data-name="Group 182">
            <path id="Path_262" data-name="Path 262" d="M82.383,202.654H65.768a1.782,1.782,0,0,0-1.78,1.78v1.187a11.247,11.247,0,0,0,6.1,10.022.594.594,0,0,0,.545-1.055,10.062,10.062,0,0,1-5.461-8.967v-1.187a.594.594,0,0,1,.593-.593H82.383a.594.594,0,0,1,.593.593v1.187a10.058,10.058,0,0,1-5.463,8.966.594.594,0,0,0,.273,1.121.585.585,0,0,0,.272-.066,11.241,11.241,0,0,0,6.1-10.021v-1.187A1.782,1.782,0,0,0,82.383,202.654Z" transform="translate(-63.988 -202.654)" fill="#fff"/>
          </g>
        </g>
        <g id="Group_185" data-name="Group 185" transform="translate(0 53.36)">
          <g id="Group_184" data-name="Group 184" transform="translate(0 0)">
            <path id="Path_263" data-name="Path 263" d="M27.251,416.333a.6.6,0,0,0-.548-.367H.594a.594.594,0,0,0-.42,1.014l1.33,1.332a4.129,4.129,0,0,0,2.937,1.216H22.853a4.136,4.136,0,0,0,2.94-1.216l1.33-1.332A.592.592,0,0,0,27.251,416.333Zm-2.3,1.139a2.95,2.95,0,0,1-2.1.869H4.441a2.95,2.95,0,0,1-2.1-.869l-.318-.318H25.27Z" transform="translate(0 -415.966)" fill="#fff"/>
          </g>
        </g>
        <g id="Group_187" data-name="Group 187" transform="translate(19.753 43.865)">
          <g id="Group_186" data-name="Group 186" transform="translate(0 0)">
            <path id="Path_264" data-name="Path 264" d="M362.673,245.7c-1.6-1.028-4.152.088-4.439.217a.594.594,0,0,0,.492,1.081c.572-.26,2.407-.876,3.3-.3a1.686,1.686,0,0,1,.6,1.538c0,2.376-4.792,3.812-6.642,4.166l-.42.083a.593.593,0,0,0,.114,1.175.55.55,0,0,0,.115-.012l.417-.082c.311-.059,7.6-1.489,7.6-5.33A2.8,2.8,0,0,0,362.673,245.7Z" transform="translate(-355.093 -245.272)" fill="#fff"/>
          </g>
        </g>
        <g id="Group_189" data-name="Group 189" transform="translate(16.614 32.001)">
          <g id="Group_188" data-name="Group 188" transform="translate(0 0)">
            <path id="Path_265" data-name="Path 265" d="M300.319,36.524a3.555,3.555,0,0,0,0-4.3.594.594,0,1,0-.927.742,2.394,2.394,0,0,1,0,2.819,3.552,3.552,0,0,0,0,4.3.594.594,0,1,0,.927-.742A2.39,2.39,0,0,1,300.319,36.524Z" transform="translate(-298.666 -32.001)" fill="#fff"/>
          </g>
        </g>
        <g id="Group_191" data-name="Group 191" transform="translate(13.05 32.001)">
          <g id="Group_190" data-name="Group 190" transform="translate(0 0)">
            <path id="Path_266" data-name="Path 266" d="M236.249,36.532a3.552,3.552,0,0,0,0-4.3.594.594,0,0,0-.927.742,2.39,2.39,0,0,1,0,2.819,3.555,3.555,0,0,0,0,4.3.594.594,0,0,0,.927-.742A2.394,2.394,0,0,1,236.249,36.532Z" transform="translate(-234.597 -32.009)" fill="#fff"/>
          </g>
        </g>
        <g id="Group_193" data-name="Group 193" transform="translate(9.494 32.002)">
          <g id="Group_192" data-name="Group 192" transform="translate(0 0)">
            <path id="Path_267" data-name="Path 267" d="M172.319,36.545a3.555,3.555,0,0,0,0-4.3.593.593,0,0,0-.927.741,2.394,2.394,0,0,1,0,2.819,3.552,3.552,0,0,0,0,4.3.593.593,0,1,0,.927-.74A2.39,2.39,0,0,1,172.319,36.545Z" transform="translate(-170.666 -32.022)" fill="#fff"/>
          </g>
        </g>
      </g>
    </g>
    <g id="حفلات">
      <rect id="Rectangle_80-4" data-name="Rectangle 80" width="55" height="55" rx="18" transform="translate(225 271)" fill="#ec407a"/>
      <g id="confetti" transform="translate(240.337 285.338)">
        <g id="Group_195" data-name="Group 195" transform="translate(0 -0.001)">
          <g id="Group_194" data-name="Group 194" transform="translate(0 0)">
            <path id="Path_268" data-name="Path 268" d="M17.226,14.037a13.337,13.337,0,0,1,2.837-.962.5.5,0,1,0-.206-.975,14.478,14.478,0,0,0-3.274,1.139c-.613-.731-1.314-1.495-2.071-2.252-.8-.8-1.617-1.546-2.389-2.185a11.253,11.253,0,0,0,1.626-2.825A14.764,14.764,0,0,0,14.718.5a.5.5,0,0,0-1,0,12.033,12.033,0,0,1-2.377,7.686c-.3-.227-.587-.436-.862-.622-1.476-1-2.355-1.229-2.847-.755l-.011.01h0a.819.819,0,0,0-.233.461L.039,24.809a.5.5,0,0,0,.652.652h0L18.221,18.11a.818.818,0,0,0,.427-.2l.025-.023.01-.009h0l.01-.011c.474-.491.24-1.371-.755-2.847C17.728,14.705,17.489,14.377,17.226,14.037ZM3.95,21.952A3.351,3.351,0,0,1,3.5,23.2l-2.076.871,2.108-5.027A5.534,5.534,0,0,1,3.95,21.952Zm3.065-1.685A3.191,3.191,0,0,1,6.13,22.1l-1.312.55A6.523,6.523,0,0,0,4.059,17.8l1.493-3.559C7.1,17.176,7.216,19.121,7.015,20.266Zm1.777.717-1.074.45a5.028,5.028,0,0,0,.258-.886c.4-2.035-.252-4.551-1.933-7.48l.539-1.285a8.455,8.455,0,0,1,1.109,1.7.5.5,0,1,0,.915-.393,9.451,9.451,0,0,0-1.6-2.319L7.831,8.8c.144.264.323.554.537.872q.221.328.483.679a9.367,9.367,0,0,1,1.332,7A10.114,10.114,0,0,1,8.792,20.984Zm3.838-1.609-2.365.992a12.554,12.554,0,0,0,.9-2.83,10.83,10.83,0,0,0-.095-4.579q.354.374.728.748c.745.745,1.5,1.436,2.217,2.042A4.935,4.935,0,0,1,12.63,19.374Zm1.717-.72a6.728,6.728,0,0,0,.607-2.15c.3.23.592.44.87.628.318.214.608.393.872.537ZM16.1,16.111A29.512,29.512,0,0,1,12.5,13a29.507,29.507,0,0,1-3.11-3.6,5.8,5.8,0,0,1-.994-1.813,5.807,5.807,0,0,1,1.813.994c.155.11.315.228.477.351l-.1.108a.5.5,0,1,0,.7.7q.094-.094.185-.19c.756.625,1.554,1.354,2.337,2.137.673.673,1.306,1.358,1.868,2.017q-.135.075-.27.153a.5.5,0,1,0,.5.863c.138-.08.277-.157.415-.231.216.275.417.542.6.8a5.8,5.8,0,0,1,.994,1.813A5.807,5.807,0,0,1,16.1,16.111Z" transform="translate(0 0.001)" fill="#fff"/>
            <path id="Path_269" data-name="Path 269" d="M162.714,282.927a.5.5,0,1,0,.017.043C162.727,282.957,162.72,282.94,162.714,282.927Z" transform="translate(-153.705 -268.556)" fill="#fff"/>
            <path id="Path_270" data-name="Path 270" d="M370.65,102.733a.5.5,0,0,0,.7,0A7.089,7.089,0,0,1,375.587,101a.5.5,0,0,0-.08-.993,8.117,8.117,0,0,0-4.856,2.018A.5.5,0,0,0,370.65,102.733Z" transform="translate(-352.051 -95.028)" fill="#fff"/>
            <path id="Path_271" data-name="Path 271" d="M491.97,101.466l-.043-.011a.5.5,0,0,0-.241.967l.025.007a.5.5,0,1,0,.258-.962Z" transform="translate(-466.838 -96.387)" fill="#fff"/>
            <path id="Path_272" data-name="Path 272" d="M64,45.613h.5v.5a.5.5,0,1,0,1,0v-.5h.5a.5.5,0,1,0,0-1h-.5v-.5a.5.5,0,1,0-1,0v.5H64a.5.5,0,1,0,0,1Z" transform="translate(-60.341 -41.448)" fill="#fff"/>
            <path id="Path_273" data-name="Path 273" d="M298,142.611h.5v.5a.5.5,0,1,0,1,0v-.5h.5a.5.5,0,0,0,0-1h-.5v-.5a.5.5,0,1,0-1,0v.5H298a.5.5,0,1,0,0,1Z" transform="translate(-282.685 -133.615)" fill="#fff"/>
            <path id="Path_274" data-name="Path 274" d="M398.991,398.614h-.5v-.5a.5.5,0,1,0-1,0v.5H397a.5.5,0,1,0,0,1h.5v.5a.5.5,0,1,0,1,0v-.5h.5a.5.5,0,0,0,0-1Z" transform="translate(-376.753 -377.814)" fill="#fff"/>
            <path id="Path_275" data-name="Path 275" d="M361.463,2.989A1.494,1.494,0,1,0,359.969,1.5,1.5,1.5,0,0,0,361.463,2.989Zm0-1.992a.5.5,0,1,1-.5.5A.5.5,0,0,1,361.463,1Z" transform="translate(-342.04 -0.001)" fill="#fff"/>
            <path id="Path_276" data-name="Path 276" d="M424,173.619a1.494,1.494,0,1,0,1.494,1.494A1.5,1.5,0,0,0,424,173.619Zm0,1.992a.5.5,0,1,1,.5-.5A.5.5,0,0,1,424,175.611Z" transform="translate(-401.458 -164.972)" fill="#fff"/>
            <path id="Path_277" data-name="Path 277" d="M170,38.608a1.494,1.494,0,1,0-1.494-1.494A1.5,1.5,0,0,0,170,38.608Zm0-1.992a.5.5,0,1,1-.5.5A.5.5,0,0,1,170,36.616Z" transform="translate(-160.11 -33.846)" fill="#fff"/>
            <path id="Path_278" data-name="Path 278" d="M430.186,284.556a.5.5,0,1,0-.5.5A.5.5,0,0,0,430.186,284.556Z" transform="translate(-407.814 -269.91)" fill="#fff"/>
            <path id="Path_279" data-name="Path 279" d="M325.687,76.056a.5.5,0,1,0-.5-.5A.5.5,0,0,0,325.687,76.056Z" transform="translate(-308.993 -71.321)" fill="#fff"/>
            <path id="Path_280" data-name="Path 280" d="M459.686,359.057a.5.5,0,1,0,.5.5A.5.5,0,0,0,459.686,359.057Z" transform="translate(-436.318 -341.174)" fill="#fff"/>
            <path id="Path_281" data-name="Path 281" d="M129.69,11a.5.5,0,1,0-.5-.5A.5.5,0,0,0,129.69,11Z" transform="translate(-122.757 -9.503)" fill="#fff"/>
          </g>
        </g>
      </g>
    </g>
  </g>
</svg>
