<svg xmlns="http://www.w3.org/2000/svg" width="55" height="55" viewBox="0 0 55 55">
  <g id="غسيل_سيارات" data-name="غسيل سيارات" transform="translate(-15 -47)">
    <rect id="Rectangle_12" data-name="Rectangle 12" width="55" height="55" rx="18" transform="translate(15 47)" fill="#607d8b"/>
    <g id="_029-car-wash" data-name="029-car-wash" transform="translate(27.411 62)">
      <g id="Group_2" data-name="Group 2" transform="translate(9.116)">
        <g id="Group_1" data-name="Group 1" transform="translate(0)">
          <path id="Path_2" data-name="Path 2" d="M139.465,4.24l-3.987-2.791V0h-.833V1.249H132.98V0h-.833V1.449l-3.987,2.79A.416.416,0,0,0,128.4,5h10.827a.416.416,0,0,0,.239-.758Zm-9.745-.075,2.975-2.082h2.236l2.975,2.082Z" transform="translate(-127.982)" fill="#fff"/>
        </g>
      </g>
      <g id="Group_4" data-name="Group 4" transform="translate(5.786 16.241)">
        <g id="Group_3" data-name="Group 3">
          <path id="Path_3" data-name="Path 3" d="M66.081,312h-.833A1.249,1.249,0,0,0,64,313.249v.416a1.249,1.249,0,0,0,1.249,1.249h.833a1.249,1.249,0,0,0,1.249-1.249v-.416A1.249,1.249,0,0,0,66.081,312Zm.416,1.666a.416.416,0,0,1-.416.416h-.833a.416.416,0,0,1-.416-.416v-.416a.416.416,0,0,1,.416-.416h.833a.416.416,0,0,1,.416.416Z" transform="translate(-63.999 -312)" fill="#fff"/>
        </g>
      </g>
      <g id="Group_6" data-name="Group 6" transform="translate(20.777 16.241)">
        <g id="Group_5" data-name="Group 5">
          <path id="Path_4" data-name="Path 4" d="M354.081,312h-.833A1.249,1.249,0,0,0,352,313.249v.416a1.249,1.249,0,0,0,1.249,1.249h.833a1.249,1.249,0,0,0,1.249-1.249v-.416A1.249,1.249,0,0,0,354.081,312Zm.416,1.666a.416.416,0,0,1-.416.416h-.833a.416.416,0,0,1-.416-.416v-.416a.416.416,0,0,1,.416-.416h.833a.416.416,0,0,1,.416.416Z" transform="translate(-351.999 -312)" fill="#fff"/>
        </g>
      </g>
      <g id="Group_8" data-name="Group 8" transform="translate(9.95 16.241)">
        <g id="Group_7" data-name="Group 7">
          <path id="Path_5" data-name="Path 5" d="M152.744,312h-7.5A1.249,1.249,0,0,0,144,313.249v.416a1.249,1.249,0,0,0,1.249,1.249h7.5a1.249,1.249,0,0,0,1.249-1.249v-.416A1.249,1.249,0,0,0,152.744,312Zm.416,1.666a.416.416,0,0,1-.416.416h-7.5a.416.416,0,0,1-.416-.416v-.416a.416.416,0,0,1,.416-.416h7.5a.416.416,0,0,1,.416.416Z" transform="translate(-143.999 -312)" fill="#fff"/>
        </g>
      </g>
      <g id="Group_10" data-name="Group 10" transform="translate(4.12 9.995)">
        <g id="Group_9" data-name="Group 9">
          <path id="Path_6" data-name="Path 6" d="M52.344,197.024l-.923-.369-2.762-3.8A2.089,2.089,0,0,0,46.975,192h-8.3a2.089,2.089,0,0,0-1.684.857l-2.762,3.8-.923.369A2.073,2.073,0,0,0,32,198.958v7.2a.833.833,0,0,0,.833.833h2.5a.833.833,0,0,0,.833-.833v-1.666H49.489v1.666a.833.833,0,0,0,.833.833h2.5a.833.833,0,0,0,.833-.833v-7.2A2.073,2.073,0,0,0,52.344,197.024Zm-14.678-3.677a1.254,1.254,0,0,1,1.011-.515h8.3a1.254,1.254,0,0,1,1.011.515l2.351,3.233H35.315ZM35.33,206.159h-2.5v-1.737c.035.012.073.019.11.028s.047.015.072.019a1.242,1.242,0,0,0,.234.024H35.33Zm17.49,0h-2.5v-1.666H52.4a1.242,1.242,0,0,0,.234-.024c.025,0,.048-.013.073-.019s.074-.016.109-.028Zm0-2.915a.416.416,0,0,1-.416.416H33.248a.416.416,0,0,1-.416-.416v-.416H52.821Zm0-1.249H32.832v-3.037a1.243,1.243,0,0,1,.785-1.16l.96-.384h16.5l.96.384a1.243,1.243,0,0,1,.785,1.16v3.037Z" transform="translate(-31.999 -192)" fill="#fff"/>
        </g>
      </g>
      <g id="Group_12" data-name="Group 12" transform="translate(14.531 5.83)">
        <g id="Group_11" data-name="Group 11">
          <rect id="Rectangle_13" data-name="Rectangle 13" width="0.833" height="1.249" fill="#fff"/>
        </g>
      </g>
      <g id="Group_14" data-name="Group 14" transform="translate(14.531 7.912)">
        <g id="Group_13" data-name="Group 13">
          <rect id="Rectangle_14" data-name="Rectangle 14" width="0.833" height="1.249" fill="#fff"/>
        </g>
      </g>
      <g id="Group_16" data-name="Group 16" transform="translate(9.669 5.566)">
        <g id="Group_15" data-name="Group 15" transform="translate(0 0)">
          <rect id="Rectangle_15" data-name="Rectangle 15" width="1.249" height="0.833" transform="matrix(0.634, -0.774, 0.774, 0.634, 0, 0.966)" fill="#fff"/>
        </g>
      </g>
      <g id="Group_18" data-name="Group 18" transform="translate(8.35 7.177)">
        <g id="Group_17" data-name="Group 17" transform="translate(0 0)">
          <rect id="Rectangle_16" data-name="Rectangle 16" width="1.249" height="0.833" transform="matrix(0.634, -0.774, 0.774, 0.634, 0, 0.966)" fill="#fff"/>
        </g>
      </g>
      <g id="Group_20" data-name="Group 20" transform="translate(7.031 8.788)">
        <g id="Group_19" data-name="Group 19" transform="translate(0 0)">
          <rect id="Rectangle_17" data-name="Rectangle 17" width="1.249" height="0.833" transform="matrix(0.634, -0.774, 0.774, 0.634, 0, 0.966)" fill="#fff"/>
        </g>
      </g>
      <g id="Group_22" data-name="Group 22" transform="translate(5.711 10.4)">
        <g id="Group_21" data-name="Group 21" transform="translate(0 0)">
          <rect id="Rectangle_18" data-name="Rectangle 18" width="1.249" height="0.833" transform="matrix(0.634, -0.774, 0.774, 0.634, 0, 0.966)" fill="#fff"/>
        </g>
      </g>
      <g id="Group_24" data-name="Group 24" transform="translate(12.115 5.715)">
        <g id="Group_23" data-name="Group 23" transform="translate(0 0)">
          <rect id="Rectangle_19" data-name="Rectangle 19" width="1.249" height="0.833" transform="matrix(0.28, -0.96, 0.96, 0.28, 0, 1.199)" fill="#fff"/>
        </g>
      </g>
      <g id="Group_26" data-name="Group 26" transform="translate(11.531 7.711)">
        <g id="Group_25" data-name="Group 25" transform="translate(0 0)">
          <rect id="Rectangle_20" data-name="Rectangle 20" width="1.249" height="0.833" transform="translate(0 1.199) rotate(-73.698)" fill="#fff"/>
        </g>
      </g>
      <g id="Group_28" data-name="Group 28" transform="translate(7.18 5.438)">
        <g id="Group_27" data-name="Group 27" transform="translate(0 0)">
          <rect id="Rectangle_21" data-name="Rectangle 21" width="1.249" height="0.832" transform="translate(0 0.847) rotate(-42.686)" fill="#fff"/>
        </g>
      </g>
      <g id="Group_30" data-name="Group 30" transform="translate(5.649 6.851)">
        <g id="Group_29" data-name="Group 29" transform="translate(0 0)">
          <rect id="Rectangle_22" data-name="Rectangle 22" width="1.249" height="0.832" transform="translate(0 0.847) rotate(-42.686)" fill="#fff"/>
        </g>
      </g>
      <g id="Group_32" data-name="Group 32" transform="translate(4.119 8.262)">
        <g id="Group_31" data-name="Group 31" transform="translate(0 0)">
          <rect id="Rectangle_23" data-name="Rectangle 23" width="1.249" height="0.832" transform="translate(0 0.847) rotate(-42.686)" fill="#fff"/>
        </g>
      </g>
      <g id="Group_34" data-name="Group 34" transform="translate(2.589 9.674)">
        <g id="Group_33" data-name="Group 33" transform="translate(0 0)">
          <rect id="Rectangle_24" data-name="Rectangle 24" width="1.249" height="0.832" transform="translate(0 0.847) rotate(-42.686)" fill="#fff"/>
        </g>
      </g>
      <g id="Group_36" data-name="Group 36" transform="translate(18.79 5.653)">
        <g id="Group_35" data-name="Group 35" transform="translate(0 0)">
          <rect id="Rectangle_25" data-name="Rectangle 25" width="0.832" height="1.249" transform="translate(0 0.527) rotate(-39.307)" fill="#fff"/>
        </g>
      </g>
      <g id="Group_38" data-name="Group 38" transform="translate(20.107 7.262)">
        <g id="Group_37" data-name="Group 37" transform="translate(0 0)">
          <rect id="Rectangle_26" data-name="Rectangle 26" width="0.833" height="1.249" transform="matrix(0.774, -0.634, 0.634, 0.774, 0, 0.528)" fill="#fff"/>
        </g>
      </g>
      <g id="Group_40" data-name="Group 40" transform="translate(21.428 8.873)">
        <g id="Group_39" data-name="Group 39" transform="translate(0 0)">
          <rect id="Rectangle_27" data-name="Rectangle 27" width="0.833" height="1.249" transform="matrix(0.774, -0.634, 0.634, 0.774, 0, 0.528)" fill="#fff"/>
        </g>
      </g>
      <g id="Group_42" data-name="Group 42" transform="translate(22.744 10.486)">
        <g id="Group_41" data-name="Group 41" transform="translate(0 0)">
          <rect id="Rectangle_28" data-name="Rectangle 28" width="0.833" height="1.249" transform="matrix(0.774, -0.634, 0.634, 0.774, 0, 0.528)" fill="#fff"/>
        </g>
      </g>
      <g id="Group_44" data-name="Group 44" transform="translate(16.629 5.806)">
        <g id="Group_43" data-name="Group 43" transform="translate(0 0)">
          <rect id="Rectangle_29" data-name="Rectangle 29" width="0.833" height="1.249" transform="translate(0 0.233) rotate(-16.26)" fill="#fff"/>
        </g>
      </g>
      <g id="Group_46" data-name="Group 46" transform="translate(17.213 7.798)">
        <g id="Group_45" data-name="Group 45" transform="translate(0 0)">
          <rect id="Rectangle_30" data-name="Rectangle 30" width="0.833" height="1.249" transform="translate(0 0.234) rotate(-16.296)" fill="#fff"/>
        </g>
      </g>
      <g id="Group_48" data-name="Group 48" transform="translate(21.231 5.524)">
        <g id="Group_47" data-name="Group 47" transform="translate(0 0)">
          <rect id="Rectangle_31" data-name="Rectangle 31" width="0.832" height="1.249" transform="translate(0 0.612) rotate(-47.31)" fill="#fff"/>
        </g>
      </g>
      <g id="Group_50" data-name="Group 50" transform="translate(22.762 6.937)">
        <g id="Group_49" data-name="Group 49" transform="translate(0 0)">
          <rect id="Rectangle_32" data-name="Rectangle 32" width="0.832" height="1.249" transform="matrix(0.678, -0.735, 0.735, 0.678, 0, 0.612)" fill="#fff"/>
        </g>
      </g>
      <g id="Group_52" data-name="Group 52" transform="translate(24.291 8.35)">
        <g id="Group_51" data-name="Group 51" transform="translate(0 0)">
          <rect id="Rectangle_33" data-name="Rectangle 33" width="0.832" height="1.249" transform="matrix(0.678, -0.735, 0.735, 0.678, 0, 0.612)" fill="#fff"/>
        </g>
      </g>
      <g id="Group_54" data-name="Group 54" transform="translate(25.822 9.76)">
        <g id="Group_53" data-name="Group 53" transform="translate(0 0)">
          <rect id="Rectangle_34" data-name="Rectangle 34" width="0.832" height="1.249" transform="translate(0 0.612) rotate(-47.31)" fill="#fff"/>
        </g>
      </g>
    </g>
  </g>
</svg>
