<svg xmlns="http://www.w3.org/2000/svg" width="55" height="55" viewBox="0 0 55 55">
  <g id="كهربائي_سيارات" data-name="كهربائي سيارات" transform="translate(-43 -208)">
    <rect id="Rectangle_35" data-name="Rectangle 35" width="55" height="55" rx="18" transform="translate(43 208)" fill="#607d8b"/>
    <g id="_024-car" data-name="024-car" transform="translate(56 146)">
      <g id="Group_56" data-name="Group 56" transform="translate(0 80)">
        <g id="Group_55" data-name="Group 55">
          <path id="Path_7" data-name="Path 7" d="M29.062,88.9l-.973-.973a.487.487,0,0,0-.344-.143h-1.46a.487.487,0,0,0-.487.487v2.434h-.973V87.3a.487.487,0,0,0-.487-.487H21.19l-1.8-2.7a.487.487,0,0,0-.406-.217h-2.92V82.92h3.407a.487.487,0,0,0,.487-.487V80.487A.487.487,0,0,0,19.469,80H9.735a.487.487,0,0,0-.487.487v1.947a.487.487,0,0,0,.487.487h3.407v.973h-2.92a.487.487,0,0,0-.4.217l-1.8,2.7H5.354a.487.487,0,0,0-.487.487v2.92H3.894V87.3a.487.487,0,0,0-.487-.487H1.46a.487.487,0,0,0-.4.217l-.973,1.46a.49.49,0,0,0-.082.27v1.46a.49.49,0,0,0,.082.27l.892,1.336v4.235a.487.487,0,0,0,.487.487H3.407a.487.487,0,0,0,.487-.487v-2.92h.973v2.92a.487.487,0,0,0,.487.487h2.66l1.8,2.7a.487.487,0,0,0,.406.217H24.337a.487.487,0,0,0,.487-.487V94.6H25.8v3.407a.487.487,0,0,0,.487.487h1.46a.487.487,0,0,0,.344-.143l.973-.973a.487.487,0,0,0,.143-.344V89.248A.487.487,0,0,0,29.062,88.9ZM2.92,90.708v4.867H1.947V91.682a.49.49,0,0,0-.082-.27L.973,90.075V88.907l.747-1.119h1.2Zm1.947,1.46H3.894v-.973h.973Zm5.354-10.221v-.973h8.761v.973Zm4.867.973v.973h-.973V82.92ZM21.9,98.5H10.482l-1.8-2.7a.487.487,0,0,0-.406-.217H5.841V87.788H8.275a.487.487,0,0,0,.4-.217l1.8-2.7h8.24l1.8,2.7a.487.487,0,0,0,.406.217H21.9Zm1.947-7.3v7.3h-.973V87.788h.973ZM25.8,93.629h-.973V91.682H25.8Zm2.434,3.206-.688.688H26.77V88.761h.772l.688.688Z" transform="translate(0 -80)" fill="#fff"/>
        </g>
      </g>
      <g id="Group_58" data-name="Group 58" transform="translate(9.766 84.961)">
        <g id="Group_57" data-name="Group 57">
          <path id="Path_8" data-name="Path 8" d="M177.53,189.01a.537.537,0,0,0-.4-.174H174.58l.929-4.182a.537.537,0,0,0-.888-.513l-6.448,5.911a.537.537,0,0,0,.363.933h2.554l-.929,4.182a.537.537,0,0,0,.888.513l6.448-5.911A.537.537,0,0,0,177.53,189.01Zm-5.949,4.725.7-3.17a.537.537,0,0,0-.524-.654h-1.843l4.172-3.824-.7,3.17a.537.537,0,0,0,.524.654h1.843Z" transform="translate(-167.999 -184)" fill="#fff"/>
        </g>
      </g>
      <g id="Group_60" data-name="Group 60" transform="translate(6.483 90.151)">
        <g id="Group_59" data-name="Group 59" transform="translate(0 0)">
          <rect id="Rectangle_36" data-name="Rectangle 36" width="1.622" height="4.867" fill="#fff"/>
        </g>
      </g>
      <g id="Group_62" data-name="Group 62" transform="translate(6.483 88.963)">
        <g id="Group_61" data-name="Group 61" transform="translate(0 0)">
          <rect id="Rectangle_37" data-name="Rectangle 37" width="1.622" height="0.811" fill="#fff"/>
        </g>
      </g>
    </g>
  </g>
</svg>
