<svg xmlns="http://www.w3.org/2000/svg" width="55" height="55" viewBox="0 0 55 55">
  <g id="مساج" transform="translate(-30 -26)">
    <rect id="Rectangle_12" data-name="Rectangle 12" width="55" height="55" rx="18" transform="translate(30 26)" fill="#66bb6a"/>
    <g id="massage" transform="translate(43 39)">
      <g id="Group_167" data-name="Group 167" transform="translate(0 0)">
        <path id="Path_220" data-name="Path 220" d="M26.459,15.3H25.6a14.055,14.055,0,0,0-4.135-9.452,2.541,2.541,0,0,0-1.426-.719A3.4,3.4,0,1,0,17.111,6.8h.053L14.515,10.77l-2.794,1.4a2.547,2.547,0,0,0-1.263,3.13H9.349a2.533,2.533,0,0,0-1.161.281,3.4,3.4,0,1,0-6.014,3.147A2.55,2.55,0,0,0,2.55,23.8H3.4v4.363a.85.85,0,0,0,1.7,0V23.8H17.257a2.554,2.554,0,0,0,2.4,1.7H23.91v2.663a.85.85,0,0,0,1.7,0V25.5h.85a2.553,2.553,0,0,0,2.55-2.55v-5.1A2.553,2.553,0,0,0,26.459,15.3ZM17.111,5.1a1.7,1.7,0,1,1,1.7-1.7A1.7,1.7,0,0,1,17.111,5.1Zm-4.63,8.588,3-1.5A.849.849,0,0,0,15.8,11.9l3.149-4.724a.849.849,0,0,1,1.307-.129A12.367,12.367,0,0,1,23.9,15.3H22.2a10.681,10.681,0,0,0-1.685-5.25.85.85,0,0,0-.708-.39H19.8a.85.85,0,0,0-.707.379L16.968,13.22a.852.852,0,0,1-.327.289l-3.4,1.7a.85.85,0,1,1-.761-1.52ZM5.1,15.3A1.7,1.7,0,1,1,3.4,17,1.7,1.7,0,0,1,5.1,15.3Zm12.012,6.8H2.55a.85.85,0,0,1,0-1.7H17.111Zm0-3.4H9.349a.85.85,0,1,1,0-1.7h7.762Zm-.248-3.4.537-.269a2.555,2.555,0,0,0,.982-.867l1.341-2.012a9.022,9.022,0,0,1,.77,3.147H16.863Zm10.446,7.649a.851.851,0,0,1-.85.85h-6.8a.851.851,0,0,1-.85-.85V17h7.649a.851.851,0,0,1,.85.85Z" transform="translate(0 0)"/>
      </g>
    </g>
  </g>
</svg>
