<svg xmlns="http://www.w3.org/2000/svg" width="55" height="55" viewBox="0 0 55 55">
  <g id="ميكانيكي_سيارات" data-name="ميكانيكي سيارات" transform="translate(-15 -220)">
    <rect id="Rectangle_41" data-name="Rectangle 41" width="55" height="55" rx="18" transform="translate(15 220)" fill="#607d8b"/>
    <g id="_030-mechanic" data-name="030-mechanic" transform="translate(26.004 234.383)">
      <g id="Group_77" data-name="Group 77" transform="translate(3.402)">
        <g id="Group_76" data-name="Group 76" transform="translate(0)">
          <path id="Path_13" data-name="Path 13" d="M29.464,23.183a.446.446,0,0,0-.178-.037H25.654V20.475h3.632a.445.445,0,0,0,.408-.623,4.876,4.876,0,0,0-7.155-2.134v-.8h-.89v1.542a4.9,4.9,0,0,0-.8,1.128H17.2v-3.24l2.366-.789a.445.445,0,0,0,.3-.422V13.8h2.226a2.228,2.228,0,0,1,2.226,2.226h.89a3.119,3.119,0,0,0-3.116-3.116H18.978V11.416A4.451,4.451,0,0,0,21.2,7.567V5.341h2.226v-.89H21.2V2.671A2.673,2.673,0,0,0,18.532,0H14.971A2.673,2.673,0,0,0,12.3,2.671v1.78H10.52a.445.445,0,0,0-.445.445V7.567a.445.445,0,0,0,.445.445h.445v2.226a.445.445,0,0,0,.2.37l1.335.89.494-.741L11.856,10V8.012h.468a4.454,4.454,0,0,0,2.2,3.4v1.492H11.411a3.119,3.119,0,0,0-3.116,3.116h.89A2.228,2.228,0,0,1,11.411,13.8h2.226v1.335a.445.445,0,0,0,.3.422l2.366.789v3.24H12.653a4.9,4.9,0,0,0-.8-1.128V16.914h-.89v.8a4.893,4.893,0,1,0,1.687,6.321h8.2a4.892,4.892,0,0,0,8.843-.267A.445.445,0,0,0,29.464,23.183ZM12.3,7.122H10.965V5.341H12.3Zm6.677,7.691-1.135.379.929-1.393h.207Zm-3.561-1.9v-1.1a4.448,4.448,0,0,0,2.671,0v1.1ZM13.191,2.671A1.78,1.78,0,0,1,14.971.89h3.561a1.78,1.78,0,0,1,1.78,1.78v1.78H13.191Zm0,4.9V5.341h7.122V7.567a3.561,3.561,0,0,1-7.122,0Zm1.335,7.246V13.8h.207l.929,1.393ZM15.8,13.8h1.9l-.949,1.424Zm7.185,11.345a4,4,0,0,1-1.448-1.731.445.445,0,0,0-.408-.267H12.372a.445.445,0,0,0-.408.267,4.006,4.006,0,1,1,0-3.2.445.445,0,0,0,.408.267h8.761a.445.445,0,0,0,.408-.267,4,4,0,0,1,7-.623H25.209a.445.445,0,0,0-.445.445v3.561a.445.445,0,0,0,.445.445h3.328A4,4,0,0,1,22.988,25.144Z" transform="translate(-3.402)" fill="#fff"/>
        </g>
      </g>
      <g id="Group_79" data-name="Group 79" transform="translate(5.587 18.695)">
        <g id="Group_78" data-name="Group 78" transform="translate(0)">
          <path id="Path_14" data-name="Path 14" d="M47.836,337.4l-2.226-1.335a.445.445,0,0,0-.458,0L42.926,337.4a.445.445,0,0,0-.216.376l-.037,2.819a.445.445,0,0,0,.238.4l2.263,1.187a.445.445,0,0,0,.436-.013l2.226-1.335a.445.445,0,0,0,.216-.381v-2.671A.445.445,0,0,0,47.836,337.4Zm-.674,2.8-1.8,1.077-1.8-.944.031-2.3,1.784-1.07,1.78,1.068Z" transform="translate(-42.673 -336.002)" fill="#fff"/>
        </g>
      </g>
      <g id="Group_81" data-name="Group 81" transform="translate(12.301 21.366)">
        <g id="Group_80" data-name="Group 80">
          <rect id="Rectangle_42" data-name="Rectangle 42" width="8.902" height="0.89" fill="#fff"/>
        </g>
      </g>
      <g id="Group_83" data-name="Group 83" transform="translate(16.307 6.232)">
        <g id="Group_82" data-name="Group 82" transform="translate(0)">
          <rect id="Rectangle_43" data-name="Rectangle 43" width="0.89" height="2.226" fill="#fff"/>
        </g>
      </g>
      <g id="Group_85" data-name="Group 85" transform="translate(18.087 17.805)">
        <g id="Group_84" data-name="Group 84">
          <rect id="Rectangle_44" data-name="Rectangle 44" width="2.671" height="0.89" fill="#fff"/>
        </g>
      </g>
    </g>
  </g>
</svg>
