<svg xmlns="http://www.w3.org/2000/svg" width="55" height="55" viewBox="0 0 55 55">
  <g id="نادي_نسائي" data-name="نادي نسائي" transform="translate(-95 -26)">
    <rect id="Rectangle_12" data-name="Rectangle 12" width="55" height="55" rx="18" transform="translate(95 26)" fill="#66bb6a"/>
    <g id="woman" transform="translate(90.009 39)">
      <g id="Group_168" data-name="Group 168" transform="translate(19.991 0)">
        <path id="Path_221" data-name="Path 221" d="M46.123,6.29H44.187a.484.484,0,0,0-.484.484v.484a.484.484,0,0,0-.484-.484H41.767a.484.484,0,0,0-.484.452l-.033.516h-.934V6.774a.484.484,0,0,0-.484-.484H37.9a.484.484,0,0,0-.484.484v2.9a.484.484,0,0,0,.484.484h1.936a.484.484,0,0,0,.484-.484V8.709h.871l-.264,3.959a.963.963,0,0,1-.965.88H36.928v-.208a.484.484,0,0,0-.277-.436,7.79,7.79,0,0,0-2.064-.634.481.481,0,0,0-.23.023,4.76,4.76,0,0,0-.816-.172V10.8a4.033,4.033,0,0,0,.416-.245c1.626-1.138,2.971-2.28,2.971-4.739v-.5a5.339,5.339,0,0,0-8.514-4.285,3.867,3.867,0,0,0-4.552,3.8V12.1a.484.484,0,0,0,.484.484,7.172,7.172,0,0,0,4.968-1.987,4.048,4.048,0,0,0,.355.209v1.32a4.759,4.759,0,0,0-.816.17.481.481,0,0,0-.23-.023,7.79,7.79,0,0,0-2.064.634.484.484,0,0,0-.277.436v.016a11.478,11.478,0,0,0-2.9,7.452,11.922,11.922,0,0,0,.456,3.871h-.94v-.968a.484.484,0,0,0-.484-.484H20.475a.484.484,0,0,0-.484.484v2.9a.484.484,0,0,0,.484.484h1.936a.484.484,0,0,0,.484-.484v-.968h2.767a7.4,7.4,0,0,0-.831,3.387H25.8a6.421,6.421,0,0,1,.484-2.426v.007a.484.484,0,0,0,.484.484H28.7a.484.484,0,0,0,.484-.484V24.679h6.059l.279.348a6.436,6.436,0,0,1,1.405,4.007H37.9a7.408,7.408,0,0,0-1.618-4.611l-.37-.463-.186-.557a6.039,6.039,0,0,1,.121-4.147l.027-.068a1.512,1.512,0,0,0,1.057-1.357v-.02l5.245-1.124a1.946,1.946,0,0,0,1.53-1.893V9.677a.484.484,0,0,0,.484.484h1.936a.484.484,0,0,0,.484-.484v-2.9A.484.484,0,0,0,46.123,6.29Zm-6.775,2.9H38.38V7.258h.968ZM21.927,26.131h-.968V24.195h.968Zm3.75-1.656.034.206h-.8c-.276-.385-.561-1.384-.561-3.873a10.735,10.735,0,0,1,1.936-5.95V17.8A17.163,17.163,0,0,0,25.677,24.475ZM31.315.976a4.35,4.35,0,0,1,4.607,3.786L33.273,3.437a.48.48,0,0,0-.3-.044l-5.622.992A4.3,4.3,0,0,1,31.315.976ZM24.83,11.595V4.838a2.906,2.906,0,0,1,2.635-2.89,5.323,5.323,0,0,0-1.184,3.374v.5a4.906,4.906,0,0,0,2.238,4.2A6.207,6.207,0,0,1,24.83,11.595Zm2.42-5.777V5.386l5.734-1.012,2.974,1.487c-.014,1.8-.837,2.7-2.556,3.9a3.145,3.145,0,0,1-3.595,0C28.075,8.551,27.25,7.651,27.25,5.818ZM29.185,13.2a3.687,3.687,0,0,1,.968-.131.484.484,0,0,0,.484-.484V11.169a3.764,3.764,0,0,0,1.936,0v1.412a.484.484,0,0,0,.484.484,3.687,3.687,0,0,1,.968.131v.774l-2.42.52-2.42-.52ZM26.552,23.282a20.305,20.305,0,0,1,.373-4.313,1.979,1.979,0,0,0,.4.215,5.99,5.99,0,0,1,.06,4.043h-.624A.472.472,0,0,0,26.552,23.282Zm1.665,2.849H27.25V24.195h.968Zm.968-2.42a.484.484,0,0,0-.484-.484h-.29a6.957,6.957,0,0,0,0-3.871H34.78a7.01,7.01,0,0,0,.025,4.355Zm6.775-5.88c0,.263-.414.557-.968.557H28.218c-.554,0-.968-.294-.968-.557V13.656a6.712,6.712,0,0,1,.968-.316v1.023a.484.484,0,0,0,.382.473l2.9.625a.476.476,0,0,0,.2,0l2.9-.625a.484.484,0,0,0,.382-.473V13.34a6.712,6.712,0,0,1,.968.316Zm6.01-2.09-5.042,1.08v-2.3h3.029a1.929,1.929,0,0,0,1.929-1.772l.334-5h.515v7.053h0A.973.973,0,0,1,41.97,15.741Zm3.669-6.548h-.968V7.258h.968Z" transform="translate(-19.991 0)"/>
      </g>
    </g>
  </g>
</svg>
