<svg xmlns="http://www.w3.org/2000/svg" width="55" height="55" viewBox="0 0 55 55">
  <g id="نادي_رجالي" data-name="نادي رجالي" transform="translate(-160 -26)">
    <rect id="Rectangle_12" data-name="Rectangle 12" width="55" height="55" rx="18" transform="translate(160 26)" fill="#66bb6a"/>
    <g id="weightlifter" transform="translate(172.598 39)">
      <path id="Path_222" data-name="Path 222" d="M167.059,80.728a2.817,2.817,0,1,1,2.817-2.817A2.82,2.82,0,0,1,167.059,80.728Zm0-4.7a1.878,1.878,0,1,0,1.878,1.878A1.88,1.88,0,0,0,167.059,76.033Zm0,0" transform="translate(-152.571 -69.929)"/>
      <path id="Path_223" data-name="Path 223" d="M236.109,63.213a.47.47,0,0,1-.3-.833.465.465,0,0,0,.108-.128l4.483-8.02a.469.469,0,1,0-.81-.475l-3.931,7.032a.47.47,0,0,1-.82-.459l3.934-7.037a1.409,1.409,0,1,1,2.443,1.4l-4.483,8.019a1.411,1.411,0,0,1-.33.391.469.469,0,0,1-.3.106Zm0,0" transform="translate(-218.26 -48.967)"/>
      <path id="Path_224" data-name="Path 224" d="M42.288,311.28a1.408,1.408,0,0,1-1.006-2.391l5.126-5.4a.47.47,0,0,1,.681.646l-5.13,5.409a.47.47,0,1,0,.668.66l5.177-5.459a.47.47,0,0,1,.681.647L43.3,310.852a1.415,1.415,0,0,1-1.015.428Zm0,0" transform="translate(-37.695 -282.475)"/>
      <path id="Path_225" data-name="Path 225" d="M86.853,63.2a.467.467,0,0,1-.3-.107,1.406,1.406,0,0,1-.323-.382l-4.49-8.031a1.409,1.409,0,0,1,2.443-1.4l3.937,7.042a.47.47,0,0,1-.82.459l-3.934-7.037a.47.47,0,0,0-.81.475l4.489,8.031a.462.462,0,0,0,.1.121.47.47,0,0,1-.3.832Zm0,0" transform="translate(-75.572 -48.961)"/>
      <path id="Path_226" data-name="Path 226" d="M273.68,285.695a1.408,1.408,0,0,1-1.39-1.64l.76-4.559-1.6-.71a.47.47,0,0,1,.381-.858l1.929.858a.469.469,0,0,1,.272.506l-.819,4.917a.469.469,0,1,0,.926.154l.939-5.634a.469.469,0,0,0-.272-.506l-2.892-1.285a.47.47,0,0,1,.382-.858l2.892,1.285a1.409,1.409,0,0,1,.817,1.519l-.939,5.634A1.4,1.4,0,0,1,273.68,285.695Zm0,0" transform="translate(-252.148 -257.053)"/>
      <path id="Path_227" data-name="Path 227" d="M117.391,176.229a.471.471,0,0,1-.32-.126l-2.751-2.558a.47.47,0,0,1,0-.692l2.8-2.535-.448-4.8a1.642,1.642,0,0,1,1.631-1.677h4.246a1.635,1.635,0,0,1,1.633,1.633c0,.016,0,.033,0,.049l-.434,4.182,2.472,1.04a.469.469,0,0,1,.261.588l-1.092,3.124a.47.47,0,0,1-.637.273l-4.127-1.868-2.889,3.212a.471.471,0,0,1-.328.155h-.021Zm-2.056-3.023,2.026,1.884,2.8-3.113a.471.471,0,0,1,.543-.114l3.972,1.8.777-2.223-2.386-1a.47.47,0,0,1-.285-.481l.467-4.5a.7.7,0,0,0-.694-.673H118.31a.7.7,0,0,0-.694.694l.467,4.991a.469.469,0,0,1-.152.392Zm0,0" transform="translate(-105.944 -152.571)"/>
      <path id="Path_228" data-name="Path 228" d="M81.095,55.552H62.313a.47.47,0,0,1,0-.939H81.095a.47.47,0,1,1,0,.939Zm0,0" transform="translate(-57.216 -50.857)"/>
      <path id="Path_229" data-name="Path 229" d="M43.241,8.451H41.833a.469.469,0,0,1-.47-.469V.469a.469.469,0,0,1,.47-.47h1.408a.469.469,0,0,1,.47.47V7.982A.469.469,0,0,1,43.241,8.451ZM42.3,7.512h.47V.939H42.3Zm0,0" transform="translate(-38.144)"/>
      <path id="Path_230" data-name="Path 230" d="M22.761,8.451H21.352a.469.469,0,0,1-.47-.469V.469a.47.47,0,0,1,.47-.47h1.409a.469.469,0,0,1,.469.47V7.982A.469.469,0,0,1,22.761,8.451Zm-.939-.939h.47V.939h-.47Zm0,0" transform="translate(-19.072)"/>
      <path id="Path_231" data-name="Path 231" d="M357.268,8.451H355.86a.469.469,0,0,1-.469-.469V.469A.469.469,0,0,1,355.86,0h1.409a.47.47,0,0,1,.47.47V7.982A.469.469,0,0,1,357.268,8.451Zm-.939-.939h.47V.939h-.47Zm0,0" transform="translate(-330.572)"/>
      <path id="Path_232" data-name="Path 232" d="M336.788,8.451H335.38a.469.469,0,0,1-.469-.469V.469A.469.469,0,0,1,335.38,0h1.409a.47.47,0,0,1,.47.47V7.982A.469.469,0,0,1,336.788,8.451Zm-.939-.939h.47V.939h-.47Zm0,0" transform="translate(-311.501)"/>
      <path id="Path_233" data-name="Path 233" d="M2.281,55.552H.872a.47.47,0,1,1,0-.939H2.281a.47.47,0,0,1,0,.939Zm0,0" transform="translate(0 -50.857)"/>
      <path id="Path_234" data-name="Path 234" d="M377.749,55.552h-1.409a.47.47,0,0,1,0-.939h1.409a.47.47,0,1,1,0,.939Zm0,0" transform="translate(-349.644 -50.857)"/>
    </g>
  </g>
</svg>
