<svg xmlns="http://www.w3.org/2000/svg" width="55" height="55" viewBox="0 0 55 55">
  <g id="ونش_سيارات" data-name="ونش سيارات" transform="translate(-94 -262)">
    <rect id="Rectangle_39" data-name="Rectangle 39" width="55" height="55" rx="18" transform="translate(94 262)" fill="#607d8b"/>
    <g id="_003-tow-truck" data-name="003-tow-truck" transform="translate(105 206.056)">
      <g id="Group_66" data-name="Group 66" transform="translate(5.362 89.103)">
        <g id="Group_65" data-name="Group 65">
          <path id="Path_9" data-name="Path 9" d="M81.608,327.978a1.608,1.608,0,1,0,1.608,1.608A1.608,1.608,0,0,0,81.608,327.978Zm0,2.145a.536.536,0,1,1,.536-.536A.536.536,0,0,1,81.608,330.123Z" transform="translate(-80 -327.978)" fill="#fff"/>
        </g>
      </g>
      <g id="Group_68" data-name="Group 68" transform="translate(23.591 89.103)">
        <g id="Group_67" data-name="Group 67">
          <path id="Path_10" data-name="Path 10" d="M353.608,327.978a1.608,1.608,0,1,0,1.608,1.608A1.608,1.608,0,0,0,353.608,327.978Zm0,2.145a.536.536,0,1,1,.536-.536A.536.536,0,0,1,353.608,330.123Z" transform="translate(-352 -327.978)" fill="#fff"/>
        </g>
      </g>
      <g id="Group_70" data-name="Group 70" transform="translate(8.042 79.988)">
        <g id="Group_69" data-name="Group 69" transform="translate(0 0)">
          <path id="Path_11" data-name="Path 11" d="M124.824,191.978h-2.681a.536.536,0,0,0-.48.3l-1.608,3.217a.536.536,0,0,0,.48.776h4.289a.536.536,0,0,0,.536-.536v-3.217A.536.536,0,0,0,124.824,191.978Zm-.536,3.217H121.4l1.072-2.145h1.813Z" transform="translate(-119.998 -191.978)" fill="#fff"/>
        </g>
      </g>
      <g id="Group_72" data-name="Group 72" transform="translate(0 71.944)">
        <g id="Group_71" data-name="Group 71" transform="translate(0 0)">
          <path id="Path_12" data-name="Path 12" d="M28.585,80.3a1.584,1.584,0,0,0,.879,2.9h1.122a1.585,1.585,0,0,0,1.584-1.584v-.561H31.1v.561a.512.512,0,0,1-.511.511H29.464a.511.511,0,0,1-.284-.937l1.142-.761a.536.536,0,0,0,.239-.446V73.554a1.628,1.628,0,0,0-2.883-1.019l-8,9.685-1.668-3.336a1.608,1.608,0,0,0-.316-3.185H14.476a1.608,1.608,0,0,0-1.608,1.608,1.59,1.59,0,0,0,.1.536H9.572a2.134,2.134,0,0,0-1.918,1.185L5.535,83.265l-3.378.676A2.681,2.681,0,0,0,.026,86.3.5.5,0,0,0,0,86.422v4.289a.536.536,0,0,0,.536.536H3.26a3.748,3.748,0,0,0,7.42,0h9.158a.536.536,0,0,0,.483-.3l1.457-2.92h.8a3.753,3.753,0,1,0,5.307.065l-.065-.065h.8l1.46,2.92a.536.536,0,0,0,.48.3h1.072a.536.536,0,0,0,.536-.536v-5.9a.536.536,0,0,0-.536-.536H23.548l5.94-8.486V79.7Zm-9.079,3.974H17.544l-1.787-5.362h1.069Zm-3.093,0h-.865V81.683ZM1.072,86.958H3.217v1.072H1.072Zm2.45,2.272c-.017.039-.03.079-.046.118-.027.07-.054.139-.077.211-.015.046-.027.092-.04.138-.019.068-.038.136-.054.2-.011.049-.019.1-.028.15s-.018.082-.024.123H1.072V89.1H3.583C3.563,89.145,3.541,89.187,3.523,89.23ZM6.97,93.392a2.681,2.681,0,1,1,2.681-2.681A2.681,2.681,0,0,1,6.97,93.392Zm7.506-8.578v5.362H10.685c-.006-.041-.016-.081-.024-.123s-.018-.1-.028-.151c-.016-.069-.034-.137-.054-.2-.013-.046-.025-.093-.04-.138-.023-.071-.05-.141-.077-.211-.016-.039-.029-.079-.046-.118-.035-.082-.075-.161-.116-.24-.013-.024-.024-.05-.036-.074q-.084-.153-.182-.3c-.01-.015-.021-.028-.032-.043-.056-.08-.114-.161-.176-.234-.024-.029-.05-.056-.075-.085-.051-.059-.1-.117-.157-.173-.031-.031-.063-.06-.095-.09-.054-.049-.1-.1-.161-.145l-.107-.087c-.054-.043-.107-.085-.165-.124-.04-.028-.08-.054-.121-.08-.057-.036-.115-.072-.174-.107-.042-.024-.085-.048-.129-.07-.06-.032-.121-.061-.183-.089-.045-.02-.09-.04-.135-.058-.064-.026-.129-.049-.195-.072-.046-.016-.092-.032-.139-.046-.069-.02-.139-.037-.21-.054-.046-.011-.091-.023-.137-.032-.079-.016-.161-.026-.239-.037-.04,0-.078-.012-.118-.016-.12-.011-.243-.018-.367-.018s-.247.007-.367.019c-.04,0-.079.011-.118.016-.08.011-.161.021-.239.037-.046.009-.091.021-.136.032-.071.017-.141.034-.21.054-.047.014-.093.031-.139.046-.065.023-.131.046-.195.072-.046.018-.091.039-.135.058-.062.028-.123.057-.183.089-.044.023-.086.046-.129.07-.059.034-.117.069-.174.107l-.12.08c-.057.04-.112.082-.166.124-.036.028-.073.057-.107.087-.054.047-.107.1-.161.145-.032.03-.064.059-.095.09l-.005,0V86.422a.536.536,0,0,0-.536-.536H1.233a1.608,1.608,0,0,1,1.132-.892L6,84.267a.536.536,0,0,0,.375-.286l2.236-4.473a1.068,1.068,0,0,1,.956-.592h4.9Zm-.536-7.506a.536.536,0,0,1,.536-.536h3.217a.536.536,0,0,1,0,1.072H14.476A.536.536,0,0,1,13.94,77.307Zm13.94,13.4A2.681,2.681,0,1,1,25.2,88.031,2.681,2.681,0,0,1,27.88,90.711ZM31.1,85.35v4.825h-.2l-1.457-2.92a.536.536,0,0,0-.483-.3H21.446a.536.536,0,0,0-.483.3l-1.457,2.92H15.548V85.35ZM29.388,74.065,22.239,84.277H20.705l-.246-.492-.258-.517L28.5,73.22a.557.557,0,0,1,.987.355v.17A.555.555,0,0,1,29.388,74.065Z" transform="translate(0 -71.944)" fill="#fff"/>
        </g>
      </g>
      <g id="Group_74" data-name="Group 74" transform="translate(11.259 85.35)">
        <g id="Group_73" data-name="Group 73" transform="translate(0 0)">
          <rect id="Rectangle_40" data-name="Rectangle 40" width="2.145" height="1.072" fill="#fff"/>
        </g>
      </g>
    </g>
  </g>
</svg>
